<?xml version="1.0" encoding="utf-8"?>
<!-- Generator: Adobe Illustrator 26.0.3, SVG Export Plug-In . SVG Version: 6.00 Build 0)  -->
<svg version="1.1" id="Layer_1" xmlns="http://www.w3.org/2000/svg" xmlns:xlink="http://www.w3.org/1999/xlink" x="0px" y="0px"
	 viewBox="0 0 208 180" style="enable-background:new 0 0 208 180;" xml:space="preserve">
<style type="text/css">
	.st0{fill:#161615;}
</style>
<g id="Layer_2_00000047759197533872072100000008313367751660266651_">
	<g id="Layer_1-2">
		<path class="st0" d="M82.6,109.1h43.3c0.7,0,1.2,0.5,1.2,1.2c0,0.1,0,0.2,0,0.3l-18.2,68c-0.2,0.6,0.2,1.3,0.8,1.4
			c0.1,0,0.2,0,0.3,0h49.3c0.5,0,1-0.4,1.1-0.9L207.9,1.5c0.2-0.6-0.2-1.3-0.8-1.4c-0.1,0-0.2,0-0.3,0h-49.3c-0.5,0-1,0.4-1.1,0.9
			l-17,63.4c-0.1,0.5-0.6,0.9-1.1,0.9H93.7c-0.5,0-1,0.4-1.1,0.9l-11.1,41.6c-0.2,0.6,0.2,1.3,0.8,1.4
			C82.3,109.1,82.5,109.1,82.6,109.1z"/>
		<path class="st0" d="M69.1,113.8l-17.5,65.4c-0.1,0.5-0.6,0.9-1.1,0.9H1.2c-0.6,0-1.2-0.5-1.2-1.1c0-0.1,0-0.2,0-0.4l17.5-65.3
			c0.1-0.5,0.6-0.9,1.1-0.9H68c0.7,0,1.2,0.5,1.2,1.2C69.2,113.6,69.1,113.7,69.1,113.8z"/>
		<path class="st0" d="M77.5,82.7l-7,26c-0.1,0.5-0.6,0.9-1.1,0.9H20c-0.7,0-1.2-0.5-1.2-1.2c0-0.1,0-0.2,0-0.3l7-26
			c0.1-0.5,0.6-0.8,1.1-0.9h49.3c0.6,0,1.2,0.5,1.2,1.2C77.5,82.4,77.5,82.5,77.5,82.7z"/>
		<path class="st0" d="M83.6,59.9l-4.7,17.7c-0.1,0.5-0.6,0.9-1.1,0.9H28.4c-0.7,0-1.2-0.5-1.2-1.2c0-0.1,0-0.2,0-0.2L32,59.3
			c0.1-0.5,0.6-0.9,1.1-0.9h49.3c0.6,0,1.2,0.5,1.2,1.2C83.6,59.7,83.6,59.8,83.6,59.9z"/>
		<path class="st0" d="M88.2,42.8L84.9,55c-0.1,0.5-0.6,0.9-1.1,0.9H34.5c-0.7,0-1.2-0.5-1.2-1.2c0-0.1,0-0.2,0-0.3l3.4-12.1
			c0.1-0.5,0.6-0.9,1.1-0.9h49.3c0.6,0,1.2,0.5,1.2,1.2C88.3,42.6,88.3,42.7,88.2,42.8z"/>
		<path class="st0" d="M93.6,22l-1.3,4.9c-0.1,0.5-0.6,0.9-1.1,0.9H41.8c-0.7,0-1.2-0.5-1.2-1.2c0-0.1,0-0.2,0-0.3l1.3-4.8
			c0.1-0.5,0.6-0.9,1.1-0.9h49.3c0.6,0,1.2,0.5,1.2,1.2C93.6,21.8,93.6,21.9,93.6,22z"/>
		<path class="st0" d="M96,13.7l-0.9,3.5c-0.1,0.5-0.6,0.9-1.1,0.9H44.7c-0.6,0-1.2-0.5-1.2-1.2c0-0.1,0-0.2,0-0.3l0.9-3.5
			c0.1-0.5,0.6-0.9,1.1-0.9h49.3c0.6,0,1.2,0.5,1.2,1.2C96,13.5,96,13.6,96,13.7z"/>
		<path class="st0" d="M98,6.7l-0.6,2.1c-0.1,0.5-0.6,0.9-1.1,0.9H47c-0.7,0-1.2-0.5-1.2-1.2c0-0.1,0-0.2,0-0.3l0.6-2.1
			c0.1-0.5,0.6-0.9,1.1-0.9h49.3c0.6,0,1.2,0.5,1.2,1.2C98,6.5,98,6.6,98,6.7z"/>
		<path class="st0" d="M99.2,1.5L99.2,1.5c-0.1,0.5-0.6,0.9-1.1,0.9H48.8c-0.6,0-1.2-0.5-1.2-1.2c0-0.1,0-0.2,0-0.3l0,0
			C47.8,0.4,48.2,0,48.8,0h49.3c0.6,0,1.2,0.5,1.2,1.2C99.3,1.3,99.2,1.4,99.2,1.5z"/>
		<path class="st0" d="M91.1,31.8l-1.7,6.4c-0.1,0.5-0.6,0.9-1.1,0.9H39c-0.6,0-1.2-0.5-1.2-1.2c0-0.1,0-0.2,0-0.3l1.7-6.4
			c0.1-0.5,0.6-0.9,1.1-0.9H90c0.7,0,1.2,0.6,1.1,1.2C91.1,31.6,91.1,31.7,91.1,31.8z"/>
	</g>
</g>
</svg>
