<svg xmlns="http://www.w3.org/2000/svg" viewBox="0 0 207.97 180"><defs><style>.cls-1{fill:#fff;}</style></defs><g id="Layer_2" data-name="Layer 2"><g id="Layer_1-2" data-name="Layer 1"><path class="cls-1" d="M82.56,109.07h43.27a1.18,1.18,0,0,1,1.14,1.48l-18.21,68a1.17,1.17,0,0,0,1.13,1.48h49.3a1.18,1.18,0,0,0,1.14-.87L207.93,1.48A1.17,1.17,0,0,0,206.79,0h-49.3a1.18,1.18,0,0,0-1.13.87l-17,63.4a1.17,1.17,0,0,1-1.14.87H93.71a1.18,1.18,0,0,0-1.14.87L81.43,107.59A1.17,1.17,0,0,0,82.56,109.07Z"/><path class="cls-1" d="M69.12,113.77,51.61,179.13a1.19,1.19,0,0,1-1.14.87H1.18A1.17,1.17,0,0,1,0,178.52l17.51-65.35a1.19,1.19,0,0,1,1.14-.88H68A1.18,1.18,0,0,1,69.12,113.77Z"/><path class="cls-1" d="M77.46,82.65l-7,26a1.18,1.18,0,0,1-1.13.87H20.05a1.18,1.18,0,0,1-1.14-1.48l7-26A1.19,1.19,0,0,1,27,81.17H76.32A1.17,1.17,0,0,1,77.46,82.65Z"/><path class="cls-1" d="M83.56,59.88,78.82,77.56a1.17,1.17,0,0,1-1.13.88H28.39A1.18,1.18,0,0,1,27.25,77L32,59.27a1.19,1.19,0,0,1,1.14-.87H82.42A1.17,1.17,0,0,1,83.56,59.88Z"/><path class="cls-1" d="M88.23,42.83,84.88,55a1.18,1.18,0,0,1-1.13.87H34.46a1.18,1.18,0,0,1-1.14-1.49l3.36-12.14a1.18,1.18,0,0,1,1.13-.87H87.1A1.17,1.17,0,0,1,88.23,42.83Z"/><path class="cls-1" d="M93.57,22l-1.3,4.86a1.18,1.18,0,0,1-1.14.87H41.84a1.18,1.18,0,0,1-1.14-1.48L42,21.43a1.19,1.19,0,0,1,1.14-.87h49.3A1.17,1.17,0,0,1,93.57,22Z"/><path class="cls-1" d="M96,13.72l-.92,3.46a1.19,1.19,0,0,1-1.14.87H44.66a1.17,1.17,0,0,1-1.13-1.48l.93-3.46a1.16,1.16,0,0,1,1.13-.87h49.3A1.17,1.17,0,0,1,96,13.72Z"/><path class="cls-1" d="M98,6.71l-.56,2.1a1.16,1.16,0,0,1-1.13.87H47A1.18,1.18,0,0,1,45.86,8.2l.57-2.1a1.18,1.18,0,0,1,1.13-.87h49.3A1.17,1.17,0,0,1,98,6.71Z"/><path class="cls-1" d="M99.21,1.48h0a1.19,1.19,0,0,1-1.14.87H48.78A1.17,1.17,0,0,1,47.64.87h0A1.19,1.19,0,0,1,48.78,0H98.07A1.17,1.17,0,0,1,99.21,1.48Z"/><path class="cls-1" d="M91.1,31.76l-1.72,6.38a1.16,1.16,0,0,1-1.13.87H39a1.17,1.17,0,0,1-1.13-1.48l1.71-6.38a1.16,1.16,0,0,1,1.13-.87H90A1.18,1.18,0,0,1,91.1,31.76Z"/></g></g></svg>