<?xml version="1.0" encoding="utf-8"?>
<!-- Generator: Adobe Illustrator 26.0.3, SVG Export Plug-In . SVG Version: 6.00 Build 0)  -->
<svg version="1.1" id="Layer_1" xmlns="http://www.w3.org/2000/svg" xmlns:xlink="http://www.w3.org/1999/xlink" x="0px" y="0px"
	 viewBox="0 0 295 125" style="enable-background:new 0 0 295 125;" xml:space="preserve">
<style type="text/css">
	.st0{clip-path:url(#SVGID_00000182516922330829768760000016720031940049674418_);}
	.st1{fill:#161615;}
</style>
<g>
	<defs>
		<rect id="SVGID_1_" width="295" height="125"/>
	</defs>
	<clipPath id="SVGID_00000169551494545150594920000013809327613964292532_">
		<use xlink:href="#SVGID_1_"  style="overflow:visible;"/>
	</clipPath>
	<g style="clip-path:url(#SVGID_00000169551494545150594920000013809327613964292532_);">
		<path class="st1" d="M51,63.6c-1.9-1.2-4.1-2.1-6.3-2.5c1.4-0.4,2.8-0.9,4.1-1.5c2.7-1.4,5-3.5,6.7-6.1c1.8-3,2.7-6.4,2.5-9.8
			c0.1-3.7-0.9-7.4-2.9-10.5c-2.1-3.1-5.1-5.5-8.5-7c-4.3-1.8-8.9-2.6-13.6-2.5H0v77h34.1c4.8,0.1,9.5-0.8,13.9-2.6
			c3.6-1.5,6.6-4.1,8.7-7.4c2-3.3,3.1-7.1,3-11c0-3.2-0.8-6.4-2.4-9.2C55.9,67.7,53.7,65.3,51,63.6z M16.6,36.9H30
			c3-0.2,5.9,0.7,8.2,2.5c0.9,0.9,1.7,1.9,2.2,3.1c0.5,1.2,0.7,2.5,0.6,3.8c0.1,1.3-0.1,2.5-0.6,3.7c-0.5,1.2-1.2,2.2-2.2,3.1
			c-2.3,1.7-5.2,2.6-8.1,2.4H16.6V36.9z M39.9,84.9c-2.5,1.8-5.5,2.6-8.6,2.4H16.6V67.7h14.6c3.1-0.2,6.2,0.8,8.7,2.6
			c1,0.9,1.8,2.1,2.4,3.3c0.5,1.3,0.8,2.7,0.7,4c0.1,1.3-0.1,2.7-0.6,4C41.7,82.9,40.9,84,39.9,84.9L39.9,84.9z"/>
		<path class="st1" d="M87.2,23.5c-2-1.7-4.7-2.6-7.3-2.5c-2.6-0.1-5.2,0.8-7.2,2.5c-0.9,0.8-1.6,1.8-2.1,2.9
			c-0.5,1.1-0.7,2.3-0.7,3.5c0,1.2,0.2,2.4,0.7,3.5c0.5,1.1,1.2,2.1,2.1,2.9c2,1.7,4.5,2.7,7.2,2.5c2.7,0.1,5.3-0.8,7.3-2.5
			c0.9-0.8,1.6-1.8,2.1-2.9c0.5-1.1,0.7-2.3,0.7-3.5c0-1.2-0.2-2.4-0.7-3.6C88.8,25.4,88.1,24.4,87.2,23.5z"/>
		<path class="st1" d="M88.1,45.3H71.6v55.5h16.6V45.3z"/>
		<path class="st1" d="M145.3,58.5V45.3H99.4V59h27L99.1,87.6v13.2h46.8V87.1h-28.1L145.3,58.5z"/>
		<path class="st1" d="M204.1,70.9c0.1,3-0.5,6-1.8,8.8c-1.1,2.3-2.9,4.2-5.1,5.5c-2.6,1.3-5.4,1.9-8.2,1.8
			c-2.8,0.1-5.6-0.5-8.1-1.8c-2.2-1.2-4-3.1-5.1-5.5c-1.2-2.8-1.8-5.8-1.7-8.8V23.8h-16.6v47c-0.2,6.1,1.2,12.1,4.1,17.5
			c2.6,4.5,6.6,8.1,11.3,10.4c4.9,2.4,10.4,3.5,15.8,3.5c5.5,0.1,11-1.1,16-3.5c4.8-2.3,8.8-5.9,11.6-10.4
			c3.1-5.3,4.6-11.4,4.4-17.5v-8.3h-16.6V70.9z"/>
		<path class="st1" d="M291.5,58.3c-2.2-4.2-5.5-7.8-9.4-10.4c-4.1-2.6-8.8-3.9-13.6-3.9c-2.6,0-5.2,0.3-7.7,1.2
			c-2,0.7-3.9,1.7-5.6,3.1c-1.5,1.3-2.9,2.7-4.1,4.3l-1.9-7.3h-14.7V125h16.6V94.2c1.9,2.5,4.4,4.5,7.2,5.8
			c3.2,1.5,6.7,2.2,10.3,2.1c4.7,0.1,9.4-1.2,13.4-3.7c4-2.5,7.3-6.1,9.6-10.3c2.4-4.6,3.7-9.7,3.6-14.9
			C295.1,68,293.9,62.9,291.5,58.3z M276.3,80.8c-1.1,2.1-2.8,3.9-4.9,5.1c-2.2,1.2-4.6,1.9-7.1,1.8c-2.5,0-5-0.6-7.2-1.8
			c-2.1-1.2-3.8-3-4.9-5.2c-1.2-2.4-1.8-5-1.8-7.6c0-2.6,0.6-5.2,1.8-7.5c1.2-2.2,2.9-4,5-5.3c2.1-1.3,4.6-2,7.1-2s4.9,0.7,7.1,2
			c2.1,1.3,3.9,3.1,5,5.3c1.2,2.4,1.8,5,1.8,7.6C278.1,75.8,277.5,78.4,276.3,80.8z"/>
		<path class="st1" d="M220.7,55.5v-39V0h-63.2v16.5h46.6v39H220.7z"/>
	</g>
</g>
</svg>
