<?xml version="1.0" encoding="utf-8"?>
<!-- Generator: Adobe Illustrator 26.0.3, SVG Export Plug-In . SVG Version: 6.00 Build 0)  -->
<svg version="1.1" id="Layer_1" xmlns="http://www.w3.org/2000/svg" xmlns:xlink="http://www.w3.org/1999/xlink" x="0px" y="0px"
	 viewBox="0 0 320 62.4" style="enable-background:new 0 0 320 62.4;" xml:space="preserve">
<style type="text/css">
	.st0{fill:#161615;}
</style>
<g id="Layer_2_00000159428462030339583790000014901288649525890717_">
	<g id="Layer_1-2">
		<g id="Layer_2-2">
			<g id="Layer_1-2-2">
				<path class="st0" d="M38.5,28.5c-0.9-2.6-2.4-5-4.3-7c-2.2-2.3-5-4-8-4.9c-3.8-1.2-7.8-1.8-11.9-1.7H0v45.8h13.5
					c8.7,0,15.3-2.2,19.7-6.5s6.6-10,6.6-17C39.9,34.2,39.4,31.3,38.5,28.5 M26.5,47.9c-2.6,2.6-6.8,3.9-12.4,3.9H9V23.5h5.1
					c10.9,0,16.2,4.4,16.2,13.6C30.4,41.7,29,45.3,26.5,47.9"/>
				<polygon class="st0" points="312.7,3.2 303,3.1 298.8,11.8 307.1,11.8 				"/>
				<polygon class="st0" points="294.4,51.7 294.4,41.6 317.8,41.6 317.8,33.1 294.4,33.1 294.4,23.6 319.4,23.6 319.4,14.9 
					285.2,14.9 285.2,60.4 320,60.4 320,51.7 				"/>
				<polygon class="st0" points="132.1,43.3 109.3,15 109.2,14.9 102,14.9 102,60.4 111,60.4 111,32 134.1,60.4 141.1,60.4 
					141.1,14.9 132.1,14.9 				"/>
				<path class="st0" d="M183.2,46.8c-3,3.4-7.4,5.3-11.9,5.2c-3.9,0.2-7.6-1.3-10.4-3.9c-2.7-2.8-4.2-6.6-4-10.4
					c0-4.4,1.3-7.9,3.8-10.5c2.7-2.7,6.5-4.1,10.3-3.9c4.2-0.1,8.2,1.5,11,4.6l0.8,0.9l6.1-5.8l-0.6-0.8c-1.8-2.4-4.3-4.3-7.1-5.5
					c-3.4-1.5-7-2.2-10.7-2.2c-6.9,0-12.6,2.2-16.8,6.7c-4.3,4.4-6.6,10.4-6.4,16.6c0,7,2.1,12.7,6.3,16.9s10,6.3,17,6.3
					c3.7,0,7.4-0.7,10.7-2.2c3-1.3,5.6-3.4,7.6-6l0.6-0.8l-5.5-6L183.2,46.8z"/>
				<path class="st0" d="M211.7,14.9l-20,45.5h9.6l4.2-9.7h19l4.2,9.7h9.7l-20-45.5L211.7,14.9z M221,42.5h-12l6-13.8L221,42.5z"/>
				<polygon class="st0" points="243.9,60.4 253.1,60.4 253.1,43.2 276.1,43.2 276.1,34.5 253.1,34.5 253.1,23.6 277.8,23.6 
					277.8,14.9 243.9,14.9 				"/>
				<path class="st0" d="M96,31.8c-0.7-3.1-2-6-3.8-8.7c-4-5.8-10.3-9.7-17.2-10.8l-1.7-0.2c-1-1.7-1.2-3.8-0.7-5.7
					c0.4-1.1,0.9-2.1,1.6-3L74.5,3c0.4-0.6,0.3-1.4-0.1-1.9L73.4,0l-0.5,0.2l-0.8,0.2c-2.4,0.8-4.6,2.2-6.3,4.1
					c-1.5,1.6-2.4,3.8-2.6,6c-0.1,2.2,0.5,4.4,1.9,6.2l0.6,0.9c1.1,1.6,2,3.3,2.6,5.1c0.2,0.6,0.3,1.2,0.4,1.9
					c-0.2,2.1-1.2,4-2.7,5.4c-0.4,0.4-0.5,1.1-0.2,1.6l0.7,1l1.2-0.3c2.2-0.4,4.2-1.3,6-2.6c0.3-0.3,0.6-0.5,0.9-0.8
					c0.3-0.3,0.5-0.6,0.8-0.9c0.2-0.3,0.4-0.7,0.6-1.1c0.2-0.4,0.3-0.8,0.4-1.1c0.1-0.4,0.2-0.8,0.3-1.2c0.1-0.5,0.2-0.9,0.3-1.4
					c0-0.5,0-1,0-1.4v-0.4c0-0.1,0-0.3-0.1-0.4c0.3,0.1,0.6,0.1,0.9,0.2l0.7,0.2c0.5,0.2,0.9,0.3,1.3,0.5s0.8,0.4,1.3,0.6
					s0.8,0.5,1.1,0.7s0.7,0.5,1.1,0.8c0.3,0.2,0.6,0.5,0.9,0.8c0.3,0.3,0.5,0.6,0.8,0.9c0.2,0.3,0.4,0.6,0.6,0.9
					c0.2,0.3,0.4,0.6,0.5,1c0.1,0.3,0.3,0.7,0.4,1c0.1,0.3,0.2,0.7,0.2,1c0,0.3,0.1,0.7,0.1,1c0,2.8-1.7,5.4-4.8,7.4
					c-3.5,2.1-7.5,3.1-11.6,3c-0.5,0-0.9,0-1.4,0c-1.9-0.2-3.8-0.6-5.7-1.2c-1.4-0.5-2.7-1.1-3.9-1.9c-2.9-2-4.5-4.5-4.5-7.3
					c0-2.9,2.2-5.2,4.5-7.2c3.2-2.8,1.9-6.6,1.2-8.1l-0.4-0.7l-0.7,0.4C50.7,18.7,45,27.5,44.9,37.2c0,4.7,1.4,9.3,3.9,13.3
					c4.6,7.5,12.8,12,21.6,12h1.9l1.1-0.1l0.5-0.1l0.7-0.1c0.3,0,0.6-0.1,0.8-0.1c0.6-0.1,1.2-0.2,1.7-0.4l0.2-0.1l0.6-0.2
					c0.6-0.2,1-0.3,1.6-0.5l0.3-0.1c0.2-0.1,0.5-0.2,0.7-0.3c0.3-0.1,0.6-0.2,0.8-0.4l0.4-0.2c0.5-0.2,0.8-0.4,1.2-0.6l0.2-0.1
					c2.9-1.5,5.5-3.6,7.6-6.1C95.8,47.4,97.7,39.4,96,31.8 M86.4,43.8c-2.6,6.6-8.9,10.9-16,10.7c-0.4,0-0.9,0-1.3-0.1
					c-6.6-0.5-12.3-4.8-14.5-11.1l-0.3-1.2l0.8,0.7c4.3,3.8,9.8,5.9,15.6,5.8c1.1,0,2.1-0.1,3.2-0.2c4.5-0.4,8.7-2.2,12.2-5.1
					l0.8-0.8L86.4,43.8"/>
			</g>
		</g>
	</g>
</g>
</svg>
