<?xml version="1.0" encoding="utf-8"?>
<!-- Generator: Adobe Illustrator 26.0.3, SVG Export Plug-In . SVG Version: 6.00 Build 0)  -->
<svg version="1.1" id="Layer_1" xmlns="http://www.w3.org/2000/svg" xmlns:xlink="http://www.w3.org/1999/xlink" x="0px" y="0px"
	 viewBox="0 0 229.5 44.8" style="enable-background:new 0 0 229.5 44.8;" xml:space="preserve">
<style type="text/css">
	.st0{fill:#161615;}
</style>
<g id="Layer_2_00000122713072850314142820000012133589385432204176_">
	<g id="Layer_1-2">
		<g id="Layer_2-2">
			<g id="Layer_1-2-2">
				<path class="st0" d="M27.6,20.4c-0.7-1.9-1.7-3.6-3.1-5.1c-1.6-1.6-3.6-2.9-5.8-3.6c-2.7-0.9-5.6-1.3-8.5-1.2H0v32.8h9.7
					c6.2,0,11-1.6,14.1-4.7c3.2-3.2,4.9-7.6,4.8-12.2C28.6,24.5,28.2,22.4,27.6,20.4 M19,34.3c-1.9,1.9-4.9,2.8-8.9,2.8H6.5V16.8
					h3.7c7.8,0,11.6,3.2,11.6,9.8C22,29.4,21,32.3,19,34.3"/>
				<polygon class="st0" points="224.2,2.3 217.3,2.2 214.2,8.5 220.2,8.5 				"/>
				<polygon class="st0" points="211.1,37 211.1,29.8 227.9,29.8 227.9,23.7 211.1,23.7 211.1,17 229,17 229,10.7 204.5,10.7 
					204.5,43.3 229.5,43.3 229.5,37 				"/>
				<polygon class="st0" points="94.7,31.1 78.4,10.8 78.3,10.7 73.2,10.7 73.2,43.3 79.6,43.3 79.6,23 96.1,43.3 101.2,43.3 
					101.2,10.7 94.7,10.7 				"/>
				<path class="st0" d="M131.3,33.6c-2.1,2.5-5.3,3.8-8.6,3.7c-2.8,0.1-5.5-0.9-7.5-2.8c-2-2-3-4.7-2.9-7.5
					c-0.1-2.8,0.9-5.5,2.8-7.5c2-1.9,4.6-2.9,7.4-2.8c3-0.1,5.9,1.1,7.9,3.3l0.6,0.6l4.4-4.2l-0.4-0.6c-1.3-1.7-3.1-3.1-5.1-4
					c-2.4-1.1-5-1.6-7.7-1.6c-4.5-0.2-8.9,1.6-12.1,4.8c-3.1,3.2-4.8,7.5-4.6,11.9c0,5,1.5,9.1,4.5,12.1s7.1,4.5,12.2,4.5
					c2.7,0,5.3-0.6,7.7-1.7c2.2-0.9,4-2.4,5.4-4.3l0.4-0.5l-3.9-4.3L131.3,33.6z"/>
				<path class="st0" d="M151.8,10.7l-14.3,32.6h6.9l3-7H161l3,7h7l-14.3-32.6H151.8z M158.5,30.5h-8.6l4.3-9.9L158.5,30.5z"/>
				<polygon class="st0" points="174.8,43.3 181.4,43.3 181.4,31 198,31 198,24.7 181.4,24.7 181.4,17 199.2,17 199.2,10.7 
					174.8,10.7 				"/>
				<path class="st0" d="M68.8,22.8c-0.5-2.2-1.4-4.3-2.7-6.2c-2.9-4.2-7.4-7-12.4-7.8l-1.2-0.2c-0.7-1.2-0.9-2.7-0.5-4
					c0.3-0.8,0.7-1.5,1.1-2.2l0.2-0.3c0.3-0.4,0.2-1-0.1-1.4L52.7,0l-0.4,0.1l-0.6,0.2c-1.7,0.6-3.3,1.6-4.5,2.9
					c-1.1,1.2-1.7,2.7-1.9,4.3c-0.1,1.6,0.4,3.2,1.3,4.4l0.5,0.7c0.8,1.1,1.4,2.3,1.9,3.6c0.1,0.4,0.2,0.9,0.3,1.3
					c-0.1,1.5-0.8,2.9-1.9,3.9c-0.3,0.3-0.4,0.8-0.1,1.2l0.5,0.7l0.9-0.2c1.6-0.3,3-1,4.3-1.9c0.2-0.2,0.4-0.4,0.6-0.6
					c0.2-0.2,0.4-0.4,0.5-0.7c0.2-0.2,0.3-0.5,0.4-0.8c0.1-0.3,0.2-0.5,0.3-0.8c0.1-0.3,0.2-0.6,0.2-0.9c0.1-0.3,0.1-0.7,0.1-1
					c0-0.3,0-0.7,0-1v-0.3c0-0.1,0-0.2-0.1-0.3l0.6,0.2l0.5,0.2c0.3,0.1,0.7,0.2,1,0.4s0.6,0.3,0.9,0.4c0.3,0.2,0.5,0.3,0.8,0.5
					s0.5,0.4,0.8,0.5c0.2,0.2,0.4,0.4,0.7,0.6c0.2,0.2,0.4,0.4,0.6,0.6c0.2,0.2,0.3,0.4,0.5,0.6c0.1,0.2,0.3,0.4,0.4,0.7
					c0.1,0.2,0.2,0.5,0.3,0.7c0.1,0.2,0.1,0.5,0.2,0.8c0,0.2,0,0.5,0,0.7c0,2-1.2,3.9-3.4,5.3c-2.5,1.5-5.4,2.2-8.3,2.1
					c-0.3,0-0.7,0-1,0c-1.4-0.1-2.7-0.4-4.1-0.9c-1-0.3-1.9-0.8-2.8-1.4c-2.1-1.4-3.3-3.3-3.3-5.2s1.6-3.7,3.2-5.2
					c2.3-2,1.4-4.7,0.8-5.8l-0.3-0.5l-0.5,0.2c-6.3,3-10.4,9.3-10.4,16.2c0,3.4,1,6.7,2.8,9.5c3.3,5.3,9.2,8.6,15.5,8.6h1.4l0.8-0.1
					l0.3,0l0.5-0.1c0.2,0,0.4,0,0.6-0.1c0.5-0.1,0.9-0.2,1.2-0.3h0.2l0.4-0.1c0.4-0.1,0.8-0.2,1.1-0.4l0.2-0.1
					c0.2-0.1,0.3-0.1,0.5-0.2l0.6-0.3l0.3-0.1c0.3-0.1,0.6-0.3,0.9-0.4l0.1-0.1c2.1-1.1,3.9-2.6,5.4-4.4C68.6,34,70,28.2,68.8,22.8
					 M62,31.4c-1.8,4.7-6.4,7.8-11.4,7.7c-0.3,0-0.6,0-0.9,0c-4.8-0.4-8.9-3.5-10.4-8c-0.1-0.2-0.2-0.9-0.2-0.9l0.6,0.5
					c3.1,2.7,7.1,4.2,11.2,4.2c0.8,0,1.5,0,2.3-0.1c3.2-0.3,6.3-1.6,8.8-3.7l0.6-0.5L62,31.4"/>
			</g>
		</g>
	</g>
</g>
</svg>
