<svg xmlns="http://www.w3.org/2000/svg" viewBox="0 0 320.05 62.44"><defs><style>.cls-1{fill:#fff;}</style></defs><g id="Layer_2" data-name="Layer 2"><g id="Layer_1-2" data-name="Layer 1"><g id="Layer_2-2" data-name="Layer 2"><g id="Layer_1-2-2" data-name="Layer 1-2"><path class="cls-1" d="M38.47,28.51a20.43,20.43,0,0,0-4.28-7,19.34,19.34,0,0,0-8-4.95,36.36,36.36,0,0,0-11.85-1.73H0V60.6H13.47c8.71,0,15.35-2.2,19.74-6.51s6.62-10,6.62-17a25.64,25.64,0,0,0-1.36-8.6m-12,19.4c-2.63,2.61-6.81,3.93-12.43,3.93h-5V23.46h5.09c10.93,0,16.24,4.44,16.24,13.61,0,4.59-1.32,8.24-3.94,10.84"/><polygon class="cls-1" points="312.66 3.18 303.05 3.06 298.81 11.81 307.13 11.79 312.66 3.18"/><polygon class="cls-1" points="294.39 51.65 294.39 41.6 317.79 41.6 317.79 33.08 294.39 33.08 294.39 23.65 319.43 23.65 319.43 14.89 285.19 14.89 285.19 60.41 320.05 60.41 320.05 51.65 294.39 51.65"/><polygon class="cls-1" points="132.14 43.35 109.31 15.02 109.2 14.89 102.03 14.89 102.03 60.41 111.04 60.41 111.04 32.03 134.06 60.41 141.15 60.41 141.15 14.89 132.14 14.89 132.14 43.35"/><path class="cls-1" d="M183.19,46.81A15.14,15.14,0,0,1,171.25,52a14.29,14.29,0,0,1-10.44-3.94,14.06,14.06,0,0,1-4-10.43c0-4.36,1.29-7.89,3.84-10.48a13.82,13.82,0,0,1,10.28-3.89,14.38,14.38,0,0,1,11,4.57l.79.85,6.11-5.82-.58-.81a17.51,17.51,0,0,0-7.05-5.52,25.65,25.65,0,0,0-10.68-2.17c-6.9,0-12.56,2.25-16.83,6.68a23,23,0,0,0-6.44,16.59c0,7,2.11,12.67,6.33,16.89s10,6.33,17,6.33a25.75,25.75,0,0,0,10.73-2.23,19,19,0,0,0,7.59-6l.56-.75L184,45.84Z"/><path class="cls-1" d="M211.74,14.89l-20,45.52h9.61l4.23-9.72h19l4.22,9.72h9.74l-20-45.52ZM221,42.55H209l6-13.84Z"/><polygon class="cls-1" points="243.86 60.41 253.06 60.41 253.06 43.22 276.14 43.22 276.14 34.46 253.06 34.46 253.06 23.65 277.78 23.65 277.78 14.89 243.86 14.89 243.86 60.41"/><path class="cls-1" d="M96,31.78a24.82,24.82,0,0,0-3.77-8.66A26,26,0,0,0,75,12.32l-1.69-.22a7.29,7.29,0,0,1-.67-5.65,12.38,12.38,0,0,1,1.6-3L74.49,3a1.61,1.61,0,0,0-.13-1.9L73.45,0,72.9.17l-.78.25a16,16,0,0,0-6.34,4.06,9.77,9.77,0,0,0-2.59,6,9.07,9.07,0,0,0,1.88,6.16l.63.94a22.32,22.32,0,0,1,2.63,5.06,8.37,8.37,0,0,1,.4,1.85A8.2,8.2,0,0,1,66,29.85a1.3,1.3,0,0,0-.18,1.64l.68,1,1.25-.26a15.52,15.52,0,0,0,6-2.63,11.28,11.28,0,0,0,.89-.8,8.36,8.36,0,0,0,.75-.92,10,10,0,0,0,.6-1.06,10.52,10.52,0,0,0,.44-1.15,8.62,8.62,0,0,0,.3-1.24A8.83,8.83,0,0,0,77,23a11.53,11.53,0,0,0,0-1.44v-.4a1.43,1.43,0,0,0-.08-.37c.3.06.58.13.87.21l.7.23c.47.16.91.34,1.35.54s.85.39,1.26.61.77.45,1.14.69.7.49,1.06.75a9.87,9.87,0,0,1,.9.8,10.73,10.73,0,0,1,.79.86c.23.29.44.58.64.89a9.7,9.7,0,0,1,.51.95,6.93,6.93,0,0,1,.37,1,9.32,9.32,0,0,1,.22,1,7.89,7.89,0,0,1,.06,1c0,2.79-1.71,5.42-4.78,7.39a21.16,21.16,0,0,1-11.61,3A9.65,9.65,0,0,1,69,40.71a22.94,22.94,0,0,1-5.67-1.21,16.39,16.39,0,0,1-3.91-1.94c-2.94-2-4.55-4.55-4.54-7.3,0-2.92,2.17-5.21,4.52-7.24,3.25-2.83,1.9-6.61,1.17-8.11l-.4-.71-.71.35A25.34,25.34,0,0,0,44.91,37.19a24.6,24.6,0,0,0,3.9,13.26,25.43,25.43,0,0,0,21.6,12h1.91l1.05-.08.49-.07.69-.1a4.35,4.35,0,0,0,.85-.12c.63-.11,1.22-.25,1.7-.36l.24-.06.6-.15c.57-.16,1-.34,1.57-.51l.27-.09a5.89,5.89,0,0,0,.7-.26,8.5,8.5,0,0,0,.82-.36l.43-.19c.46-.2.84-.38,1.22-.58l.18-.09a25.74,25.74,0,0,0,7.58-6.06A24.94,24.94,0,0,0,96,31.78m-9.58,12a16.87,16.87,0,0,1-16,10.74,9.65,9.65,0,0,1-1.29-.06A16.71,16.71,0,0,1,54.6,43.35l-.35-1.2.83.71a23.4,23.4,0,0,0,15.56,5.85,27.94,27.94,0,0,0,3.17-.18A22.48,22.48,0,0,0,86,43.4l.78-.77-.41,1.18"/></g></g></g></g></svg>