<svg xmlns="http://www.w3.org/2000/svg" viewBox="0 0 229.47 44.77"><defs><style>.cls-1{fill:#fff;}</style></defs><g id="Layer_2" data-name="Layer 2"><g id="Layer_1-2" data-name="Layer 1"><g id="Layer_2-2" data-name="Layer 2"><g id="Layer_1-2-2" data-name="Layer 1-2"><path class="cls-1" d="M27.58,20.44a14.56,14.56,0,0,0-3.07-5.05,13.82,13.82,0,0,0-5.75-3.55,26.1,26.1,0,0,0-8.5-1.24H0V43.45H9.66c6.24,0,11-1.58,14.15-4.67a16.4,16.4,0,0,0,4.75-12.17,18.2,18.2,0,0,0-1-6.17M19,34.35c-1.88,1.87-4.88,2.82-8.91,2.82H6.52V16.82h3.65c7.83,0,11.64,3.19,11.64,9.76A10.49,10.49,0,0,1,19,34.35"/><polygon class="cls-1" points="224.17 2.28 217.28 2.19 214.24 8.47 220.2 8.46 224.17 2.28"/><polygon class="cls-1" points="211.07 37.03 211.07 29.82 227.85 29.82 227.85 23.71 211.07 23.71 211.07 16.95 229.02 16.95 229.02 10.67 204.47 10.67 204.47 43.31 229.47 43.31 229.47 37.03 211.07 37.03"/><polygon class="cls-1" points="94.74 31.08 78.37 10.77 78.29 10.67 73.15 10.67 73.15 43.31 79.61 43.31 79.61 22.97 96.12 43.31 101.2 43.31 101.2 10.67 94.74 10.67 94.74 31.08"/><path class="cls-1" d="M131.34,33.56a10.85,10.85,0,0,1-8.56,3.73,10.19,10.19,0,0,1-7.48-2.82A10,10,0,0,1,112.44,27a10.29,10.29,0,0,1,2.75-7.51,9.89,9.89,0,0,1,7.37-2.79A10.27,10.27,0,0,1,130.47,20l.57.6,4.38-4.17-.41-.58a12.65,12.65,0,0,0-5.06-4,18.18,18.18,0,0,0-7.66-1.56,16,16,0,0,0-12.06,4.79A16.45,16.45,0,0,0,105.61,27c0,5,1.51,9.09,4.54,12.11s7.13,4.55,12.21,4.55A18.52,18.52,0,0,0,130.05,42a13.51,13.51,0,0,0,5.44-4.29l.4-.54-3.95-4.34Z"/><path class="cls-1" d="M151.81,10.67,137.49,43.31h6.9l3-7H161l3,7h7L156.69,10.67Zm6.67,19.83h-8.61l4.27-9.92Z"/><polygon class="cls-1" points="174.84 43.31 181.44 43.31 181.44 30.99 197.99 30.99 197.99 24.71 181.44 24.71 181.44 16.95 199.16 16.95 199.16 10.67 174.84 10.67 174.84 43.31"/><path class="cls-1" d="M68.82,22.78a17.62,17.62,0,0,0-2.7-6.2A18.63,18.63,0,0,0,53.74,8.83l-1.21-.16a5.26,5.26,0,0,1-.48-4A9,9,0,0,1,53.2,2.45l.21-.33a1.14,1.14,0,0,0-.1-1.36L52.66,0l-.39.12L51.71.3a11.54,11.54,0,0,0-4.55,2.91A7,7,0,0,0,45.3,7.49a6.56,6.56,0,0,0,1.35,4.41l.45.67A15.74,15.74,0,0,1,49,16.21a6.62,6.62,0,0,1,.29,1.32,5.9,5.9,0,0,1-1.93,3.87.94.94,0,0,0-.13,1.18l.49.69.89-.19a11,11,0,0,0,4.34-1.89,6.86,6.86,0,0,0,.64-.57,6.66,6.66,0,0,0,.53-.66,5.7,5.7,0,0,0,.43-.76,6.32,6.32,0,0,0,.32-.82,4.6,4.6,0,0,0,.21-.89,6.4,6.4,0,0,0,.11-1,8.85,8.85,0,0,0,0-1V15.2a1.18,1.18,0,0,0-.06-.27l.62.16.51.16c.33.12.65.24,1,.39s.6.28.9.44.55.32.82.49.49.35.75.54a5.89,5.89,0,0,1,.65.57,6.53,6.53,0,0,1,.56.62,5.75,5.75,0,0,1,.46.64,6.42,6.42,0,0,1,.37.68,4.54,4.54,0,0,1,.26.7,5.14,5.14,0,0,1,.16.76,5.36,5.36,0,0,1,.05.7c0,2-1.23,3.88-3.43,5.3a15.22,15.22,0,0,1-8.33,2.15,7.32,7.32,0,0,1-1,0,16.52,16.52,0,0,1-4.06-.87,11.68,11.68,0,0,1-2.81-1.39c-2.11-1.41-3.26-3.26-3.26-5.24S40.91,18,42.59,16.5c2.33-2,1.37-4.74.84-5.81l-.28-.51-.51.25A18.16,18.16,0,0,0,32.2,26.67,17.74,17.74,0,0,0,35,36.17a18.25,18.25,0,0,0,15.49,8.6h1.37l.76-.06.35-.05.49-.07a2.89,2.89,0,0,0,.61-.09c.45-.08.87-.17,1.22-.26l.17,0,.43-.11c.41-.11.75-.24,1.13-.36l.19-.07a5,5,0,0,0,.5-.18l.59-.26.3-.14c.34-.14.61-.27.88-.41l.13-.07A18.46,18.46,0,0,0,65,38.26a17.88,17.88,0,0,0,3.78-15.48M62,31.41a12.11,12.11,0,0,1-11.44,7.7,7.55,7.55,0,0,1-.93,0,12,12,0,0,1-10.44-8c-.07-.21-.25-.86-.25-.86l.59.51a16.79,16.79,0,0,0,11.16,4.2,21.59,21.59,0,0,0,2.27-.13,16.18,16.18,0,0,0,8.77-3.68l.56-.55-.29.84"/></g></g></g></g></svg>