<?xml version="1.0" encoding="utf-8"?>
<!-- Generator: Adobe Illustrator 26.0.3, SVG Export Plug-In . SVG Version: 6.00 Build 0)  -->
<svg version="1.1" id="Layer_1" xmlns="http://www.w3.org/2000/svg" xmlns:xlink="http://www.w3.org/1999/xlink" x="0px" y="0px"
	 viewBox="0 0 304.9 143.8" style="enable-background:new 0 0 304.9 143.8;" xml:space="preserve">
<style type="text/css">
	.st0{fill:#161615;}
</style>
<g id="Layer_2_00000058548885620929253820000004632665090104979873_">
	<g id="Layer_1-2">
		<g id="LOGO_negative">
			<path class="st0" d="M124,86.5v-1c-0.8,0.9-2,1.3-3.2,1.2c-1.6,0-2.4-0.3-3.1-1c-0.5-0.5-0.8-1.3-0.8-2c0-1.9,1.4-3,3.6-3h3.4
				v-1.2c0-1.7-0.8-2.6-2.9-2.6c-1.1-0.1-2.2,0.4-2.9,1.3l-0.8-0.7c0.9-1.2,2.3-1.8,3.7-1.6c2.8,0,4,1.2,4,3.4v7.1H124z M124,81.5
				h-3.2c-1.8,0-2.7,0.7-2.7,2.1s0.8,2,2.7,2c0.9,0.1,1.9-0.2,2.6-0.8c0.5-0.6,0.7-1.3,0.6-2V81.5z"/>
			<path class="st0" d="M139.2,86.5c-1.7,0-2.5-1.1-2.5-2.7V71.1h1.1v12.7c0,1.2,0.4,1.8,1.6,1.8h0.8v1L139.2,86.5z"/>
			<path class="st0" d="M150.8,81.5c0,2.7,1.2,4.1,3.4,4.1c1.1,0,2.2-0.4,2.9-1.2l0.8,0.7c-0.9,1.1-2.3,1.7-3.8,1.6
				c-2.9,0-4.4-1.9-4.4-5.3s1.6-5.3,4.2-5.3s4.1,1.9,4.1,5.1v0.5L150.8,81.5z M156.6,78.6c-0.5-1.1-1.5-1.8-2.7-1.8
				c-1.2,0-2.2,0.7-2.7,1.8c-0.3,0.6-0.4,1.3-0.4,2h6.1C157,80,156.8,79.3,156.6,78.6z"/>
			<path class="st0" d="M176.2,86.5l-3.6-5.7l-2.4,2.8v3h-1.1V71.1h1.1v10.8l5.2-5.9h1.4l-3.4,3.9l4.2,6.5L176.2,86.5z"/>
			<path class="st0" d="M190.6,86.6c-1.5,0.1-3.1-0.4-4.2-1.5l0.8-0.8c0.9,0.9,2.1,1.4,3.4,1.3c2,0,3.1-0.7,3.1-2.1
				c0-1.1-0.6-1.6-2-1.8l-1.7-0.1c-2.1-0.2-3.1-1.1-3.1-2.7c0-1.8,1.5-3,3.7-3c1.3,0,2.6,0.4,3.6,1.1l-0.7,0.7
				c-0.9-0.6-1.9-0.9-2.9-0.9c-1.7,0-2.7,0.7-2.7,2c0,1.1,0.6,1.6,2.1,1.8l1.7,0.2c1.7,0.2,3,0.7,3,2.7S193.2,86.6,190.6,86.6z"/>
			<path class="st0" d="M211.8,86.5v-1c-0.8,0.9-2,1.3-3.2,1.2c-1.1,0.1-2.2-0.2-3.1-1c-0.5-0.5-0.8-1.3-0.8-2c0-1.9,1.4-3,3.6-3
				h3.4v-1.2c0-1.7-0.8-2.6-2.9-2.6c-1.1-0.1-2.2,0.4-2.9,1.3l-0.8-0.7c0.8-1.2,2.2-1.8,3.7-1.6c2.8,0,4,1.2,4,3.4v7.1H211.8z
				 M211.8,81.5h-3.2c-1.8,0-2.7,0.7-2.7,2.1s0.8,2,2.7,2c0.9,0.1,1.9-0.2,2.6-0.8c0.5-0.6,0.7-1.3,0.6-2V81.5z"/>
			<path class="st0" d="M231.5,86.5V80c0-2-1-3.1-2.9-3.1s-2.9,1.1-2.9,3.1v6.5h-1.1V76.1h1.1v1.2c1.5-1.7,4.1-1.8,5.8-0.4
				c0.7,0.8,1.1,1.8,1.1,2.9v6.7L231.5,86.5z"/>
			<path class="st0" d="M250.6,86.5v-1.3c-0.7,1-1.9,1.6-3.1,1.5c-0.9,0-1.8-0.3-2.5-0.9c-1-1.3-1.5-2.8-1.3-4.4
				c-0.1-1.6,0.3-3.2,1.3-4.4c0.7-0.6,1.6-0.9,2.5-0.9c1.2-0.1,2.4,0.5,3.1,1.5v-6.3h1.1v15.4H250.6z M247.6,76.9
				c-2.6,0-2.9,2.2-2.9,4.4s0.4,4.4,2.9,4.4s2.9-2.2,2.9-4.4S250.2,76.9,247.6,76.9L247.6,76.9z"/>
			<path class="st0" d="M269.5,86.5v-1c-0.8,0.9-2,1.3-3.2,1.2c-1.1,0.1-2.2-0.2-3.1-1c-0.5-0.5-0.8-1.3-0.8-2c0-1.9,1.4-3,3.6-3
				h3.4v-1.2c0-1.7-0.8-2.6-2.9-2.6c-1.1-0.1-2.2,0.4-2.9,1.3l-0.8-0.7c0.8-1.2,2.2-1.8,3.7-1.6c2.8,0,4,1.2,4,3.4v7.1H269.5z
				 M269.5,81.5h-3.2c-1.8,0-2.7,0.7-2.7,2.1s0.8,2,2.7,2c0.9,0.1,1.9-0.2,2.6-0.8c0.5-0.6,0.7-1.3,0.6-2L269.5,81.5z"/>
			<path class="st0" d="M286.2,76.9c-1.6,0-2.8,1.4-2.8,2.9c0,0.1,0,0.1,0,0.2v6.4h-1.1V76.1h1.1v1.4c0.7-1,1.8-1.5,3-1.5
				c0.9-0.1,1.9,0.3,2.5,1l-0.8,0.8C287.6,77.2,286.9,76.9,286.2,76.9z"/>
			<path class="st0" d="M121.1,114.2c-1.6,0.1-3.1-0.4-4.2-1.5l0.8-0.8c0.9,0.9,2.1,1.4,3.4,1.3c2,0,3.1-0.7,3.1-2.1
				c0-1.1-0.6-1.6-2-1.8l-1.7-0.2c-2.1-0.2-3.1-1.1-3.1-2.7c0-1.8,1.5-3,3.7-3c1.3,0,2.6,0.4,3.7,1.1l-0.7,0.7
				c-0.8-0.6-1.9-0.9-2.9-0.9c-1.7,0-2.7,0.7-2.7,2c0,1.1,0.7,1.6,2.1,1.8l1.7,0.2c1.7,0.2,3,0.7,3,2.7S123.7,114.2,121.1,114.2z"/>
			<path class="st0" d="M142.6,113c-1.6,1.5-4.2,1.5-5.8,0c-1.7-2.5-1.7-5.9,0-8.4c1.6-1.5,4.2-1.5,5.8,0
				C144.3,107.1,144.3,110.5,142.6,113z M141.9,105.3c-0.6-0.6-1.3-0.9-2.2-0.9c-0.8,0-1.6,0.3-2.2,0.9c-0.9,0.9-0.9,2.3-0.9,3.5
				s0.1,2.6,0.9,3.5c0.6,0.6,1.3,0.9,2.2,0.9c0.8,0,1.6-0.3,2.2-0.9c0.9-0.9,0.9-2.3,0.9-3.5S142.7,106.2,141.9,105.3L141.9,105.3z"
				/>
			<path class="st0" d="M156.5,104.5v9.6h-1.1v-9.6h-1.4v-0.8h1.4v-2.2c-0.2-1.3,0.8-2.5,2.1-2.7c0.1,0,0.3,0,0.4,0h0.9v1h-0.8
				c-1.1,0-1.6,0.6-1.6,1.7v2.3h2.4v0.8L156.5,104.5z"/>
			<path class="st0" d="M173.1,104.5c-1.6,0-2.8,1.3-2.8,2.9c0,0.1,0,0.2,0,0.2v6.4h-1.1v-10.4h1.1v1.3c0.7-1,1.8-1.6,3.1-1.5
				c0.9-0.1,1.9,0.3,2.5,1l-0.8,0.8C174.5,104.7,173.8,104.4,173.1,104.5z"/>
			<path class="st0" d="M191.4,113c-1.6,1.5-4.2,1.5-5.8,0c-1.7-2.5-1.7-5.9,0-8.4c1.6-1.5,4.2-1.5,5.8,0
				C193.1,107.1,193.1,110.5,191.4,113z M190.6,105.3c-0.6-0.6-1.3-0.9-2.2-0.9c-0.8,0-1.6,0.3-2.2,0.9c-0.9,0.9-0.9,2.3-0.9,3.5
				s0.1,2.6,0.9,3.5c0.6,0.6,1.3,0.9,2.2,0.9c0.8,0,1.6-0.3,2.2-0.9c0.9-0.9,0.9-2.3,0.9-3.5S191.5,106.2,190.6,105.3L190.6,105.3z"
				/>
			<path class="st0" d="M210.7,114.1v-6.5c0-2-1-3.1-2.9-3.1s-2.9,1.1-2.9,3.1v6.5h-1.1v-10.4h1.1v1.2c1.3-1.7,3.7-2,5.4-0.8
				c1,0.8,1.6,2,1.5,3.3v6.7L210.7,114.1z"/>
			<path class="st0" d="M223.3,100v-1.3h1.4v1.3H223.3z M223.5,114v-10.3h1.1v10.4L223.5,114z"/>
			<path class="st0" d="M234.9,119H234v-1h0.8c1.2,0,1.6-0.6,1.6-1.8v-12.6h1.1v12.7C237.4,118,236.6,119,234.9,119z M236.2,100
				v-1.3h1.4v1.3H236.2z"/>
			<path class="st0" d="M249.7,109.1c0,2.7,1.2,4.1,3.4,4.1c1.1,0,2.2-0.4,2.9-1.3l0.8,0.7c-0.9,1.1-2.3,1.7-3.8,1.6
				c-2.9,0-4.4-1.9-4.4-5.3s1.6-5.3,4.2-5.3s4.2,1.9,4.2,5.1v0.5L249.7,109.1z M255.4,106.2c-0.4-1.1-1.5-1.8-2.7-1.8
				c-1.2,0-2.2,0.7-2.7,1.8c-0.3,0.6-0.4,1.3-0.4,2h6.1C255.8,107.6,255.7,106.9,255.4,106.2z"/>
			<path class="st0" d="M270.9,114.1h-1.1l-3.8-10.4h1.2l3.1,9.1l3.1-9.1h1.2L270.9,114.1z"/>
			<path class="st0" d="M284.5,100v-1.3h1.4v1.3H284.5z M284.7,114v-10.3h1.1v10.4L284.7,114z"/>
			<path class="st0" d="M301.5,114.2c-2.9,0-4.6-2-4.6-5.3s1.7-5.3,4.6-5.3c1.3-0.1,2.6,0.5,3.4,1.6l-0.8,0.7
				c-1.2-1.5-3.3-1.8-4.8-0.6c-0.2,0.2-0.5,0.4-0.6,0.7c-1,1.9-1,4.1,0,6c0.6,0.9,1.7,1.4,2.8,1.4c1.1,0,2-0.5,2.7-1.3l0.8,0.7
				C304.1,113.7,302.8,114.3,301.5,114.2z M301.7,101.3h-1.2l2.1-3.2h1.4L301.7,101.3z"/>
			<path class="st0" d="M124.4,140.6c-1.6,1.5-4.2,1.5-5.8,0c-1.7-2.5-1.7-5.9,0-8.4c1.6-1.5,4.2-1.5,5.8,0
				C126.1,134.8,126.1,138.1,124.4,140.6z M123.6,133c-0.6-0.6-1.3-0.9-2.2-0.9c-0.8,0-1.6,0.3-2.2,0.9c-0.9,0.9-0.9,2.3-0.9,3.5
				s0.1,2.6,0.9,3.5c0.6,0.6,1.3,0.9,2.2,0.9c0.8,0,1.6-0.3,2.2-0.9c0.9-0.9,0.9-2.3,0.9-3.5S124.5,133.8,123.6,133L123.6,133z"/>
			<path class="st0" d="M140.7,132.1c-1.6,0-2.8,1.4-2.8,3c0,0.1,0,0.1,0,0.2v6.4h-1.1v-10.4h1.1v1.4c0.7-1,1.8-1.5,3-1.5
				c0.9-0.1,1.9,0.3,2.5,1l-0.8,0.8C142.1,132.4,141.4,132.1,140.7,132.1z"/>
			<path class="st0" d="M156.5,141.8c-2.9,0-4.6-2-4.6-5.3s1.7-5.3,4.6-5.3c1.3-0.1,2.6,0.5,3.4,1.6l-0.8,0.7
				c-0.6-0.9-1.6-1.4-2.7-1.3c-1.1-0.1-2.1,0.5-2.8,1.4c-1,1.9-1,4.1,0,6c0.6,0.9,1.7,1.4,2.8,1.4c1.1,0,2.1-0.5,2.7-1.3l0.8,0.7
				C159.1,141.3,157.9,141.9,156.5,141.8z"/>
			<path class="st0" d="M177.7,141.7v-6.5c0-2-1-3.1-2.9-3.1s-2.9,1.1-2.9,3.1v6.5h-1.1v-15.4h1.1v6.2c0.8-0.9,1.9-1.4,3.1-1.4
				c2-0.2,3.7,1.3,3.8,3.3c0,0.2,0,0.4,0,0.6v6.6L177.7,141.7z"/>
			<path class="st0" d="M190.9,136.7c0,2.7,1.2,4.1,3.4,4.1c1.1,0,2.2-0.4,2.9-1.3l0.8,0.6c-0.9,1.1-2.3,1.7-3.8,1.6
				c-2.9,0-4.4-1.9-4.4-5.3s1.6-5.3,4.2-5.3s4.2,1.9,4.2,5.1v0.5L190.9,136.7z M196.7,133.8c-0.5-1.1-1.5-1.8-2.7-1.8
				c-1.2,0-2.2,0.7-2.7,1.8c-0.3,0.6-0.4,1.3-0.4,2h6.1C197,135.2,196.9,134.5,196.7,133.8z"/>
			<path class="st0" d="M212.4,141.8c-1.5,0.1-3.1-0.4-4.2-1.5l0.8-0.8c0.9,0.9,2.1,1.4,3.4,1.3c2.1,0,3.1-0.7,3.1-2.1
				c0-1.1-0.6-1.6-2-1.8l-1.7-0.1c-2.1-0.2-3.1-1.1-3.1-2.7c0-1.8,1.5-3,3.7-3c1.3,0,2.6,0.4,3.6,1.1l-0.7,0.7
				c-0.8-0.6-1.9-0.9-2.9-0.9c-1.7,0-2.7,0.7-2.7,2c0,1.1,0.6,1.6,2.1,1.8l1.7,0.1c1.7,0.2,3.1,0.7,3.1,2.7S215,141.8,212.4,141.8z"
				/>
			<path class="st0" d="M230,141.7c-1.3,0-2.5-1-2.5-2.3c0-0.1,0-0.3,0-0.4v-6.9h-1.4v-0.8h1.4v-3.3h1.1v3.3h2.4v0.8h-2.4v6.9
				c0,1.1,0.5,1.7,1.6,1.7h0.8v1L230,141.7z"/>
			<path class="st0" d="M245.7,132.1c-1.6,0-2.8,1.4-2.8,2.9c0,0.1,0,0.1,0,0.2v6.4h-1.1v-10.4h1.2v1.4c0.7-1,1.8-1.5,3-1.5
				c0.9-0.1,1.9,0.3,2.5,1l-0.8,0.8C247.2,132.3,246.5,132,245.7,132.1z"/>
			<path class="st0" d="M264.1,141.7v-1c-0.8,0.9-2,1.3-3.2,1.2c-1.1,0.1-2.2-0.2-3.1-0.9c-0.5-0.5-0.8-1.3-0.8-2c0-1.9,1.4-3,3.6-3
				h3.4v-1.2c0-1.7-0.8-2.6-2.9-2.6c-1.1-0.1-2.2,0.4-2.9,1.3l-0.8-0.7c0.8-1.2,2.2-1.8,3.7-1.6c2.8,0,4,1.2,4,3.4v7.1L264.1,141.7z
				 M264.1,136.7h-3.2c-1.8,0-2.7,0.7-2.7,2.1s0.8,2,2.7,2c0.9,0.1,1.9-0.2,2.6-0.8c0.5-0.6,0.7-1.3,0.6-2L264.1,136.7z"/>
			
				<rect x="47.9" y="-13.9" transform="matrix(0.5944 -0.8042 0.8042 0.5944 -1.9418 53.5186)" class="st0" width="8.4" height="85.1"/>
			
				<rect x="61" y="10.3" transform="matrix(0.5092 -0.8607 0.8607 0.5092 -12.5115 81.3716)" class="st0" width="8.2" height="82.8"/>
			
				<rect x="60.6" y="32.2" transform="matrix(0.4141 -0.9103 0.9103 0.4141 -28.4899 101.5362)" class="st0" width="8.1" height="81.3"/>
			<rect x="52.6" y="52" transform="matrix(0.3118 -0.9501 0.9501 0.3118 -48.8196 117.373)" class="st0" width="8" height="80.8"/>
			
				<rect x="42.9" y="69.4" transform="matrix(0.2059 -0.9786 0.9786 0.2059 -70.384 133.3447)" class="st0" width="8.1" height="81.3"/>
			<rect x="37.5" y="84.4" transform="matrix(0.1 -0.995 0.995 0.1 -87.7027 154.5642)" class="st0" width="8.2" height="82.8"/>
			
				<rect x="3.8" y="135.3" transform="matrix(1 -2.268920e-03 2.268920e-03 1 -0.3164 0.1056)" class="st0" width="85.1" height="8.4"/>
		</g>
	</g>
</g>
</svg>
