<svg xmlns="http://www.w3.org/2000/svg" viewBox="0 0 304.92 143.83"><defs><style>.cls-1{fill:#fff;}</style></defs><g id="Layer_2" data-name="Layer 2"><g id="Layer_1-2" data-name="Layer 1"><g id="LOGO_negative" data-name="LOGO negative"><path class="cls-1" d="M124,86.46v-1a3.85,3.85,0,0,1-3.17,1.17c-1.56,0-2.4-.26-3.07-1a2.89,2.89,0,0,1-.76-2c0-1.9,1.36-3,3.63-3H124V79.44c0-1.66-.8-2.55-2.93-2.55a3,3,0,0,0-2.88,1.32l-.8-.69a4,4,0,0,1,3.68-1.6c2.76,0,4,1.23,4,3.41v7.13Zm0-5h-3.24c-1.77,0-2.65.69-2.65,2.1s.82,2,2.72,2a3.47,3.47,0,0,0,2.59-.8,2.7,2.7,0,0,0,.58-2Z"/><path class="cls-1" d="M139.22,86.46c-1.71,0-2.5-1.06-2.5-2.7V71.08h1.1V83.74c0,1.18.36,1.75,1.6,1.75h.75v1Z"/><path class="cls-1" d="M150.8,81.49c0,2.66,1.17,4.1,3.39,4.1a3.6,3.6,0,0,0,2.87-1.25l.82.65a4.7,4.7,0,0,1-3.75,1.6c-2.88,0-4.43-1.86-4.43-5.34s1.55-5.33,4.17-5.33S158,77.8,158,81v.5Zm5.77-2.85a2.84,2.84,0,0,0-2.7-1.75,2.9,2.9,0,0,0-2.7,1.75,4.69,4.69,0,0,0-.37,2h6.13A4.71,4.71,0,0,0,156.57,78.64Z"/><path class="cls-1" d="M176.22,86.46l-3.58-5.73-2.38,2.75v3h-1.1V71.08h1.1V81.92l5.16-5.87h1.41l-3.44,3.89,4.19,6.52Z"/><path class="cls-1" d="M190.65,86.59a5.73,5.73,0,0,1-4.21-1.49l.76-.76a4.5,4.5,0,0,0,3.41,1.28c2,0,3.13-.72,3.13-2.12,0-1.1-.6-1.62-2-1.75L190,81.6c-2.1-.17-3.14-1.08-3.14-2.72,0-1.82,1.47-3,3.74-3a6.11,6.11,0,0,1,3.65,1.1l-.73.73a4.84,4.84,0,0,0-2.92-.88c-1.73,0-2.66.71-2.66,2,0,1.1.65,1.6,2.12,1.75l1.69.15c1.72.17,3,.69,3,2.72S193.22,86.59,190.65,86.59Z"/><path class="cls-1" d="M211.8,86.46v-1a3.88,3.88,0,0,1-3.18,1.17,3.82,3.82,0,0,1-3.06-1,2.89,2.89,0,0,1-.76-2c0-1.9,1.36-3,3.63-3h3.37V79.44c0-1.66-.8-2.55-2.94-2.55A3,3,0,0,0,206,78.21l-.8-.69a4,4,0,0,1,3.67-1.6c2.77,0,4,1.23,4,3.41v7.13Zm0-5h-3.24c-1.77,0-2.66.69-2.66,2.1s.82,2,2.72,2a3.5,3.5,0,0,0,2.6-.8,2.7,2.7,0,0,0,.58-2Z"/><path class="cls-1" d="M231.48,86.46V80c0-2-1-3.11-2.88-3.11S225.67,78,225.67,80v6.46h-1.1V76.05h1.1v1.23a4.23,4.23,0,0,1,5.83-.37,3.87,3.87,0,0,1,1.08,2.9v6.65Z"/><path class="cls-1" d="M250.57,86.46V85.12a3.46,3.46,0,0,1-3.09,1.47,3.58,3.58,0,0,1-2.54-.91,6.25,6.25,0,0,1-1.34-4.43,6.21,6.21,0,0,1,1.34-4.42,3.58,3.58,0,0,1,2.54-.91,3.46,3.46,0,0,1,3.09,1.47V71.08h1.1V86.46Zm-2.93-9.57c-2.55,0-2.94,2.2-2.94,4.36s.39,4.37,2.94,4.37,2.93-2.21,2.93-4.37S250.18,76.89,247.64,76.89Z"/><path class="cls-1" d="M269.54,86.46v-1a3.88,3.88,0,0,1-3.18,1.17,3.82,3.82,0,0,1-3.06-1,2.89,2.89,0,0,1-.76-2c0-1.9,1.36-3,3.63-3h3.37V79.44c0-1.66-.8-2.55-2.94-2.55a3,3,0,0,0-2.87,1.32l-.8-.69a3.93,3.93,0,0,1,3.67-1.6c2.77,0,4,1.23,4,3.41v7.13Zm0-5H266.3c-1.77,0-2.66.69-2.66,2.1s.82,2,2.72,2a3.46,3.46,0,0,0,2.59-.8,2.7,2.7,0,0,0,.59-2Z"/><path class="cls-1" d="M286.19,76.89A2.87,2.87,0,0,0,283.41,80v6.42H282.3V76.05h1.11v1.38a3.56,3.56,0,0,1,3-1.51,3.21,3.21,0,0,1,2.51,1l-.8.8A2.38,2.38,0,0,0,286.19,76.89Z"/><path class="cls-1" d="M121.08,114.19a5.74,5.74,0,0,1-4.22-1.49l.76-.76a4.46,4.46,0,0,0,3.41,1.28c2,0,3.13-.72,3.13-2.12,0-1.1-.6-1.62-2-1.75l-1.73-.15c-2.1-.17-3.13-1.08-3.13-2.72,0-1.82,1.47-3,3.74-3a6.13,6.13,0,0,1,3.65,1.1l-.74.74a4.77,4.77,0,0,0-2.91-.89c-1.73,0-2.66.71-2.66,2,0,1.1.65,1.6,2.11,1.75l1.69.15c1.73.17,3,.69,3,2.72S123.65,114.19,121.08,114.19Z"/><path class="cls-1" d="M142.59,113a4.22,4.22,0,0,1-5.79,0,7.45,7.45,0,0,1,0-8.38,4.25,4.25,0,0,1,5.79,0,7.4,7.4,0,0,1,0,8.38Zm-.73-7.66a3,3,0,0,0-2.16-.89,2.93,2.93,0,0,0-2.16.89c-.87.86-.93,2.27-.93,3.47s.06,2.62.93,3.48a3,3,0,0,0,2.16.89,3,3,0,0,0,2.16-.89c.86-.86.92-2.27.92-3.48S142.72,106.24,141.86,105.38Z"/><path class="cls-1" d="M156.46,104.47v9.59h-1.1v-9.59h-1.43v-.82h1.43V101.4a2.43,2.43,0,0,1,2.5-2.72h.95v1h-.75c-1.1,0-1.6.63-1.6,1.73v2.27h2.35v.82Z"/><path class="cls-1" d="M173.05,104.49a2.87,2.87,0,0,0-2.79,3.16v6.41h-1.1V103.65h1.1V105a3.59,3.59,0,0,1,3.05-1.51,3.19,3.19,0,0,1,2.5,1l-.8.8A2.39,2.39,0,0,0,173.05,104.49Z"/><path class="cls-1" d="M191.39,113a4.22,4.22,0,0,1-5.79,0,7.4,7.4,0,0,1,0-8.38,4.25,4.25,0,0,1,5.79,0,7.45,7.45,0,0,1,0,8.38Zm-.74-7.66a2.93,2.93,0,0,0-2.16-.89,3,3,0,0,0-2.16.89c-.86.86-.93,2.27-.93,3.47s.07,2.62.93,3.48a3,3,0,0,0,2.16.89,3,3,0,0,0,2.16-.89c.87-.86.93-2.27.93-3.48S191.52,106.24,190.65,105.38Z"/><path class="cls-1" d="M210.74,114.06V107.6c0-2-1-3.11-2.87-3.11s-2.94,1.12-2.94,3.11v6.46h-1.1V103.65h1.1v1.23a3.84,3.84,0,0,1,6.91,2.53v6.65Z"/><path class="cls-1" d="M223.33,100V98.68h1.37V100Zm.13,14V103.65h1.11v10.41Z"/><path class="cls-1" d="M234.91,119H234v-1h.76c1.23,0,1.6-.57,1.6-1.75V103.65h1.1v12.68C237.42,118,236.62,119,234.91,119Zm1.28-19V98.68h1.36V100Z"/><path class="cls-1" d="M249.67,109.09c0,2.66,1.16,4.11,3.39,4.11a3.62,3.62,0,0,0,2.87-1.26l.82.65a4.72,4.72,0,0,1-3.76,1.6c-2.87,0-4.43-1.86-4.43-5.34s1.56-5.33,4.17-5.33,4.17,1.88,4.17,5.08v.49Zm5.76-2.85a2.83,2.83,0,0,0-2.7-1.75,2.91,2.91,0,0,0-2.7,1.75,4.71,4.71,0,0,0-.36,2h6.13A4.86,4.86,0,0,0,255.43,106.24Z"/><path class="cls-1" d="M270.9,114.06h-1.08L266,103.65h1.21l3.13,9.11,3.13-9.11h1.21Z"/><path class="cls-1" d="M284.53,100V98.68h1.36V100Zm.13,14V103.65h1.1v10.41Z"/><path class="cls-1" d="M301.49,114.19c-2.86,0-4.58-2-4.58-5.34s1.72-5.33,4.58-5.33a4,4,0,0,1,3.43,1.6l-.76.69a3.42,3.42,0,0,0-5.44.06,6.61,6.61,0,0,0,0,6,3.16,3.16,0,0,0,2.77,1.39,3.23,3.23,0,0,0,2.67-1.32l.76.69A4,4,0,0,1,301.49,114.19Zm.23-12.87h-1.25l2.1-3.18H304Z"/><path class="cls-1" d="M124.36,140.65a4.25,4.25,0,0,1-5.79,0,7.4,7.4,0,0,1,0-8.38,4.22,4.22,0,0,1,5.79,0,7.4,7.4,0,0,1,0,8.38Zm-.73-7.67a3,3,0,0,0-2.16-.89,3,3,0,0,0-2.16.89c-.87.86-.93,2.27-.93,3.48s.06,2.61.93,3.47a2.93,2.93,0,0,0,2.16.89,3,3,0,0,0,2.16-.89c.86-.86.92-2.26.92-3.47S124.49,133.84,123.63,133Z"/><path class="cls-1" d="M140.69,132.09a2.88,2.88,0,0,0-2.79,3.16v6.41h-1.1V131.25h1.1v1.38a3.59,3.59,0,0,1,3-1.51,3.19,3.19,0,0,1,2.5,1l-.79.8A2.42,2.42,0,0,0,140.69,132.09Z"/><path class="cls-1" d="M156.52,141.79c-2.85,0-4.58-2-4.58-5.33s1.73-5.34,4.58-5.34a4.05,4.05,0,0,1,3.44,1.6l-.76.69a3.19,3.19,0,0,0-2.68-1.32,3.16,3.16,0,0,0-2.76,1.38,6.63,6.63,0,0,0,0,6,3.16,3.16,0,0,0,2.76,1.38,3.25,3.25,0,0,0,2.68-1.32l.76.69A4.05,4.05,0,0,1,156.52,141.79Z"/><path class="cls-1" d="M177.67,141.66V135.2c0-2-1-3.11-2.87-3.11s-2.94,1.1-2.94,3.11v6.46h-1.1V126.28h1.1v6.2a3.83,3.83,0,0,1,3.07-1.36,3.57,3.57,0,0,1,3.84,3.89v6.65Z"/><path class="cls-1" d="M190.89,136.69c0,2.66,1.17,4.11,3.39,4.11a3.61,3.61,0,0,0,2.87-1.26l.82.65a4.7,4.7,0,0,1-3.75,1.6c-2.88,0-4.43-1.86-4.43-5.33s1.55-5.34,4.17-5.34,4.17,1.88,4.17,5.08v.49Zm5.77-2.85a2.84,2.84,0,0,0-2.7-1.75,2.9,2.9,0,0,0-2.7,1.75,4.86,4.86,0,0,0-.37,2H197A4.71,4.71,0,0,0,196.66,133.84Z"/><path class="cls-1" d="M212.45,141.79a5.66,5.66,0,0,1-4.21-1.49l.75-.76a4.48,4.48,0,0,0,3.41,1.28c2.06,0,3.14-.71,3.14-2.12,0-1.1-.61-1.62-2-1.75l-1.73-.15c-2.09-.17-3.13-1.08-3.13-2.72,0-1.81,1.47-3,3.74-3a6.13,6.13,0,0,1,3.65,1.1l-.74.74a4.77,4.77,0,0,0-2.91-.89c-1.73,0-2.66.71-2.66,2,0,1.1.65,1.6,2.12,1.75l1.68.15c1.73.17,3.05.69,3.05,2.72S215,141.79,212.45,141.79Z"/><path class="cls-1" d="M230,141.66a2.43,2.43,0,0,1-2.5-2.72v-6.87H226.1v-.82h1.43v-3.33h1.1v3.33H231v.82h-2.35V139c0,1.1.49,1.73,1.6,1.73H231v1Z"/><path class="cls-1" d="M245.73,132.09a2.87,2.87,0,0,0-2.78,3.16v6.41h-1.1V131.25H243v1.38a3.56,3.56,0,0,1,3-1.51,3.21,3.21,0,0,1,2.51,1l-.8.8A2.41,2.41,0,0,0,245.73,132.09Z"/><path class="cls-1" d="M264.14,141.66v-1a3.88,3.88,0,0,1-3.18,1.17,3.82,3.82,0,0,1-3.06-.95,2.87,2.87,0,0,1-.76-2c0-1.9,1.36-3,3.63-3h3.37v-1.17c0-1.66-.8-2.55-2.94-2.55a3,3,0,0,0-2.87,1.32l-.8-.69a3.93,3.93,0,0,1,3.67-1.6c2.76,0,4,1.23,4,3.41v7.13Zm0-5H260.9c-1.77,0-2.66.69-2.66,2.1s.82,2,2.72,2a3.46,3.46,0,0,0,2.59-.8,2.7,2.7,0,0,0,.59-2Z"/><rect class="cls-1" x="47.87" y="-13.87" width="8.44" height="85.12" transform="translate(-1.95 53.52) rotate(-53.53)"/><rect class="cls-1" x="60.99" y="10.27" width="8.21" height="82.76" transform="translate(-12.51 81.38) rotate(-59.39)"/><rect class="cls-1" x="60.6" y="32.25" width="8.06" height="81.31" transform="translate(-28.5 101.54) rotate(-65.54)"/><rect class="cls-1" x="52.61" y="51.98" width="8.01" height="80.82" transform="translate(-48.82 117.37) rotate(-71.83)"/><rect class="cls-1" x="42.93" y="69.38" width="8.06" height="81.31" transform="translate(-70.38 133.34) rotate(-78.12)"/><rect class="cls-1" x="37.48" y="84.39" width="8.21" height="82.76" transform="translate(-87.71 154.56) rotate(-84.26)"/><rect class="cls-1" x="3.82" y="135.29" width="85.12" height="8.44" transform="translate(-0.31 0.1) rotate(-0.13)"/></g></g></g></svg>