<svg xmlns="http://www.w3.org/2000/svg" viewBox="0 0 267.26 126.07"><defs><style>.cls-1{fill:#fff;}</style></defs><g id="Layer_2" data-name="Layer 2"><g id="Layer_1-2" data-name="Layer 1"><g id="LOGO_negative" data-name="LOGO negative"><path class="cls-1" d="M108.68,75.78v-.91a3.39,3.39,0,0,1-2.78,1,3.32,3.32,0,0,1-2.69-.83,2.5,2.5,0,0,1-.67-1.78c0-1.66,1.2-2.63,3.18-2.63h3v-1c0-1.46-.7-2.24-2.58-2.24a2.62,2.62,0,0,0-2.51,1.16l-.7-.61a3.43,3.43,0,0,1,3.21-1.4c2.43,0,3.54,1.08,3.54,3v6.25Zm0-4.35h-2.84c-1.55,0-2.33.6-2.33,1.83S104.23,75,105.9,75a3,3,0,0,0,2.27-.7,2.36,2.36,0,0,0,.51-1.74Z"/><path class="cls-1" d="M122,75.78c-1.5,0-2.2-.93-2.2-2.37V62.3h1V73.39c0,1,.32,1.54,1.4,1.54h.66v.85Z"/><path class="cls-1" d="M132.17,71.43c0,2.32,1,3.59,3,3.59a3.16,3.16,0,0,0,2.51-1.09l.72.56a4.12,4.12,0,0,1-3.29,1.4c-2.52,0-3.88-1.62-3.88-4.67s1.36-4.68,3.65-4.68,3.66,1.65,3.66,4.45v.44Zm5.06-2.5a2.49,2.49,0,0,0-2.37-1.54,2.54,2.54,0,0,0-2.36,1.54,4.13,4.13,0,0,0-.33,1.72h5.38A4.15,4.15,0,0,0,137.23,68.93Z"/><path class="cls-1" d="M154.46,75.78l-3.14-5-2.09,2.41v2.61h-1V62.3h1v9.5l4.53-5.14H155l-3,3.4,3.67,5.72Z"/><path class="cls-1" d="M167.11,75.89a5,5,0,0,1-3.7-1.3l.67-.66a4,4,0,0,0,3,1.11c1.8,0,2.74-.62,2.74-1.85,0-1-.53-1.42-1.74-1.54l-1.51-.13c-1.84-.15-2.75-1-2.75-2.38,0-1.59,1.29-2.6,3.28-2.6a5.36,5.36,0,0,1,3.2,1l-.65.64a4.22,4.22,0,0,0-2.55-.78c-1.52,0-2.33.63-2.33,1.77,0,1,.57,1.4,1.85,1.53l1.48.13c1.51.15,2.67.61,2.67,2.39S169.36,75.89,167.11,75.89Z"/><path class="cls-1" d="M185.64,75.78v-.91a3.38,3.38,0,0,1-2.78,1,3.34,3.34,0,0,1-2.69-.83,2.5,2.5,0,0,1-.66-1.78c0-1.66,1.19-2.63,3.18-2.63h2.95v-1c0-1.46-.7-2.24-2.57-2.24a2.62,2.62,0,0,0-2.52,1.16l-.7-.61a3.44,3.44,0,0,1,3.22-1.4c2.42,0,3.54,1.08,3.54,3v6.25Zm0-4.35H182.8c-1.55,0-2.33.6-2.33,1.83s.72,1.78,2.39,1.78a3,3,0,0,0,2.27-.7,2.36,2.36,0,0,0,.51-1.74Z"/><path class="cls-1" d="M202.89,75.78V70.12c0-1.76-.87-2.73-2.52-2.73a2.41,2.41,0,0,0-2.57,2.73v5.66h-1V66.66h1v1.07a3.71,3.71,0,0,1,5.11-.32,3.41,3.41,0,0,1,.94,2.54v5.83Z"/><path class="cls-1" d="M219.62,75.78V74.61a3,3,0,0,1-2.7,1.28,3.19,3.19,0,0,1-2.24-.79,5.51,5.51,0,0,1-1.17-3.88,5.49,5.49,0,0,1,1.17-3.88,3.15,3.15,0,0,1,2.24-.8,3,3,0,0,1,2.7,1.29V62.3h1V75.78Zm-2.57-8.39c-2.23,0-2.57,1.93-2.57,3.83s.34,3.82,2.57,3.82,2.57-1.93,2.57-3.82S219.28,67.39,217.05,67.39Z"/><path class="cls-1" d="M236.25,75.78v-.91a3.4,3.4,0,0,1-2.79,1,3.31,3.31,0,0,1-2.68-.83,2.5,2.5,0,0,1-.67-1.78c0-1.66,1.2-2.63,3.18-2.63h3v-1c0-1.46-.7-2.24-2.58-2.24a2.62,2.62,0,0,0-2.51,1.16l-.7-.61a3.43,3.43,0,0,1,3.21-1.4c2.43,0,3.54,1.08,3.54,3v6.25Zm0-4.35h-2.84c-1.55,0-2.33.6-2.33,1.83S231.8,75,233.46,75a3,3,0,0,0,2.28-.7,2.36,2.36,0,0,0,.51-1.74Z"/><path class="cls-1" d="M250.85,67.39a2.52,2.52,0,0,0-2.45,2.77v5.62h-1V66.66h1v1.21a3.11,3.11,0,0,1,2.67-1.33,2.8,2.8,0,0,1,2.2.87l-.7.7A2.09,2.09,0,0,0,250.85,67.39Z"/><path class="cls-1" d="M106.12,100.09a5,5,0,0,1-3.69-1.31l.66-.66a3.94,3.94,0,0,0,3,1.11c1.8,0,2.75-.62,2.75-1.85,0-1-.53-1.42-1.74-1.53l-1.52-.14c-1.83-.15-2.74-.94-2.74-2.38,0-1.59,1.29-2.6,3.27-2.6a5.31,5.31,0,0,1,3.2,1l-.64.64a4.23,4.23,0,0,0-2.56-.77c-1.51,0-2.32.62-2.32,1.76,0,1,.56,1.4,1.85,1.53l1.48.13c1.51.16,2.67.61,2.67,2.39S108.38,100.09,106.12,100.09Z"/><path class="cls-1" d="M125,99.08a3.69,3.69,0,0,1-5.07,0,6.48,6.48,0,0,1,0-7.34,3.69,3.69,0,0,1,5.07,0,6.48,6.48,0,0,1,0,7.34Zm-.64-6.72a2.63,2.63,0,0,0-1.9-.77,2.59,2.59,0,0,0-1.89.77,4.24,4.24,0,0,0-.81,3,4.24,4.24,0,0,0,.81,3,2.59,2.59,0,0,0,1.89.77,2.63,2.63,0,0,0,1.9-.77,4.29,4.29,0,0,0,.81-3A4.29,4.29,0,0,0,124.34,92.36Z"/><path class="cls-1" d="M137.13,91.57V100h-1v-8.4h-1.25v-.72h1.25v-2a2.14,2.14,0,0,1,2.2-2.39h.83v.86h-.66c-1,0-1.41.54-1.41,1.51v2h2.07v.72Z"/><path class="cls-1" d="M151.67,91.59a2.51,2.51,0,0,0-2.44,2.76V100h-1V90.85h1v1.21a3.13,3.13,0,0,1,2.67-1.33,2.8,2.8,0,0,1,2.2.87l-.7.71A2.1,2.1,0,0,0,151.67,91.59Z"/><path class="cls-1" d="M167.75,99.08a3.69,3.69,0,0,1-5.07,0,6.48,6.48,0,0,1,0-7.34,3.69,3.69,0,0,1,5.07,0,6.48,6.48,0,0,1,0,7.34Zm-.64-6.72a2.63,2.63,0,0,0-1.9-.77,2.59,2.59,0,0,0-1.89.77,4.24,4.24,0,0,0-.81,3,4.24,4.24,0,0,0,.81,3,2.59,2.59,0,0,0,1.89.77,2.63,2.63,0,0,0,1.9-.77,4.29,4.29,0,0,0,.81-3A4.29,4.29,0,0,0,167.11,92.36Z"/><path class="cls-1" d="M184.71,100V94.31c0-1.76-.87-2.72-2.51-2.72a2.4,2.4,0,0,0-2.58,2.72V100h-1V90.85h1v1.08a3.37,3.37,0,0,1,6.06,2.21V100Z"/><path class="cls-1" d="M195.75,87.69v-1.2h1.19v1.2Zm.11,12.28V90.85h1V100Z"/><path class="cls-1" d="M205.9,104.33h-.83v-.86h.66c1.08,0,1.4-.49,1.4-1.53V90.85h1V102C208.09,103.4,207.39,104.33,205.9,104.33ZM207,87.69v-1.2h1.19v1.2Z"/><path class="cls-1" d="M218.83,95.62c0,2.33,1,3.6,3,3.6a3.21,3.21,0,0,0,2.52-1.1l.72.57a4.17,4.17,0,0,1-3.29,1.4c-2.52,0-3.89-1.63-3.89-4.68s1.37-4.68,3.66-4.68,3.65,1.65,3.65,4.45v.44Zm5-2.5a2.46,2.46,0,0,0-2.36-1.53,2.55,2.55,0,0,0-2.37,1.53,4.31,4.31,0,0,0-.32,1.72h5.38A4.13,4.13,0,0,0,223.88,93.12Z"/><path class="cls-1" d="M237.44,100h-.95l-3.33-9.12h1.06l2.75,8,2.74-8h1.06Z"/><path class="cls-1" d="M249.39,87.69v-1.2h1.19v1.2ZM249.5,100V90.85h1V100Z"/><path class="cls-1" d="M264.25,100.09c-2.5,0-4-1.78-4-4.68s1.51-4.68,4-4.68a3.57,3.57,0,0,1,3,1.4l-.66.61a2.79,2.79,0,0,0-2.35-1.15,2.74,2.74,0,0,0-2.42,1.21,5.72,5.72,0,0,0,0,5.22,2.74,2.74,0,0,0,2.42,1.21,2.84,2.84,0,0,0,2.35-1.15l.66.61A3.57,3.57,0,0,1,264.25,100.09Zm.21-11.29h-1.1L265.2,86h1.26Z"/><path class="cls-1" d="M109,123.28a3.71,3.71,0,0,1-5.07,0,6.49,6.49,0,0,1,0-7.35,3.71,3.71,0,0,1,5.07,0,6.49,6.49,0,0,1,0,7.35Zm-.64-6.73a2.72,2.72,0,0,0-3.79,0,6.15,6.15,0,0,0,0,6.1,2.69,2.69,0,0,0,3.79,0,6.15,6.15,0,0,0,0-6.1Z"/><path class="cls-1" d="M123.31,115.78a2.51,2.51,0,0,0-2.44,2.76v5.62h-1V115h1v1.21a3.13,3.13,0,0,1,2.67-1.32,2.78,2.78,0,0,1,2.2.87l-.7.7A2.1,2.1,0,0,0,123.31,115.78Z"/><path class="cls-1" d="M137.19,124.28c-2.5,0-4-1.78-4-4.68s1.51-4.67,4-4.67a3.54,3.54,0,0,1,3,1.4l-.66.6a2.79,2.79,0,0,0-2.35-1.15,2.76,2.76,0,0,0-2.42,1.21,5.72,5.72,0,0,0,0,5.22,2.75,2.75,0,0,0,2.42,1.22,2.86,2.86,0,0,0,2.35-1.16l.66.61A3.54,3.54,0,0,1,137.19,124.28Z"/><path class="cls-1" d="M155.73,124.16V118.5c0-1.76-.87-2.72-2.52-2.72a2.4,2.4,0,0,0-2.58,2.72v5.66h-1V110.69h1v5.43a3.37,3.37,0,0,1,2.69-1.19,3.12,3.12,0,0,1,3.37,3.4v5.83Z"/><path class="cls-1" d="M167.31,119.81c0,2.33,1,3.6,3,3.6a3.14,3.14,0,0,0,2.51-1.1l.72.57a4.12,4.12,0,0,1-3.29,1.4c-2.52,0-3.88-1.63-3.88-4.68s1.36-4.67,3.65-4.67,3.66,1.64,3.66,4.45v.43Zm5.06-2.5a2.5,2.5,0,0,0-2.37-1.53,2.54,2.54,0,0,0-2.36,1.53,4.13,4.13,0,0,0-.33,1.72h5.38A4.31,4.31,0,0,0,172.37,117.31Z"/><path class="cls-1" d="M186.21,124.28a5,5,0,0,1-3.69-1.31l.66-.66a3.93,3.93,0,0,0,3,1.12c1.8,0,2.75-.63,2.75-1.86,0-1-.53-1.42-1.75-1.53l-1.51-.13c-1.84-.16-2.75-1-2.75-2.39s1.29-2.59,3.28-2.59a5.38,5.38,0,0,1,3.2,1l-.64.65a4.21,4.21,0,0,0-2.56-.78c-1.51,0-2.33.62-2.33,1.76,0,1,.57,1.4,1.86,1.53l1.47.14c1.52.15,2.67.6,2.67,2.38S188.46,124.28,186.21,124.28Z"/><path class="cls-1" d="M201.62,124.16a2.13,2.13,0,0,1-2.2-2.38v-6h-1.25V115h1.25v-2.92h1V115h2.06v.72h-2.06v6c0,1,.43,1.51,1.4,1.51h.66v.85Z"/><path class="cls-1" d="M215.38,115.78a2.51,2.51,0,0,0-2.44,2.76v5.62h-1V115h1v1.21a3.13,3.13,0,0,1,2.67-1.32,2.78,2.78,0,0,1,2.2.87l-.7.7A2.1,2.1,0,0,0,215.38,115.78Z"/><path class="cls-1" d="M231.51,124.16v-.9a4.52,4.52,0,0,1-5.47.19,2.56,2.56,0,0,1-.66-1.78c0-1.67,1.19-2.64,3.18-2.64h2.95v-1c0-1.46-.7-2.23-2.57-2.23a2.63,2.63,0,0,0-2.52,1.15l-.7-.6a3.45,3.45,0,0,1,3.22-1.4c2.42,0,3.54,1.08,3.54,3v6.24Zm0-4.35h-2.83c-1.56,0-2.33.61-2.33,1.84s.72,1.78,2.38,1.78a3,3,0,0,0,2.27-.7,2.39,2.39,0,0,0,.51-1.75Z"/><rect class="cls-1" x="41.95" y="-12.15" width="7.4" height="74.61" transform="translate(-1.71 46.91) rotate(-53.53)"/><rect class="cls-1" x="53.46" y="9" width="7.19" height="72.54" transform="translate(-10.96 71.33) rotate(-59.39)"/><rect class="cls-1" x="53.12" y="28.27" width="7.07" height="71.26" transform="translate(-24.98 89) rotate(-65.54)"/><rect class="cls-1" x="46.11" y="45.56" width="7.03" height="70.84" transform="translate(-42.79 102.87) rotate(-71.83)"/><rect class="cls-1" x="37.63" y="60.81" width="7.07" height="71.26" transform="translate(-61.69 116.87) rotate(-78.12)"/><rect class="cls-1" x="32.85" y="73.96" width="7.19" height="72.54" transform="matrix(0.1, -0.99, 0.99, 0.1, -76.88, 135.47)"/><rect class="cls-1" x="3.35" y="118.59" width="74.61" height="7.4" transform="translate(-0.27 0.09) rotate(-0.13)"/></g></g></g></svg>