<?xml version="1.0" encoding="utf-8"?>
<!-- Generator: Adobe Illustrator 26.0.3, SVG Export Plug-In . SVG Version: 6.00 Build 0)  -->
<svg version="1.1" id="Layer_1" xmlns="http://www.w3.org/2000/svg" xmlns:xlink="http://www.w3.org/1999/xlink" x="0px" y="0px"
	 viewBox="0 0 188.6 174" style="enable-background:new 0 0 188.6 174;" xml:space="preserve">
<style type="text/css">
	.st0{fill-rule:evenodd;clip-rule:evenodd;fill:#FFFFFF;}
</style>
<g>
	<path class="st0" d="M58.7,18.5c4.7-1.7,6.7,2.8,13.6-5.2c6.9-7.9,10.7-5.7,22.3-0.2L79.2,1c-1.2-1-2.7-1.6-3.9-0.3
		c-0.8,0.8-1.9,2.2-3.5,4.1c-2.8,3.5-5.8,6.7-9.3,6.6c-1.5,0-2.2-0.8-2.2-0.8c-1.5-0.1-3.2,1.8-4.3,2.8c-1.7,1.6-7.7,7.5-10,6.8
		C52.6,21.4,54.5,20,58.7,18.5z"/>
	<path class="st0" d="M77,24.3c-12.7,0-19.4,7-19.8,21c0,0,0,0,0,0v-0.6c0,0.8-0.1,1.6-0.1,2.5c0,0.8,0,1.7,0.1,2.5v-0.8
		c0,0,0,0,0,0c0.5,13.9,7.1,21,19.8,21c2.1,0,4.1-0.2,5.9-0.6c0.2,0,0.2-0.2,0.1-0.4c-1.1-1.3-2.1-2.7-2.9-4.4l0,0l0,0
		c-0.1-0.2-0.1-0.3-0.2-0.5c0-0.1,0-0.1-0.1-0.2l0,0c-0.1-0.1-0.1-0.2-0.2-0.4c0-0.1-0.1-0.2-0.1-0.3l0-0.1c0-0.1-0.1-0.1-0.1-0.2
		c-0.1-0.2-0.2-0.4-0.2-0.6l0,0c-0.3-0.7-0.5-1.4-0.7-2.1c0-0.1-0.1-0.2-0.2-0.2c-0.4,0.1-0.8,0.1-1.3,0.1c-5.6,0-8.5-4.3-8.6-12.8
		c0-8.7,2.9-13.1,8.7-13.1c5.6,0,8.4,4.2,8.4,12.8c0,3.5-0.6,6.6-1.5,8.7c0.1,0,0.2,0,0.3,0c0.1,0,0.3,0,0.4,0c0.1,0,0.2,0,0.3,0
		c0.1,0,0.3,0,0.4,0.1c0.1,0,0.2,0,0.3,0c0.2,0,0.3,0,0.5,0.1c0.1,0,0.2,0,0.2,0c0.2,0,0.3,0.1,0.5,0.1c0.1,0,0.2,0,0.3,0.1
		c0.1,0,0.3,0.1,0.4,0.1c0.1,0,0.1,0,0.2,0c0.2,0,0.3,0.1,0.5,0.1l0,0c0,0,0.1,0,0.1,0c0.2,0,0.3,0.1,0.5,0.2l0,0c0,0,0.1,0,0.1,0
		c0.2,0.1,0.4,0.1,0.6,0.2l0,0c0,0,0.1,0,0.1,0c0.2,0.1,0.4,0.1,0.6,0.2l0,0l0,0c0.6,0.2,1.3,0.5,1.8,0.8c0,0,0.1,0,0.1,0l0,0
		c0.2,0.1,0.3,0.2,0.5,0.3c0,0,0.1,0,0.1,0.1l0,0c0.1,0.1,0.3,0.2,0.4,0.3l0,0c0,0,0.1,0.1,0.1,0.1c0.2,0.1,0.3,0.2,0.5,0.3l0,0
		c0,0,0,0,0.1,0.1c0.2,0.1,0.4,0.3,0.5,0.4l0,0l0,0l0,0c0,0,0,0,0.1,0c0.1,0.1,0.3,0,0.3-0.1c1.3-3.3,2-7.3,2-12.1
		C97,31.8,90.3,24.3,77,24.3z"/>
	<path class="st0" d="M106.1,66c1.6,1,3.2,1.8,4.8,2.4c2.4,0.9,4.9,1.3,7.6,1.3c0.1,0,0.2,0,0.3,0c2.8,0,5.4-0.5,7.9-1.3
		c1.6-0.5,3.2-1.2,4.7-2.1c2-1.2,3.5-3.1,4.4-5.7c0.9-2.5,1.4-5.5,1.4-9.2V25.3c0-0.1-0.1-0.2-0.2-0.2h-5.4c-3.6,0-5.4,1.8-5.3,5.5
		v23.1c0,3.7-1.4,5.9-4.2,6.8c-0.9,0.3-2,0.5-3.3,0.5c-1.2,0-2.3-0.2-3.3-0.5c-2.8-0.9-4.2-3.2-4.2-6.8V30.5
		c0.1-3.6-1.6-5.5-5.3-5.5h-5.5c-0.1,0-0.2,0.1-0.2,0.2v26.1c0,3.7,0.5,6.8,1.5,9.2C102.8,63,104.2,64.8,106.1,66z"/>
	<path class="st0" d="M42.8,38.1c-0.2,0.7-0.8,1.4-1.6,1.9c-1.2,0.7-3,1.2-5.3,1.5c-11.1,1.1-18.7,3.9-19,14.4
		c0,9,6.8,13.8,16.2,13.8c0.7,0,1.5,0,2.3-0.1c2.8-0.2,5.3-0.9,7.5-2.1c0.1-0.1,0.2-0.1,0.3-0.2v1.3c0,0.1,0.1,0.2,0.2,0.2h5.7
		c0,0,0,0,0,0c3.2-0.2,4.7-1.9,4.7-5.3v-14c0-0.8-0.1-1.7-0.1-2.5c0-0.9,0-1.7,0.1-2.5v-8.1c-0.2-6-3.6-9.8-10.3-11.3
		c-2.3-0.5-5-0.8-8.2-0.8c-10,0-15.7,3.9-17.1,11.8c0,0.1,0.1,0.3,0.2,0.3H29c0.1,0,0.2-0.1,0.2-0.2c0.6-2,2.8-2.9,6.6-2.9
		c4.1,0,6.3,1,7,3c0.1,0.2,0.1,0.5,0.2,0.8c0,0,0,0,0,0C43,37.5,42.9,37.8,42.8,38.1z M43.1,47.2v4.4c0,0.8-0.1,1.6-0.3,2.3
		c-1,4.4-4.5,6.9-9.5,6.9c-3.5,0-5.3-1.7-5.6-5.1c0,0,0,0,0,0c0-1.6,0.6-2.9,1.7-4c1.1-1,2.8-1.8,5-2.2c3.1-0.6,6-1.5,8.5-2.5
		c0,0,0,0,0,0C43,46.9,43.1,47,43.1,47.2z"/>
	<path class="st0" d="M166.4,38.2c-0.3,0.7-0.8,1.4-1.6,1.9c-1.2,0.7-3,1.2-5.3,1.5c-11.1,1.1-18.7,3.9-19,14.4
		c0,9,6.8,13.8,16.2,13.8c0.7,0,1.5,0,2.3-0.1c2.8-0.2,5.3-0.9,7.5-2.1c0.1-0.1,0.2-0.1,0.3-0.2v1.3c0,0.1,0.1,0.2,0.2,0.2h5.7
		c0,0,0,0,0,0c3.2-0.2,4.7-1.9,4.7-5.3V36.5c-0.2-6-3.6-9.8-10.3-11.3c-2.3-0.5-5-0.8-8.2-0.8c-10,0-15.7,3.9-17.1,11.8
		c0,0.1,0.1,0.3,0.2,0.3h10.6c0.1,0,0.2-0.1,0.2-0.2c0.6-2,2.8-2.9,6.6-2.9c4,0,6.3,1,7,2.9c0.1,0.2,0.1,0.5,0.2,0.8c0,0,0,0,0,0
		C166.6,37.5,166.5,37.8,166.4,38.2z M166.7,46.8v4.8c0,0.8-0.1,1.5-0.3,2.2c-1,4.4-4.4,6.9-9.5,6.9c-3.5,0-5.3-1.7-5.6-5.1
		c0,0,0,0,0,0c0-1.6,0.6-2.9,1.7-4c1.1-1,2.8-1.8,5-2.2c3.1-0.6,6-1.5,8.4-2.5C166.5,46.9,166.6,46.9,166.7,46.8z"/>
	<path class="st0" d="M61.4,73.6c-2.7,0-4.5,1.3-5.3,3.7c0,0,0,0.1-0.1,0.1l-0.5,1.7l-7.1,25.1l-0.1-0.2l-7.2-24.9l-0.6-1.9
		c-0.8-2.5-2.7-3.7-5.3-3.7h-7.6c-0.2,0-0.3,0.1-0.2,0.3l15.2,43.4c0,0.1,0.1,0.1,0.2,0.1h11.4c0.1,0,0.2-0.1,0.2-0.1L69.8,74
		c0,0,0-0.1,0-0.1v-0.1c0-0.1-0.1-0.2-0.2-0.2H61.4z"/>
	<path class="st0" d="M92.7,74.4L92.7,74.4L92.7,74.4c-0.1,0-0.3-0.1-0.4-0.1l-0.1,0l0,0c-0.1,0-0.2,0-0.3-0.1c0,0-0.1,0-0.1,0l0,0
		c-0.1,0-0.1,0-0.2-0.1c-0.1,0-0.1,0-0.2-0.1c-0.1,0-0.1,0-0.2-0.1c-0.1,0-0.2,0-0.2-0.1l-0.1,0c-0.1,0-0.2-0.1-0.3-0.1l-0.1,0l0,0
		c-0.1,0-0.2-0.1-0.3-0.1c-0.1,0-0.2-0.1-0.3-0.1c0,0-0.1,0-0.1,0h-2.9c-0.2,0-0.3,0.2-0.2,0.3l15.2,43.4c0,0.1,0.1,0.1,0.2,0.1
		h11.4c0.1,0,0.2-0.1,0.2-0.1L129,74c0,0,0,0,0-0.1v-0.1c0-0.1-0.1-0.2-0.2-0.2h-8.2c-2.7,0-4.5,1.3-5.3,3.7c0,0,0,0.1-0.1,0.1
		l-0.5,1.8l-7.1,25.1l-0.1-0.2l-7.2-24.9l-0.5-1.9l-0.7-2.5c0-0.1-0.1-0.2-0.2-0.2l-0.1,0l-0.1,0c-0.3,0-1,0.1-2,0.1
		C95.4,74.8,94,74.7,92.7,74.4z"/>
	<path class="st0" d="M73.2,117.2c0,0.1,0.1,0.2,0.2,0.2H84c0.1,0,0.2-0.1,0.2-0.2V78.9c0-3.6-1.7-5.3-5.3-5.3h-5.2
		c-0.1,0-0.2,0.1-0.2,0.1l-0.3,0.8l0.3-0.7c0-0.1,0-0.2-0.1-0.2c-0.1,0-0.1,0.1-0.1,0.1v0.8l0,0c0,0,0,0,0,0.1V117.2z"/>
	<path class="st0" d="M154,117.5h5.8c0,0,0,0,0,0c3.2-0.2,4.7-1.9,4.7-5.3V85c-0.2-6-3.6-9.8-10.3-11.3c-2.3-0.5-5-0.8-8.2-0.8
		c-10,0-15.7,3.9-17.1,11.8c0,0.1,0.1,0.3,0.2,0.3h10.6c0.1,0,0.2-0.1,0.2-0.2c0.6-2,2.8-2.9,6.6-2.9c4,0,6.3,1,7,2.9
		c0.1,0.3,0.1,0.5,0.2,0.8v0c0,0.4-0.1,0.7-0.2,1c-0.6,1.8-2.9,2.9-7,3.4c-11.1,1.1-18.7,3.9-19,14.4c0,9,6.8,13.8,16.2,13.8
		c0.7,0,1.5,0,2.3-0.1c2.8-0.2,5.3-0.9,7.5-2.1c0.1-0.1,0.2-0.1,0.3-0.2v1.3C153.8,117.4,153.9,117.5,154,117.5z M153.5,102.4
		c-1,4.4-4.5,6.9-9.5,6.9c-3.5,0-5.3-1.7-5.6-5.1c0,0,0,0,0,0c0-1.6,0.6-2.9,1.7-3.9c1.1-1,2.8-1.8,5-2.2c3.1-0.6,6-1.5,8.4-2.5
		c0,0,0,0,0,0c0.1-0.1,0.3,0,0.3,0.2v4.4C153.7,101,153.6,101.7,153.5,102.4z"/>
	<path class="st0" d="M92.7,61.7L92.7,61.7c-0.2-0.1-0.3-0.2-0.5-0.3c0,0,0,0-0.1,0c-0.1-0.1-0.2-0.2-0.4-0.2c0,0-0.1,0-0.1-0.1
		c-0.1-0.1-0.2-0.1-0.4-0.2c0,0-0.1,0-0.1-0.1c-0.1-0.1-0.3-0.1-0.4-0.2c0,0-0.1,0-0.1,0c-0.5-0.3-1-0.5-1.5-0.7c0,0,0,0,0,0
		c-0.2-0.1-0.3-0.1-0.5-0.2c0,0-0.1,0-0.1,0c-0.2-0.1-0.3-0.1-0.5-0.2c0,0-0.1,0-0.1,0c-0.1,0-0.3-0.1-0.4-0.1c0,0,0,0-0.1,0
		c-0.1,0-0.3-0.1-0.4-0.1c-0.1,0-0.1,0-0.2-0.1c-0.1,0-0.3-0.1-0.4-0.1c-0.1,0-0.1,0-0.2,0c-0.1,0-0.3-0.1-0.5-0.1
		c-0.1,0-0.1,0-0.1,0c-0.1,0-0.3,0-0.4-0.1c-0.1,0-0.2,0-0.2,0c-0.1,0-0.3,0-0.4,0c-0.1,0-0.2,0-0.3,0c-0.1,0-0.2,0-0.4,0
		c-0.1,0-0.2,0-0.2,0l-0.8,0c-0.3,0-0.7,0-1,0c-0.1,0-0.2,0-0.2,0c-0.1,0-0.3,0.1-0.2,0.3c0.2,0.8,0.4,1.6,0.7,2.3c0,0,0,0,0,0
		c0.1,0.2,0.1,0.3,0.2,0.5c0,0.1,0.1,0.1,0.1,0.2c0,0.1,0.1,0.2,0.1,0.3c0,0.1,0.1,0.2,0.1,0.3c0,0.1,0.1,0.2,0.1,0.2
		c0.1,0.1,0.1,0.3,0.2,0.4v0c1,1.9,2.2,3.6,3.6,4.9l0.2,0.2c1.5,1.3,3,2.1,4.5,2.6c0.1,0,0.2,0.1,0.3,0.1c0,0,0,0,0.1,0
		c0.1,0,0.2,0.1,0.2,0.1c0,0,0.1,0,0.1,0c0.1,0,0.1,0,0.2,0.1c0,0,0.1,0,0.1,0c0.1,0,0.1,0,0.2,0c0.1,0,0.1,0,0.2,0c0,0,0.1,0,0.1,0
		c0.1,0,0.2,0,0.2,0.1c0,0,0,0,0.1,0c0.1,0,0.2,0,0.3,0.1c0,0,0,0,0,0c1.3,0.3,2.4,0.3,3.3,0.3c0.8,0,1.4-0.1,1.6-0.1l0.1,0
		C98.4,71.6,97.8,65.6,92.7,61.7z"/>
	<path class="st0" d="M26.4,120.1c-0.3-1.6-1.3-3.2-2.4-4.5c-1.3-1.6-3.3-1.7-5.2-1.1c-1.9,0.6-2.8,2.1-2.8,4c0,2.4,0.2,4.9,0.7,7.3
		c1.9,8.1,3.7,16.3,3.1,24.7c-0.3,4.3-0.7,8.7-3,12.5c-1.3,2.2-3.2,3.1-5.2,2.5c-1.8-0.4-3.1-2.2-3-4.7c0.1-2,0.9-4,1.4-5.9
		c0.5-1.9,1.3-3.8,1.6-5.7c0.3-2.2-1.3-3.6-3.5-3.8c-2.9-0.2-5.3,1.1-6.5,3.9c-0.7,1.6-1.1,3.4-1.6,5.1v4.3c0.1,0.6,0.3,1.2,0.4,1.8
		c0.9,5.7,4.3,9.7,9.3,11c6.3,1.6,15.2-0.9,17.4-11.1c1.7-7.7,1.7-15.6,1.3-23.4C28.2,131.4,27.3,125.7,26.4,120.1z"/>
	<path class="st0" d="M188.2,146.7c-0.7-4.3-4.7-7.1-9.1-7.3c-3-0.1-5.7,0.9-8.5,3c-0.1-1.1,0-1.9-0.2-2.5c-0.3-0.8-0.7-1.7-1.4-2.1
		c-2.8-1.6-6,0.1-6.3,3.2c-0.3,2.9-0.3,5.8-0.4,8.7c0,2-0.6,3-2,3.3c0,0,0-0.1,0-0.1c-0.4,0.1-0.9,0.1-1.4,0.1
		c-2-0.1-3.2-1.2-4.1-2.9c-0.9-1.7-1.6-3.5-2.4-5.3c-1.1-2.4-2.7-4.5-5.2-5.5c-5.1-2.1-10.1-1.8-14.5,1.6c-5.3,4-7.1,9.7-7.2,16.2
		c0,1.7-0.4,3.3-1.1,4.7c-0.4,0.7-0.8,1.3-1.3,1.9c-1.3,1.6-3.2,2.2-5.2,1.8c-1.9-0.4-3.1-1.8-3.3-3.7c-0.3-3.2-0.6-6.4-0.5-9.6
		c0.1-3.5,0.7-6.9,1.1-10.4c0.2-1.7-0.3-2.9-2.2-3.3c-4.5-1.1-6.4,0.4-6.3,5c0,0.9,0.1,1.8,0,2.7c-0.2,4-0.3,8-0.8,12
		c-0.3,2.2-1.1,4.5-2.3,6.5c-0.2,0.4-0.4,0.6-0.7,0.9c0-0.1,0-0.1,0-0.1c-1.4,1.4-3.3,1-4.5-0.9c-0.7-1.3-1.3-2.7-1.4-4.2
		c-0.4-4.1-0.5-8.3-0.8-12.4c-0.5-7.2-4.3-10.9-10.8-10.2c-2.2,0.3-4.4,1.7-6.5,2.7c-0.8,0.4-1.5,1.1-2.6,2c0.1-1.5,0.3-2.5,0.2-3.4
		c-0.1-0.7-0.5-1.7-1.1-2c-3-1.8-5.9-0.3-6.4,3.2c-0.1,0.8-0.2,1.7-0.2,2.5c0,6,0,11.9,0,17.9c0,0.7-0.2,1.6-0.4,2.2c0,0,0,0,0,0
		c-0.4,1-1.3,1.7-2.4,2c-1.7,0.4-3.3-0.3-4.1-2.5c-0.9-2.4-1.6-4.9-1.8-7.5c-0.4-4.3-0.3-8.7-0.7-13c-0.3-3.7-3.5-5-6.4-2.5
		c-1,0.9-1.8,2.6-1.8,4c-0.1,2.4,0.9,4.7,0.8,7.1c-0.1,3.2-0.5,6.4-1.4,9.5c-0.8,2.8-3.2,3.9-5.7,3.5c-2.1-0.4-3.5-2.2-3.4-5.2
		c0.1-2.2,0.5-4.4,0.9-6.5c0.7-3.1,1.6-6.2,2.3-9.4c0.5-2.4-0.4-3.3-2.9-4c-3.2-0.9-4.8-0.5-5.5,1.8c-0.8,2.4-1.5,5-1.6,7.5
		c-0.3,4.9-0.7,9.9-0.1,14.7c0.7,4.9,3.9,8.3,9.1,9c5,0.7,8.6-1.4,11.2-5.6c0.5-0.8,0.9-1.5,1.4-2.4c2.7,8,6.9,10,13.2,6.4
		c0,0,0,0,0,0c0.2-0.1,0.5-0.3,0.8-0.4c1.9,2.2,3.7,2.9,5.5,2.1c2.3-1.1,2-3.2,1.7-5.1c-0.4-3-1-5.9-1.3-8.8
		c-0.3-3.7,0.5-7.1,3.4-9.7c1.9-1.7,4.3-2.1,6.7-1.3c2.3,0.8,2.8,2.9,3,5c0.2,2.1,0,4.3,0.3,6.4c0.4,3.1,0.7,6.2,1.6,9.1
		c1,3.3,3.4,5.2,6.9,5.8c1.3,0.2,2.5,0.3,3.7,0.1c0,0,0,0,0,0.1c2.8-0.3,5.2-1.6,7.3-4.1c2.6,3.8,6.4,4.5,10.4,4.1
		c2.1-0.2,3.9-1,5.5-2.1c0,0.1,0,0.1,0.1,0.2c1.4-1.1,2.7-2.5,3.9-4c4.1,5.7,9.6,6.1,15.4,4.3c6.1-1.9,8.5-7.2,9.7-13.3
		c1.8,1.2,3.7,1.6,5.5,1.5c0,0,0,0.1,0,0.1c1.1,0,2.2-0.2,3.3-0.5c0.2,1.3,0.4,2.5,0.6,3.7c0.5,2.7,0.9,5.5,1.6,8.2
		c0.5,2.2,2.7,3.2,4.9,2.8c1.7-0.4,2.4-1.9,2-4.2c-0.1-0.8-0.4-1.5-0.5-2.3c-0.5-4.8-1.1-9.6-1.4-14.4c-0.2-3.5,1-4.6,4.5-5.5
		c4.1-1.1,6.1,0.7,5.8,4.8c-0.2,1.8-0.4,3.6-0.2,5.4c0.2,2.1,1.5,3,3.7,2.8c2.3-0.2,4.2-1.7,4.5-4.4
		C188.6,153,188.8,149.8,188.2,146.7z M143.7,161.3c-1,2.1-3,3.2-5.5,2.7c-2.4-0.4-3.4-2.2-3.9-4.3c-0.9-3.7-0.4-7.3,1.2-10.8
		c0.9-1.9,2.1-3.5,4.5-3.4c2.4,0.1,4,1.4,4.8,3.6c0.6,1.6,0.9,3.2,1.4,5.2C145.4,156.5,144.8,159.1,143.7,161.3z"/>
	<path class="st0" d="M107.6,130.6c0,2.6,2.1,4.5,4.8,4.4c2.3,0,3.8-1.5,3.7-4c-0.1-2.3-2.2-4-5-4
		C109.1,127.1,107.6,128.5,107.6,130.6z"/>
</g>
</svg>
