<svg width="33" height="32" viewBox="0 0 33 32" fill="none" xmlns="http://www.w3.org/2000/svg">
<path d="M16.5 26.6666C19.329 26.6666 22.0421 25.5428 24.0425 23.5424C26.0429 21.542 27.1667 18.8289 27.1667 16C27.1667 13.171 26.0429 10.4579 24.0425 8.45749C22.0421 6.4571 19.329 5.33329 16.5 5.33329C13.671 5.33329 10.9579 6.4571 8.95755 8.45749C6.95716 10.4579 5.83335 13.171 5.83335 16C5.83335 18.8289 6.95716 21.542 8.95755 23.5424C10.9579 25.5428 13.671 26.6666 16.5 26.6666ZM16.5 29.3333C9.13602 29.3333 3.16669 23.364 3.16669 16C3.16669 8.63596 9.13602 2.66663 16.5 2.66663C23.864 2.66663 29.8334 8.63596 29.8334 16C29.8334 23.364 23.864 29.3333 16.5 29.3333Z" fill="white"/>
<path d="M21.8734 13.1733H18.5334V12.344H21.8747V13.1747L21.8734 13.1733ZM16.3094 16.5773C16.5254 16.9107 16.632 17.316 16.632 17.792C16.632 18.2853 16.512 18.7253 16.264 19.116C16.0988 19.3904 15.878 19.6272 15.6158 19.8112C15.3535 19.9951 15.0557 20.1221 14.7414 20.184C14.3555 20.2612 13.9628 20.2987 13.5694 20.296H9.83337V12H13.84C14.8494 12.016 15.5654 12.3093 15.988 12.884C16.2414 13.236 16.368 13.6587 16.368 14.1507C16.368 14.6573 16.2414 15.064 15.984 15.372C15.8427 15.5453 15.632 15.7027 15.3534 15.844C15.7747 15.9987 16.0947 16.2413 16.3094 16.5773ZM11.7467 15.2707H13.5027C13.8627 15.2707 14.1547 15.2027 14.3787 15.0653C14.604 14.928 14.716 14.6853 14.716 14.336C14.716 13.9493 14.568 13.6933 14.2707 13.5707C13.953 13.4755 13.6222 13.4314 13.2907 13.44H11.7467V15.2707ZM14.8854 17.6733C14.8854 17.2427 14.708 16.9453 14.3574 16.7853C14.16 16.6947 13.8827 16.648 13.528 16.644H11.7467V18.8547H13.5C13.86 18.8547 14.14 18.808 14.34 18.7093C14.7027 18.5293 14.8854 18.1853 14.8854 17.6733ZM23.1134 16.324C23.1534 16.596 23.172 16.9893 23.1654 17.504H18.8387C18.8627 18.1013 19.068 18.5187 19.46 18.7573C19.6947 18.908 19.98 18.9813 20.316 18.9813C20.6694 18.9813 20.956 18.892 21.1787 18.708C21.3113 18.5948 21.4197 18.456 21.4974 18.3H23.084C23.0414 18.6533 22.8507 19.0107 22.508 19.3747C21.9747 19.952 21.2307 20.2413 20.272 20.2413C19.5101 20.2512 18.769 19.9925 18.1787 19.5107C17.576 19.0227 17.272 18.2307 17.272 17.1307C17.272 16.1 17.5454 15.3107 18.0907 14.7613C18.6374 14.2107 19.3454 13.9373 20.2174 13.9373C20.7334 13.9373 21.1987 14.0293 21.6147 14.2147C22.028 14.4013 22.3707 14.6933 22.64 15.0947C22.884 15.4493 23.04 15.8573 23.1134 16.324ZM21.5534 16.4787C21.524 16.0653 21.3854 15.7533 21.1374 15.54C20.8814 15.322 20.5535 15.207 20.2174 15.2173C19.8174 15.2173 19.5094 15.3333 19.2894 15.5587C19.0694 15.7853 18.932 16.092 18.876 16.4787H21.5534Z" fill="white"/>
</svg>
