<svg xmlns="http://www.w3.org/2000/svg" viewBox="0 0 270.98 119.18"><defs><style>.cls-1{fill:#fff;}</style></defs><g id="Layer_2" data-name="Layer 2"><g id="Layer_1-2" data-name="Layer 1"><rect class="cls-1" x="15.59" y="54.49" width="255.39" height="2.52"/><path class="cls-1" d="M15.59,54.49V77.14A8.57,8.57,0,0,1,24,71.57q12.09,0,12.1,16.11,0,8.22-3.33,12.1t-10,3.88a10.34,10.34,0,0,1-5.14-1,5.34,5.34,0,0,1-2.43-3.43L14.75,103H0v-1.16H3.56V55.66H0V54.49ZM23,76.65c-.44-1.53-1.28-2.3-2.53-2.3s-2.37.78-3.36,2.33a11.88,11.88,0,0,0-1.49,6.41v12a9.26,9.26,0,0,0,1.13,4.72A3.55,3.55,0,0,0,20,101.78c1.4,0,2.36-1,2.88-2.84a43.91,43.91,0,0,0,.77-10V85.61Q23.61,79,23,76.65Z"/><path class="cls-1" d="M62.88,74q-2.4,0-4.21,3.11a14.43,14.43,0,0,0-1.81,7.37v17.34h4.6V103H41.27v-1.16h3.56V73.38H41.27V72.22H56.86v6.21a8.78,8.78,0,0,1,3.24-5.08,8.89,8.89,0,0,1,5.43-1.78,7.13,7.13,0,0,1,5,1.72,6.19,6.19,0,0,1,1.91,4.85A7.26,7.26,0,0,1,71,83a5.38,5.38,0,0,1-4.36,1.68,5,5,0,0,1-4.34-1.94q-1.38-1.94-.35-5.37h2.33Q65.85,74,62.88,74Z"/><path class="cls-1" d="M80.7,99.36q-4.17-4.31-4.17-12t4.69-11.74a17.5,17.5,0,0,1,11.93-4.08q14.68,0,14.1,14.75H89v2.52q0,6.34,1.62,9.58a5.76,5.76,0,0,0,5.63,3.23q7.5,0,9.83-8l1.16.2a13.33,13.33,0,0,1-4.43,7.24q-3.19,2.59-9.6,2.59Q84.87,103.66,80.7,99.36ZM89.08,85h6.66V81.86a27.78,27.78,0,0,0-.61-7.15,2.44,2.44,0,0,0-2.46-1.91,2.88,2.88,0,0,0-2.72,2q-.87,2-.87,7Z"/><path class="cls-1" d="M133,73.38V72.22h16.69v1.16H147l5.82,21.8,5.76-21.8h-4.47V72.22h8.74v1.16h-2.72L152.41,103h-8.87l-5.62-19.86L131.84,103h-8.67l-9.58-29.63h-2.91V72.22h19.6v1.16H126.4l5.95,22L137,80.24l-1.62-6.86Z"/><path class="cls-1" d="M170.29,99.36q-4.17-4.31-4.17-12t4.69-11.74a17.55,17.55,0,0,1,11.94-4.08q14.69,0,14.1,14.75H178.61v2.52q0,6.34,1.61,9.58a5.76,5.76,0,0,0,5.63,3.23q7.5,0,9.83-8l1.17.2a13.39,13.39,0,0,1-4.43,7.24q-3.21,2.59-9.61,2.59Q174.47,103.66,170.29,99.36ZM178.67,85h6.66V81.86a27.32,27.32,0,0,0-.61-7.15,2.43,2.43,0,0,0-2.46-1.91,2.88,2.88,0,0,0-2.72,2q-.87,2-.87,7Z"/><path class="cls-1" d="M224,74q-2.4,0-4.21,3.11A14.43,14.43,0,0,0,218,84.51v17.34h4.6V103H202.41v-1.16H206V73.38h-3.56V72.22H218v6.21a8.78,8.78,0,0,1,3.24-5.08,8.89,8.89,0,0,1,5.43-1.78,7.13,7.13,0,0,1,5,1.72,6.19,6.19,0,0,1,1.91,4.85A7.26,7.26,0,0,1,232.1,83a5.38,5.38,0,0,1-4.36,1.68,5,5,0,0,1-4.34-1.94q-1.38-1.94-.35-5.37h2.33Q227,74,224,74Z"/><path class="cls-1" d="M236.37,73.38V72.22h18.76v1.16h-3.49l7.05,21.48,7.5-21.48h-4.33V72.22H271v1.16h-3.23l-12.1,34.87q-2.13,6.07-4.79,8.51a9.26,9.26,0,0,1-6.47,2.42,9.43,9.43,0,0,1-6-1.74,5.47,5.47,0,0,1-2.2-4.47,5.61,5.61,0,0,1,1.42-4.14,5.07,5.07,0,0,1,3.75-1.42q5.37,0,5.37,4.46a8.61,8.61,0,0,1-.39,2.33h-2.26a3.49,3.49,0,0,0-.13,2.46,1.66,1.66,0,0,0,1.75,1,6,6,0,0,0,4.72-2.62,28.49,28.49,0,0,0,4-8l1.42-4h-5.69L239,73.38Z"/><path class="cls-1" d="M.57.74H20.71q9.36,0,14,2.53t4.68,8.52q0,9.23-11.11,11V23q13.47,1.68,13.47,11.72Q41.79,42,36.27,45t-15.9,2.93H.57V46.61H5V2H.57ZM18.08,2V22.76h1.75c2.34,0,4-.7,4.89-2.12s1.38-3.58,1.38-6.5V11c0-3.32-.41-5.65-1.21-7s-2.36-2-4.65-2Zm0,22V46.61h3.17c2.47,0,4.2-.86,5.18-2.56s1.49-4.22,1.49-7.55V32.93q0-4.44-1.82-6.66T19.63,24Z"/><path class="cls-1" d="M69,24H65.43V46.61h4.38v1.28H47.92V46.61H52.3V2H47.92V.74H68.26q8.76,0,12.43.91a13,13,0,0,1,5.15,2.19q3.22,2.63,3.23,8.35t-2.83,8.18C84.36,22,81.48,23,77.62,23.3v.21c3.64.49,6.17,1.57,7.61,3.23s2.16,4.44,2.16,8.35v3.57a19.09,19.09,0,0,0,.37,4.71,1.53,1.53,0,0,0,1.58,1.22,2.17,2.17,0,0,0,1.92-1.11,14.84,14.84,0,0,0,1.31-4.69l1.15.14c-.5,3.81-1.36,6.37-2.6,7.68s-3.69,2-7.37,2S77.45,47.7,75.9,46s-2.32-5-2.32-9.74V31.32a11.79,11.79,0,0,0-1-5.52A3.75,3.75,0,0,0,69,24ZM65.43,2V22.76h2.16c2.56,0,4.45-.78,5.69-2.35s1.85-4.13,1.85-7.68v-2q0-5.32-1.79-7C72.15,2.59,70.26,2,67.65,2Z"/><path class="cls-1" d="M100.18.74h20.54V2H117V46.61h3.7v1.28H100.18V46.61h3.71V2h-3.71Z"/><path class="cls-1" d="M173.86,23.51q0,13.87-7.81,19.32-7.2,5.06-19.8,5.06H127.19V46.61h4.44V2h-4.44V.74H148Q160.93.74,167.4,6T173.86,23.51Zm-29.09,23.1h2.56q6.79,0,9.73-4.82T160,25.66V21.75Q160,6.6,154.2,3.5A16.91,16.91,0,0,0,146.38,2h-1.61Z"/><path class="cls-1" d="M206.26,47.21c2.2,0,3.6-.4,4.21-1.21a7.09,7.09,0,0,0,.91-4.11V28.83h-4.31V27.34h19.39v1.49h-2.62v19h-1a4,4,0,0,0-3.44-1.68,36.45,36.45,0,0,0-5.62,1.21,32.58,32.58,0,0,1-8,1.21q-11,0-17-5.93t-6-17.81q0-11.89,6.3-18.35T206,0a33.92,33.92,0,0,1,8.25,1,37,37,0,0,0,4.81,1,1.47,1.47,0,0,0,1-.31,4,4,0,0,0,.74-1h.74l.54,14.62h-1.22a48.06,48.06,0,0,0-6.63-10.27c-2.22-2.5-4.7-3.74-7.44-3.74q-10.31,0-10.31,20.14v5.32q0,10.1,2.53,15.25T206.26,47.21Z"/><path class="cls-1" d="M233.47.74h35l.67,13.34H268Q265.13,7.27,262,4.75t-9.09-2.53h-2.36V23h2.29a6.88,6.88,0,0,0,5.33-2.39,13.83,13.83,0,0,0,3-6.43h1V34.15h-1.15q-1.21-5.05-3.26-7.21a7.42,7.42,0,0,0-5.63-2.16h-1.62V46.4h2.56a15.68,15.68,0,0,0,10.54-3.7,18.78,18.78,0,0,0,6-9.5H271l-.54,14.69h-37V46.4h4V2.22h-4Z"/></g></g></svg>