<svg xmlns="http://www.w3.org/2000/svg" viewBox="0 0 297.77 130.96"><defs><style>.cls-1{fill:#fff;}</style></defs><g id="Layer_2" data-name="Layer 2"><g id="Layer_1-2" data-name="Layer 1"><rect class="cls-1" x="17.13" y="59.88" width="280.64" height="2.77"/><path class="cls-1" d="M17.13,59.88V84.76a9.41,9.41,0,0,1,9.24-6.11q13.29,0,13.29,17.7,0,9-3.66,13.29T25,113.9a11.49,11.49,0,0,1-5.65-1.13A5.9,5.9,0,0,1,16.71,109l-.5,4.19H0v-1.28H3.91V61.16H0V59.88Zm8.11,24.35c-.48-1.68-1.4-2.53-2.78-2.53s-2.6.86-3.69,2.56a13,13,0,0,0-1.64,7v13.22a10.12,10.12,0,0,0,1.25,5.19,3.89,3.89,0,0,0,3.55,2.13q2.31,0,3.16-3.12t.86-11v-3.7Q26,86.75,25.24,84.23Z"/><path class="cls-1" d="M69.09,81.35q-2.62,0-4.62,3.41a15.89,15.89,0,0,0-2,8.1v19h5.05v1.28H45.35v-1.28h3.91V80.64H45.35V79.36H62.48v6.82A9.57,9.57,0,0,1,72,78.65a7.87,7.87,0,0,1,5.44,1.88,6.82,6.82,0,0,1,2.09,5.33A8,8,0,0,1,78,91.16,5.94,5.94,0,0,1,73.18,93a5.44,5.44,0,0,1-4.76-2.14c-1-1.42-1.15-3.38-.39-5.9h2.56Q72.36,81.36,69.09,81.35Z"/><path class="cls-1" d="M88.68,109.18Q84.09,104.46,84.09,96t5.16-12.9q5.15-4.48,13.11-4.48,16.14,0,15.5,16.2h-20v2.78q0,7,1.78,10.52t6.18,3.55q8.25,0,10.81-8.81l1.28.21a14.71,14.71,0,0,1-4.87,8q-3.52,2.85-10.56,2.84Q93.26,113.9,88.68,109.18Zm9.2-15.75h7.32V90a30.14,30.14,0,0,0-.67-7.86,2.66,2.66,0,0,0-2.7-2.09,3.16,3.16,0,0,0-3,2.24q-1,2.24-1,7.71Z"/><path class="cls-1" d="M146.15,80.64V79.36h18.34v1.28h-2.92l6.4,24,6.32-24h-4.9V79.36H179v1.28h-3l-8.53,32.55h-9.74l-6.18-21.82-6.68,21.82h-9.53L124.82,80.64h-3.2V79.36h21.54v1.28H138.9l6.53,24.17,5.12-16.64-1.77-7.53Z"/><path class="cls-1" d="M187.13,109.18q-4.59-4.73-4.59-13.15t5.16-12.9q5.15-4.48,13.11-4.48,16.14,0,15.5,16.2H196.26v2.78q0,7,1.78,10.52t6.18,3.55q8.25,0,10.81-8.81l1.28.21a14.71,14.71,0,0,1-4.87,8q-3.52,2.85-10.56,2.84Q191.72,113.9,187.13,109.18Zm9.2-15.75h7.32V90a30.14,30.14,0,0,0-.67-7.86,2.66,2.66,0,0,0-2.7-2.09,3.16,3.16,0,0,0-3,2.24q-1,2.24-1,7.71Z"/><path class="cls-1" d="M246.16,81.35q-2.62,0-4.62,3.41a15.79,15.79,0,0,0-2,8.1v19h5v1.28H222.42v-1.28h3.91V80.64h-3.91V79.36h17.13v6.82a9.55,9.55,0,0,1,9.53-7.53,7.83,7.83,0,0,1,5.43,1.88,6.79,6.79,0,0,1,2.1,5.33,8,8,0,0,1-1.56,5.3,6,6,0,0,1-4.8,1.85,5.44,5.44,0,0,1-4.76-2.14c-1-1.42-1.15-3.38-.39-5.9h2.56Q249.43,81.36,246.16,81.35Z"/><path class="cls-1" d="M259.74,80.64V79.36h20.61v1.28h-3.84l7.75,23.6,8.25-23.6h-4.77V79.36h10v1.28h-3.56L280.92,119q-2.34,6.69-5.26,9.35a10.12,10.12,0,0,1-7.11,2.66,10.4,10.4,0,0,1-6.61-1.91,6,6,0,0,1-2.42-4.91,6.13,6.13,0,0,1,1.57-4.55,5.58,5.58,0,0,1,4.12-1.56q5.9,0,5.9,4.9a9.34,9.34,0,0,1-.43,2.56H268.2a3.89,3.89,0,0,0-.15,2.7,1.84,1.84,0,0,0,1.92,1.07,6.55,6.55,0,0,0,5.19-2.88,31.1,31.1,0,0,0,4.34-8.78l1.56-4.41h-6.25L262.65,80.64Z"/><path class="cls-1" d="M.63.81H22.76q10.29,0,15.43,2.78T43.33,13q0,10.14-12.21,12.14v.15q14.81,1.85,14.8,12.87,0,8.07-6.07,11.29T22.39,52.62H.63V51.21H5.44v-49H.63ZM19.87,2.22V25H21.8c2.56,0,4.35-.77,5.36-2.33s1.52-3.93,1.52-7.14V12.06c0-3.65-.45-6.2-1.33-7.66s-2.59-2.18-5.11-2.18Zm0,24.2V51.21h3.48c2.71,0,4.61-.93,5.7-2.81s1.63-4.64,1.63-8.29V36.19q0-4.89-2-7.33t-7.11-2.44Z"/><path class="cls-1" d="M75.82,26.42H71.9V51.21h4.81v1.41h-24V51.21h4.81v-49H52.66V.81H75q9.61,0,13.65,1a14.12,14.12,0,0,1,5.66,2.41q3.56,2.88,3.55,9.18t-3.1,9q-3.1,2.7-9.48,3.22v.22c4,.54,6.79,1.73,8.37,3.55S96,34.27,96,38.56v3.92a21.21,21.21,0,0,0,.41,5.18A1.68,1.68,0,0,0,98.17,49a2.38,2.38,0,0,0,2.11-1.22,16,16,0,0,0,1.44-5.14l1.26.15q-.81,6.28-2.85,8.43T92,53.36q-6.07,0-8.62-2.85T80.85,39.82V34.41c0-2.76-.35-4.78-1.07-6.06S77.75,26.42,75.82,26.42ZM71.9,2.22V25h2.37q4.22,0,6.25-2.59t2-8.43V11.84c0-3.9-.66-6.47-2-7.73S77.2,2.22,74.34,2.22Z"/><path class="cls-1" d="M110.09.81h22.57V2.22h-4.07v49h4.07v1.41H110.09V51.21h4.07v-49h-4.07Z"/><path class="cls-1" d="M191.05,25.83q0,15.24-8.59,21.24-7.92,5.55-21.75,5.55h-21V51.21h4.89v-49h-4.89V.81h22.87q14.2,0,21.31,5.81T191.05,25.83Zm-32,25.38h2.81q7.47,0,10.69-5.29T175.8,28.2V23.9q0-16.65-6.36-20c-2-1.09-4.89-1.63-8.59-1.63h-1.77Z"/><path class="cls-1" d="M226.65,51.88c2.41,0,4-.44,4.62-1.33s1-2.4,1-4.52V31.67h-4.74V30.05h21.32v1.62H246V52.55h-1.11a4.35,4.35,0,0,0-3.77-1.85A40.19,40.19,0,0,0,234.9,52a35.81,35.81,0,0,1-8.77,1.33q-12.06,0-18.69-6.51t-6.62-19.58q0-13.07,6.92-20.17T226.35,0a36.79,36.79,0,0,1,9.07,1.15,40.35,40.35,0,0,0,5.29,1.14A1.64,1.64,0,0,0,241.82,2a4.34,4.34,0,0,0,.81-1.15h.82L244,16.87h-1.33a53.22,53.22,0,0,0-7.29-11.28q-3.67-4.11-8.18-4.11-11.33,0-11.32,22.13v5.84q0,11.11,2.77,16.77T226.65,51.88Z"/><path class="cls-1" d="M256.55.81H295l.74,14.66h-1.33c-2.07-5-4.25-8.4-6.51-10.25s-5.6-2.78-10-2.78h-2.59V25.31h2.52a7.54,7.54,0,0,0,5.85-2.63A15.15,15.15,0,0,0,287,15.62h1.11v21.9h-1.26Q285.56,32,283.3,29.6a8.18,8.18,0,0,0-6.18-2.37h-1.78V51h2.82a17.27,17.27,0,0,0,11.58-4.07,20.7,20.7,0,0,0,6.55-10.43h1.48l-.59,16.13H256.55V51h4.36V2.44h-4.36Z"/></g></g></svg>