<?xml version="1.0" encoding="utf-8"?>
<!-- Generator: Adobe Illustrator 26.0.3, SVG Export Plug-In . SVG Version: 6.00 Build 0)  -->
<svg version="1.1" id="Layer_1" xmlns="http://www.w3.org/2000/svg" xmlns:xlink="http://www.w3.org/1999/xlink" x="0px" y="0px"
	 viewBox="0 0 170.2 165" style="enable-background:new 0 0 170.2 165;" xml:space="preserve">
<style type="text/css">
	.st0{fill:#161615;}
</style>
<g id="Layer_2_00000106830885903409220100000013711759616364395942_">
	<g id="Layer_1-2">
		<path class="st0" d="M64.8,48.9c-0.6-2.5-2.9-4.1-5.4-4l-0.2,0.6l-0.2,1.1l0.2,14.2c0.2,4.2,0.2,8.7,0.2,13.6
			c1.7-0.9,3.2-3.3,4.5-7.2c1.2-3.6,1.8-7.3,1.9-11C65.8,53.7,65.5,51.3,64.8,48.9z"/>
		<path class="st0" d="M110.7,59.5v-2.2c-0.1-2.9-1.2-5.7-3.1-7.9c-1.7-2.1-4.2-3.4-6.9-3.4c-2.7,0-4.5,1.6-5.4,4.7
			c-0.9,3.1-1.3,6.4-1.2,9.6c0,1.5,0,2.8,0.1,3.8v3.2L94,72.9c-0.2,1.7-0.2,3.5-0.2,5.5c0,4.3,0.1,8.6,0.4,12.8
			c0.3,5.9,1.1,11.8,2.4,17.5c1.3,5.9,3.2,8.9,5.7,8.9c1.5,0,3-0.6,4-1.7c1.3-1.3,2.2-3,2.8-4.7c1.5-4.3,2.4-8.7,2.7-13.2
			c0.4-4.1,0.6-7.6,0.6-10.6c0-3.6-0.3-8.3-0.8-14.2C110.9,67.1,110.7,62.5,110.7,59.5z"/>
		<path class="st0" d="M161.1,41.3c-7.3-13.7-18.4-25-31.9-32.5c-16.8-9-32.3-9-43.1-8.8C71.7,0.3,44.5,0.7,23.7,20.8
			C3.9,39.9,1.9,65,0.6,80.7c-0.8,9.5-1.9,25,5.7,42.2c3.8,9.3,9.8,17.5,17.4,24c7.7,6.5,14.9,9.3,21.4,11.7
			c4,1.5,20.5,7.4,43.6,6.4c12.3-0.6,26.6-1.2,42.2-10.1c10.3-5.8,19.1-14.1,25.7-24c1.3-2,6.1-9.8,9.4-22.8
			C168.8,96.8,175.9,69.2,161.1,41.3z M35.7,122.2c-1.9,0-3.8-0.3-5.6-0.8c-1.6-0.4-3.1-1-4.5-1.7c-5.3-3.4-8-12.8-8-28.2v-9.9
			c0-3.2,0-6.1,0.1-8.6c0.1-2.5,0.2-5.3,0.5-8.2c0.2-2.6,0.5-5.1,1.1-7.6c0.6-2.3,1.4-4.5,2.4-6.7c0.8-2,2-3.9,3.5-5.4
			c1.6-1.4,3.5-2.5,5.5-3.2c2.4-0.9,4.9-1.4,7.4-1.3c1-0.1,2,0.2,2.8,0.8c0.6,0.5,1,1.3,1,2.2c0,0.8-0.3,1.6-0.8,2.2
			c-0.4,0.6-1.1,1-1.9,1.1h-5.7c-1.6,0-3,1-4.2,3c-1.3,2.4-2.2,5.1-2.5,7.8c-0.9,4.8-1.4,9.6-1.6,14.4v0.6L25,84.1
			c-0.2,3.4-0.2,7.3-0.2,11.6c0,2.5,0.1,5,0.4,7.4c0.3,2.5,1,4.9,2,7.2c1,2.2,2.7,3.8,4.9,4.7c1.3,0.5,2.6,0.7,4,0.7
			c1,0,1.9-0.4,2.6-1c0.9,0,1.8,0.2,2.6,0.7c0.7,0.4,1.1,1.2,1,2C42.3,120.6,40.1,122.2,35.7,122.2z M76.1,121.6
			c-0.5,0.6-1.2,0.9-1.9,0.9c-1.8,0-3.4-1.9-4.8-5.8c-1.7-4.1-2.9-8.5-3.7-12.8l-0.8-4.1c-2.3-11.4-3.8-18-4.4-19.6h-1.4
			c0,2.3,0,4.4-0.1,6.4v6.6c0,10.7,0.8,19.1,2.3,25.1l-1.3,3.2h-3.4l-1.6-1.8l0.1-8c0-7.2-0.4-18.1-1.1-32.8
			c-0.7-15.6-1-26.5-1-32.8c0-3.8,1.3-5.8,4-5.8c3.8-0.2,7.6,1,10.6,3.3c2.8,2.3,4.3,5.8,4.2,9.4v8.4c0,1.4-0.2,2.8-0.6,4.1
			c-0.3,1.3-0.8,2.6-1.3,3.8l-2.3,4.3l-1.9,3.6l0.6,2.9l1.7,8.5c1.1,6.2,2.2,11.2,3.2,15c0.9,3.6,2.2,7.1,3.8,10.4l0.7,1.4
			c0.7,1.2,1.1,2.5,1.2,3.8C76.8,120.3,76.6,121,76.1,121.6z M102.6,122.8c-2.1,0-4.1-0.7-5.8-2c-1.8-1.4-3.3-3.2-4.3-5.3
			c-2.4-5-3.8-10.5-4.3-16c-0.7-5.2-1.1-10.5-1.1-15.7c0-0.8,0-1.6,0.1-2.4v-2.1c0-0.4,0-0.6-0.1-0.6v-2.2l0.1-8.4
			c0.1-2.6,0.4-6.6,1-12.2c0.4-3.8,1.3-7.6,2.7-11.2c0.4-1.4,1.2-2.6,2.2-3.7c0.8-0.8,1.9-1.3,3-1.3c3,0,5.9,0.5,8.7,1.7
			c2.5,1.1,4.7,2.8,6.5,4.9c1.7,2.2,3.1,4.7,4.1,7.4c1.1,3,1.9,6.1,2.4,9.3c0.5,3.5,0.7,7.1,0.7,10.7v1c0,2.5,0,4.7,0.1,6.7l0.1,6.8
			C118.7,111.3,113.4,122.8,102.6,122.8z M149.7,119.5c-0.6,0.6-1.4,0.9-2.3,0.9c-1.3,0-2.5-1.4-3.6-4.3c-1.2-2.9-2.1-6-2.6-9.1
			c-1-4.5-1.5-7.5-1.7-9l-0.6-2.8l-1.1,8.9c-0.4,3.7-1,7.4-1.9,11v1.3c0,3-1,4.4-3.1,4.4c-0.9,0-1.8-0.2-2.5-0.7
			c-0.7-0.4-1.1-1.2-1.1-2c0-2.9,0.4-5.8,1-8.6c0.7-3.2,1.6-6.9,2.9-11.3l1.2-4.7c1-3.8,1.6-7.7,1.7-11.6c0-2.3-1-8-3.1-17.2
			s-3.5-14.3-4.4-15.6v-1.3c-0.8-0.8-1.3-1.9-1.2-3c0-0.7,0.4-1.4,1.1-1.7c0.8-0.5,1.7-0.7,2.6-0.7c1,0,1.8,0.7,2.4,2
			c1.2,2.2,2.4,6.4,3.6,12.4c0.7,2.7,1.1,5,1.3,6.8l0.8,4.4l0.5-2.9l0.4-2.4c0.3-1.9,0.5-3.2,0.6-3.8c0.3-2.1,0.5-4.2,0.5-6.2v-4
			c-0.1-1.8,0.3-3.6,1.1-5.2c1-1.4,2.6-2.3,4.3-2.7l2.2,2.9c-0.6,1-1.1,2.1-1.4,3.3c-0.3,1.1-0.5,2.2-0.5,3.4
			c-0.1,1.2-0.1,2.5-0.1,3.7v1.3c-1.4,4.4-2.4,8.8-3,13.4c-0.9,4.6-1.4,9.2-1.6,13.9c0.1,3.2,0.7,6.4,1.6,9.4
			c1.1,3.8,2.7,9.1,4.9,15.8c1.4,4.3,2.2,7.5,2.2,9.5C150.6,118.2,150.3,118.9,149.7,119.5z"/>
	</g>
</g>
</svg>
