<svg xmlns="http://www.w3.org/2000/svg" viewBox="0 0 170.19 165.02"><defs><style>.cls-1{fill:#fff;}</style></defs><g id="Layer_2" data-name="Layer 2"><g id="Layer_1-2" data-name="Layer 1"><path class="cls-1" d="M64.8,48.91a5.27,5.27,0,0,0-5.4-4l-.24.6-.24,1.08.24,14.17q.24,6.24.24,13.57Q62,73,63.9,67.1a37,37,0,0,0,1.86-11A26.1,26.1,0,0,0,64.8,48.91Z"/><path class="cls-1" d="M110.67,59.48V57.32a13.05,13.05,0,0,0-3.06-7.93,8.69,8.69,0,0,0-6.9-3.36q-4.09,0-5.41,4.68a32,32,0,0,0-1.2,9.61q0,2.28.12,3.84V67.4L94,72.93q-.24,2.52-.24,5.52,0,6.48.36,12.85a105,105,0,0,0,2.4,17.53q1.92,8.9,5.65,8.89a5.59,5.59,0,0,0,4-1.74,11.19,11.19,0,0,0,2.76-4.74A47.15,47.15,0,0,0,111.64,98c.39-4.09.6-7.61.6-10.57q0-5.4-.85-14.17C110.92,67.12,110.67,62.52,110.67,59.48Z"/><path class="cls-1" d="M161.13,41.34A80.22,80.22,0,0,0,129.19,8.83c-16.85-9-32.32-9-43.06-8.79C71.72.27,44.54.7,23.68,20.81,3.93,39.86,1.85,65,.55,80.7c-.78,9.48-1.88,25,5.73,42.2a64,64,0,0,0,17.4,24c7.68,6.47,14.93,9.26,21.39,11.69,4,1.5,20.5,7.41,43.63,6.35,12.27-.56,26.59-1.22,42.2-10.06a74.58,74.58,0,0,0,25.67-24c1.3-2,6.07-9.75,9.41-22.82C168.84,96.84,175.88,69.24,161.13,41.34ZM35.74,122.16a21.78,21.78,0,0,1-5.58-.78,17.24,17.24,0,0,1-4.51-1.74q-8-5.16-8-28.22V81.57q0-4.8.12-8.58c.07-2.52.24-5.27.48-8.23a48.8,48.8,0,0,1,1.08-7.62,38.86,38.86,0,0,1,2.4-6.67,14.91,14.91,0,0,1,3.54-5.4,17.61,17.61,0,0,1,5.47-3.25,18.49,18.49,0,0,1,7.44-1.32,4.07,4.07,0,0,1,2.76.84,2.76,2.76,0,0,1,1,2.17,3.34,3.34,0,0,1-.78,2.16,2.74,2.74,0,0,1-1.86,1.08H33.58q-2.4,0-4.21,3a21.29,21.29,0,0,0-2.52,7.81A87.07,87.07,0,0,0,25.29,72v.6L25.05,84.1q-.24,5.16-.24,11.64a62.28,62.28,0,0,0,.36,7.45,23.48,23.48,0,0,0,2,7.21,8.83,8.83,0,0,0,4.93,4.68,10.57,10.57,0,0,0,4,.72,4.47,4.47,0,0,0,2.64-1,4.66,4.66,0,0,1,2.58.66,2.2,2.2,0,0,1,1,2Q42.34,122.16,35.74,122.16Zm40.35-.54a2.33,2.33,0,0,1-1.92.9q-2.64,0-4.81-5.76a65.58,65.58,0,0,1-3.72-12.85l-.84-4.08q-3.48-17.17-4.44-19.58H58.92c0,2.33-.05,4.45-.12,6.37v6.6q0,16.1,2.28,25.1l-1.32,3.24H56.39l-1.56-1.8.12-8q0-10.81-1.08-32.79-1-23.42-1-32.78,0-5.77,4-5.77A16.33,16.33,0,0,1,67.5,43.75a11.39,11.39,0,0,1,4.15,9.36v8.41a17.42,17.42,0,0,1-.6,4.14,20,20,0,0,1-1.33,3.78l-2.28,4.33-1.92,3.6.6,2.88,1.68,8.53q1.68,9.25,3.25,15a58.4,58.4,0,0,0,3.84,10.45l.72,1.44a9.3,9.3,0,0,1,1.2,3.84A3.26,3.26,0,0,1,76.09,121.62Zm26.54,1.14a9.42,9.42,0,0,1-5.77-2,14.8,14.8,0,0,1-4.32-5.34,47.65,47.65,0,0,1-4.32-16,120.13,120.13,0,0,1-1.08-15.73,20.08,20.08,0,0,1,.12-2.41V79.17q0-.6-.12-.6V76.41L87.26,68q.12-3.84,1-12.25A41.48,41.48,0,0,1,91,44.59a9.2,9.2,0,0,1,2.16-3.67,4.23,4.23,0,0,1,3-1.26,20.75,20.75,0,0,1,8.65,1.74,18.48,18.48,0,0,1,6.49,4.87,27.49,27.49,0,0,1,4.08,7.38,43.7,43.7,0,0,1,2.4,9.31,75.7,75.7,0,0,1,.72,10.69v1q0,3.72.12,6.72l.12,6.85Q118.72,122.77,102.63,122.76Zm47.07-3.3a3.22,3.22,0,0,1-2.28.9q-2,0-3.6-4.32a45,45,0,0,1-2.64-9.13q-1.45-6.72-1.69-9l-.6-2.77L137.81,104a74.12,74.12,0,0,1-1.92,11v1.32q0,4.44-3.12,4.44a4.44,4.44,0,0,1-2.52-.72,2.31,2.31,0,0,1-1.08-2,41.15,41.15,0,0,1,1-8.58q1-4.75,2.94-11.35l1.2-4.69A49,49,0,0,0,136,81.81q0-3.48-3.06-17.17T128.57,49V47.71a3.8,3.8,0,0,1-1.2-3A2,2,0,0,1,128.45,43,4.83,4.83,0,0,1,131,42.3c1,0,1.76.69,2.4,2.05q1.8,3.36,3.6,12.37,1,4.08,1.32,6.84l.84,4.44.48-2.88.36-2.4q.48-2.88.6-3.84a42.78,42.78,0,0,0,.49-6.25v-4a9.58,9.58,0,0,1,1.14-5.16,6.87,6.87,0,0,1,4.26-2.65l2.16,2.89A12.15,12.15,0,0,0,147.24,47a12.64,12.64,0,0,0-.54,3.36,34.54,34.54,0,0,0-.12,3.72v1.32a80.33,80.33,0,0,0-3,13.39A97.31,97.31,0,0,0,142,82.65a35.9,35.9,0,0,0,1.62,9.43q1.62,5.72,4.86,15.79,2.16,6.5,2.16,9.49A2.79,2.79,0,0,1,149.7,119.46Z"/></g></g></svg>