<svg xmlns="http://www.w3.org/2000/svg" viewBox="0 0 335.29 132.28"><defs><style>.cls-1{fill:#fff;}</style></defs><g id="Layer_2" data-name="Layer 2"><g id="Layer_1-2" data-name="Layer 1"><path class="cls-1" d="M70.78,28.84c-1,1.5-2.72,2.51-5.2,3l-3.51.5c-3.09.44-24.29,4.5-24,6.59l1,6.89,4.75-1.43c3.8-.55,6.68-.24,8.6.9a5.52,5.52,0,0,1,2.22,2.42A16.2,16.2,0,0,1,55.73,51c.21.87.39,1.84.54,2.9a19.47,19.47,0,0,1,.07,6.32,6.87,6.87,0,0,1-.78,2.14,5.1,5.1,0,0,1-1.33,1.55A10.81,10.81,0,0,1,51,65.57a23.27,23.27,0,0,1-4.15.93l-4.8.17,4.76,33.6c.45,3.18.39,5.59-.19,7.25a6,6,0,0,1-3.2,3.59,22.52,22.52,0,0,1-6.22,1.65,19.49,19.49,0,0,1-6.33.06,5.78,5.78,0,0,1-3.69-2.17,9.33,9.33,0,0,1-1.66-3.14,39.82,39.82,0,0,1-.82-4.37L20,69.91l-1.21.17q-3.3.23-4.85-.84-2.73-2-3.68-8.82Q8.75,50.15,16.15,49.1L17,49l-.94-6.65a26.1,26.1,0,0,1,4.42-18.46C24.33,18,50.4,11.64,59.1,10.41A39.44,39.44,0,0,1,63.45,10a10.27,10.27,0,0,1,3.49.73c2.41.76,4,3.83,4.75,9.17Q72.55,25.9,70.78,28.84Z"/><path class="cls-1" d="M232.22,62.52a27.09,27.09,0,0,0-3.58-8,28.72,28.72,0,0,0-4.53-5.33,30.39,30.39,0,0,0-42.39.06A28.11,28.11,0,0,0,174,60.9,29,29,0,0,0,172.66,67a34.56,34.56,0,0,0-.24,4.12,28,28,0,0,0,4.7,15.89c.32.48.65,1,1,1.4a32.62,32.62,0,0,0,4.29,4.81,29.74,29.74,0,0,0,6.29,4.42,30.17,30.17,0,0,0,14.16,3.59A31.34,31.34,0,0,0,217,97.89a27.56,27.56,0,0,0,6.7-4.69,33.71,33.71,0,0,0,4.86-5.82c.17-.25.33-.49.47-.74a28.74,28.74,0,0,0,4.29-15.59A32.57,32.57,0,0,0,232.22,62.52ZM213.46,82.83q-5.37,4.08-10.77,4.08a17.4,17.4,0,0,1-10.59-4q-5.21-4-5.21-11.9c0-5.26,1.69-9.27,5.05-12A17.11,17.11,0,0,1,202.86,55a17.52,17.52,0,0,1,10.92,3.91c3.37,2.59,5.05,6.58,5.05,11.89S217,80.13,213.46,82.83Z"/><path class="cls-1" d="M111.85,53.67a16,16,0,0,1-.57,4.11,24.78,24.78,0,0,1-1.85,4.75c-1.48,3-3.57,4.57-6.29,4.79q-.33,0-.66,0a9.83,9.83,0,0,1-4.15-.91l-.23-.1a12.63,12.63,0,0,0-5.51-1,10,10,0,0,0-6.39,2.41,7.23,7.23,0,0,0-3,5.82v26.6a38.63,38.63,0,0,1-.18,4.36,10.13,10.13,0,0,1-1.21,3.36c-1.26,2.19-4.56,3.29-9.87,3.29-4.06,0-7-.71-8.74-2.16a7.54,7.54,0,0,1-2.28-5.43V55.45a36,36,0,0,1,.19-4.37c0-.11,0-.22,0-.33a10.71,10.71,0,0,1,1-2.9,5,5,0,0,1,2.36-2.15,17.46,17.46,0,0,1,7.51-1.27q7.61,0,9.5,2.91A7.31,7.31,0,0,1,83,51.52a23.19,23.19,0,0,1,1.84-2.16A23.75,23.75,0,0,1,89.94,46a14.81,14.81,0,0,1,6.9-2.15,33.41,33.41,0,0,1,5,.31,31.1,31.1,0,0,1,4.43,1.08,8.46,8.46,0,0,1,4,2.6,7,7,0,0,1,1.46,3.75A17.4,17.4,0,0,1,111.85,53.67Z"/><path class="cls-1" d="M93.13,87.85c0,.88,0,1.75.08,2.6v-5.4C93.15,86,93.13,86.91,93.13,87.85Z"/><path class="cls-1" d="M93.13,87.85c0,.88,0,1.75.08,2.6v-5.4C93.15,86,93.13,86.91,93.13,87.85Z"/><path class="cls-1" d="M167.14,68.4a32.48,32.48,0,0,0-4.06-4.87c-.26-.27-.55-.54-.83-.81q-10.51-9.81-24.19-9.82a33.65,33.65,0,0,0-16.47,4.17,37.18,37.18,0,0,0-5.64,3.8c-.74.6-1.48,1.24-2.21,1.92a32.91,32.91,0,0,0-7.06,9.26,31.44,31.44,0,0,0-2.08,5.16h0a36.76,36.76,0,0,0-1.49,10.63A31.89,31.89,0,0,0,108.49,106a35.89,35.89,0,0,0,13.23,12.16,34.46,34.46,0,0,0,16.21,4.12,35.91,35.91,0,0,0,16.15-3.87,34.12,34.12,0,0,0,13.23-12,31.82,31.82,0,0,0,4.41-10,34.77,34.77,0,0,0,1-6.39c0-.76.07-1.55.07-2.34A33.39,33.39,0,0,0,167.14,68.4ZM150,101.11c-4.07,3.09-8.14,4.61-12.21,4.61s-8.08-1.51-12-4.53-5.93-7.51-5.93-13.49,1.91-10.52,5.74-13.6a19.37,19.37,0,0,1,12.39-4.63,19.8,19.8,0,0,1,12.39,4.45q5.73,4.42,5.74,13.5C156.06,93.47,154,98,150,101.11Z"/><path class="cls-1" d="M324.8,84.26a16,16,0,0,1-4.92,8.43q-6.84,5.85-18.66,9a43.42,43.42,0,0,1-24.52-.89,5.2,5.2,0,0,1-3.55-4,8.52,8.52,0,0,1-.09-3.13,35.57,35.57,0,0,1,2.2-7.77,5,5,0,0,1,3.8-3.23q3-.78,8.93.87t10.1.55q7.47-2,6.7-4.9-.62-2.33-9.11-1.27a41.46,41.46,0,0,1-16.82-1.74,16.89,16.89,0,0,1-7.69-5.37,20.09,20.09,0,0,1-1.85-2.49,28.43,28.43,0,0,1-3.43-8.11l-.09-.37q-2.12-8.48,1.93-14.54a20.39,20.39,0,0,1,5.36-5.32,46.28,46.28,0,0,1,33.27-6.63c3.2.56,5.06,1.81,5.58,3.77s.24,4.61-.8,7.94-2.51,5.24-4.39,5.73c-1,.25-2.95.12-5.93-.41a21.25,21.25,0,0,0-9.12.43c-4.81,1.27-7,2.8-6.51,4.59q1,3.68,9.58,2.6a47,47,0,0,1,16.9.53,14.34,14.34,0,0,1,7.5,4.38,22,22,0,0,1,5.17,10A23.54,23.54,0,0,1,324.8,84.26Z"/><path class="cls-1" d="M266.53,105.41c0,1-.13,2.11-.29,3.34q-1,7.91-3.79,9.33a7.84,7.84,0,0,1-3.43.66,17,17,0,0,1-4.93-.41q-3.14-.49-7.31-1.57c-6.32-1.69-10.23-4.38-11.69-8.07a29.12,29.12,0,0,1-1.62-11.31,74.7,74.7,0,0,1,.7-8.73l0-.2,3.49-26.25,1.3-9.77,3.13-23.54a38,38,0,0,1,.77-4.3,12.1,12.1,0,0,1,1.5-3.19q2.22-3.15,10.25-2.09,7.67,1,9.09,4.67a10.06,10.06,0,0,1,.74,3.54,40.07,40.07,0,0,1-.39,4.42l-.36,2.69-1.13,8.5L260.34,60,259,70.18l-2.65,19.88c-.39,3-.4,5,0,5.81s1.45,1.41,3.16,1.64a18.83,18.83,0,0,1,3.43.64l.35.15a7.53,7.53,0,0,1,1.64,1.2C266.07,100.48,266.6,102.45,266.53,105.41Z"/><circle class="cls-1" cx="138.46" cy="85.6" r="8.06"/><circle class="cls-1" cx="202.97" cy="68.7" r="8.06"/><path class="cls-1" d="M334,70.27a31.93,31.93,0,0,0-7.66-14.39,26.84,26.84,0,0,0-6.73-5.1c.39-.89.74-1.83,1.06-2.81,1.63-5.23,1.93-9.63.92-13.47-.89-3.41-3.84-9.37-13.55-11.08a54.8,54.8,0,0,0-23.2.72,68.14,68.14,0,0,0-10.39,3.61v-.08a19.89,19.89,0,0,0-1.36-7.2l-.07-.14c-2.36-6-8.11-9.72-17.07-10.91a37.67,37.67,0,0,0-5-.36c-8.35,0-12.62,3.6-14.74,6.61l-.26.39A22.09,22.09,0,0,0,233.24,22a49.83,49.83,0,0,0-1,5.57l-1.83,13.82a40.39,40.39,0,0,0-55.46.53,38.73,38.73,0,0,0-8.47,11.21,44.77,44.77,0,0,0-45.74-6.74,15.33,15.33,0,0,0-2.89-5.12,18.53,18.53,0,0,0-8.56-5.61,41.88,41.88,0,0,0-5.92-1.42,42.82,42.82,0,0,0-6.51-.43,24.39,24.39,0,0,0-11.7,3.38l-.13.07A20.48,20.48,0,0,0,78.67,35c.16-.22.32-.45.47-.68l.21-.33c2.41-4,3.14-9.08,2.22-15.48C80.26,9.15,76.43,3.35,70.22,1.27A19.69,19.69,0,0,0,63.49,0H63.3a46.41,46.41,0,0,0-5.61.52A172.63,172.63,0,0,0,35.05,5.85c-16.2,5-20.68,9.13-22.92,12.54A35.9,35.9,0,0,0,6.07,43C2.83,45.65-1.17,51.24.32,61.84,1.37,69.15,3.85,74.18,7.9,77.23l.36.26A14.38,14.38,0,0,0,11.15,79l3.62,25.57a45.37,45.37,0,0,0,1.07,5.58,19.17,19.17,0,0,0,3.31,6.52,15.77,15.77,0,0,0,9.72,6,23.55,23.55,0,0,0,4.58.42,36.66,36.66,0,0,0,5.11-.39,31.91,31.91,0,0,0,9-2.49,15.83,15.83,0,0,0,6.83-6,15.55,15.55,0,0,0,2.27,2.44l.22.18c3.63,3,8.56,4.4,15,4.4,3.4,0,13.74,0,18.54-8.32l.14-.25a20,20,0,0,0,2.31-6.8,48,48,0,0,0,.26-5.62v-9.7c-.06-.85-.08-1.72-.08-2.6s0-1.88.08-2.8V75.32a3.48,3.48,0,0,1,.71.09l.72.31a46,46,0,0,0-1.43,9.33v5.4a41.41,41.41,0,0,0,7,21.12A46,46,0,0,0,117.08,127a44.52,44.52,0,0,0,20.85,5.26,45.94,45.94,0,0,0,20.58-4.9,44.17,44.17,0,0,0,17.11-15.44,41.67,41.67,0,0,0,4.17-8,37.75,37.75,0,0,0,4.27,2.61,40.17,40.17,0,0,0,18.8,4.73,41.46,41.46,0,0,0,18.56-4.42q1.31-.64,2.55-1.41a30.59,30.59,0,0,0,1.86,7c2.69,6.75,8.9,11.46,18.44,14,2.95.77,5.67,1.35,8.06,1.74a29.5,29.5,0,0,0,5.67.62c.54,0,1.08,0,1.59-.07a17.47,17.47,0,0,0,7.48-1.77c6.23-3.26,8.13-10.47,8.94-16a55.86,55.86,0,0,0,14.7,2,51.4,51.4,0,0,0,13.05-1.68c9.31-2.45,16.92-6.16,22.63-11l.15-.14a25.86,25.86,0,0,0,8-13.56A33.34,33.34,0,0,0,334,70.27ZM330,85.5a21.23,21.23,0,0,1-6.54,11.17l-.12.11c-5.16,4.41-12.16,7.8-20.78,10.07a48.81,48.81,0,0,1-26.1-.53l-1.4-.43a10.9,10.9,0,0,1-3.19-1.62,31.17,31.17,0,0,1-.33,5.16v0c-.6,4.57-2,11-6.62,13.37a12.63,12.63,0,0,1-5.56,1.28h-.11a22.16,22.16,0,0,1-6.09-.49h-.09c-2.25-.36-4.84-.92-7.65-1.65-8.06-2.15-13.22-5.94-15.35-11.28a28.44,28.44,0,0,1-1.84-8.26,51.58,51.58,0,0,1-.15-6.06,34.1,34.1,0,0,1-4.59,3.87,32.19,32.19,0,0,1-4.15,2.47,36.89,36.89,0,0,1-16.51,3.94,35.63,35.63,0,0,1-16.66-4.21,34.64,34.64,0,0,1-4.91-3.14,35.71,35.71,0,0,1-3.94-3.47,35.55,35.55,0,0,1-1.36,5.06,36.79,36.79,0,0,1-4.21,8.5,39.49,39.49,0,0,1-15.32,13.86,41.37,41.37,0,0,1-18.53,4.42,39.9,39.9,0,0,1-18.7-4.73A41.41,41.41,0,0,1,104,109a37.35,37.35,0,0,1-6.28-21.16A42.71,42.71,0,0,1,99.07,77a37.19,37.19,0,0,1,1.46-4.44,15,15,0,0,1-4.47-1.28c-.09,0-.18-.07-.27-.12a7.5,7.5,0,0,0-3.2-.49,4.6,4.6,0,0,0-3,1.2l-.23.2-.75.69v27.36a42.32,42.32,0,0,1-.22,5,15.71,15.71,0,0,1-1.78,5.19l-.11.19c-3.45,6-11.79,6-14.53,6-5.39,0-9.36-1.1-12.1-3.34l-.17-.14a11.41,11.41,0,0,1-4-5c-.56-1.3-1.8-4.51-1.8-4.51a43.2,43.2,0,0,1-1.71,5.56A12.6,12.6,0,0,1,45.65,116a27.71,27.71,0,0,1-7.74,2.1,24.83,24.83,0,0,1-8.14,0,11.29,11.29,0,0,1-6.95-4.21,15.06,15.06,0,0,1-2.54-4.95,44.44,44.44,0,0,1-1-5l-4-28.49L13.84,75a9.87,9.87,0,0,1-3-1.34l-.1-.07-.1-.07c-3-2.27-4.91-6.31-5.77-12.36-1-7.1.7-12.39,4.94-15.3L11,45.06l-.28-2A31.39,31.39,0,0,1,16,20.92c1.55-2.37,5.36-6.05,20.41-10.66A169,169,0,0,1,58.33,5.08a41.35,41.35,0,0,1,5-.47h.16a15.4,15.4,0,0,1,5.21,1c4.46,1.49,7.25,6,8.3,13.51a21.09,21.09,0,0,1-1.24,11.79c-1.77,4-6.64,7.22-6.64,7.22a25.55,25.55,0,0,1,7.14.73c2.32.66,5,1.31,7.32,2.94l1.21.86L86.08,42l1.27-.72a19.93,19.93,0,0,1,9.49-2.81,37.6,37.6,0,0,1,5.81.38,37,37,0,0,1,5.24,1.26,13.87,13.87,0,0,1,6.44,4.22,11,11,0,0,1,2.21,4.17,17.82,17.82,0,0,1,.68,4.94A40,40,0,0,1,164.6,57.6c.44.39.88.78,1.32,1.19.84.79,1.65,1.6,2.39,2.44A33.36,33.36,0,0,1,170,56.37a34,34,0,0,1,8-11.07,35.76,35.76,0,0,1,49.71,0c.64.59,1.26,1.22,1.85,1.85a34.69,34.69,0,0,1,4,5.16l.88-6.64,2.32-17.44a41.51,41.51,0,0,1,.91-5,17.07,17.07,0,0,1,2.16-4.68l.07-.1.06-.1c1.49-2.12,4.6-4.65,11-4.65a35.3,35.3,0,0,1,4.38.31c7.18,1,11.69,3.67,13.39,8l0,.11a15,15,0,0,1,1.07,5.52c0,.7,0,1.58-.15,2.61-.07.73-.17,1.52-.28,2.41l-.48,3.6A36.14,36.14,0,0,1,274,33.08a57.19,57.19,0,0,1,12-4.48,45.9,45.9,0,0,1,11.72-1.47,56.23,56.23,0,0,1,9.51.84c6.81,1.19,9.13,4.84,9.89,7.7s.49,6.55-.87,10.91a20,20,0,0,1-1.78,4.14L313.12,53l2.52,1A20.9,20.9,0,0,1,323,59.09a27.35,27.35,0,0,1,6.51,12.35A28.94,28.94,0,0,1,330,85.5Z"/></g></g></svg>