<svg xmlns="http://www.w3.org/2000/svg" viewBox="0 0 270.98 106.91"><defs><style>.cls-1{fill:#fff;}</style></defs><g id="Layer_2" data-name="Layer 2"><g id="Layer_1-2" data-name="Layer 1"><path class="cls-1" d="M57.21,23.31A6.31,6.31,0,0,1,53,25.76l-2.84.4c-2.5.35-19.63,3.64-19.39,5.33l.79,5.57L35.4,35.9c3.08-.44,5.4-.19,7,.73a4.36,4.36,0,0,1,1.79,2A12.6,12.6,0,0,1,45,41.22c.17.71.31,1.49.44,2.35a15.94,15.94,0,0,1,.05,5.11,5.63,5.63,0,0,1-.62,1.72,4.11,4.11,0,0,1-1.08,1.26A8.75,8.75,0,0,1,41.18,53a19.06,19.06,0,0,1-3.36.76l-3.88.13L37.79,81a13.3,13.3,0,0,1-.15,5.86,4.83,4.83,0,0,1-2.59,2.9,18.21,18.21,0,0,1-5,1.33,15.65,15.65,0,0,1-5.11.05,4.73,4.73,0,0,1-3-1.75,7.75,7.75,0,0,1-1.34-2.54,32.81,32.81,0,0,1-.66-3.53L16.13,56.51l-1,.13A6.31,6.31,0,0,1,11.22,56q-2.19-1.65-3-7.13c-.78-5.53.82-8.59,4.8-9.15l.68-.09L13,34.21a21.05,21.05,0,0,1,3.58-14.92c3.11-4.75,24.18-9.88,31.21-10.88a29.86,29.86,0,0,1,3.52-.34,8.09,8.09,0,0,1,2.82.58c1.95.62,3.23,3.1,3.84,7.42Q58.63,20.93,57.21,23.31Z"/><path class="cls-1" d="M187.68,50.53a21.83,21.83,0,0,0-2.9-6.47,23.39,23.39,0,0,0-3.65-4.31,24.57,24.57,0,0,0-34.26,0,22.7,22.7,0,0,0-6.21,9.42,24.2,24.2,0,0,0-1.12,5,27.86,27.86,0,0,0-.19,3.33,22.58,22.58,0,0,0,3.8,12.84q.39.59.81,1.14a26.44,26.44,0,0,0,3.47,3.88,24,24,0,0,0,5.07,3.57A24.35,24.35,0,0,0,164,81.85a25.37,25.37,0,0,0,11.41-2.73,22.25,22.25,0,0,0,5.41-3.8,26.51,26.51,0,0,0,3.94-4.7c.13-.2.26-.4.38-.6a23.29,23.29,0,0,0,3.46-12.6A26.38,26.38,0,0,0,187.68,50.53ZM172.52,66.94a14.36,14.36,0,0,1-8.7,3.3A14,14,0,0,1,155.26,67Q151,63.8,151,57.4c0-4.25,1.37-7.49,4.09-9.68A13.82,13.82,0,0,1,164,44.43a14.06,14.06,0,0,1,8.82,3.16c2.73,2.09,4.09,5.32,4.09,9.61S175.41,64.76,172.52,66.94Z"/><path class="cls-1" d="M90.39,43.38a12.87,12.87,0,0,1-.46,3.32,19.69,19.69,0,0,1-1.48,3.84q-1.8,3.6-5.09,3.87a4.87,4.87,0,0,1-.54,0,8,8,0,0,1-3.35-.73l-.19-.09a10.31,10.31,0,0,0-4.45-.82,8.09,8.09,0,0,0-5.16,2,5.84,5.84,0,0,0-2.41,4.71V80.94a30.46,30.46,0,0,1-.15,3.53,8.35,8.35,0,0,1-1,2.71q-1.55,2.66-8,2.66c-3.28,0-5.63-.58-7.07-1.74a6.14,6.14,0,0,1-1.84-4.4V44.81a27.92,27.92,0,0,1,.16-3.53c0-.09,0-.17,0-.27a9.07,9.07,0,0,1,.83-2.34,4,4,0,0,1,1.92-1.73,14.06,14.06,0,0,1,6.07-1q6.14,0,7.67,2.35a5.93,5.93,0,0,1,1.13,3.38,17.16,17.16,0,0,1,1.48-1.74,19,19,0,0,1,4.15-2.77,12,12,0,0,1,5.58-1.73,27,27,0,0,1,4,.25,24.61,24.61,0,0,1,3.58.87,7,7,0,0,1,3.23,2.1,5.85,5.85,0,0,1,1.17,3A13.22,13.22,0,0,1,90.39,43.38Z"/><path class="cls-1" d="M75.27,71q0,1.06.06,2.1V68.74C75.29,69.48,75.27,70.24,75.27,71Z"/><path class="cls-1" d="M75.27,71q0,1.06.06,2.1V68.74C75.29,69.48,75.27,70.24,75.27,71Z"/><path class="cls-1" d="M135.08,55.28a25.71,25.71,0,0,0-3.28-3.93c-.21-.23-.44-.44-.67-.66a27.81,27.81,0,0,0-19.55-7.93,27.27,27.27,0,0,0-13.31,3.36,31.14,31.14,0,0,0-4.56,3.07c-.6.49-1.19,1-1.78,1.56a26.37,26.37,0,0,0-5.71,7.48,25.24,25.24,0,0,0-1.68,4.17h0A29.72,29.72,0,0,0,83.34,71a25.77,25.77,0,0,0,4.34,14.69,28.93,28.93,0,0,0,10.7,9.82,27.72,27.72,0,0,0,13.1,3.33,29,29,0,0,0,13-3.12A27.62,27.62,0,0,0,135.22,86a25.52,25.52,0,0,0,3.56-8,27.21,27.21,0,0,0,.78-5.16c0-.62.06-1.26.06-1.9A27,27,0,0,0,135.08,55.28ZM121.2,81.72a16.31,16.31,0,0,1-9.87,3.73,15.84,15.84,0,0,1-9.71-3.67q-4.8-3.65-4.8-10.9t4.64-11a15.64,15.64,0,0,1,10-3.74,16,16,0,0,1,10,3.59q4.64,3.59,4.64,10.91C126.13,75.54,124.49,79.22,121.2,81.72Z"/><path class="cls-1" d="M262.5,68.1a12.88,12.88,0,0,1-4,6.81q-5.52,4.74-15.08,7.25a35.16,35.16,0,0,1-19.81-.72l-.43-.17a4.32,4.32,0,0,1-2.44-3.1,6.88,6.88,0,0,1-.07-2.53,28,28,0,0,1,1.77-6.28,4,4,0,0,1,3.08-2.61c1.61-.42,4-.18,7.22.7a15.75,15.75,0,0,0,8.16.45c4-1.05,5.82-2.38,5.41-4q-.5-1.87-7.36-1a33.48,33.48,0,0,1-13.59-1.4,13.66,13.66,0,0,1-6.22-4.35,16.94,16.94,0,0,1-1.5-2,23.16,23.16,0,0,1-2.77-6.55l-.07-.3c-1.14-4.57-.62-8.48,1.56-11.76a16.52,16.52,0,0,1,4.33-4.29,37.39,37.39,0,0,1,26.89-5.36q3.89.67,4.51,3a12.12,12.12,0,0,1-.65,6.42c-.84,2.69-2,4.24-3.54,4.63a13.7,13.7,0,0,1-4.79-.33,17.15,17.15,0,0,0-7.38.35c-3.89,1-5.65,2.27-5.26,3.71.51,2,3.1,2.68,7.74,2.1a38.16,38.16,0,0,1,13.66.43A11.57,11.57,0,0,1,258,50.78a17.86,17.86,0,0,1,4.18,8.06A18.92,18.92,0,0,1,262.5,68.1Z"/><path class="cls-1" d="M215.41,85.19a25.9,25.9,0,0,1-.23,2.7q-.85,6.39-3.07,7.54a6.37,6.37,0,0,1-2.77.54,14.13,14.13,0,0,1-4-.33q-2.55-.4-5.91-1.27c-5.11-1.37-8.27-3.54-9.45-6.53a23.55,23.55,0,0,1-1.31-9.14,61.73,61.73,0,0,1,.57-7.06l0-.15,2.82-21.22,1.05-7.9,2.53-19a32,32,0,0,1,.62-3.48,9.93,9.93,0,0,1,1.22-2.57q1.78-2.55,8.28-1.69,6.19.83,7.35,3.77a7.93,7.93,0,0,1,.59,2.86,30.54,30.54,0,0,1-.31,3.57L213.14,28l-.92,6.87-1.81,13.66-1.1,8.2-2.13,16.06c-.33,2.44-.33,4,0,4.7s1.17,1.14,2.56,1.33a15.43,15.43,0,0,1,2.77.52l.28.11a6.64,6.64,0,0,1,1.33,1C215,81.21,215.46,82.8,215.41,85.19Z"/><circle class="cls-1" cx="111.9" cy="69.18" r="6.52"/><circle class="cls-1" cx="164.04" cy="55.53" r="6.52"/><path class="cls-1" d="M269.94,56.79a25.75,25.75,0,0,0-6.2-11.63A21.49,21.49,0,0,0,258.31,41c.31-.72.6-1.48.85-2.27,1.32-4.22,1.57-7.78.75-10.88-.72-2.76-3.1-7.58-11-9a44.26,44.26,0,0,0-18.74.58,54.57,54.57,0,0,0-8.4,2.92v-.07a15.86,15.86,0,0,0-1.1-5.81l-.05-.12c-1.91-4.89-6.56-7.85-13.81-8.82a30.91,30.91,0,0,0-4-.29c-6.76,0-10.21,2.91-11.91,5.35l-.21.31a17.26,17.26,0,0,0-2.2,4.8,41.32,41.32,0,0,0-.83,4.5L186.2,33.45a32.63,32.63,0,0,0-44.82.43,31.34,31.34,0,0,0-6.85,9.06,36.21,36.21,0,0,0-37-5.45,12.38,12.38,0,0,0-2.33-4.14,15,15,0,0,0-6.92-4.53,33.32,33.32,0,0,0-4.78-1.14,34,34,0,0,0-5.26-.35,19.64,19.64,0,0,0-9.46,2.73l-.1.05a16.62,16.62,0,0,0-5.13-1.84l.38-.55.17-.26c2-3.25,2.54-7.34,1.8-12.51C64.87,7.39,61.77,2.71,56.75,1a16,16,0,0,0-5.44-1h-.15a40,40,0,0,0-4.54.42A140.7,140.7,0,0,0,28.33,4.73c-13.1,4-16.72,7.37-18.53,10.13A29.06,29.06,0,0,0,4.9,34.72C2.29,36.9-.95,41.41.26,50c.85,5.91,2.85,10,6.12,12.43l.3.21A10.53,10.53,0,0,0,9,63.84l2.93,20.67A39.44,39.44,0,0,0,12.8,89a15.63,15.63,0,0,0,2.68,5.26,12.7,12.7,0,0,0,7.85,4.81,18.75,18.75,0,0,0,3.7.35,29.49,29.49,0,0,0,4.13-.32,25.55,25.55,0,0,0,7.31-2A12.7,12.7,0,0,0,44,92.23a12.7,12.7,0,0,0,1.83,2l.18.15c2.94,2.4,6.92,3.56,12.16,3.56,2.75,0,11.1,0,15-6.73l.11-.2a16.14,16.14,0,0,0,1.86-5.5,38.08,38.08,0,0,0,.21-4.54V73.1q-.06-1-.06-2.1c0-.76,0-1.52.06-2.26V60.87a3.78,3.78,0,0,1,.58.07c.19.1.39.18.58.26a37.34,37.34,0,0,0-1.16,7.54V73.1A33.47,33.47,0,0,0,81,90.17a37.18,37.18,0,0,0,13.66,12.49,36,36,0,0,0,16.85,4.25,37.18,37.18,0,0,0,16.63-4,35.66,35.66,0,0,0,13.82-12.48A32.8,32.8,0,0,0,145.3,84a32.16,32.16,0,0,0,3.45,2.11A32.64,32.64,0,0,0,164,89.92a33.47,33.47,0,0,0,15-3.58Q180,85.82,181,85.2a24.39,24.39,0,0,0,1.49,5.65c2.18,5.46,7.2,9.26,14.91,11.32,2.38.62,4.58,1.1,6.51,1.41a24.1,24.1,0,0,0,4.58.5c.44,0,.88,0,1.29-.06a14,14,0,0,0,6-1.43c5-2.63,6.57-8.46,7.23-12.91A45.16,45.16,0,0,0,235,91.32,41.83,41.83,0,0,0,245.5,90c7.52-2,13.67-5,18.29-8.93l.12-.11a20.9,20.9,0,0,0,6.44-11A27.06,27.06,0,0,0,269.94,56.79ZM266.73,69.1a17.22,17.22,0,0,1-5.29,9l-.09.09c-4.17,3.56-9.83,6.3-16.8,8.14a39.52,39.52,0,0,1-21.09-.44l-1.13-.34a8.83,8.83,0,0,1-2.58-1.31,26.14,26.14,0,0,1-.26,4.17v0c-.5,3.7-1.59,8.85-5.35,10.81a10.23,10.23,0,0,1-4.5,1h-.09a17.61,17.61,0,0,1-4.92-.39h-.07c-1.83-.29-3.92-.75-6.19-1.34-6.51-1.73-10.68-4.79-12.4-9.11a22.7,22.7,0,0,1-1.49-6.68,40.65,40.65,0,0,1-.12-4.89A26.56,26.56,0,0,1,180.65,81a24.8,24.8,0,0,1-3.36,2A29.78,29.78,0,0,1,164,86.19a28.82,28.82,0,0,1-13.46-3.4,28.38,28.38,0,0,1-4-2.53,29.06,29.06,0,0,1-3.18-2.81,28,28,0,0,1-1.11,4.09,29.31,29.31,0,0,1-3.4,6.87,32,32,0,0,1-12.38,11.2,33.4,33.4,0,0,1-15,3.57,32.23,32.23,0,0,1-15.12-3.82A33.42,33.42,0,0,1,84.07,88.1,30.18,30.18,0,0,1,79,71a34.42,34.42,0,0,1,1.08-8.74,29,29,0,0,1,1.18-3.59,11.77,11.77,0,0,1-3.61-1l-.22-.09a6,6,0,0,0-2.59-.4,3.72,3.72,0,0,0-2.43,1l-.19.16-.6.56V80.94A34.48,34.48,0,0,1,71.43,85,12.57,12.57,0,0,1,70,89.2l-.09.15c-2.79,4.84-9.53,4.84-11.74,4.84-4.35,0-7.56-.89-9.78-2.7l-.14-.12a9.15,9.15,0,0,1-3.25-4c-.45-1-1.46-3.64-1.46-3.64a34.45,34.45,0,0,1-1.37,4.49,10.14,10.14,0,0,1-5.27,5.54,22,22,0,0,1-6.25,1.7,19.79,19.79,0,0,1-6.58,0A9.12,9.12,0,0,1,18.45,92a11.89,11.89,0,0,1-2.06-4,37.17,37.17,0,0,1-.77-4L12.37,61l-1.18-.33a8,8,0,0,1-2.41-1.08l-.08-.06-.08-.06c-2.44-1.83-4-5.1-4.67-10-.81-5.74.57-10,4-12.37l1-.66-.23-1.61a25.32,25.32,0,0,1,4.25-17.9C14.17,15,17.25,12,29.41,8.29A136.86,136.86,0,0,1,47.15,4.11a36.65,36.65,0,0,1,4-.39h.13a12.39,12.39,0,0,1,4.21.83c3.61,1.2,5.86,4.88,6.71,10.92a17,17,0,0,1-1,9.53c-1.42,3.21-5.36,5.83-5.36,5.83a20.7,20.7,0,0,1,5.77.59,18.45,18.45,0,0,1,5.92,2.38l1,.7,1-.6,1-.58a16.22,16.22,0,0,1,7.68-2.27,30.32,30.32,0,0,1,4.69.31,29.73,29.73,0,0,1,4.24,1,11.28,11.28,0,0,1,5.2,3.42,8.79,8.79,0,0,1,1.79,3.37,14.74,14.74,0,0,1,.55,4,31.61,31.61,0,0,1,16.84-4.74A32,32,0,0,1,133,46.55c.36.32.71.63,1.06,1,.69.64,1.34,1.3,1.94,2a26.18,26.18,0,0,1,1.4-3.93,27.47,27.47,0,0,1,6.49-9,28.91,28.91,0,0,1,40.17,0c.52.48,1,1,1.49,1.49a27.59,27.59,0,0,1,3.21,4.17l.71-5.36,1.88-14.1a31.25,31.25,0,0,1,.73-4A13.81,13.81,0,0,1,193.85,15l.06-.09.05-.08c1.2-1.71,3.72-3.75,8.87-3.75a26.83,26.83,0,0,1,3.53.25c5.81.78,9.45,3,10.83,6.48l0,.08a12.14,12.14,0,0,1,.87,4.47c0,.56,0,1.27-.13,2.1-.05.59-.13,1.23-.23,1.95l-.38,2.91a28.28,28.28,0,0,1,4.1-2.56,47.21,47.21,0,0,1,9.71-3.62,37.69,37.69,0,0,1,9.47-1.18,45.61,45.61,0,0,1,7.69.67c5.51,1,7.38,3.92,8,6.23s.4,5.29-.7,8.82A16.3,16.3,0,0,1,254.17,41l-1.11,1.88,2,.79a17,17,0,0,1,6,4.09,22,22,0,0,1,5.26,10A23.43,23.43,0,0,1,266.73,69.1Z"/></g></g></svg>