<?xml version="1.0" encoding="utf-8"?>
<!-- Generator: Adobe Illustrator 26.0.3, SVG Export Plug-In . SVG Version: 6.00 Build 0)  -->
<svg version="1.1" id="Layer_1" xmlns="http://www.w3.org/2000/svg" xmlns:xlink="http://www.w3.org/1999/xlink" x="0px" y="0px"
	 viewBox="0 0 250 250" style="enable-background:new 0 0 250 250;" xml:space="preserve">
<style type="text/css">
	.st0{fill:none;stroke:#161615;stroke-width:15;}
	.st1{fill:#161615;}
</style>
<circle class="st0" cx="125" cy="125" r="117.5"/>
<path class="st1" d="M48.4,113.5c-2.7,0-5.1-0.4-7.3-1.3c-2.2-0.9-4-2.1-5.6-3.6c-1.6-1.6-2.8-3.4-3.6-5.5c-0.8-2.1-1.2-4.4-1.2-6.9
	c0-2.5,0.4-4.8,1.3-6.8c0.9-2.1,2.2-3.9,3.8-5.5c1.6-1.6,3.5-2.8,5.7-3.6c2.2-0.9,4.7-1.3,7.3-1.3c1.8,0,3.6,0.2,5.2,0.7
	c1.7,0.5,3.2,1.1,4.5,2c1.3,0.8,2.5,1.8,3.4,2.9L57,89.6c-0.8-0.8-1.6-1.4-2.5-1.9c-0.8-0.5-1.7-0.9-2.7-1.2c-1-0.3-2-0.5-3.1-0.5
	c-1.4,0-2.7,0.3-3.9,0.8c-1.1,0.5-2.2,1.2-3.1,2.2c-0.9,0.9-1.5,2-2,3.2c-0.5,1.2-0.7,2.5-0.7,4c0,1.4,0.3,2.8,0.8,4
	c0.5,1.2,1.2,2.3,2.1,3.2c0.9,0.9,1.9,1.6,3.2,2.1c1.2,0.5,2.6,0.8,4,0.8c1,0,1.9-0.2,2.8-0.5c0.9-0.3,1.7-0.7,2.3-1.3
	c0.6-0.5,1.1-1.2,1.5-1.9c0.4-0.8,0.6-1.6,0.6-2.4V99l1.1,1.6h-9.2v-6.4h15.7c0.1,0.4,0.1,0.8,0.1,1.4c0,0.6,0,1.2,0,1.8
	c0,0.6,0,1,0,1.3c0,2.2-0.4,4.2-1.2,6c-0.8,1.8-1.8,3.3-3.2,4.6c-1.4,1.3-3.1,2.3-5,3.1C52.7,113.1,50.6,113.5,48.4,113.5z
	 M69.4,113V87.6h7.3l0.3,8.3l-1.4-1.6c0.4-1.4,1-2.6,1.9-3.7c0.9-1.1,1.9-1.9,3.1-2.6c1.2-0.6,2.4-1,3.8-1c0.6,0,1.1,0,1.6,0.1
	c0.5,0.1,1,0.2,1.4,0.3L85.2,96c-0.4-0.2-0.8-0.4-1.4-0.5c-0.6-0.2-1.2-0.2-1.8-0.2c-0.7,0-1.4,0.1-2,0.4c-0.6,0.2-1.1,0.6-1.5,1
	c-0.4,0.4-0.7,1-1,1.6c-0.2,0.6-0.3,1.3-0.3,2.1V113H69.4z M99.5,113.4c-2.1,0-4-0.6-5.7-1.7c-1.7-1.1-3-2.7-4-4.7
	c-1-2-1.5-4.3-1.5-6.8c0-2.6,0.5-4.9,1.5-6.8c1-2,2.3-3.5,4.1-4.6c1.7-1.1,3.7-1.7,5.9-1.7c1.2,0,2.3,0.2,3.3,0.5
	c1,0.4,1.9,0.8,2.7,1.5c0.8,0.6,1.4,1.3,2,2.2c0.5,0.8,0.9,1.7,1.2,2.6l-1.6-0.2v-6h7.6V113h-7.7v-6.1l1.7,0
	c-0.3,0.9-0.7,1.7-1.2,2.5c-0.6,0.8-1.3,1.5-2.1,2.1c-0.8,0.6-1.8,1.1-2.8,1.4C101.7,113.3,100.6,113.4,99.5,113.4z M101.6,107
	c1.2,0,2.2-0.3,3.1-0.8c0.9-0.5,1.5-1.3,2-2.3c0.5-1,0.7-2.2,0.7-3.6c0-1.4-0.2-2.5-0.7-3.5c-0.5-1-1.1-1.8-2-2.3
	c-0.9-0.6-1.9-0.9-3.1-0.9c-1.1,0-2.2,0.3-3,0.9c-0.8,0.5-1.5,1.3-2,2.3c-0.5,1-0.7,2.2-0.7,3.5c0,1.4,0.2,2.6,0.7,3.6
	c0.5,1,1.1,1.8,2,2.3C99.4,106.7,100.4,107,101.6,107z M121.6,123.5V87.6h7.3l0.3,5.7l-1.4-0.4c0.2-1.1,0.8-2,1.6-2.9
	c0.9-0.9,1.9-1.5,3.2-2.1c1.3-0.5,2.7-0.8,4.2-0.8c2.2,0,4.1,0.6,5.8,1.7c1.7,1.1,3,2.7,4,4.6c1,1.9,1.5,4.2,1.5,6.8
	c0,2.5-0.5,4.8-1.5,6.8c-1,2-2.3,3.5-4,4.7c-1.7,1.1-3.6,1.7-5.8,1.7c-1.4,0-2.8-0.3-4.1-0.8c-1.3-0.5-2.4-1.3-3.3-2.2
	c-0.9-0.9-1.5-1.9-1.8-3l1.8-0.7v16.8H121.6z M134.8,107c1.1,0,2.2-0.3,3-0.8c0.9-0.6,1.5-1.4,2-2.3c0.5-1,0.7-2.2,0.7-3.5
	c0-1.3-0.2-2.5-0.7-3.5c-0.5-1-1.1-1.8-2-2.3c-0.8-0.6-1.8-0.9-3-0.9c-1.2,0-2.2,0.3-3.1,0.8c-0.9,0.5-1.5,1.3-2,2.3
	s-0.7,2.2-0.7,3.5c0,1.4,0.2,2.5,0.7,3.5c0.5,1,1.1,1.8,2,2.3C132.6,106.7,133.7,107,134.8,107z M153.1,113V77.6h7.5v15.1l-1.5,0.6
	c0.4-1.1,1-2.2,1.9-3.1c0.9-1,2-1.7,3.3-2.3c1.3-0.6,2.6-0.9,4-0.9c1.9,0,3.5,0.4,4.8,1.2c1.3,0.8,2.3,1.9,3,3.5
	c0.7,1.5,1,3.4,1,5.6V113h-7.7V98c0-1-0.1-1.9-0.4-2.5s-0.7-1.2-1.3-1.5c-0.6-0.4-1.3-0.5-2.2-0.5c-0.7,0-1.3,0.1-1.9,0.3
	c-0.6,0.2-1.1,0.5-1.5,0.9c-0.4,0.4-0.7,0.8-1,1.3c-0.2,0.5-0.3,1.1-0.3,1.7V113H157c-0.9,0-1.7,0-2.3,0
	C154,113,153.5,113,153.1,113z M183.9,113V87.6h7.6V113H183.9z M187.7,82.6c-1.4,0-2.6-0.3-3.4-1c-0.8-0.7-1.2-1.7-1.2-3
	c0-1.1,0.4-2.1,1.2-2.8c0.8-0.7,1.9-1.1,3.3-1.1c1.4,0,2.5,0.4,3.3,1.1c0.8,0.7,1.2,1.6,1.2,2.9c0,1.2-0.4,2.1-1.2,2.9
	C190.2,82.2,189.1,82.6,187.7,82.6z M209.8,113.5c-2.5,0-4.7-0.6-6.6-1.7c-1.9-1.1-3.5-2.7-4.6-4.7c-1.1-2-1.7-4.3-1.7-6.8
	c0-2.5,0.6-4.8,1.7-6.7c1.1-2,2.7-3.6,4.6-4.7c1.9-1.1,4.1-1.7,6.6-1.7c2.3,0,4.3,0.4,6.2,1.2c1.9,0.8,3.4,1.9,4.5,3.3l-4.2,5
	c-0.4-0.5-1-1-1.6-1.4c-0.6-0.4-1.3-0.8-2-1.1c-0.7-0.3-1.5-0.4-2.3-0.4c-1.2,0-2.3,0.3-3.2,0.9c-0.9,0.5-1.6,1.3-2.1,2.3
	c-0.5,1-0.8,2.1-0.8,3.4c0,1.2,0.3,2.3,0.8,3.3c0.5,1,1.3,1.8,2.2,2.3c0.9,0.6,2,0.9,3.2,0.9c0.8,0,1.6-0.1,2.3-0.3
	c0.7-0.2,1.3-0.5,1.9-1c0.6-0.4,1.2-0.9,1.7-1.5l4.1,5c-1.1,1.4-2.6,2.5-4.5,3.2C214.1,113.1,212,113.5,209.8,113.5z M57.8,173.5
	c-2.2,0-4.2-0.6-5.9-1.7c-1.7-1.1-3-2.7-4-4.7c-1-2-1.5-4.3-1.5-6.8c0-2.5,0.5-4.8,1.5-6.8c1-2,2.3-3.6,4.1-4.7
	c1.7-1.1,3.7-1.7,5.9-1.7c1.1,0,2.2,0.2,3.3,0.5c1.1,0.4,2,0.8,2.9,1.4c0.9,0.6,1.6,1.3,2.1,2.1c0.5,0.8,0.9,1.6,1,2.4l-1.8,0.4
	v-16.3H73V173h-7.1l-0.4-5.8l1.5,0.2c-0.1,0.8-0.4,1.6-1,2.3c-0.5,0.7-1.2,1.4-2,2c-0.8,0.5-1.8,1-2.9,1.3
	C60.1,173.4,58.9,173.5,57.8,173.5z M59.7,167.2c1.2,0,2.2-0.3,3.1-0.9c0.9-0.6,1.5-1.4,2-2.4c0.5-1,0.7-2.2,0.7-3.6
	c0-1.4-0.2-2.6-0.7-3.6c-0.4-1-1.1-1.8-2-2.4c-0.9-0.6-1.9-0.9-3.1-0.9s-2.2,0.3-3.1,0.9c-0.8,0.6-1.5,1.4-2,2.4
	c-0.5,1-0.7,2.2-0.7,3.6c0,1.4,0.2,2.6,0.7,3.6c0.5,1,1.1,1.8,2,2.4C57.5,166.9,58.5,167.2,59.7,167.2z M91.5,173.5
	c-2.8,0-5.2-0.6-7.3-1.7c-2.1-1.1-3.7-2.7-4.8-4.6c-1.1-2-1.7-4.2-1.7-6.7c0-1.9,0.3-3.7,1-5.4c0.6-1.6,1.5-3,2.7-4.2
	c1.1-1.2,2.5-2.1,4.1-2.8c1.6-0.7,3.3-1,5.2-1c1.8,0,3.4,0.3,4.9,1c1.5,0.6,2.8,1.5,3.9,2.7c1.1,1.1,1.9,2.5,2.5,4.1
	c0.6,1.6,0.8,3.3,0.8,5.1l0,2.1H82.3l-1.1-4.3h15.1l-0.8,0.9v-1c-0.1-0.8-0.3-1.5-0.8-2.1c-0.4-0.6-1-1.1-1.7-1.5
	c-0.7-0.4-1.5-0.5-2.4-0.5c-1.2,0-2.3,0.3-3.2,0.8c-0.9,0.5-1.5,1.2-2,2.1c-0.4,0.9-0.7,2.1-0.7,3.4c0,1.4,0.3,2.6,0.9,3.7
	c0.6,1,1.5,1.8,2.6,2.4c1.1,0.6,2.5,0.9,4.1,0.9c1.1,0,2-0.2,2.9-0.5c0.9-0.3,1.8-0.9,2.8-1.6l3.6,5.1c-1,0.9-2,1.6-3.2,2.1
	c-1.1,0.5-2.3,0.9-3.4,1.2C93.8,173.3,92.7,173.5,91.5,173.5z M116,173.5c-2.5,0-4.7-0.4-6.6-1.2c-1.9-0.8-3.4-1.9-4.5-3.2l4.6-4
	c1,1,2.1,1.7,3.3,2.2c1.2,0.4,2.4,0.7,3.5,0.7c0.4,0,0.8,0,1.2-0.1c0.3-0.1,0.6-0.2,0.9-0.4c0.3-0.2,0.4-0.4,0.6-0.6
	c0.1-0.3,0.2-0.5,0.2-0.9c0-0.6-0.3-1.1-0.9-1.5c-0.3-0.2-0.8-0.4-1.4-0.6c-0.7-0.2-1.5-0.5-2.6-0.8c-1.5-0.4-2.8-0.8-3.9-1.3
	c-1.1-0.5-2-1.2-2.7-1.9c-0.6-0.7-1.1-1.4-1.5-2.2c-0.4-0.8-0.5-1.8-0.5-2.8c0-1.2,0.3-2.2,0.8-3.2c0.6-1,1.3-1.8,2.2-2.5
	c1-0.7,2-1.2,3.2-1.6c1.2-0.4,2.5-0.6,3.8-0.6c1.4,0,2.7,0.2,4,0.5c1.3,0.3,2.5,0.8,3.5,1.3c1.1,0.6,2.1,1.3,3,2.1l-4,4.5
	c-0.6-0.5-1.2-1-2-1.4c-0.7-0.4-1.4-0.8-2.2-1.1c-0.8-0.3-1.5-0.4-2.1-0.4c-0.5,0-0.9,0-1.3,0.1c-0.4,0.1-0.7,0.2-0.9,0.4
	c-0.3,0.2-0.4,0.4-0.6,0.6c-0.1,0.2-0.2,0.5-0.2,0.8c0,0.3,0.1,0.6,0.2,0.9c0.2,0.3,0.4,0.5,0.8,0.7c0.3,0.2,0.8,0.4,1.5,0.7
	c0.7,0.2,1.7,0.5,2.9,0.9c1.5,0.4,2.8,0.9,3.9,1.4c1.1,0.5,1.9,1.1,2.6,1.8c0.5,0.5,0.9,1.2,1.1,1.9c0.3,0.7,0.4,1.5,0.4,2.3
	c0,1.6-0.5,3.1-1.4,4.3c-0.9,1.2-2.1,2.2-3.7,3C119.8,173.1,118,173.5,116,173.5z M131.5,173v-25.4h7.6V173H131.5z M135.3,142.6
	c-1.4,0-2.6-0.3-3.4-1c-0.8-0.7-1.2-1.7-1.2-3c0-1.1,0.4-2.1,1.2-2.8c0.8-0.7,1.9-1.1,3.3-1.1c1.4,0,2.5,0.4,3.3,1.1
	c0.8,0.7,1.2,1.6,1.2,2.9c0,1.2-0.4,2.1-1.2,2.9C137.8,142.2,136.7,142.6,135.3,142.6z M157.9,184c-2.1,0-4.1-0.3-6.2-0.9
	c-2-0.6-3.7-1.4-5-2.3l2.7-5.4c0.7,0.4,1.4,0.8,2.2,1.1c0.8,0.4,1.7,0.6,2.6,0.8c0.9,0.2,1.8,0.3,2.7,0.3c1.6,0,2.9-0.2,4-0.7
	c1-0.5,1.8-1.2,2.3-2.2c0.5-1,0.8-2.2,0.8-3.6v-4.3l1.5,0.2c-0.2,1.1-0.8,2-1.7,2.9c-0.9,0.9-1.9,1.6-3.2,2.1
	c-1.3,0.5-2.6,0.8-4.1,0.8c-2.3,0-4.3-0.5-6.2-1.6c-1.8-1.1-3.2-2.6-4.3-4.4c-1-1.9-1.5-4.1-1.5-6.6c0-2.5,0.5-4.8,1.5-6.7
	c1-2,2.4-3.5,4.2-4.6c1.8-1.1,3.8-1.7,6-1.7c1,0,1.9,0.1,2.7,0.3c0.9,0.2,1.7,0.5,2.4,0.9c0.8,0.4,1.4,0.8,2,1.3
	c0.6,0.5,1.1,1,1.4,1.6c0.4,0.6,0.6,1.2,0.8,1.8l-1.6,0.4l0.3-5.7h7.3v23.3c0,2.1-0.3,3.9-1,5.5c-0.6,1.6-1.5,3-2.7,4.1
	c-1.2,1.1-2.6,2-4.3,2.6C162,183.7,160.1,184,157.9,184z M158.1,166.9c1.2,0,2.3-0.3,3.2-0.8c0.9-0.6,1.6-1.4,2.1-2.3
	c0.5-1,0.8-2.2,0.8-3.5s-0.3-2.5-0.8-3.5c-0.5-1-1.2-1.8-2.1-2.3c-0.9-0.6-2-0.9-3.2-0.9c-1.2,0-2.3,0.3-3.2,0.9
	c-0.9,0.5-1.6,1.3-2.1,2.3c-0.5,1-0.7,2.1-0.7,3.5s0.2,2.5,0.7,3.5c0.5,1,1.2,1.8,2.1,2.3C155.9,166.6,156.9,166.9,158.1,166.9z
	 M178.3,173v-25.4h7.3l0.2,5.2l-1.5,0.6c0.3-1.1,1-2.2,1.9-3.1c0.9-1,2-1.7,3.3-2.3c1.3-0.6,2.6-0.9,4-0.9c1.9,0,3.5,0.4,4.8,1.2
	c1.3,0.8,2.3,1.9,3,3.5c0.7,1.5,1,3.4,1,5.6V173h-7.7v-15c0-1-0.1-1.9-0.4-2.5c-0.3-0.7-0.7-1.2-1.3-1.5c-0.6-0.4-1.3-0.5-2.1-0.5
	c-0.7,0-1.3,0.1-1.9,0.3c-0.6,0.2-1.1,0.5-1.5,0.9c-0.4,0.4-0.7,0.8-1,1.3c-0.2,0.5-0.3,1.1-0.3,1.7V173h-3.8c-0.9,0-1.7,0-2.3,0
	C179.2,173,178.7,173,178.3,173z"/>
</svg>
