<svg width="250" height="250" viewBox="0 0 250 250" fill="none" xmlns="http://www.w3.org/2000/svg">
<circle cx="125" cy="125" r="117.5" stroke="#F2F9F9" stroke-width="15"/>
<path d="M48.4033 113.478C45.7276 113.478 43.3067 113.048 41.1407 112.188C38.9747 111.328 37.1112 110.117 35.5504 108.556C33.9896 106.996 32.7951 105.164 31.9669 103.062C31.1387 100.928 30.7247 98.6182 30.7247 96.1337C30.7247 93.6491 31.1547 91.3716 32.0147 89.3011C32.9066 87.1988 34.1648 85.3672 35.7893 83.8064C37.4139 82.2456 39.3251 81.0352 41.5229 80.1751C43.7527 79.3151 46.1735 78.8851 48.7855 78.8851C50.633 78.8851 52.369 79.124 53.9935 79.6018C55.6499 80.0796 57.147 80.7326 58.4848 81.5608C59.8227 82.3889 60.9535 83.3445 61.8772 84.4276L56.9559 89.6356C56.1595 88.8711 55.3314 88.234 54.4713 87.7244C53.6431 87.2147 52.7512 86.8166 51.7956 86.5299C50.84 86.2113 49.8207 86.0521 48.7377 86.0521C47.3362 86.0521 46.0461 86.3069 44.8675 86.8166C43.7208 87.3262 42.7015 88.0429 41.8096 88.9667C40.9496 89.8586 40.2807 90.9256 39.8029 92.1679C39.3251 93.3783 39.0862 94.7003 39.0862 96.1337C39.0862 97.5671 39.341 98.9049 39.8506 100.147C40.3603 101.389 41.0611 102.472 41.953 103.396C42.8448 104.288 43.896 105.005 45.1064 105.546C46.3487 106.056 47.6706 106.311 49.0722 106.311C50.0596 106.311 50.9834 106.152 51.8434 105.833C52.7353 105.514 53.4998 105.084 54.1369 104.543C54.7739 104.001 55.2836 103.364 55.6658 102.632C56.0481 101.867 56.2392 101.055 56.2392 100.195V98.9527L57.2903 100.577H48.0688V94.2225H63.7884C63.8521 94.5728 63.8999 95.0506 63.9318 95.6559C63.9636 96.2611 63.9795 96.8504 63.9795 97.4237C64.0114 97.9971 64.0273 98.4271 64.0273 98.7138C64.0273 100.88 63.6291 102.871 62.8328 104.686C62.0683 106.47 60.9853 108.015 59.5838 109.321C58.1822 110.627 56.5259 111.646 54.6147 112.379C52.7035 113.111 50.633 113.478 48.4033 113.478ZM69.4373 113V87.6288H76.6998L77.0343 95.8948L75.6009 94.318C75.9831 92.9483 76.6043 91.722 77.4643 90.639C78.3562 89.5559 79.3914 88.6959 80.57 88.0588C81.7486 87.4218 83.0068 87.1032 84.3446 87.1032C84.918 87.1032 85.4436 87.151 85.9214 87.2466C86.431 87.3421 86.8929 87.4536 87.307 87.581L85.2047 96.0381C84.8543 95.8151 84.3765 95.6399 83.7713 95.5125C83.1979 95.3533 82.5927 95.2736 81.9556 95.2736C81.2549 95.2736 80.6019 95.401 79.9967 95.6559C79.3914 95.8788 78.8818 96.2133 78.4677 96.6592C78.0536 97.1052 77.7191 97.6308 77.4643 98.236C77.2413 98.8412 77.1299 99.526 77.1299 100.291V113H69.4373ZM99.4726 113.43C97.3384 113.43 95.4272 112.873 93.739 111.758C92.0826 110.611 90.7607 109.05 89.7733 107.075C88.7858 105.069 88.2921 102.807 88.2921 100.291C88.2921 97.7104 88.7858 95.4329 89.7733 93.458C90.7607 91.4831 92.1145 89.9382 93.8346 88.8233C95.5546 87.6766 97.5136 87.1032 99.7115 87.1032C100.922 87.1032 102.021 87.2784 103.008 87.6288C104.028 87.9792 104.92 88.4729 105.684 89.11C106.448 89.7152 107.101 90.4319 107.643 91.2601C108.184 92.0564 108.583 92.9165 108.837 93.8402L107.261 93.6491V87.6288H114.858V113H107.117V106.884L108.837 106.836C108.583 107.728 108.169 108.572 107.595 109.369C107.022 110.165 106.321 110.866 105.493 111.471C104.665 112.076 103.741 112.554 102.722 112.904C101.702 113.255 100.619 113.43 99.4726 113.43ZM101.575 106.98C102.754 106.98 103.773 106.709 104.633 106.167C105.493 105.626 106.162 104.861 106.64 103.874C107.117 102.855 107.356 101.66 107.356 100.291C107.356 98.9208 107.117 97.7423 106.64 96.7548C106.162 95.7355 105.493 94.9551 104.633 94.4136C103.773 93.8402 102.754 93.5535 101.575 93.5535C100.428 93.5535 99.4248 93.8402 98.5648 94.4136C97.7366 94.9551 97.0836 95.7355 96.6058 96.7548C96.128 97.7423 95.8891 98.9208 95.8891 100.291C95.8891 101.66 96.128 102.855 96.6058 103.874C97.0836 104.861 97.7366 105.626 98.5648 106.167C99.4248 106.709 100.428 106.98 101.575 106.98ZM121.603 123.512V87.6288H128.866L129.153 93.3146L127.719 92.8846C127.942 91.8335 128.484 90.8779 129.344 90.0178C130.204 89.1578 131.287 88.4729 132.593 87.9633C133.931 87.4218 135.332 87.151 136.797 87.151C138.963 87.151 140.891 87.7244 142.579 88.8711C144.267 89.986 145.589 91.5309 146.544 93.5058C147.532 95.4488 148.026 97.7104 148.026 100.291C148.026 102.839 147.532 105.1 146.544 107.075C145.589 109.05 144.251 110.611 142.531 111.758C140.843 112.873 138.9 113.43 136.702 113.43C135.268 113.43 133.899 113.159 132.593 112.618C131.287 112.076 130.188 111.344 129.296 110.42C128.404 109.496 127.815 108.493 127.528 107.41L129.296 106.741V123.512H121.603ZM134.838 106.98C135.985 106.98 136.988 106.709 137.849 106.167C138.709 105.594 139.377 104.814 139.855 103.826C140.333 102.839 140.572 101.66 140.572 100.291C140.572 98.9527 140.333 97.79 139.855 96.8026C139.377 95.7833 138.709 95.0029 137.849 94.4614C137.02 93.888 136.017 93.6013 134.838 93.6013C133.66 93.6013 132.641 93.8721 131.78 94.4136C130.92 94.9551 130.252 95.7355 129.774 96.7548C129.296 97.7741 129.057 98.9527 129.057 100.291C129.057 101.66 129.296 102.839 129.774 103.826C130.252 104.814 130.92 105.594 131.78 106.167C132.641 106.709 133.66 106.98 134.838 106.98ZM153.099 113V77.6428H160.6V92.7891L159.071 93.3624C159.422 92.2157 160.043 91.1805 160.935 90.2567C161.859 89.3011 162.958 88.5366 164.232 87.9633C165.506 87.3899 166.844 87.1032 168.245 87.1032C170.156 87.1032 171.765 87.5014 173.071 88.2977C174.377 89.0622 175.364 90.2249 176.033 91.7857C176.702 93.3146 177.037 95.194 177.037 97.4237V113H169.344V98.0449C169.344 97.0256 169.201 96.1814 168.914 95.5125C168.627 94.8436 168.181 94.3499 167.576 94.0313C167.003 93.681 166.286 93.5217 165.426 93.5535C164.757 93.5535 164.136 93.665 163.563 93.888C162.989 94.0791 162.496 94.3817 162.082 94.7958C161.667 95.1781 161.333 95.624 161.078 96.1337C160.855 96.6433 160.744 97.2007 160.744 97.806V113H156.969C156.077 113 155.313 113 154.676 113C154.039 113 153.513 113 153.099 113ZM183.858 113V87.6288H191.503V113H183.858ZM187.68 82.6119C186.247 82.6119 185.116 82.2775 184.288 81.6085C183.492 80.9078 183.094 79.9203 183.094 78.6462C183.094 77.4995 183.508 76.5598 184.336 75.8272C185.164 75.0945 186.279 74.7282 187.68 74.7282C189.114 74.7282 190.229 75.0786 191.025 75.7794C191.821 76.4483 192.22 77.4039 192.22 78.6462C192.22 79.8248 191.805 80.7804 190.977 81.513C190.181 82.2456 189.082 82.6119 187.68 82.6119ZM209.819 113.478C207.366 113.478 205.168 112.904 203.225 111.758C201.282 110.611 199.737 109.05 198.59 107.075C197.475 105.069 196.918 102.807 196.918 100.291C196.918 97.7741 197.475 95.5284 198.59 93.5535C199.737 91.5468 201.282 89.97 203.225 88.8233C205.168 87.6766 207.366 87.1032 209.819 87.1032C212.08 87.1032 214.151 87.5014 216.03 88.2977C217.941 89.0941 219.454 90.2089 220.569 91.6423L216.412 96.6115C215.966 96.1018 215.441 95.624 214.836 95.1781C214.23 94.7321 213.561 94.3817 212.829 94.1269C212.096 93.8721 211.332 93.7447 210.535 93.7447C209.325 93.7447 208.258 94.0313 207.334 94.6047C206.41 95.1462 205.694 95.9107 205.184 96.8981C204.674 97.8856 204.419 99.0164 204.419 100.291C204.419 101.501 204.674 102.6 205.184 103.587C205.725 104.575 206.458 105.355 207.382 105.929C208.306 106.502 209.357 106.789 210.535 106.789C211.364 106.789 212.128 106.693 212.829 106.502C213.53 106.279 214.167 105.96 214.74 105.546C215.345 105.132 215.903 104.623 216.412 104.017L220.521 109.034C219.438 110.404 217.925 111.487 215.982 112.283C214.071 113.08 212.017 113.478 209.819 113.478ZM57.764 173.526C55.5661 173.526 53.6072 172.968 51.8871 171.853C50.1989 170.707 48.861 169.146 47.8736 167.171C46.8861 165.164 46.3924 162.887 46.3924 160.338C46.3924 157.79 46.8861 155.528 47.8736 153.554C48.861 151.547 50.2148 149.97 51.9349 148.823C53.6549 147.677 55.6298 147.103 57.8596 147.103C59.0063 147.103 60.1052 147.278 61.1564 147.629C62.2076 147.979 63.1632 148.457 64.0232 149.062C64.8832 149.667 65.584 150.368 66.1255 151.165C66.667 151.929 66.9856 152.725 67.0811 153.554L65.2655 153.984V137.643H72.9581V173H65.8388L65.4088 167.219L66.9378 167.458C66.8422 168.254 66.5237 169.018 65.9822 169.751C65.4725 170.484 64.8036 171.137 63.9754 171.71C63.1472 172.251 62.1916 172.681 61.1086 173C60.0575 173.35 58.9426 173.526 57.764 173.526ZM59.723 167.171C60.9016 167.171 61.9209 166.884 62.7809 166.311C63.641 165.737 64.294 164.941 64.7399 163.922C65.2177 162.902 65.4566 161.708 65.4566 160.338C65.4566 158.937 65.2177 157.726 64.7399 156.707C64.294 155.688 63.641 154.891 62.7809 154.318C61.9209 153.745 60.9016 153.458 59.723 153.458C58.5444 153.458 57.5251 153.745 56.6651 154.318C55.8369 154.891 55.1839 155.688 54.7061 156.707C54.2283 157.726 53.9894 158.937 53.9894 160.338C53.9894 161.708 54.2283 162.902 54.7061 163.922C55.1839 164.941 55.8369 165.737 56.6651 166.311C57.5251 166.884 58.5444 167.171 59.723 167.171ZM91.5109 173.478C88.7078 173.478 86.271 172.92 84.2005 171.806C82.1301 170.659 80.5215 169.114 79.3748 167.171C78.228 165.196 77.6547 162.95 77.6547 160.434C77.6547 158.491 77.9732 156.707 78.6103 155.082C79.2474 153.458 80.1392 152.056 81.286 150.878C82.4327 149.667 83.7865 148.744 85.3473 148.107C86.9399 147.438 88.6759 147.103 90.5553 147.103C92.3391 147.103 93.9636 147.422 95.4288 148.059C96.926 148.696 98.216 149.588 99.299 150.735C100.382 151.881 101.21 153.235 101.784 154.796C102.357 156.357 102.612 158.061 102.548 159.908L102.5 161.963H82.2893L81.1904 157.663H96.2889L95.4766 158.57V157.615C95.4129 156.819 95.1581 156.118 94.7121 155.513C94.2981 154.875 93.7406 154.382 93.0398 154.031C92.3391 153.681 91.5427 153.506 90.6508 153.506C89.4086 153.506 88.3415 153.761 87.4496 154.27C86.5895 154.748 85.9366 155.465 85.4906 156.42C85.0447 157.344 84.8217 158.491 84.8217 159.861C84.8217 161.262 85.1084 162.488 85.6817 163.54C86.2869 164.559 87.147 165.355 88.2618 165.929C89.4086 166.502 90.7623 166.789 92.3231 166.789C93.4062 166.789 94.3618 166.629 95.1899 166.311C96.05 165.992 96.9737 165.451 97.9612 164.686L101.545 169.751C100.557 170.611 99.5061 171.312 98.3912 171.853C97.2763 172.395 96.1296 172.793 94.951 173.048C93.8043 173.334 92.6576 173.478 91.5109 173.478ZM115.971 173.478C113.487 173.478 111.289 173.08 109.378 172.283C107.498 171.487 106.001 170.42 104.886 169.082L109.521 165.069C110.508 166.056 111.623 166.789 112.866 167.266C114.108 167.712 115.286 167.935 116.401 167.935C116.847 167.935 117.245 167.888 117.596 167.792C117.946 167.696 118.233 167.569 118.456 167.41C118.711 167.219 118.902 167.012 119.029 166.789C119.157 166.534 119.22 166.247 119.22 165.929C119.22 165.291 118.934 164.798 118.36 164.447C118.074 164.288 117.596 164.097 116.927 163.874C116.258 163.651 115.398 163.396 114.347 163.11C112.85 162.727 111.544 162.281 110.429 161.772C109.346 161.23 108.454 160.609 107.753 159.908C107.116 159.239 106.622 158.507 106.272 157.71C105.922 156.882 105.746 155.958 105.746 154.939C105.746 153.761 106.017 152.693 106.559 151.738C107.132 150.782 107.881 149.954 108.804 149.253C109.76 148.553 110.843 148.027 112.053 147.677C113.296 147.294 114.57 147.103 115.876 147.103C117.277 147.103 118.615 147.263 119.889 147.581C121.163 147.9 122.342 148.346 123.425 148.919C124.54 149.492 125.527 150.177 126.387 150.973L122.374 155.465C121.8 154.923 121.147 154.445 120.415 154.031C119.714 153.585 118.981 153.235 118.217 152.98C117.452 152.725 116.752 152.598 116.115 152.598C115.637 152.598 115.207 152.646 114.825 152.741C114.474 152.805 114.172 152.932 113.917 153.124C113.662 153.283 113.471 153.49 113.343 153.745C113.216 153.968 113.152 154.238 113.152 154.557C113.152 154.875 113.232 155.178 113.391 155.465C113.582 155.751 113.837 155.99 114.156 156.181C114.474 156.373 114.984 156.596 115.685 156.85C116.385 157.073 117.341 157.36 118.551 157.71C120.048 158.124 121.339 158.586 122.422 159.096C123.505 159.606 124.365 160.211 125.002 160.912C125.511 161.453 125.894 162.09 126.148 162.823C126.403 163.524 126.531 164.288 126.531 165.116C126.531 166.741 126.069 168.19 125.145 169.464C124.253 170.707 123.011 171.694 121.418 172.427C119.826 173.127 118.01 173.478 115.971 173.478ZM131.505 173V147.629H139.15V173H131.505ZM135.328 142.612C133.894 142.612 132.764 142.277 131.935 141.609C131.139 140.908 130.741 139.92 130.741 138.646C130.741 137.499 131.155 136.56 131.983 135.827C132.811 135.095 133.926 134.728 135.328 134.728C136.761 134.728 137.876 135.079 138.672 135.779C139.469 136.448 139.867 137.404 139.867 138.646C139.867 139.825 139.453 140.78 138.625 141.513C137.828 142.246 136.729 142.612 135.328 142.612ZM157.944 183.989C155.873 183.989 153.803 183.687 151.732 183.082C149.694 182.476 148.037 181.696 146.763 180.74L149.439 175.389C150.108 175.835 150.84 176.217 151.637 176.536C152.465 176.886 153.325 177.157 154.217 177.348C155.109 177.539 156.017 177.635 156.94 177.635C158.565 177.635 159.887 177.396 160.906 176.918C161.925 176.44 162.69 175.708 163.2 174.72C163.709 173.764 163.964 172.554 163.964 171.089V166.836L165.445 167.075C165.222 168.126 164.665 169.082 163.773 169.942C162.913 170.802 161.846 171.503 160.572 172.044C159.298 172.554 157.944 172.809 156.51 172.809C154.217 172.809 152.162 172.283 150.347 171.232C148.563 170.149 147.145 168.668 146.094 166.789C145.075 164.877 144.565 162.68 144.565 160.195C144.565 157.647 145.075 155.401 146.094 153.458C147.114 151.483 148.515 149.938 150.299 148.823C152.083 147.677 154.089 147.103 156.319 147.103C157.275 147.103 158.183 147.215 159.043 147.438C159.935 147.661 160.747 147.963 161.479 148.346C162.244 148.696 162.913 149.126 163.486 149.636C164.091 150.113 164.569 150.639 164.92 151.212C165.302 151.786 165.557 152.375 165.684 152.98L164.107 153.362L164.394 147.629H171.657V170.945C171.657 173.016 171.338 174.847 170.701 176.44C170.096 178.065 169.188 179.434 167.978 180.549C166.799 181.696 165.366 182.556 163.677 183.129C161.989 183.703 160.078 183.989 157.944 183.989ZM158.135 166.884C159.377 166.884 160.444 166.613 161.336 166.072C162.26 165.499 162.961 164.718 163.438 163.731C163.948 162.743 164.203 161.581 164.203 160.243C164.203 158.905 163.948 157.742 163.438 156.755C162.961 155.735 162.26 154.955 161.336 154.414C160.444 153.84 159.377 153.554 158.135 153.554C156.924 153.554 155.873 153.84 154.981 154.414C154.089 154.955 153.389 155.735 152.879 156.755C152.401 157.742 152.162 158.905 152.162 160.243C152.162 161.581 152.401 162.743 152.879 163.731C153.389 164.718 154.089 165.499 154.981 166.072C155.873 166.613 156.924 166.884 158.135 166.884ZM178.295 173V147.629H185.558L185.797 152.789L184.268 153.362C184.618 152.216 185.239 151.18 186.131 150.257C187.055 149.301 188.154 148.537 189.428 147.963C190.702 147.39 192.04 147.103 193.442 147.103C195.353 147.103 196.961 147.501 198.267 148.298C199.573 149.062 200.561 150.225 201.23 151.786C201.899 153.315 202.233 155.194 202.233 157.424V173H194.541V158.045C194.541 157.026 194.397 156.181 194.111 155.513C193.824 154.844 193.378 154.35 192.773 154.031C192.199 153.681 191.483 153.522 190.623 153.554C189.954 153.554 189.333 153.665 188.759 153.888C188.186 154.079 187.692 154.382 187.278 154.796C186.864 155.178 186.53 155.624 186.275 156.134C186.052 156.643 185.94 157.201 185.94 157.806V173H182.166C181.274 173 180.509 173 179.872 173C179.235 173 178.71 173 178.295 173Z" fill="#F2F9F9"/>
</svg>
