<svg xmlns="http://www.w3.org/2000/svg" viewBox="0 0 50 50"><defs><style>.cls-1{fill:#fff;}</style></defs><g id="Layer_2" data-name="Layer 2"><g id="OBJECTS"><rect width="50" height="50" rx="14.52"/><path class="cls-1" d="M11.07,38.23H17V19.57H11.07Z"/><path class="cls-1" d="M21.16,19h6.31l-.4,2.51h.07C28.48,20.08,29.8,19,32.05,19c3.14,0,7.52,1.71,7.52,6.91V38.23H33.66V27.68c0-1.85-1.17-3.63-3.08-3.63a3.8,3.8,0,0,0-3.51,3.63V38.23H21.16Z"/><path class="cls-1" d="M17.2,15A3.18,3.18,0,1,1,14,11.77,3.17,3.17,0,0,1,17.2,15Z"/></g></g></svg>