<svg xmlns="http://www.w3.org/2000/svg" viewBox="0 0 50 50"><defs><style>.cls-1{fill:#fff;}</style></defs><g id="Layer_2" data-name="Layer 2"><g id="OBJECTS"><rect width="50" height="50" rx="14.52"/><path class="cls-1" d="M16.51,13.43a16.73,16.73,0,0,1,4.17.45,8.06,8.06,0,0,1,2.8,1.24,4.8,4.8,0,0,1,1.58,2,6.47,6.47,0,0,1,.49,2.57,4.93,4.93,0,0,1-.22,1.49,4.06,4.06,0,0,1-.72,1.34,5.51,5.51,0,0,1-1.24,1.15,7.8,7.8,0,0,1-1.83.9A6.64,6.64,0,0,1,25,26.31a4.58,4.58,0,0,1,1.12,3.19,6.41,6.41,0,0,1-.59,2.73,6.25,6.25,0,0,1-1.71,2.2A8,8,0,0,1,21,35.9a12.44,12.44,0,0,1-3.77.53H7.83v-23Zm-3.21,4v5.68h2.86A9,9,0,0,0,17.79,23,3.36,3.36,0,0,0,19,22.54a2.06,2.06,0,0,0,.78-.87,3.16,3.16,0,0,0,.27-1.39,3.81,3.81,0,0,0-.21-1.36,1.94,1.94,0,0,0-.65-.88,2.68,2.68,0,0,0-1.11-.47,7.49,7.49,0,0,0-1.6-.14Zm3.86,15a4.88,4.88,0,0,0,1.77-.27A2.76,2.76,0,0,0,20,31.44a2.3,2.3,0,0,0,.54-1,4.46,4.46,0,0,0,.14-1.09,3.41,3.41,0,0,0-.17-1.14,1.83,1.83,0,0,0-.58-.85,3,3,0,0,0-1.09-.54,6.87,6.87,0,0,0-1.72-.19H13.3V32.4Z"/><path class="cls-1" d="M38.52,31.25c0,.89-1.06,1.89-3.14,1.89A3.47,3.47,0,0,1,32,29.37l10,0a11.58,11.58,0,0,0-.25-4.5,5.94,5.94,0,0,0-1.57-2.63A6.35,6.35,0,0,0,38,20.85a8.7,8.7,0,0,0-6.13.14,7.54,7.54,0,0,0-2.46,1.69,7.63,7.63,0,0,0-1.55,2.49,8.41,8.41,0,0,0-.54,3,10,10,0,0,0,.63,3.7,7.69,7.69,0,0,0,1.72,2.65,7.09,7.09,0,0,0,2.55,1.61,8.61,8.61,0,0,0,4.44.43,6,6,0,0,0,5.15-5.32ZM33.11,24.4a2.85,2.85,0,0,1,2.11-.77,3,3,0,0,1,1.29.26,2.35,2.35,0,0,1,.86.68,2.75,2.75,0,0,1,.48.95,4.54,4.54,0,0,1,.14,1.1H32.11A4,4,0,0,1,33.11,24.4Z"/><rect class="cls-1" x="29.62" y="16.08" width="10.33" height="2.37"/></g></g></svg>