<?xml version="1.0" encoding="utf-8"?>
<!-- Generator: Adobe Illustrator 26.0.3, SVG Export Plug-In . SVG Version: 6.00 Build 0)  -->
<svg version="1.1" id="Layer_1" xmlns="http://www.w3.org/2000/svg" xmlns:xlink="http://www.w3.org/1999/xlink" x="0px" y="0px"
	 viewBox="0 0 320 150" style="enable-background:new 0 0 320 150;" xml:space="preserve">
<style type="text/css">
	.st0{fill:#DC001F;}
	.st1{fill:#FFFFFF;}
	.st2{fill:none;}
	.st3{fill:#C7C9CB;}
</style>
<g>
	<g id="Layer_2_00000076566465496664016330000009859452583264459138_">
		<g id="Layer_1-2">
			<path class="st0" d="M54.8,102.9c6.3-2.2,12.9-3.7,19.6-4.6l-9.3-8.7C61.4,93.8,57.9,98.2,54.8,102.9z"/>
			<path class="st0" d="M245.9,89.6l-9.2,8.7c6.7,0.8,13.3,2.3,19.6,4.6C253.2,98.2,249.7,93.8,245.9,89.6z"/>
			<path class="st1" d="M101.7,38.6l-3.4-5.1l-6-8.8l4.6,18.1l6-2.5L101.7,38.6z M101.7,38.6l-3.4-5.1l-6-8.8l4.6,18.1l6-2.5
				L101.7,38.6z M101.7,38.6l-3.4-5.1l-6-8.8l4.6,18.1l6-2.5L101.7,38.6z M101.7,38.6l-3.4-5.1l-6-8.8l4.6,18.1l6-2.5L101.7,38.6z
				 M101.7,38.6l-3.4-5.1l-6-8.8l4.6,18.1l6-2.5L101.7,38.6z M101.7,38.6l-3.4-5.1l-6-8.8l4.6,18.1l6-2.5L101.7,38.6z M101.7,38.6
				l-3.4-5.1l-6-8.8l4.6,18.1l6-2.5L101.7,38.6z M250.3,44.3c-2.1-2.6-5.1-4.2-8.4-4.5c-0.4-0.1-0.8-0.1-1.2-0.1
				c-0.8,0-1.6,0.1-2.3,0.2c-0.4,0.1-0.8,0.2-1.2,0.3c-0.2,0-0.3,0.1-0.5,0.1c-0.3,0.1-0.6,0.2-0.8,0.3c-0.2,0.1-0.4,0.2-0.7,0.3
				c-0.1,0-0.2,0.1-0.3,0.2c-0.2,0.1-0.3,0.2-0.5,0.3c-0.2,0.1-0.3,0.2-0.5,0.3c-0.3,0.2-0.6,0.4-0.9,0.6c-0.1,0.1-0.1,0.1-0.2,0.2
				l-0.1,0.1h0c0,0,0,0,0,0c0,0,0,0-0.1,0.1c-0.1,0-0.1,0.1-0.2,0.2l-0.2,0.2c0,0-0.1,0.1-0.2,0.2c-0.1,0.1-0.2,0.2-0.3,0.3
				c-0.1,0.1-0.2,0.2-0.3,0.3c0,0-0.1,0.1-0.1,0.2c-0.1,0.1-0.1,0.2-0.2,0.3c-0.2,0.2-0.4,0.4-0.5,0.7s-0.3,0.5-0.5,0.7c0,0,0,0,0,0
				c-0.3,0.5-0.6,1-0.8,1.5c-0.1,0.2-0.2,0.3-0.2,0.5c-0.1,0.2-0.1,0.3-0.2,0.5c-0.1,0.4-0.3,0.8-0.4,1.3c-0.1,0.3-0.1,0.6-0.2,1
				c0,0.2,0,0.3-0.1,0.5c0,0.1,0,0.2,0,0.3c-0.3,3.1,0.7,6.4,2.7,8.8c1.6,1.9,3.7,3.3,6,4c0.8,0.3,1.6,0.4,2.4,0.5
				c0.4,0.1,0.8,0.1,1.2,0.1c1,0,2.1-0.1,3.1-0.4c1.4-0.4,2.7-1,3.8-1.8c0.2-0.1,0.3-0.2,0.5-0.3c0.1-0.1,0.2-0.1,0.3-0.2
				c0.2-0.2,0.4-0.3,0.6-0.5c2.3-2,3.8-4.8,4.1-8C253.4,50.1,252.4,46.9,250.3,44.3z M101.7,38.6l-3.4-5.1l-6-8.8l4.6,18.1l6-2.5
				L101.7,38.6z M250.3,44.3c-2.1-2.6-5.1-4.2-8.4-4.5c-0.4-0.1-0.8-0.1-1.2-0.1c-0.8,0-1.6,0.1-2.3,0.2c-0.4,0.1-0.8,0.2-1.2,0.3
				c-0.2,0-0.3,0.1-0.5,0.1c-0.3,0.1-0.6,0.2-0.8,0.3c-0.2,0.1-0.4,0.2-0.7,0.3c-0.1,0-0.2,0.1-0.3,0.2c-0.2,0.1-0.3,0.2-0.5,0.3
				c-0.2,0.1-0.3,0.2-0.5,0.3c-0.3,0.2-0.6,0.4-0.9,0.6c-0.1,0.1-0.1,0.1-0.2,0.2l-0.1,0.1h0c0,0,0,0,0,0c0,0,0,0-0.1,0.1
				c-0.1,0-0.1,0.1-0.2,0.2l-0.2,0.2c0,0-0.1,0.1-0.2,0.2c-0.1,0.1-0.2,0.2-0.3,0.3c-0.1,0.1-0.2,0.2-0.3,0.3c0,0-0.1,0.1-0.1,0.2
				c-0.1,0.1-0.1,0.2-0.2,0.3c-0.2,0.2-0.4,0.4-0.5,0.7s-0.3,0.5-0.5,0.7c0,0,0,0,0,0c-0.3,0.5-0.6,1-0.8,1.5
				c-0.1,0.2-0.2,0.3-0.2,0.5c-0.1,0.2-0.1,0.3-0.2,0.5c-0.1,0.4-0.3,0.8-0.4,1.3c-0.1,0.3-0.1,0.6-0.2,1c0,0.2,0,0.3-0.1,0.5
				c0,0.1,0,0.2,0,0.3c-0.3,3.1,0.7,6.4,2.7,8.8c1.6,1.9,3.7,3.3,6,4c0.8,0.3,1.6,0.4,2.4,0.5c0.4,0.1,0.8,0.1,1.2,0.1
				c1,0,2.1-0.1,3.1-0.4c1.4-0.4,2.7-1,3.8-1.8c0.2-0.1,0.3-0.2,0.5-0.3c0.1-0.1,0.2-0.1,0.3-0.2c0.2-0.2,0.4-0.3,0.6-0.5
				c2.3-2,3.8-4.8,4.1-8C253.4,50.1,252.4,46.9,250.3,44.3z M155.7,2.2h-0.1c-54.1,0-108,24.4-140.2,73
				c11.9,8.4,36.9,27.5,36.9,27.5c24-36.1,63.1-55.5,102.9-55c0.4,0,0.8,0,1.2,0c41.2,0,79.7,20.6,102.6,55l36.9-27.5
				C263.5,26.7,209.7,2.2,155.7,2.2z M206.7,47.1l-0.2,0.6l0,0l0,0.1l10.6,4.1l-2.1,4.7l-13.6-5.4l-1.6-0.6l-0.2-0.1l9.3-26.1
				l2.8-7.8l5.9,2.1L206.7,47.1z M280.5,61.5l1.3,0.4v0l2.2,2.6l-2.8-0.6l-3.1-3.7l-0.2-2.8l0.5,0.6l1.9,2.1L280.5,61.5z
				 M226.2,63.8c-0.1-0.2-0.3-0.3-0.4-0.5c-0.3-0.4-0.6-0.9-0.9-1.3c-0.2-0.2-0.3-0.5-0.5-0.8c-0.2-0.3-0.3-0.6-0.5-0.9
				c-1.5-3.1-2.2-6.6-1.8-10c0.1-0.7,0.2-1.3,0.3-2c0.7-3.5,2.4-6.6,4.8-9c0.5-0.5,1-1,1.5-1.4c0.2-0.2,0.4-0.3,0.5-0.4
				c0.2-0.1,0.3-0.3,0.5-0.4c0.2-0.1,0.3-0.2,0.5-0.4c0.2-0.2,0.5-0.3,0.8-0.5c2.3-1.3,4.9-2.2,7.7-2.5c0.6-0.1,1.1-0.1,1.7-0.1
				c0.6,0,1.2,0,1.9,0.1c2.7,0.3,5.4,1.2,7.8,2.6c1.4,0.8,2.7,1.9,3.8,3c0.2,0.2,0.3,0.3,0.5,0.5l0.5,0.6c0.3,0.4,0.6,0.7,0.9,1.1
				c0.1,0.2,0.2,0.3,0.3,0.5c0.2,0.3,0.4,0.6,0.6,0.9c0,0,0.1,0.1,0.1,0.1c0.2,0.3,0.3,0.6,0.5,0.9c0,0,0,0.1,0.1,0.1
				c0.2,0.3,0.3,0.7,0.5,1c0.2,0.4,0.3,0.7,0.4,1.1c0.1,0.3,0.2,0.6,0.3,1c0,0,0,0,0,0c0,0.2,0.1,0.4,0.1,0.6c0,0.1,0,0.1,0,0.2
				c0.1,0.3,0.1,0.6,0.2,0.9c0.3,1.6,0.3,3.3,0.1,5c-0.2,2.5-1,4.8-2.1,6.8c-0.2,0.3-0.3,0.6-0.5,0.9c-0.2,0.3-0.4,0.6-0.6,1
				c-0.3,0.4-0.6,0.9-1,1.3c-0.1,0.1-0.2,0.2-0.3,0.3c-0.3,0.3-0.6,0.6-0.9,0.9c-0.2,0.2-0.4,0.4-0.6,0.6l-0.1,0.1
				c-3.3,3-7.7,4.8-12.5,4.7c-0.6,0-1.3,0-1.9-0.1c-3-0.3-5.9-1.4-8.5-3c-0.4-0.2-0.7-0.5-1-0.7c-0.2-0.1-0.4-0.3-0.6-0.5
				c-0.2-0.2-0.4-0.3-0.6-0.5c-0.4-0.4-0.8-0.8-1.2-1.2C226.6,64.3,226.4,64,226.2,63.8z M248.5,81c-0.8-2-1.2-4.1-1.2-6.2l5-1.1
				c0.2,3.7,1.1,6.7,3.4,9.3c1,1.3,2.5,2.1,4.1,2.2c0.1,0,0.2,0,0.4,0c0.8-0.1,1.6-0.5,2.2-1c1.7-1.5,1.9-3.2,0.1-8.7
				c-2.2-6.5-2.8-10.4,1.4-14.2c1.4-1.3,3.3-2.1,5.2-2.3c0.1,0,0.1,0,0.2,0c0.2,0,0.3,0,0.5,0h0c3.2,0.1,6.1,1.6,8.1,4.2
				c1.5,1.5,2.5,3.3,2.9,5.3c0,0.2,0.1,0.4,0.1,0.5c0,0.2,0.1,0.4,0.1,0.5c0,0.1,0,0.3,0,0.4c0,0.2,0,0.4,0,0.5
				c0.1,1.2-0.1,2.4-0.4,3.6l-5-1.2c0.1-0.2,0.1-0.5,0.1-0.7v0c0,0,0-0.1,0-0.1c0,0,0,0,0,0c0-0.1,0-0.2,0-0.3
				c0.3-2-0.4-3.9-1.8-5.4c-0.9-1.2-2.3-1.9-3.8-2c-0.9,0-1.7,0.3-2.4,0.9c-1,0.8-1.5,1.7-1.4,3v0.1c0,1.3,0.5,3.1,1.4,6
				c0.8,2.5,1.4,4.6,1.5,6.5c0,0.3,0,0.5,0,0.8c0,0.1,0,0.2,0,0.4c-0.1,2.4-1.1,4.3-3.1,6.1c-1.7,1.6-3.9,2.4-6.1,2.5
				c-3.2-0.1-6.2-1.7-8.3-4.2c-1.1-1.2-2-2.5-2.7-3.9C248.9,82,248.6,81.5,248.5,81z M188.8,47.2l-1.5-0.4l2.9-12.1l3.7-14.9l2-8
				l0.4,0.1l1.9,0.5l3.8,1l-9.3,34.8L188.8,47.2z M166.8,43.8l-1.9-0.2l-1.2-7.1l-1.1-6.3l-0.3-1.8l-1.7-9.6l-2.2,24.7l-3.8,0.1
				h-1.7l2-26.4L155.7,7h0.2l2.5,0.1l6.4,0.2l3,19.9l0.4,2.9l0.1-0.2l0,0.2l3.5-11.7l3.1-10l2.1,0.3l5.5,0.6l0.1,0l0.4,0.1l-1.9,36
				l-3.7-0.6l-2-0.3l0.3-4.6l0.1-1l0.5-8.2l0.7-11.3l-0.1,0.4l0-0.4L169.5,44L166.8,43.8z M119.6,47.3l-0.1,0.1l3.7-29.1l0.2-1.2
				l0.1-0.9L112,18.7l-1.7,0.3l-1.4-5.1l1.7-0.4l20-4.5l-4,31.4l0.1,0v0l10.8-2.2l1.1,5.4l-16.7,3.3L119.6,47.3z M105.5,45.4l-7,3
				L100,55l-4,1.7l-1,0.4l-9.2-35.2l0.8-0.3l7.6-3.2l20.7,30.2l-4,1.7l-1.2,0.5l-3.8-4.9L105.5,45.4z M88.6,59.3
				c0,0.1,0,0.1-0.1,0.2c-0.8,1.5-2,2.8-3.5,3.6l-1.8,1.1l-0.7,0.4L81.8,65l-3.5-5.3l1.5-0.9l1.5-0.9l0.1-0.1
				c0.8-0.7,1.3-1.8,1.2-2.9c-0.1-0.7-0.3-1.4-0.7-2c-0.3-0.5-0.6-0.8-0.7-1.1L81,51.6l-3.2-5.2l-9.5-15.2l1.5-0.9l3.7-2.2
				l14.3,23.8c0.2,0.3,0.4,0.7,0.6,1C89.4,55,89.4,57.3,88.6,59.3C88.6,59.3,88.6,59.3,88.6,59.3z M52.1,93.2L51,94.6L23.5,73l1-1.3
				l2.4-3.1l13.9,10.9l13.6,10.9L52.1,93.2z M50.8,82l-9.2-3l-2.9-6.6l-5.2-11.7l1.1-1.1l3.2-3.5l7.6,18.1l0.1,0.3l17.4,6.2l-2.6,3
				l-1,1.1L50.8,82z M74.6,70.1l-4.9-2.7l-10.8-6.1l10.6,12.8l-1.7,1.5l-0.2,0.2l-1.5,1.3L42.6,50.8l1.2-1.1l2.5-2.3l19.2,12.4
				l-0.2-0.2l0.2,0.1l-8.6-10.5L51.8,43l1.4-1.1l3-2.4L65,50.7l0.8,1l12.3,15.7l-2,1.5L74.6,70.1z M237,63.9
				c0.8,0.3,1.6,0.4,2.4,0.5c0.4,0.1,0.8,0.1,1.2,0.1c1,0,2.1-0.1,3.1-0.4c1.4-0.4,2.7-1,3.8-1.8c0.2-0.1,0.3-0.2,0.5-0.3
				c0.1-0.1,0.2-0.1,0.3-0.2c0.2-0.2,0.4-0.3,0.6-0.5c2.3-2,3.8-4.8,4.1-8c0.4-3.2-0.6-6.4-2.7-9c-2.1-2.6-5.1-4.2-8.4-4.5
				c-0.4-0.1-0.8-0.1-1.2-0.1c-0.8,0-1.6,0.1-2.3,0.2c-0.4,0.1-0.8,0.2-1.2,0.3c-0.2,0-0.3,0.1-0.5,0.1c-0.3,0.1-0.6,0.2-0.8,0.3
				c-0.2,0.1-0.4,0.2-0.7,0.3c-0.1,0-0.2,0.1-0.3,0.2c-0.2,0.1-0.3,0.2-0.5,0.3c-0.2,0.1-0.3,0.2-0.5,0.3c-0.3,0.2-0.6,0.4-0.9,0.6
				c-0.1,0.1-0.1,0.1-0.2,0.2l-0.1,0.1h0c0,0,0,0,0,0c0,0,0,0-0.1,0.1c-0.1,0-0.1,0.1-0.2,0.2l-0.2,0.2c0,0-0.1,0.1-0.2,0.2
				c-0.1,0.1-0.2,0.2-0.3,0.3c-0.1,0.1-0.2,0.2-0.3,0.3c0,0-0.1,0.1-0.1,0.2c-0.1,0.1-0.1,0.2-0.2,0.3c-0.2,0.2-0.4,0.4-0.5,0.7
				s-0.3,0.5-0.5,0.7c0,0,0,0,0,0c-0.3,0.5-0.6,1-0.8,1.5c-0.1,0.2-0.2,0.3-0.2,0.5c-0.1,0.2-0.1,0.3-0.2,0.5
				c-0.1,0.4-0.3,0.8-0.4,1.3c-0.1,0.3-0.1,0.6-0.2,1c0,0.2,0,0.3-0.1,0.5c0,0.1,0,0.2,0,0.3c-0.3,3.1,0.7,6.4,2.7,8.8
				C232.6,61.8,234.7,63.2,237,63.9z M98.3,33.5l-6-8.8l4.6,18.1l6-2.5l-1.2-1.7L98.3,33.5z M250.3,44.3c-2.1-2.6-5.1-4.2-8.4-4.5
				c-0.4-0.1-0.8-0.1-1.2-0.1c-0.8,0-1.6,0.1-2.3,0.2c-0.4,0.1-0.8,0.2-1.2,0.3c-0.2,0-0.3,0.1-0.5,0.1c-0.3,0.1-0.6,0.2-0.8,0.3
				c-0.2,0.1-0.4,0.2-0.7,0.3c-0.1,0-0.2,0.1-0.3,0.2c-0.2,0.1-0.3,0.2-0.5,0.3c-0.2,0.1-0.3,0.2-0.5,0.3c-0.3,0.2-0.6,0.4-0.9,0.6
				c-0.1,0.1-0.1,0.1-0.2,0.2l-0.1,0.1h0c0,0,0,0,0,0c0,0,0,0-0.1,0.1c-0.1,0-0.1,0.1-0.2,0.2l-0.2,0.2c0,0-0.1,0.1-0.2,0.2
				c-0.1,0.1-0.2,0.2-0.3,0.3c-0.1,0.1-0.2,0.2-0.3,0.3c0,0-0.1,0.1-0.1,0.2c-0.1,0.1-0.1,0.2-0.2,0.3c-0.2,0.2-0.4,0.4-0.5,0.7
				s-0.3,0.5-0.5,0.7c0,0,0,0,0,0c-0.3,0.5-0.6,1-0.8,1.5c-0.1,0.2-0.2,0.3-0.2,0.5c-0.1,0.2-0.1,0.3-0.2,0.5
				c-0.1,0.4-0.3,0.8-0.4,1.3c-0.1,0.3-0.1,0.6-0.2,1c0,0.2,0,0.3-0.1,0.5c0,0.1,0,0.2,0,0.3c-0.3,3.1,0.7,6.4,2.7,8.8
				c1.6,1.9,3.7,3.3,6,4c0.8,0.3,1.6,0.4,2.4,0.5c0.4,0.1,0.8,0.1,1.2,0.1c1,0,2.1-0.1,3.1-0.4c1.4-0.4,2.7-1,3.8-1.8
				c0.2-0.1,0.3-0.2,0.5-0.3c0.1-0.1,0.2-0.1,0.3-0.2c0.2-0.2,0.4-0.3,0.6-0.5c2.3-2,3.8-4.8,4.1-8
				C253.4,50.1,252.4,46.9,250.3,44.3z M101.7,38.6l-3.4-5.1l-6-8.8l4.6,18.1l6-2.5L101.7,38.6z M250.3,44.3
				c-2.1-2.6-5.1-4.2-8.4-4.5c-0.4-0.1-0.8-0.1-1.2-0.1c-0.8,0-1.6,0.1-2.3,0.2c-0.4,0.1-0.8,0.2-1.2,0.3c-0.2,0-0.3,0.1-0.5,0.1
				c-0.3,0.1-0.6,0.2-0.8,0.3c-0.2,0.1-0.4,0.2-0.7,0.3c-0.1,0-0.2,0.1-0.3,0.2c-0.2,0.1-0.3,0.2-0.5,0.3c-0.2,0.1-0.3,0.2-0.5,0.3
				c-0.3,0.2-0.6,0.4-0.9,0.6c-0.1,0.1-0.1,0.1-0.2,0.2l-0.1,0.1h0c0,0,0,0,0,0c0,0,0,0-0.1,0.1c-0.1,0-0.1,0.1-0.2,0.2l-0.2,0.2
				c0,0-0.1,0.1-0.2,0.2c-0.1,0.1-0.2,0.2-0.3,0.3c-0.1,0.1-0.2,0.2-0.3,0.3c0,0-0.1,0.1-0.1,0.2c-0.1,0.1-0.1,0.2-0.2,0.3
				c-0.2,0.2-0.4,0.4-0.5,0.7s-0.3,0.5-0.5,0.7c0,0,0,0,0,0c-0.3,0.5-0.6,1-0.8,1.5c-0.1,0.2-0.2,0.3-0.2,0.5
				c-0.1,0.2-0.1,0.3-0.2,0.5c-0.1,0.4-0.3,0.8-0.4,1.3c-0.1,0.3-0.1,0.6-0.2,1c0,0.2,0,0.3-0.1,0.5c0,0.1,0,0.2,0,0.3
				c-0.3,3.1,0.7,6.4,2.7,8.8c1.6,1.9,3.7,3.3,6,4c0.8,0.3,1.6,0.4,2.4,0.5c0.4,0.1,0.8,0.1,1.2,0.1c1,0,2.1-0.1,3.1-0.4
				c1.4-0.4,2.7-1,3.8-1.8c0.2-0.1,0.3-0.2,0.5-0.3c0.1-0.1,0.2-0.1,0.3-0.2c0.2-0.2,0.4-0.3,0.6-0.5c2.3-2,3.8-4.8,4.1-8
				C253.4,50.1,252.4,46.9,250.3,44.3z M101.7,38.6l-3.4-5.1l-6-8.8l4.6,18.1l6-2.5L101.7,38.6z M101.7,38.6l-3.4-5.1l-6-8.8
				l4.6,18.1l6-2.5L101.7,38.6z M101.7,38.6l-3.4-5.1l-6-8.8l4.6,18.1l6-2.5L101.7,38.6z M101.7,38.6l-3.4-5.1l-6-8.8l4.6,18.1
				l6-2.5L101.7,38.6z M101.7,38.6l-3.4-5.1l-6-8.8l4.6,18.1l6-2.5L101.7,38.6z"/>
			<path class="st1" d="M54.8,102.9c6.3-2.2,12.9-3.7,19.6-4.6l-9.3-8.7C61.4,93.8,57.9,98.2,54.8,102.9z"/>
			<path class="st1" d="M72,101c-6,0.9-11.8,2.3-17.5,4.3l-0.8,0.3l-0.8,0.3l-0.6,0.2l0,0L31.5,90c-5.7,8.9-11.7,21.6-14.2,31.2
				c7.8-3.8,16.1-6.7,24.6-8.7c0.8,11.7,3.1,23.2,6.8,34.3c3.1-12,8.2-23.5,14.9-33.9c2.8-4.3,5.9-8.4,9.4-12.3l0,0L72,101z"/>
			<path class="st1" d="M245.9,89.6l-9.2,8.7c6.7,0.8,13.3,2.3,19.6,4.6C253.2,98.2,249.7,93.8,245.9,89.6z"/>
			<path class="st1" d="M258.7,106L258.7,106l-0.6-0.2l-0.8-0.3l-0.8-0.3c-5.7-2-11.6-3.4-17.5-4.2l-0.9-0.2l0,0
				c3.4,3.9,6.6,8,9.4,12.3c6.8,10.4,11.8,21.9,14.9,33.9c3.7-11.1,6-22.6,6.8-34.3c8.5,1.9,16.7,4.8,24.6,8.6
				c-3.3-10.9-8.1-21.4-14.1-31.1L258.7,106z"/>
			<polygon class="st2" points="68.3,31.2 77.8,46.4 68.3,31.2 			"/>
			<path class="st2" d="M78.3,59.7l3.5,5.3l-0.1,0L78.3,59.7l1.4-0.9l1.5-0.9l0.1-0.1c0.9-0.7,1.3-1.8,1.2-2.9
				c-0.1-0.7-0.3-1.4-0.7-2c-0.2-0.4-0.5-0.8-0.7-1.1L81,51.6l0.2,0.2c0.1,0.3,0.4,0.6,0.7,1.1c0.4,0.6,0.6,1.3,0.7,2
				c0.1,1.1-0.4,2.2-1.2,2.9l-0.1,0.1l-1.5,0.9L78.3,59.7z"/>
			<path class="st2" d="M88.5,59.5c-0.7,1.6-1.9,2.9-3.6,3.7l-1.8,1.1l-0.6,0.3l0.7-0.4l1.8-1.1C86.5,62.3,87.7,61,88.5,59.5z"/>
			<polygon class="st2" points="97.5,41.5 101.4,39.9 100.9,39.1 100.8,39 99,36.3 96.1,32.1 94.6,29.9 			"/>
			<path class="st2" d="M250.8,46.9c-0.4-0.7-0.8-1.3-1.2-1.9c-1.9-2.4-4.7-3.8-7.7-4.1c-0.4,0-0.8-0.1-1.1-0.1
				c-5.9,0-10.8,4.4-11.3,10.2c-0.3,3,0.6,6,2.5,8.3c0.8,0.9,1.7,1.8,2.7,2.4l0.3,0.2c1.5,0.9,3.1,1.4,4.8,1.6
				c0.4,0,0.8,0.1,1.1,0.1c6.3,0.1,11.4-5,11.4-11.2c0-1.6-0.3-3.2-1-4.7C251,47.3,250.9,47.1,250.8,46.9z"/>
			<path class="st2" d="M240.6,70.5c-0.6,0-1.3,0-1.9-0.1c-3-0.3-5.9-1.4-8.5-3c-0.4-0.2-0.7-0.5-1-0.7c-0.2-0.1-0.4-0.3-0.6-0.5
				c-0.2-0.2-0.4-0.3-0.6-0.5c-0.4-0.4-0.8-0.8-1.2-1.2c-0.2-0.2-0.4-0.5-0.6-0.7c-0.1-0.2-0.3-0.3-0.4-0.5
				c-0.3-0.4-0.6-0.9-0.9-1.3c-0.2-0.2-0.3-0.5-0.5-0.8c-0.2-0.3-0.3-0.6-0.5-0.9c-1.5-3.1-2.2-6.6-1.8-10c0.1-0.7,0.2-1.3,0.3-2
				c0.7-3.5,2.4-6.6,4.8-9c-2.4,2.4-4.1,5.5-4.9,9c-0.1,0.7-0.2,1.3-0.3,2c0,0.3,0,0.6-0.1,0.9c0,0.6,0,1.2,0,1.8
				c0,0.3,0,0.6,0.1,0.9c0,0.3,0.1,0.5,0.1,0.8c0.3,1.9,0.8,3.8,1.7,5.6c0.6,1.2,1.4,2.4,2.2,3.5c2.5,3.1,6,5.3,9.9,6.2
				c0.2,0,0.4,0.1,0.6,0.1c0.2,0.1,0.4,0.1,0.6,0.1c0.2,0,0.5,0.1,0.8,0.1c0.1,0,0.2,0,0.4,0.1c0.1,0,0.2,0,0.3,0
				c0.2,0,0.4,0.1,0.6,0.1c0.2,0,0.3,0,0.5,0c0.3,0,0.6,0,0.9,0s0.6,0,0.9,0c0.2,0,0.4,0,0.7,0c0.4,0,0.8-0.1,1.1-0.1
				c1.1-0.2,2.2-0.4,3.3-0.8c0.3-0.1,0.5-0.2,0.8-0.3c1.6-0.6,3.1-1.5,4.4-2.5c0.4-0.3,0.9-0.7,1.3-1.1
				C249.8,68.8,245.4,70.5,240.6,70.5z M243.8,64c-0.5,0.2-1.1,0.3-1.6,0.3c-0.5,0.1-1,0.1-1.6,0.1h0c-0.1,0-0.2,0-0.2,0
				c-0.3,0-0.5,0-0.8-0.1c0,0,0,0,0,0c-0.2,0-0.4,0-0.6-0.1c-0.1,0-0.2,0-0.3,0c-0.4,0-0.8-0.1-1.1-0.2c-0.1,0-0.2-0.1-0.4-0.1
				c-2.4-0.7-4.4-2.1-6-4c-2.1-2.5-3.1-5.8-2.7-9c0.2-2.1,1-4.1,2.1-5.8c0.2-0.2,0.4-0.5,0.5-0.7c0.1-0.1,0.2-0.2,0.3-0.3
				c0,0,0.1-0.1,0.1-0.2c-0.1,0.1-0.1,0.2-0.2,0.3c-0.2,0.2-0.4,0.4-0.5,0.7s-0.3,0.5-0.5,0.7c0,0,0,0,0,0c-0.3,0.5-0.6,1-0.8,1.5
				c-0.1,0.2-0.2,0.3-0.2,0.5c-0.1,0.2-0.1,0.3-0.2,0.5c-0.1,0.4-0.3,0.8-0.4,1.3c-0.1,0.3-0.1,0.6-0.2,1c0,0.2,0,0.3-0.1,0.5
				c0,0.1,0,0.2,0,0.3c-0.3,3.1,0.7,6.4,2.7,8.8c1.6,1.9,3.7,3.3,6,4c0.8,0.3,1.6,0.4,2.4,0.5c0.4,0.1,0.8,0.1,1.2,0.1
				C241.6,64.5,242.7,64.4,243.8,64c1.3-0.3,2.6-0.9,3.7-1.7C246.4,63.1,245.2,63.7,243.8,64z M233.1,42.3c0.3-0.2,0.6-0.4,0.9-0.6
				C233.7,41.9,233.4,42.1,233.1,42.3z M232.3,43c0,0-0.1,0.1-0.2,0.2c0.1-0.1,0.2-0.2,0.4-0.3L232.3,43z"/>
			<polygon class="st2" points="110.6,13.5 108.9,13.9 110.3,19 110.2,19 108.8,13.9 			"/>
			<polygon class="st2" points="137.5,38.2 137.5,38.2 126.7,40.4 126.7,40.4 			"/>
			<polygon class="st2" points="164.9,7.3 167.8,27.2 164.8,7.3 			"/>
			<polygon class="st2" points="167.8,27.2 168.3,29.8 168.3,29.8 168.2,30.1 			"/>
			<polygon class="st2" points="175.5,44.4 175.8,39.8 175.5,44.4 			"/>
			<polygon class="st2" points="177,19.7 177.1,19.3 176.4,30.6 175.9,38.8 175.8,39.8 175.8,38.8 176.3,30.6 177,19.7 			"/>
			<polygon class="st2" points="177,8.6 174.9,8.3 174.9,8.2 177.1,8.5 182.5,9.2 			"/>
			<path class="st2" d="M94.2,18.4l20.7,30.2l0,0L94.1,18.2l-7.6,3.3l-0.8,0.3L95,57.1l-9.2-35.2l0.8-0.3L94.2,18.4z"/>
			<polygon class="st2" points="206.5,47.7 217.1,51.8 217.1,51.9 206.5,47.8 			"/>
			<polygon class="st2" points="208.9,24.4 199.6,50.5 199.5,50.5 208.8,24.2 211.7,16.5 217.6,18.7 211.7,16.6 			"/>
			<polygon class="st2" points="195.9,11.7 196.3,11.9 195.9,11.8 			"/>
			<polygon class="st2" points="202,13.3 202,13.4 198.2,12.4 196.3,11.9 198.2,12.3 			"/>
			<polygon class="st2" points="54.4,90.4 52.1,93.3 51,94.6 52.1,93.2 			"/>
			<polygon class="st2" points="53.2,41.9 51.8,43 53.1,41.8 56.2,39.4 65,50.7 56.2,39.5 			"/>
			<polygon class="st2" points="65.5,59.8 46.3,47.4 43.8,49.7 46.2,47.3 65.3,59.6 			"/>
			<polygon class="st2" points="67.8,75.6 69.5,74.1 58.9,61.3 69.6,74.1 			"/>
			<polygon class="st2" points="281.2,63.9 284,64.5 281.8,61.9 281.8,61.9 284.1,64.6 			"/>
			<path class="st1" d="M262.3,75.5c-2.2-6.5-2.8-10.4,1.4-14.2c1.4-1.3,3.3-2.1,5.3-2.3c-1.9,0.2-3.8,1-5.2,2.3
				c-4.2,3.8-3.6,7.7-1.4,14.2c1.8,5.5,1.6,7.2-0.1,8.7c-0.6,0.5-1.4,0.9-2.2,1c0.8-0.1,1.5-0.5,2.1-1
				C263.9,82.7,264.1,81,262.3,75.5z"/>
			<path class="st1" d="M269.3,82c-0.1,2.5-1,4.4-3.1,6.3c-1.6,1.5-3.8,2.4-6.1,2.4c-3.3-0.1-6.3-1.7-8.3-4.2c-1.1-1.2-2-2.6-2.7-4
				c0.7,1.4,1.6,2.7,2.7,3.9c2.1,2.5,5.1,4.1,8.3,4.2c2.2-0.1,4.4-0.9,6.1-2.5C268.2,86.3,269.2,84.4,269.3,82z"/>
			<path class="st1" d="M274,66.6c-0.9-1.2-2.3-1.9-3.8-2c-0.9,0-1.7,0.3-2.4,0.9c-0.9,0.8-1.4,1.6-1.4,2.8c0-1.4,0.5-2.2,1.4-3
				c0.7-0.6,1.5-0.9,2.4-0.9c1.5,0.1,2.9,0.8,3.8,2c1.4,1.4,2.1,3.4,1.8,5.4C275.9,69.9,275.3,68.1,274,66.6z"/>
			<path class="st1" d="M280.6,74.3l-5-1.2c0-0.1,0-0.1,0-0.2l5,1.2c0.4-1.4,0.5-2.8,0.4-4.2C281.1,71.4,281,72.9,280.6,74.3z"/>
			<polygon class="st1" points="54.4,90.4 52.1,93.3 51,94.6 52.1,93.2 			"/>
			<polygon class="st1" points="164.9,7.3 167.8,27.2 164.8,7.3 			"/>
			<polygon class="st1" points="167.8,27.2 168.3,29.8 168.3,29.8 168.2,30.1 			"/>
			<polygon class="st1" points="175.5,44.4 175.8,39.8 175.5,44.4 			"/>
			<polygon class="st1" points="177,19.7 177.1,19.3 176.4,30.6 175.9,38.8 175.8,39.8 175.8,38.8 176.3,30.6 177,19.7 			"/>
			<polygon class="st1" points="177,8.6 174.9,8.3 174.9,8.2 177.1,8.5 182.5,9.2 			"/>
			<polygon class="st1" points="53.2,41.9 51.8,43 53.1,41.8 56.2,39.4 65,50.7 56.2,39.5 			"/>
			<polygon class="st1" points="65.5,59.8 46.3,47.4 43.8,49.7 46.2,47.3 65.3,59.6 			"/>
			<polygon class="st1" points="67.8,75.6 69.5,74.1 58.9,61.3 69.6,74.1 			"/>
			<polygon class="st1" points="195.9,11.7 196.3,11.9 195.9,11.8 			"/>
			<polygon class="st1" points="202,13.3 202,13.4 198.2,12.4 196.3,11.9 198.2,12.3 			"/>
			<polygon class="st1" points="206.5,47.7 217.1,51.8 217.1,51.9 206.5,47.8 			"/>
			<polygon class="st1" points="208.9,24.4 199.6,50.5 199.5,50.5 208.8,24.2 211.7,16.5 217.6,18.7 211.7,16.6 			"/>
			<path class="st1" d="M259,49c0.3,1.6,0.3,3.3,0.1,5c-0.2,2.5-1,4.8-2.1,6.8c1.1-2.1,1.9-4.4,2.2-6.9
				C259.4,52.2,259.3,50.6,259,49z M250.3,44.3c-2.1-2.6-5.1-4.2-8.4-4.5c-0.4-0.1-0.8-0.1-1.2-0.1c-0.8,0-1.6,0.1-2.3,0.2
				c-0.4,0.1-0.8,0.2-1.2,0.3c-0.2,0-0.3,0.1-0.5,0.1c-0.3,0.1-0.6,0.2-0.8,0.3c-0.2,0.1-0.4,0.2-0.7,0.3c-0.1,0-0.2,0.1-0.3,0.2
				c-0.2,0.1-0.3,0.2-0.5,0.3c-0.2,0.1-0.3,0.2-0.5,0.3c-0.3,0.2-0.6,0.4-0.9,0.6c-0.1,0.1-0.1,0.1-0.2,0.2l-0.1,0.1
				c2.1-1.7,4.9-2.8,7.8-2.8c0.4,0,0.8,0,1.2,0.1c3.3,0.3,6.3,1.9,8.4,4.5c1.7,2.2,2.7,4.8,2.8,7.5V52c0,1.6-0.3,3.2-0.9,4.7
				c-0.7,1.8-1.8,3.3-3.2,4.6c2.3-2,3.8-4.8,4.1-8C253.4,50.1,252.4,46.9,250.3,44.3z M250.3,36.3c-2.4-1.4-5.1-2.3-7.8-2.6
				c-0.2,0-0.3,0-0.5-0.1c-0.2,0-0.3,0-0.5,0c-0.3,0-0.5,0-0.8,0h-0.1c-0.6,0-1.1,0-1.7,0.1c-0.2,0-0.4,0-0.6,0.1
				c-0.2,0-0.4,0.1-0.6,0.1c-0.4,0.1-0.7,0.1-1.1,0.2c-0.3,0.1-0.6,0.1-0.8,0.2c-6.7,1.7-11.9,7.1-13.3,13.9c-0.1,0.7-0.2,1.3-0.3,2
				c0,0.3,0,0.6-0.1,1c0,0.6,0,1.2,0,1.8c0,0.3,0,0.6,0.1,0.9c0,0.3,0.1,0.5,0.1,0.8c0.3,1.9,0.9,3.7,1.7,5.5c0.2,0.3,0.4,0.7,0.6,1
				c-0.2-0.3-0.3-0.6-0.5-0.9c-1.5-3.1-2.2-6.6-1.8-10c0.1-0.7,0.2-1.3,0.3-2c0.7-3.5,2.4-6.6,4.8-9c0.5-0.5,1-1,1.5-1.4
				c0.2-0.2,0.4-0.3,0.5-0.4c0.2-0.1,0.3-0.3,0.5-0.4c0.2-0.1,0.3-0.2,0.5-0.4c0.2-0.2,0.5-0.3,0.8-0.5c2.3-1.3,4.9-2.2,7.7-2.5
				c0.6-0.1,1.1-0.1,1.7-0.1c0.6,0,1.2,0,1.9,0.1c2.7,0.3,5.4,1.2,7.8,2.6c1.4,0.8,2.7,1.9,3.8,3C253,38.2,251.7,37.2,250.3,36.3z
				 M232.3,43c0,0-0.1,0.1-0.2,0.2c0.1-0.1,0.2-0.2,0.4-0.3L232.3,43z M231.2,44.1c0,0,0.1-0.1,0.1-0.1c0,0,0.1-0.1,0.1-0.2
				C231.4,43.9,231.3,44,231.2,44.1z M228.3,50.8c0,0.1,0,0.2,0,0.3c0-0.1,0-0.1,0-0.2c0-0.2,0-0.4,0.1-0.6
				C228.3,50.5,228.3,50.6,228.3,50.8z M226.2,63.8c-0.1-0.2-0.3-0.3-0.4-0.5c0.1,0.1,0.2,0.3,0.3,0.4c0.2,0.3,0.5,0.5,0.7,0.8
				C226.6,64.3,226.4,64,226.2,63.8z"/>
			<polygon class="st1" points="110.6,13.5 108.9,13.9 110.3,19 110.2,19 108.8,13.9 			"/>
			<polygon class="st1" points="137.5,38.2 137.5,38.2 126.7,40.4 126.7,40.4 			"/>
			<polygon class="st1" points="278.1,60.2 281.2,63.9 278.5,60.8 278.4,60.7 278.4,60.7 			"/>
			<polygon class="st1" points="284.1,64.6 281.2,63.9 284,64.5 281.8,61.9 281.8,61.9 			"/>
			<polygon class="st1" points="68.3,31.2 77.8,46.4 68.3,31.2 			"/>
			<path class="st1" d="M78.3,59.7l3.5,5.3l-0.1,0L78.3,59.7l1.4-0.9l1.5-0.9l0.1-0.1c0.9-0.7,1.3-1.8,1.2-2.9
				c-0.1-0.7-0.3-1.4-0.7-2c-0.2-0.4-0.5-0.8-0.7-1.1L81,51.6l0.2,0.2c0.1,0.3,0.4,0.6,0.7,1.1c0.4,0.6,0.6,1.3,0.7,2
				c0.1,1.1-0.4,2.2-1.2,2.9l-0.1,0.1l-1.5,0.9L78.3,59.7z"/>
			<path class="st1" d="M88.5,59.5c-0.7,1.6-1.9,2.9-3.6,3.7l-1.8,1.1l-0.6,0.3l0.7-0.4l1.8-1.1C86.5,62.3,87.7,61,88.5,59.5z"/>
			<path class="st1" d="M94.2,18.4l20.7,30.2l0,0L94.1,18.2l-7.6,3.3l-0.8,0.3L95,57.1l-9.2-35.2l0.8-0.3L94.2,18.4z"/>
			<g>
				<path class="st3" d="M257.2,81.6c0.3,0.4,0.6,0.8,1,1.1c-1.9-2.7-2.1-7.1-1.5-9.2l-2.1,0.2C254.5,76.5,255.5,79.3,257.2,81.6z"
					/>
			</g>
			<polygon class="st3" points="101.2,49.9 102.3,55 104,54.3 102.8,49.1 			"/>
			<polygon class="st3" points="96.3,16 116.9,47.2 117.3,43.7 98.5,15.4 			"/>
			<polygon class="st3" points="98.1,40.3 96.6,34.3 99.7,39.6 			"/>
			<polygon class="st3" points="51.1,84.5 57.1,89.3 58.1,87.9 55.7,86 			"/>
			<polygon class="st3" points="62.7,76.6 48.5,71.5 40.3,52.1 39.2,53.3 47.3,72.7 65.5,79.2 			"/>
			<polygon class="st3" points="29.1,64.5 27.9,66.1 36,72.5 34.4,68.6 			"/>
			<polygon class="st3" points="162.5,44.5 161.3,34.6 160.6,44.5 			"/>
			<polygon class="st3" points="168,7.1 169.2,17.4 170.8,12.2 170.3,7.2 			"/>
			<polygon class="st3" points="183.6,46.9 184.9,47.1 186.1,42.7 188.7,9.8 186.2,9.4 			"/>
			<polygon class="st3" points="173.2,45.3 173.8,36.8 171.4,45.1 			"/>
			<polygon class="st3" points="76.1,57.4 59.3,35.9 57.5,37.2 74.3,58.7 			"/>
			<polygon class="st3" points="68.4,69.2 71.9,73.3 73.3,72 72.9,71.6 			"/>
			<polygon class="st3" points="50.7,45.4 48.9,44.2 47.5,45.4 54.3,49.7 			"/>
			<polygon class="st3" points="194.5,49.8 196.8,50.5 207.3,14.6 205,13.9 			"/>
			<path class="st3" d="M219.7,51.7l-3.1,7.3l2,0.8l1.4-3.5C219.8,54.8,219.7,53.2,219.7,51.7z"/>
			<polygon class="st3" points="209.8,46.6 211.8,47.4 222.2,20.3 220,19.5 			"/>
			<path class="st3" d="M234.1,59.4c-1.6-1.9-2.3-4.3-2-6.8c0.5-5.1,4.8-8.9,9.9-8.9c0.3,0,0.7,0,1,0c2,0.1,3.9,0.8,5.5,2.1
				c-1.7-2.1-4.1-3.4-6.8-3.7c-0.3,0-0.7,0-1,0c-5.1,0-9.4,3.8-9.9,8.9c-0.3,2.6,0.5,5.2,2.2,7.3C233.3,58.7,233.7,59,234.1,59.4z"
				/>
			<polygon class="st3" points="130.1,36.7 132.4,36.2 135.8,8.2 135.6,6.8 133.3,7.3 133.5,8.7 			"/>
			<polygon class="st3" points="142.1,35.6 139.8,36.1 139.9,36.5 141.5,44.4 143.8,44 			"/>
			<path class="st3" d="M88.2,43.6L77,25.2l-1.9,0.9L89.8,50c0.1,0.2,0.3,0.4,0.4,0.6L88.2,43.6z"/>
			<path class="st3" d="M283.3,68.4l5.1,1.3l-1.7-2l-4.2-1.1C282.9,67.1,283.1,67.7,283.3,68.4z"/>
			<g>
				<path class="st3" d="M282.8,69.8c0.4,2.3,0.2,4.7-0.6,6.9l-5.4-1.3c0,0.5-0.1,1-0.2,1.5l6.8,1.6C284.3,74.9,284,72.2,282.8,69.8
					z"/>
			</g>
			<path class="st3" d="M101.7,38.6l-3.4-5.1l-6-8.8l4.6,18.1l6-2.5L101.7,38.6z M97.6,41.5L97.6,41.5l-3-11.6l1.5,2.2l2.9,4.2
				l1.8,2.7l0.1,0.1l0.5,0.8L97.6,41.5z"/>
			<path class="st3" d="M46.5,73.7l-8.3-19.3l-4,4.2L33,59.8l-0.6,0.7L37,71.1l1.5,3.3l1.4,3.1l-13-10.2l-0.2-0.2l-4,5.3l-0.6,0.8
				L51.2,96l0.6-0.7l1.1-1.4l2.9-3.7l-11.6-9.3l4.2,1.3l4.6,1.5l6.7,2.2l0.6-0.6l1.2-1.3l3.3-3.7L46.5,73.7z M54.4,90.4l-2.3,2.8
				L51,94.6L23.5,73l1-1.4l2.4-3.1l13.9,10.9L54.4,90.4z M60.3,83.7l-1,1.1L50.8,82l-9.2-3l-3-6.7l-5.2-11.7l1.1-1.2l3.3-3.4
				l7.6,18.1l0.1,0.3l17.4,6.3L60.3,83.7z"/>
			<path class="st3" d="M79.2,67.3L56.3,38.1l-0.5,0.3l-3.3,2.7l-1.4,1.1l-0.7,0.6l3.9,4.8l3.5,4.3l3,3.6l-14.3-9.2l-0.2-0.1
				l-0.2-0.1l-2.7,2.6l-1.7,1.7l-0.4,0.4L65,77.3l1,1.2l0.6-0.6l4.3-3.7L70.7,74l-7.6-9.2l3.7,2.1l4.7,2.7l3.2,1.8l0.7-0.6l4.1-3.1
				L79.2,67.3z M76.1,69l-1.5,1.2l-4.9-2.8l-10.8-6.1l10.6,12.8l-1.7,1.5l-0.3,0.3l-1.4,1.3L42.6,50.8l1.2-1.1l2.5-2.3l19.2,12.4
				l-0.2-0.2l-8.4-10.3L51.8,43l1.4-1.1l3-2.4L65,50.7l0.8,1l12.4,15.7L76.1,69z"/>
			<path class="st3" d="M198.4,11.4l-1.9-0.5l-1.4-0.4l-2.2,9l-6.8,28l0.6,0.2l1.8,0.5l4.8,1.2l9.8-36.8L198.4,11.4z M192.7,48.2
				l-3.9-1l-1.5-0.4l2.9-12.1l3.6-14.9l2-8l0.1,0l0.4,0.1l1.9,0.5l3.8,1l0,0L192.7,48.2z"/>
			<path class="st3" d="M218.8,18l-7.8-2.8l-3.1,8.7L198.3,51l1.2,0.5l1.6,0.7l14.4,5.7l2.8-6.7l-10.6-4.1L218.4,19L218.8,18z
				 M206.7,47.2l-0.2,0.5l0,0.1l10.6,4.1l0,0l-2.1,4.9l-13.6-5.4l-1.6-0.7l-0.2-0.1l0-0.1l9.3-26.1l2.8-7.8l5.9,2.1L206.7,47.2z"/>
			<path class="st3" d="M255.9,39.8c-0.2-0.2-0.4-0.5-0.6-0.7c-3.3-3.6-7.8-5.9-12.7-6.4c-0.6-0.1-1.3-0.1-1.9-0.1
				c-10.1-0.1-18.5,7.6-19.5,17.6c-0.1,0.7-0.1,1.3-0.1,2s0,1.3,0.1,1.9c0.3,3.2,1.4,6.2,3.2,8.9c0.3,0.5,0.7,1,1.1,1.4
				c0.4,0.4,0.6,0.7,0.9,1c3.2,3.4,7.6,5.6,12.3,6c0.6,0.1,1.3,0.1,1.9,0.1c10.1,0.1,18.6-7.5,19.6-17.5
				C260.7,48.9,259.2,43.8,255.9,39.8z M259.3,53.9c-0.4,3.8-2,7.3-4.4,10c-0.1,0.1-0.2,0.2-0.3,0.3c-0.3,0.3-0.6,0.6-0.9,0.9
				c-0.2,0.2-0.4,0.4-0.6,0.6l-0.1,0.1c-0.4,0.4-0.8,0.7-1.3,1.1c-1.3,1-2.8,1.9-4.4,2.5c-0.3,0.1-0.5,0.2-0.8,0.3
				c-1.1,0.3-2.1,0.6-3.3,0.8c-0.4,0.1-0.8,0.1-1.1,0.1c-0.2,0-0.4,0-0.7,0c-0.3,0-0.6,0-0.9,0s-0.6,0-0.9,0c-0.1,0-0.3,0-0.5,0
				s-0.3,0-0.5-0.1c-0.1,0-0.2,0-0.4,0c-0.1,0-0.2,0-0.4-0.1c-0.2,0-0.5-0.1-0.8-0.1c-0.2,0-0.4-0.1-0.6-0.1c-0.2,0-0.4-0.1-0.6-0.1
				c-2-0.5-4-1.4-5.8-2.6c-0.4-0.2-0.7-0.5-1-0.7c-0.2-0.1-0.4-0.3-0.6-0.5c-0.2-0.2-0.4-0.3-0.6-0.5c-0.4-0.4-0.8-0.8-1.2-1.2
				c-0.2-0.2-0.4-0.5-0.6-0.7c-0.1-0.2-0.3-0.3-0.4-0.5c-0.3-0.4-0.6-0.9-0.9-1.3c-0.2-0.2-0.3-0.5-0.5-0.8
				c-0.2-0.3-0.3-0.6-0.5-0.9c-1.5-3.1-2.2-6.6-1.8-10c0.1-0.7,0.2-1.3,0.3-2c0.7-3.5,2.4-6.6,4.8-9c0.5-0.5,1-1,1.5-1.4
				c0.2-0.2,0.4-0.3,0.5-0.4c0.2-0.1,0.3-0.3,0.5-0.4c0.2-0.1,0.3-0.2,0.5-0.4c1.6-1.1,3.4-1.9,5.4-2.5c0.3-0.1,0.5-0.1,0.8-0.2
				c0.4-0.1,0.7-0.2,1.1-0.2c0.2,0,0.4-0.1,0.6-0.1c0.2,0,0.5-0.1,0.7-0.1c0.6,0,1-0.1,1.6-0.1h0.1c0.3,0,0.5,0,0.8,0
				c0.1,0,0.3,0,0.5,0c0.2,0,0.4,0,0.6,0.1c2.8,0.3,5.4,1.2,7.8,2.6C256.5,40,259.9,46.8,259.3,53.9z"/>
			<path class="st3" d="M250.3,44.3c-2.1-2.6-5.1-4.2-8.4-4.5c-0.4,0-0.8-0.1-1.2-0.1c-0.8,0-1.6,0.1-2.3,0.2
				c-0.4,0.1-0.8,0.2-1.2,0.3c-0.2,0-0.3,0.1-0.5,0.1c-0.3,0.1-0.6,0.2-0.8,0.3c-0.2,0.1-0.4,0.2-0.7,0.3c-0.1,0-0.2,0.1-0.3,0.2
				c-0.2,0.1-0.3,0.2-0.5,0.3c-0.2,0.1-0.3,0.2-0.5,0.3c-0.3,0.2-0.6,0.4-0.9,0.6c-0.1,0.1-0.1,0.1-0.2,0.2l-0.1,0.1h0c0,0,0,0,0,0
				c0,0,0,0-0.1,0.1c-0.1,0-0.1,0.1-0.2,0.2l-0.2,0.2c0,0-0.1,0.1-0.2,0.2c-0.1,0.1-0.2,0.2-0.3,0.3c-0.1,0.1-0.2,0.2-0.3,0.3
				c0,0-0.1,0.1-0.1,0.2c-0.1,0.1-0.1,0.2-0.2,0.3c-0.2,0.2-0.4,0.4-0.5,0.7s-0.3,0.5-0.5,0.7c0,0,0,0,0,0c-0.3,0.5-0.6,1-0.8,1.5
				c-0.1,0.2-0.2,0.3-0.2,0.5c-0.1,0.2-0.1,0.3-0.2,0.5c-0.1,0.4-0.3,0.8-0.4,1.3c-0.1,0.3-0.1,0.6-0.2,1c0,0.2,0,0.3-0.1,0.5
				c0,0.1,0,0.2,0,0.3c-0.2,3.1,0.7,6.3,2.7,8.7c1.6,1.9,3.6,3.3,6,4c0.2,0,0.3,0.1,0.5,0.1c0.4,0.1,0.8,0.2,1.1,0.2
				c0.1,0,0.2,0,0.3,0c0.2,0,0.3,0.1,0.5,0.1c0,0,0.1,0,0.1,0c0.2,0,0.5,0,0.8,0.1c0.1,0,0.2,0,0.2,0h0c0.6,0,1.1,0,1.6-0.1
				c0.5-0.1,1-0.2,1.5-0.3c5-1.3,8.7-5.6,9.2-10.7c0-0.4,0.1-0.8,0.1-1.3v-0.1C253,49.2,252,46.4,250.3,44.3z M240.7,40.6
				c0.4,0,0.8,0,1.1,0.1c3,0.3,5.8,1.8,7.7,4.1c0.5,0.6,0.9,1.2,1.2,1.9c0,0,0,0.1,0.1,0.1c0,0,0,0,0,0c0.1,0.2,0.1,0.4,0.2,0.5
				c0.9,1.9,1.2,3.9,1.1,5.8c-0.6,5.8-5.5,10.3-11.4,10.2c-0.4,0-0.8,0-1.1-0.1c-1.7-0.2-3.3-0.7-4.8-1.6l-0.3-0.2
				c-0.8-0.5-1.4-1.1-2.1-1.7c-0.1-0.1-0.2-0.2-0.2-0.2c0,0,0,0-0.1-0.1c0,0-0.1-0.1-0.1-0.1c-0.1-0.1-0.1-0.1-0.2-0.2
				c-1.9-2.3-2.8-5.3-2.5-8.3C229.9,45,234.8,40.6,240.7,40.6z"/>
			<path class="st3" d="M138.3,37.1l-10.5,2l3.8-30.4l-0.2-0.9l-1.6,0.4L126.1,9l-18.4,4.1l1.9,7.1l0.3-0.1l2.3-0.5l10.1-2.2
				l-0.1,1.1l-3.7,28.6l-0.1,0.7l-0.1,0.8l1.1-0.2l2.3-0.5l18-3.5L138.3,37.1z M119.6,47.4L119.6,47.4l3.6-29.1l0.2-1.2l0.1-0.9
				L112,18.7l-1.7,0.4l0-0.1l-1.4-5.1l1.7-0.4l20-4.5l-3.9,31.4v0l10.8-2.2l0.1,0l1.1,5.4l-16.8,3.3L119.6,47.4z"/>
			<path class="st3" d="M286.8,66.5l-3.9-4.6l-0.3-0.6l-0.2-0.3l-0.2-0.1l-0.7-0.2l-0.1-0.7v-0.3l-3.9-4.5l-0.6-0.7v6.1
				c-2-1.7-4.5-2.6-7.1-2.7c-2.5,0-4.8,0.9-6.7,2.6c-4.9,4.4-3.8,9.1-1.7,15.3c1.8,5.4,1.4,6.5,0.2,7.6c-0.5,0.5-1.2,0.7-1.8,0.8
				c-1.3-0.1-2.5-0.8-3.3-1.9c-2-2.2-2.9-4.8-3.1-8.7v-1.2l-1.2,0.3l-5,1.1l-0.9,0.2v0.9c0.1,4.6,1.8,9,4.8,12.4
				c2.2,2.7,5.5,4.4,9.1,4.5c2.5,0,5-1,6.8-2.7c4.4-3.9,4-8.5,1.9-15c-2-5.7-1.6-6.7-0.4-7.8c0.5-0.4,1.1-0.7,1.7-0.7
				c1.2,0.1,2.3,0.7,3,1.6c1.4,1.5,1.9,3.6,1.4,5.5l-0.4,1.1l1.1,0.3l5,1.2l0.9,0.2l0.3-0.9c1-3.1,0.6-6.5-1-9.3l6.1,1.2H286.8z
				 M280.7,68.5c0.1,0.2,0.1,0.4,0.1,0.5c0,0.2,0.1,0.4,0.1,0.5c0,0.1,0,0.3,0,0.4c0,0.2,0,0.4,0,0.5c0.1,1.2-0.1,2.4-0.4,3.6
				l-5-1.2l0,0c0.1-0.2,0.1-0.5,0.2-0.7v0c0,0,0-0.1,0-0.1c0,0,0,0,0,0c0-0.1,0-0.2,0-0.3c0.3-2-0.4-3.9-1.8-5.4
				c-0.9-1.2-2.3-1.9-3.8-2c-0.9,0-1.7,0.3-2.4,0.9c-1,0.8-1.5,1.7-1.4,3v0.1c0,1.3,0.5,3.1,1.4,5.8c0.9,2.6,1.4,4.8,1.5,6.7
				c0,0.3,0,0.5,0,0.8c0,0.1,0,0.2,0,0.4c-0.1,2.4-1.1,4.3-3.1,6.1c-1.7,1.6-3.9,2.4-6.1,2.5c-3.2-0.1-6.2-1.7-8.3-4.2
				c-1.1-1.2-2-2.5-2.7-3.9c-0.2-0.5-0.5-1-0.6-1.5c-0.8-2-1.2-4.1-1.2-6.2l5-1.1c0.2,3.7,1.1,6.7,3.4,9.3c1,1.3,2.5,2.1,4.1,2.2
				c0.1,0,0.2,0,0.4,0c0.8-0.1,1.6-0.5,2.2-1c1.7-1.5,1.9-3.2,0.1-8.7c-2.2-6.5-2.8-10.4,1.4-14.2c1.4-1.3,3.3-2.1,5.2-2.3
				c0.1,0,0.1,0,0.2,0c0.2,0,0.3,0,0.5,0h0.1c3.1,0.1,6,1.6,8,4C279.3,64.5,280.3,66.4,280.7,68.5z M278.4,60.7L278.4,60.7l-0.4-0.5
				l-0.1-2.8l0.5,0.6l1.9,2.1l0.2,1.3l1.2,0.4l0.1,0.1v0l2.2,2.6l-2.8-0.6L278.4,60.7z"/>
			<path class="st3" d="M88.9,51.3l-15-24.5l-6.2,3.7L67,30.9l13.2,21.2l0.1,0.2v0.1c0.7,0.8,1.2,1.9,1.3,3c0,0.1,0,0.1,0,0.2
				c-0.1,0.6-0.4,1.2-0.8,1.6L79.3,58l-1.6,0.9L77,59.3l4.2,6.4l0.4,0.6l4-2.4c1.4-0.8,2.6-1.9,3.5-3.2c0.2-0.3,0.4-0.7,0.6-1.1
				c0.2-0.5,0.4-1,0.5-1.5C90.7,55.7,90.2,53.3,88.9,51.3z M89.1,57.9c-0.1,0.5-0.3,0.9-0.5,1.4c0,0,0,0,0,0c0,0.1,0,0.1-0.1,0.2
				c-0.8,1.5-2,2.8-3.5,3.6l-1.8,1.1l-0.7,0.4L81.8,65l0,0l-3.5-5.3l1.5-0.9l1.5-0.9l0.1-0.1c0.8-0.7,1.3-1.8,1.2-2.9
				c-0.1-0.7-0.3-1.4-0.7-2c-0.3-0.5-0.6-0.8-0.7-1.1L81,51.6l-3.2-5.2l-9.5-15.2l0-0.1l1.6-0.9l3.7-2.2L88,51.8
				C89.2,53.6,89.6,55.8,89.1,57.9z"/>
			<path class="st3" d="M116.3,49l-0.1-0.2L94.6,17.2l-0.1-0.1l-10,4.2l9.8,37.2l6.7-2.9v-0.3L99.6,49l0.8-0.4l1.6-0.7l3.1-1.3
				l4.2,5.4l7.1-2.9L116.3,49z M110.9,50.3l-1.2,0.5l-3.8-4.9l-0.4-0.5l-7,3L100,55l-4,1.7l-1,0.4l-9.2-35.2l0.8-0.3l7.6-3.2
				l20.7,30.2l0.1,0.2L110.9,50.3z"/>
			<g>
				<path class="st3" d="M271.3,84.1c-0.4,2.5-1.7,4.9-3.6,6.6c-3.6,2.8-8.4,3.3-12.4,1.4c0.7,0.7,6.7,5.3,12.9,0.2
					C270.6,90.3,271.8,87.2,271.3,84.1z"/>
			</g>
			<g>
				<path class="st3" d="M269.7,66.8c-0.2,0.1-0.4,0.3-0.6,0.4c-0.2,0.2-1.3,1.4-0.2,3.8c-0.1-1.2,0.5-2.3,1.4-2.9
					c0.6-0.4,1.3-0.6,2-0.5C271.9,66.7,270.7,66.3,269.7,66.8z"/>
			</g>
			<path class="st3" d="M259.6,64.4c0.2-0.5,0.4-1,0.7-1.4c0.1-0.2,0.3-0.4,0.4-0.6c3.6-7.7,1.9-16.8-4.3-22.6
				c7.1,8.2,6.2,20.6-2,27.8c-3.6,3.1-8.2,4.8-13,4.8c-0.7,0-1.3,0-2-0.1c-4.6-0.4-9.3-1.9-12.4-4.8c3.2,3.7,8.4,5.7,13.7,6.2
				c0.6,0.1,1.3,0.1,2,0.1c1.3,0,2.6-0.1,3.9-0.4c1.5-0.4,2.9-0.8,2.9-0.8C253.7,71,257.2,68.2,259.6,64.4z"/>
			<path class="st1" d="M291.3,91.4c0.5-0.2,0.8-0.7,0.8-1.2c0-0.3-0.1-0.6-0.3-0.8c-0.3-0.3-0.7-0.4-1.1-0.4h-1.4v3.7h0.8v-1.2h0.4
				l0.8,1.2h0.9L291.3,91.4z M290.7,90.7h-0.6v-1h0.6c0.4,0.1,0.6,0.2,0.6,0.5S291.1,90.7,290.7,90.7z"/>
			<path class="st1" d="M290.6,87.4c-2,0-3.5,1.6-3.6,3.5c0,2,1.6,3.5,3.5,3.6s3.5-1.6,3.6-3.5v-0.2
				C294.1,88.8,292.5,87.4,290.6,87.4z M292.5,92.8c-0.5,0.5-1.2,0.8-1.9,0.8c-1.5,0-2.7-1.2-2.7-2.7s1.2-2.7,2.7-2.7
				s2.7,1.2,2.7,2.7C293.3,91.7,293,92.3,292.5,92.8z"/>
			<path class="st3" d="M175,7.3l-0.8-0.2l-2.6,8.8l-1.6,5.2l-1.4,4.5L165.8,7l-0.1-0.4V6.4l-11-0.3l-2.9,38.6l7.3-0.1h0.2v-0.1
				l1.6-18l0.9,5.6l1.4,8l0.8,4.6l2.6,0.2l3.2,0.2h0.4l5.3-17.5l-0.4,6.8l-0.5,8.1l-0.2,2.8l0.9,0.1l5.2,0.8l1.6,0.2l2-37.6V8.5
				L175,7.3z M181.3,45.4l-3.8-0.6l-2-0.3l0-0.1l0.3-4.6l0.1-1l0.5-8.2l0.7-11.3l-0.1,0.4l0,0L169.5,44l-2.7-0.2l-1.9-0.1l-1.2-7.2
				l-1.1-6.2l-0.3-1.8l-1.7-9.6l-2.2,24.7h-5.5l2-26.4L155.7,7h0.2l2.5,0.1l6.4,0.2l3,19.9l0.4,2.9l0.1-0.2v0l3.4-11.4l3.1-10.1
				l0.1,0l2.1,0.3l5.5,0.6l0.1,0l0.5,0.1L181.3,45.4z"/>
		</g>
	</g>
</g>
</svg>
