<?xml version="1.0" encoding="utf-8"?>
<!-- Generator: Adobe Illustrator 26.0.3, SVG Export Plug-In . SVG Version: 6.00 Build 0)  -->
<svg version="1.1" id="Layer_1" xmlns="http://www.w3.org/2000/svg" xmlns:xlink="http://www.w3.org/1999/xlink" x="0px" y="0px"
	 viewBox="0 0 320 150" style="enable-background:new 0 0 320 150;" xml:space="preserve">
<style type="text/css">
	.st0{fill:#DC001F;}
	.st1{fill:#FFFFFF;}
	.st2{fill:#161615;}
	.st3{fill:none;}
	.st4{fill:#C7C9CB;}
</style>
<g>
	<g id="Layer_2_00000076566465496664016330000009859452583264459138_">
		<g id="Layer_1-2">
			<path class="st0" d="M54.8,102.9c6.3-2.2,12.9-3.7,19.6-4.6l-9.3-8.7C61.4,93.8,57.9,98.2,54.8,102.9z"/>
			<path class="st1" d="M101.7,38.6l-3.4-5.1l-6-8.8l4.6,18.1l6-2.5L101.7,38.6z M97.6,41.5l-3-11.6l1.5,2.2l2.9,4.2l1.8,2.7
				l0.1,0.1l0.5,0.8L97.6,41.5z M98.1,40.3l1.6-0.7l-3.1-5.3L98.1,40.3z M101.7,38.6l-3.4-5.1l-6-8.8l4.6,18.1l6-2.5L101.7,38.6z
				 M97.6,41.5l-3-11.6l1.5,2.2l2.9,4.2l1.8,2.7l0.1,0.1l0.5,0.8L97.6,41.5z M98.1,40.3l1.6-0.7l-3.1-5.3L98.1,40.3z M101.7,38.6
				l-3.4-5.1l-6-8.8l4.6,18.1l6-2.5L101.7,38.6z M97.6,41.5l-3-11.6l1.5,2.2l2.9,4.2l1.8,2.7l0.1,0.1l0.5,0.8L97.6,41.5z M98.1,40.3
				l1.6-0.7l-3.1-5.3L98.1,40.3z M101.7,38.6l-3.4-5.1l-6-8.8l4.6,18.1l6-2.5L101.7,38.6z M97.6,41.5l-3-11.6l1.5,2.2l2.9,4.2
				l1.8,2.7l0.1,0.1l0.5,0.8L97.6,41.5z M98.1,40.3l1.6-0.7l-3.1-5.3L98.1,40.3z M101.7,38.6l-3.4-5.1l-6-8.8l4.6,18.1l6-2.5
				L101.7,38.6z M97.6,41.5l-3-11.6l1.5,2.2l2.9,4.2l1.8,2.7l0.1,0.1l0.5,0.8L97.6,41.5z M98.1,40.3l1.6-0.7l-3.1-5.3L98.1,40.3z
				 M241.7,42.1h-1c-5.1,0-9.4,3.8-9.9,8.9c-0.3,2.6,0.5,5.2,2.2,7.3c0.3,0.4,0.7,0.7,1.1,1.1c-1.6-1.9-2.3-4.3-2-6.8
				c0.5-5.1,4.8-8.9,9.9-8.9h1c2,0.1,3.9,0.8,5.5,2.1C246.8,43.7,244.4,42.4,241.7,42.1z M241.7,42.1h-1c-5.1,0-9.4,3.8-9.9,8.9
				c-0.3,2.6,0.5,5.2,2.2,7.3c0.3,0.4,0.7,0.7,1.1,1.1c-1.6-1.9-2.3-4.3-2-6.8c0.5-5.1,4.8-8.9,9.9-8.9h1c2,0.1,3.9,0.8,5.5,2.1
				C246.8,43.7,244.4,42.4,241.7,42.1z M253,51.3c0-0.2,0-0.4,0-0.6c-0.1-0.6-0.1-1.1-0.3-1.7c0-0.1,0-0.2-0.1-0.2
				c0-0.1-0.1-0.2-0.1-0.3c0,0,0,0,0,0c-0.1-0.3-0.2-0.7-0.4-1c-0.1-0.2-0.1-0.4-0.2-0.5c-0.1-0.2-0.1-0.3-0.2-0.5
				c0-0.1-0.1-0.2-0.2-0.3c-0.1-0.1-0.1-0.1-0.2-0.2c-0.1-0.2-0.2-0.3-0.3-0.5c0,0,0-0.1-0.1-0.1c0-0.1-0.1-0.1-0.1-0.2
				c-0.2-0.3-0.4-0.5-0.6-0.8c-2.1-2.6-5.1-4.2-8.4-4.5c-0.4-0.1-0.8-0.1-1.2-0.1c-0.8,0-1.6,0.1-2.3,0.2c-0.4,0.1-0.8,0.2-1.2,0.3
				c-0.2,0-0.3,0.1-0.5,0.1c-0.3,0.1-0.6,0.2-0.8,0.3c-0.2,0.1-0.4,0.2-0.7,0.3c-0.1,0-0.2,0.1-0.3,0.2c-0.2,0.1-0.3,0.2-0.5,0.3
				c-0.2,0.1-0.3,0.2-0.5,0.3c-0.3,0.2-0.6,0.4-0.9,0.6c-0.1,0.1-0.1,0.1-0.2,0.2l-0.1,0.1c0,0,0,0-0.1,0.1c-0.1,0-0.1,0.1-0.2,0.2
				l-0.1,0.1l0,0l-0.1,0c0,0-0.1,0.1-0.2,0.2c-0.1,0.1-0.2,0.2-0.3,0.3c-0.1,0.1-0.2,0.2-0.3,0.3c0,0-0.1,0.1-0.1,0.2
				c-0.1,0.1-0.1,0.2-0.2,0.3c0,0,0,0,0,0c-0.2,0.2-0.4,0.4-0.5,0.7c0,0.1-0.1,0.2-0.1,0.3c0,0.1-0.1,0.1-0.1,0.2c0,0,0,0,0,0l0,0
				l0,0c-0.1,0.1-0.1,0.1-0.2,0.2c-0.3,0.5-0.6,1-0.8,1.5c-0.1,0.2-0.2,0.3-0.2,0.5c-0.1,0.2-0.1,0.3-0.2,0.5
				c-0.1,0.4-0.3,0.8-0.4,1.3c-0.1,0.3-0.1,0.5-0.2,0.8c0,0,0,0,0,0c0,0,0,0,0,0.1c0,0,0,0,0,0s0,0,0,0c0,0.2,0,0.3-0.1,0.5v0.3
				c-0.3,3.1,0.7,6.4,2.7,8.8c1.6,1.9,3.7,3.3,6,4c0.8,0.3,1.6,0.4,2.4,0.5c0.4,0.1,0.8,0.1,1.2,0.1c1,0,2.1-0.1,3.1-0.4
				c1.4-0.4,2.7-1,3.8-1.8c0.2-0.1,0.3-0.2,0.5-0.3c0.1-0.1,0.2-0.1,0.3-0.2c0.2-0.2,0.4-0.3,0.6-0.5c1.7-1.4,2.9-3.3,3.6-5.4
				c0-0.1,0.1-0.2,0.1-0.3c0.2-0.7,0.4-1.5,0.4-2.3c0.1-0.6,0.1-1.3,0.1-1.9C253,51.6,253,51.5,253,51.3z M229.5,51
				c0.5-5.8,5.4-10.2,11.3-10.2c0.3,0,0.7,0.1,1.1,0.1c3,0.3,5.8,1.7,7.7,4.1c0.4,0.6,0.7,1.1,1.1,1.8c0,0,0.1,0.1,0.1,0.2
				c0,0.1,0.1,0.1,0.1,0.2c0,0,0,0,0,0c0,0.1,0,0.2,0.1,0.2c0.9,1.9,1.2,3.9,1.1,5.8c-0.6,5.8-5.5,10.3-11.4,10.2
				c-0.4,0-0.8,0-1.1-0.1c-1.7-0.2-3.3-0.7-4.8-1.6l-0.3-0.2c-0.8-0.5-1.4-1.1-2.1-1.7c-0.1-0.1-0.2-0.2-0.2-0.2s0,0-0.1-0.1
				l-0.1-0.1C230.1,57,229.2,54,229.5,51z M234.1,59.4c-1.6-1.9-2.3-4.3-2-6.8c0.5-5.1,4.8-8.9,9.9-8.9h1c2,0.1,3.9,0.8,5.5,2.1
				c-1.7-2.1-4.1-3.4-6.8-3.7h-1c-5.1,0-9.4,3.8-9.9,8.9c-0.3,2.6,0.5,5.2,2.2,7.3C233.3,58.7,233.7,59,234.1,59.4z M101.7,38.6
				l-3.4-5.1l-6-8.8l4.6,18.1l6-2.5L101.7,38.6z M97.6,41.5l-3-11.6l1.5,2.2l2.9,4.2l1.8,2.7l0.1,0.1l0.5,0.8L97.6,41.5z M98.1,40.3
				l1.6-0.7l-3.1-5.3L98.1,40.3z M241.7,42.1h-1c-5.1,0-9.4,3.8-9.9,8.9c-0.3,2.6,0.5,5.2,2.2,7.3c0.3,0.4,0.7,0.7,1.1,1.1
				c-1.6-1.9-2.3-4.3-2-6.8c0.5-5.1,4.8-8.9,9.9-8.9h1c2,0.1,3.9,0.8,5.5,2.1C246.8,43.7,244.4,42.4,241.7,42.1z M241.7,42.1h-1
				c-5.1,0-9.4,3.8-9.9,8.9c-0.3,2.6,0.5,5.2,2.2,7.3c0.3,0.4,0.7,0.7,1.1,1.1c-1.6-1.9-2.3-4.3-2-6.8c0.5-5.1,4.8-8.9,9.9-8.9h1
				c2,0.1,3.9,0.8,5.5,2.1C246.8,43.7,244.4,42.4,241.7,42.1z M253,51.3c0-0.2,0-0.4,0-0.6c-0.1-0.6-0.1-1.1-0.3-1.7
				c0-0.1,0-0.2-0.1-0.2c0-0.1-0.1-0.2-0.1-0.3c0,0,0,0,0,0c-0.1-0.3-0.2-0.7-0.4-1c-0.1-0.2-0.1-0.4-0.2-0.5
				c-0.1-0.2-0.1-0.3-0.2-0.5c0-0.1-0.1-0.2-0.2-0.3c-0.1-0.1-0.1-0.1-0.2-0.2c-0.1-0.2-0.2-0.3-0.3-0.5c0,0,0-0.1-0.1-0.1
				c0-0.1-0.1-0.1-0.1-0.2c-0.2-0.3-0.4-0.5-0.6-0.8c-2.1-2.6-5.1-4.2-8.4-4.5c-0.4-0.1-0.8-0.1-1.2-0.1c-0.8,0-1.6,0.1-2.3,0.2
				c-0.4,0.1-0.8,0.2-1.2,0.3c-0.2,0-0.3,0.1-0.5,0.1c-0.3,0.1-0.6,0.2-0.8,0.3c-0.2,0.1-0.4,0.2-0.7,0.3c-0.1,0-0.2,0.1-0.3,0.2
				c-0.2,0.1-0.3,0.2-0.5,0.3c-0.2,0.1-0.3,0.2-0.5,0.3c-0.3,0.2-0.6,0.4-0.9,0.6c-0.1,0.1-0.1,0.1-0.2,0.2l-0.1,0.1
				c0,0,0,0-0.1,0.1c-0.1,0-0.1,0.1-0.2,0.2l-0.1,0.1l0,0l-0.1,0c0,0-0.1,0.1-0.2,0.2c-0.1,0.1-0.2,0.2-0.3,0.3
				c-0.1,0.1-0.2,0.2-0.3,0.3c0,0-0.1,0.1-0.1,0.2c-0.1,0.1-0.1,0.2-0.2,0.3c0,0,0,0,0,0c-0.2,0.2-0.4,0.4-0.5,0.7
				c0,0.1-0.1,0.2-0.1,0.3c0,0.1-0.1,0.1-0.1,0.2c0,0,0,0,0,0l0,0l0,0c-0.1,0.1-0.1,0.1-0.2,0.2c-0.3,0.5-0.6,1-0.8,1.5
				c-0.1,0.2-0.2,0.3-0.2,0.5c-0.1,0.2-0.1,0.3-0.2,0.5c-0.1,0.4-0.3,0.8-0.4,1.3c-0.1,0.3-0.1,0.5-0.2,0.8c0,0,0,0,0,0
				c0,0,0,0,0,0.1c0,0,0,0,0,0s0,0,0,0c0,0.2,0,0.3-0.1,0.5v0.3c-0.3,3.1,0.7,6.4,2.7,8.8c1.6,1.9,3.7,3.3,6,4
				c0.8,0.3,1.6,0.4,2.4,0.5c0.4,0.1,0.8,0.1,1.2,0.1c1,0,2.1-0.1,3.1-0.4c1.4-0.4,2.7-1,3.8-1.8c0.2-0.1,0.3-0.2,0.5-0.3
				c0.1-0.1,0.2-0.1,0.3-0.2c0.2-0.2,0.4-0.3,0.6-0.5c1.7-1.4,2.9-3.3,3.6-5.4c0-0.1,0.1-0.2,0.1-0.3c0.2-0.7,0.4-1.5,0.4-2.3
				c0.1-0.6,0.1-1.3,0.1-1.9C253,51.6,253,51.5,253,51.3z M229.5,51c0.5-5.8,5.4-10.2,11.3-10.2c0.3,0,0.7,0.1,1.1,0.1
				c3,0.3,5.8,1.7,7.7,4.1c0.4,0.6,0.7,1.1,1.1,1.8c0,0,0.1,0.1,0.1,0.2c0,0.1,0.1,0.1,0.1,0.2c0,0,0,0,0,0c0,0.1,0,0.2,0.1,0.2
				c0.9,1.9,1.2,3.9,1.1,5.8c-0.6,5.8-5.5,10.3-11.4,10.2c-0.4,0-0.8,0-1.1-0.1c-1.7-0.2-3.3-0.7-4.8-1.6l-0.3-0.2
				c-0.8-0.5-1.4-1.1-2.1-1.7c-0.1-0.1-0.2-0.2-0.2-0.2s0,0-0.1-0.1l-0.1-0.1C230.1,57,229.2,54,229.5,51z M234.1,59.4
				c-1.6-1.9-2.3-4.3-2-6.8c0.5-5.1,4.8-8.9,9.9-8.9h1c2,0.1,3.9,0.8,5.5,2.1c-1.7-2.1-4.1-3.4-6.8-3.7h-1c-5.1,0-9.4,3.8-9.9,8.9
				c-0.3,2.6,0.5,5.2,2.2,7.3C233.3,58.7,233.7,59,234.1,59.4z M101.7,38.6l-3.4-5.1l-6-8.8l4.6,18.1l6-2.5L101.7,38.6z M97.6,41.5
				l-3-11.6l1.5,2.2l2.9,4.2l1.8,2.7l0.1,0.1l0.5,0.8L97.6,41.5z M98.1,40.3l1.6-0.7l-3.1-5.3L98.1,40.3z M241.7,42.1h-1
				c-5.1,0-9.4,3.8-9.9,8.9c-0.3,2.6,0.5,5.2,2.2,7.3c0.3,0.4,0.7,0.7,1.1,1.1c-1.6-1.9-2.3-4.3-2-6.8c0.5-5.1,4.8-8.9,9.9-8.9h1
				c2,0.1,3.9,0.8,5.5,2.1C246.8,43.7,244.4,42.4,241.7,42.1z M241.7,42.1h-1c-5.1,0-9.4,3.8-9.9,8.9c-0.3,2.6,0.5,5.2,2.2,7.3
				c0.3,0.4,0.7,0.7,1.1,1.1c-1.6-1.9-2.3-4.3-2-6.8c0.5-5.1,4.8-8.9,9.9-8.9h1c2,0.1,3.9,0.8,5.5,2.1
				C246.8,43.7,244.4,42.4,241.7,42.1z M252.8,49.7c0-0.1,0-0.2-0.1-0.3c0-0.1-0.1-0.2-0.1-0.3c0-0.1,0-0.2-0.1-0.2
				c0-0.1-0.1-0.2-0.1-0.3c0,0,0,0,0,0c-0.1-0.3-0.2-0.7-0.4-1c-0.1-0.2-0.1-0.4-0.2-0.5c-0.1-0.2-0.1-0.3-0.2-0.5
				c0-0.1-0.1-0.2-0.2-0.3c-0.1-0.3-0.3-0.5-0.5-0.8c0,0,0-0.1-0.1-0.1c0-0.1-0.1-0.1-0.1-0.2c-0.2-0.3-0.4-0.5-0.6-0.8
				c-2.1-2.6-5.1-4.2-8.4-4.5c-0.4-0.1-0.8-0.1-1.2-0.1c-0.8,0-1.6,0.1-2.3,0.2c-0.4,0.1-0.8,0.2-1.2,0.3c-0.2,0-0.3,0.1-0.5,0.1
				c-0.3,0.1-0.6,0.2-0.8,0.3c-0.2,0.1-0.4,0.2-0.7,0.3c-0.1,0-0.2,0.1-0.3,0.2c-0.2,0.1-0.3,0.2-0.5,0.3c-0.2,0.1-0.3,0.2-0.5,0.3
				c-0.3,0.2-0.6,0.4-0.9,0.6c-0.1,0.1-0.1,0.1-0.2,0.2l-0.1,0.1c0,0,0,0-0.1,0.1c-0.1,0-0.1,0.1-0.2,0.2l-0.1,0.1l0,0l-0.1,0
				c0,0-0.1,0.1-0.2,0.2c-0.1,0.1-0.2,0.2-0.3,0.3c-0.1,0.1-0.2,0.2-0.3,0.3c0,0-0.1,0.1-0.1,0.2c-0.1,0.1-0.1,0.2-0.2,0.3
				c0,0,0,0,0,0c-0.2,0.2-0.4,0.4-0.5,0.7c0,0.1-0.1,0.2-0.1,0.3c0,0.1-0.1,0.1-0.1,0.2c0,0,0,0,0,0l0,0l0,0
				c-0.1,0.1-0.1,0.1-0.2,0.2c-0.3,0.5-0.6,1-0.8,1.5c-0.1,0.2-0.2,0.3-0.2,0.5c-0.1,0.2-0.1,0.3-0.2,0.5c-0.1,0.4-0.3,0.8-0.4,1.3
				c-0.1,0.3-0.1,0.5-0.2,0.8c0,0,0,0,0,0c0,0,0,0,0,0.1c0,0,0,0,0,0s0,0,0,0c0,0.2,0,0.3-0.1,0.5v0.3c-0.3,3.1,0.7,6.4,2.7,8.8
				c0.1,0.1,0.3,0.3,0.4,0.4c0,0,0,0,0,0c0.8,0.7,1.6,1.3,2.5,1.8c0,0,0.1,0.1,0.2,0.1c1,0.6,2,1,3,1.4c0.8,0.3,1.6,0.4,2.4,0.5
				c0.4,0.1,0.8,0.1,1.2,0.1c0.5,0,1,0,1.6-0.1c0.1,0,0.3,0,0.4-0.1c0.4-0.1,0.8-0.1,1.1-0.2c0.4-0.1,0.8-0.2,1.1-0.4
				c0.1,0,0.2-0.1,0.3-0.1c0,0,0.1,0,0.1-0.1c0.2-0.1,0.5-0.2,0.7-0.3c0.2-0.1,0.5-0.2,0.7-0.4c0.1-0.1,0.3-0.2,0.4-0.3
				c0.1-0.1,0.3-0.2,0.4-0.3c0.1-0.1,0.2-0.1,0.3-0.2c0,0,0,0,0,0c0,0,0.1-0.1,0.1-0.1c0.1-0.1,0.2-0.1,0.3-0.2
				c0.2-0.2,0.4-0.3,0.6-0.5c1.6-1.4,2.8-3.1,3.5-5.1c0-0.1,0.1-0.2,0.1-0.3c0.3-0.8,0.4-1.7,0.5-2.6
				C253.2,52.1,253.1,50.9,252.8,49.7z M240.7,63.3c-0.4,0-0.8,0-1.1-0.1c-1.7-0.2-3.3-0.7-4.8-1.6l-0.3-0.2
				c-0.8-0.5-1.4-1.1-2.1-1.7c-0.1-0.1-0.2-0.2-0.2-0.2s0,0-0.1-0.1l-0.1-0.1c-1.9-2.3-2.8-5.3-2.5-8.3c0.5-5.8,5.4-10.2,11.3-10.2
				c0.3,0,0.7,0.1,1.1,0.1c3,0.3,5.8,1.7,7.7,4.1c0.4,0.6,0.7,1.1,1.1,1.8c0,0,0.1,0.1,0.1,0.2c0,0.1,0.1,0.1,0.1,0.2c0,0,0,0,0,0
				c0,0.1,0,0.2,0.1,0.2c0.9,1.9,1.2,3.9,1.1,5.8C251.5,58.9,246.6,63.4,240.7,63.3z M241.7,42.1h-1c-5.1,0-9.4,3.8-9.9,8.9
				c-0.3,2.6,0.5,5.2,2.2,7.3c0.3,0.4,0.7,0.7,1.1,1.1c-1.6-1.9-2.3-4.3-2-6.8c0.5-5.1,4.8-8.9,9.9-8.9h1c2,0.1,3.9,0.8,5.5,2.1
				C246.8,43.7,244.4,42.4,241.7,42.1z M101.7,38.6l-3.4-5.1l-6-8.8l4.6,18.1l6-2.5L101.7,38.6z M97.6,41.5l-3-11.6l1.5,2.2l2.9,4.2
				l1.8,2.7l0.1,0.1l0.5,0.8L97.6,41.5z M98.1,40.3l1.6-0.7l-3.1-5.3L98.1,40.3z M281,71.7c0-0.1,0-0.2,0-0.2
				C281,71.6,281,71.7,281,71.7C281,71.8,281,71.7,281,71.7z M241.7,42.1h-1c-5.1,0-9.4,3.8-9.9,8.9c-0.3,2.6,0.5,5.2,2.2,7.3
				c0.3,0.4,0.7,0.7,1.1,1.1c-1.6-1.9-2.3-4.3-2-6.8c0.5-5.1,4.8-8.9,9.9-8.9h1c2,0.1,3.9,0.8,5.5,2.1
				C246.8,43.7,244.4,42.4,241.7,42.1z M241.7,42.1h-1c-5.1,0-9.4,3.8-9.9,8.9c-0.3,2.6,0.5,5.2,2.2,7.3c0.3,0.4,0.7,0.7,1.1,1.1
				c-1.6-1.9-2.3-4.3-2-6.8c0.5-5.1,4.8-8.9,9.9-8.9h1c2,0.1,3.9,0.8,5.5,2.1C246.8,43.7,244.4,42.4,241.7,42.1z M252.8,49.7
				c0-0.1,0-0.2-0.1-0.3c0-0.1-0.1-0.2-0.1-0.3c0-0.1,0-0.2-0.1-0.2c0-0.1-0.1-0.2-0.1-0.3c0,0,0,0,0,0c-0.1-0.3-0.2-0.7-0.4-1
				c-0.1-0.2-0.1-0.4-0.2-0.5c-0.1-0.2-0.1-0.3-0.2-0.5c0-0.1-0.1-0.2-0.2-0.3c-0.1-0.3-0.3-0.5-0.5-0.8c0,0,0-0.1-0.1-0.1
				c0-0.1-0.1-0.1-0.1-0.2c-0.2-0.3-0.4-0.5-0.6-0.8c-2.1-2.6-5.1-4.2-8.4-4.5c-0.4-0.1-0.8-0.1-1.2-0.1c-0.8,0-1.6,0.1-2.3,0.2
				c-0.4,0.1-0.8,0.2-1.2,0.3c-0.2,0-0.3,0.1-0.5,0.1c-0.3,0.1-0.6,0.2-0.8,0.3c-0.2,0.1-0.4,0.2-0.7,0.3c-0.1,0-0.2,0.1-0.3,0.2
				c-0.2,0.1-0.3,0.2-0.5,0.3c-0.2,0.1-0.3,0.2-0.5,0.3c-0.3,0.2-0.6,0.4-0.9,0.6c-0.1,0.1-0.1,0.1-0.2,0.2l-0.1,0.1
				c0,0,0,0-0.1,0.1c-0.1,0-0.1,0.1-0.2,0.2l-0.1,0.1l0,0l-0.1,0c0,0-0.1,0.1-0.2,0.2c-0.1,0.1-0.2,0.2-0.3,0.3
				c-0.1,0.1-0.2,0.2-0.3,0.3c0,0-0.1,0.1-0.1,0.2c-0.1,0.1-0.1,0.2-0.2,0.3c0,0,0,0,0,0c-0.2,0.2-0.4,0.4-0.5,0.7
				c0,0.1-0.1,0.2-0.1,0.3c0,0.1-0.1,0.1-0.1,0.2c0,0,0,0,0,0l0,0l0,0c-0.1,0.1-0.1,0.1-0.2,0.2c-0.3,0.5-0.6,1-0.8,1.5
				c-0.1,0.2-0.2,0.3-0.2,0.5c-0.1,0.2-0.1,0.3-0.2,0.5c-0.1,0.4-0.3,0.8-0.4,1.3c-0.1,0.3-0.1,0.5-0.2,0.8c0,0,0,0,0,0
				c0,0,0,0,0,0.1c0,0,0,0,0,0s0,0,0,0c0,0.2,0,0.3-0.1,0.5v0.3c-0.3,3.1,0.7,6.4,2.7,8.8c1.6,1.9,3.7,3.3,6,4
				c0.8,0.3,1.6,0.4,2.4,0.5c0.4,0.1,0.8,0.1,1.2,0.1c1,0,2.1-0.1,3.1-0.4c1.4-0.4,2.7-1,3.8-1.8c0.2-0.1,0.3-0.2,0.5-0.3
				c0.1-0.1,0.2-0.1,0.3-0.2c0.2-0.2,0.4-0.3,0.6-0.5c1.7-1.4,2.9-3.3,3.6-5.4c0-0.1,0.1-0.2,0.1-0.3c0.3-0.8,0.4-1.7,0.5-2.6
				C253.2,52.1,253.1,50.9,252.8,49.7z M229.5,51c0.5-5.8,5.4-10.2,11.3-10.2c0.3,0,0.7,0.1,1.1,0.1c3,0.3,5.8,1.7,7.7,4.1
				c0.4,0.6,0.7,1.1,1.1,1.8c0,0,0.1,0.1,0.1,0.2c0,0.1,0.1,0.1,0.1,0.2c0,0,0,0,0,0c0,0.1,0,0.2,0.1,0.2c0.9,1.9,1.2,3.9,1.1,5.8
				c-0.6,5.8-5.5,10.3-11.4,10.2c-0.4,0-0.8,0-1.1-0.1c-1.7-0.2-3.3-0.7-4.8-1.6l-0.3-0.2c-0.8-0.5-1.4-1.1-2.1-1.7
				c-0.1-0.1-0.2-0.2-0.2-0.2s0,0-0.1-0.1l-0.1-0.1C230.1,57,229.2,54,229.5,51z M234.1,59.4c-1.6-1.9-2.3-4.3-2-6.8
				c0.5-5.1,4.8-8.9,9.9-8.9h1c2,0.1,3.9,0.8,5.5,2.1c-1.7-2.1-4.1-3.4-6.8-3.7h-1c-5.1,0-9.4,3.8-9.9,8.9c-0.3,2.6,0.5,5.2,2.2,7.3
				C233.3,58.7,233.7,59,234.1,59.4z M242.1,33.7C242.1,33.7,242.1,33.7,242.1,33.7C242.1,33.7,242.1,33.7,242.1,33.7
				c-0.1,0-0.1,0-0.1,0c-0.1,0-0.2,0-0.3,0c-0.1,0-0.2,0-0.3,0C241.6,33.6,241.9,33.6,242.1,33.7L242.1,33.7
				C242.2,33.7,242.2,33.7,242.1,33.7z M286.7,67.7l-4.2-1.1c0.4,0.5,0.6,1.1,0.8,1.8l5.1,1.3L286.7,67.7z M286.8,66.5l-3.9-4.6
				l-0.3-0.6l-0.2-0.3l-0.2-0.1l-0.7-0.2l-0.1-0.7v-0.3l-3.9-4.5l-0.6-0.7v6.1c-2-1.7-4.5-2.6-7.1-2.7c-2.5,0-4.8,0.9-6.7,2.6
				c-4.9,4.4-3.8,9.1-1.7,15.3c1.8,5.4,1.4,6.5,0.2,7.6c-0.5,0.5-1.2,0.7-1.8,0.8c-1.3-0.1-2.5-0.8-3.3-1.9c-2-2.2-2.9-4.8-3.1-8.7
				v-1.2l-1.2,0.3l-5,1.1l-0.9,0.2v0.9c0.1,4.6,1.8,9,4.8,12.4c2.2,2.7,5.5,4.4,9.1,4.5c2.5,0,5-1,6.8-2.7c4.4-3.9,4-8.5,1.9-15
				c-2-5.7-1.6-6.7-0.4-7.8c0.5-0.4,1.1-0.7,1.7-0.7c1.2,0.1,2.3,0.7,3,1.6c1.4,1.5,1.9,3.6,1.4,5.5l-0.4,1.1l1.1,0.3l5,1.2l0.9,0.2
				l0.3-0.9c1-3.1,0.6-6.5-1-9.3l6.1,1.2H286.8z M280.8,68.5c0,0.2,0.1,0.4,0.1,0.5c0,0.2,0.1,0.4,0.1,0.5v0.9c0,0.2,0,0.4,0,0.6
				c0,0,0,0.1,0,0.1c0,0,0,0,0,0.1c0,0.1,0,0.2,0,0.2c0,0.1,0,0.2,0,0.3c-0.1,0.7-0.2,1.5-0.4,2.2l-0.1,0l-4.9-1.2
				c0.1-0.2,0.1-0.5,0.1-0.7v-0.4c0.1-0.4,0.1-0.8,0.1-1.1c0-1.6-0.7-3.1-1.9-4.3c-0.1-0.1-0.1-0.1-0.2-0.2l-0.1-0.2c0,0,0,0,0,0
				c-0.1-0.1-0.2-0.2-0.3-0.3c-0.9-0.8-2-1.2-3.1-1.3c-0.9,0-1.7,0.3-2.4,0.9c-1,0.8-1.5,1.7-1.4,3v0.1c0,0.7,0.1,1.4,0.4,2.4
				c0,0.1,0.1,0.2,0.1,0.4c0.2,0.9,0.5,2,0.9,3.2c0.7,2.2,1.2,4.1,1.4,5.8c0,0.2,0,0.5,0.1,0.7V82c-0.1,2.4-1.1,4.3-3.1,6.1
				c-1.5,1.4-3.3,2.2-5.2,2.4c-0.3,0-0.5,0.1-0.8,0.1h0c-2.8-0.1-5.4-1.3-7.4-3.2c-0.1-0.1-0.3-0.3-0.4-0.4c0,0-0.1-0.1-0.1-0.1
				c-0.1-0.1-0.3-0.3-0.4-0.5c-1.1-1.2-2-2.5-2.7-3.9c-0.1-0.5-0.4-1-0.5-1.5c-0.8-2-1.2-4.1-1.2-6.2l4.9-1.1l0.1,0
				c0.2,3.7,1.1,6.7,3.4,9.3c1,1.3,2.5,2.1,4.1,2.2h0.4c0.8-0.1,1.6-0.5,2.2-1c1.7-1.5,1.9-3.2,0.1-8.7c-2.2-6.5-2.8-10.4,1.4-14.2
				c1.4-1.3,3.3-2.1,5.2-2.3h0.7c0.4,0,0.8,0,1.2,0.1c0.2,0,0.4,0.1,0.6,0.1c0.2,0,0.3,0.1,0.5,0.1c0.8,0.2,1.5,0.5,2.2,0.8
				c0.3,0.2,0.6,0.3,0.9,0.5c0.4,0.2,0.7,0.5,1.1,0.8c0.6,0.5,1.1,1.1,1.6,1.7c0.5,0.5,1,1.1,1.4,1.8c0,0,0,0,0,0.1
				C280.1,66.1,280.5,67.2,280.8,68.5z M281.2,63.9l-3.1-3.7l-0.2-2.8l0.5,0.6l1.9,2.1l0.2,1.4l1.3,0.4l2.2,2.6L281.2,63.9z
				 M281,71.7c0-0.1,0-0.2,0-0.2C281,71.6,281,71.7,281,71.7C281,71.8,281,71.7,281,71.7z M282.8,69.8c0.4,2.3,0.2,4.7-0.6,6.9
				l-5.4-1.3c0,0.5-0.1,1-0.2,1.5l6.8,1.6C284.3,74.9,284,72.2,282.8,69.8z M269.7,66.8c-0.2,0.1-0.4,0.3-0.6,0.4
				c-0.2,0.2-1.3,1.4-0.2,3.8c-0.1-1.2,0.5-2.3,1.4-2.9c0.6-0.4,1.3-0.6,2-0.5C271.9,66.7,270.7,66.3,269.7,66.8z M271.3,84.1
				c-0.4,2.5-1.7,4.9-3.6,6.6c-3.6,2.8-8.4,3.3-12.4,1.4c0.7,0.7,6.7,5.3,12.9,0.2C270.6,90.3,271.8,87.2,271.3,84.1z M256.4,39.8
				c7.1,8.2,6.2,20.6-2,27.8c-3.6,3.1-8.2,4.8-13,4.8c-0.7,0-1.3,0-2-0.1c-4.6-0.4-9.3-1.9-12.4-4.8c3.2,3.7,8.4,5.7,13.7,6.2
				c0.6,0.1,1.3,0.1,2,0.1c1.3,0,2.6-0.1,3.9-0.4c1.5-0.4,2.9-0.8,2.9-0.8c4.2-1.6,7.7-4.4,10.1-8.2c0.2-0.5,0.4-1,0.7-1.4
				c0.1-0.2,0.3-0.4,0.4-0.6C264.3,54.7,262.6,45.6,256.4,39.8z M241.7,42.1h-1c-5.1,0-9.4,3.8-9.9,8.9c-0.3,2.6,0.5,5.2,2.2,7.3
				c0.3,0.4,0.7,0.7,1.1,1.1c-1.6-1.9-2.3-4.3-2-6.8c0.5-5.1,4.8-8.9,9.9-8.9h1c2,0.1,3.9,0.8,5.5,2.1
				C246.8,43.7,244.4,42.4,241.7,42.1z M252.8,49.7c0-0.1,0-0.2-0.1-0.3c0-0.1-0.1-0.2-0.1-0.3c0-0.1,0-0.2-0.1-0.2
				c0-0.1-0.1-0.2-0.1-0.3c0,0,0,0,0,0c-0.1-0.3-0.2-0.7-0.4-1c-0.1-0.2-0.1-0.4-0.2-0.5c-0.1-0.2-0.1-0.3-0.2-0.5
				c0-0.1-0.1-0.2-0.2-0.3c-0.1-0.3-0.3-0.5-0.5-0.8c0,0,0-0.1-0.1-0.1c0-0.1-0.1-0.1-0.1-0.2c-0.2-0.3-0.4-0.5-0.6-0.8
				c-2.1-2.6-5.1-4.2-8.4-4.5c-0.4-0.1-0.8-0.1-1.2-0.1c-0.8,0-1.6,0.1-2.3,0.2c-0.4,0.1-0.8,0.2-1.2,0.3c-0.2,0-0.3,0.1-0.5,0.1
				c-0.3,0.1-0.6,0.2-0.8,0.3c-0.2,0.1-0.4,0.2-0.7,0.3c-0.1,0-0.2,0.1-0.3,0.2c-0.2,0.1-0.3,0.2-0.5,0.3c-0.2,0.1-0.3,0.2-0.5,0.3
				c-0.3,0.2-0.6,0.4-0.9,0.6c-0.1,0.1-0.1,0.1-0.2,0.2l-0.1,0.1c0,0,0,0-0.1,0.1c-0.1,0-0.1,0.1-0.2,0.2l-0.1,0.1l0,0l-0.1,0
				c0,0-0.1,0.1-0.2,0.2c-0.1,0.1-0.2,0.2-0.3,0.3c-0.1,0.1-0.2,0.2-0.3,0.3c0,0-0.1,0.1-0.1,0.2c-0.1,0.1-0.1,0.2-0.2,0.3
				c0,0,0,0,0,0c-0.2,0.2-0.4,0.4-0.5,0.7c0,0.1-0.1,0.2-0.1,0.3c0,0.1-0.1,0.1-0.1,0.2c0,0,0,0,0,0l0,0l0,0
				c-0.1,0.1-0.1,0.1-0.2,0.2c-0.3,0.5-0.6,1-0.8,1.5c-0.1,0.2-0.2,0.3-0.2,0.5c-0.1,0.2-0.1,0.3-0.2,0.5c-0.1,0.4-0.3,0.8-0.4,1.3
				c-0.1,0.3-0.1,0.5-0.2,0.8c0,0,0,0,0,0c0,0,0,0,0,0.1c0,0,0,0,0,0s0,0,0,0c0,0.2,0,0.3-0.1,0.5v0.3c-0.3,3.1,0.7,6.4,2.7,8.8
				c1.6,1.9,3.7,3.3,6,4c0.8,0.3,1.6,0.4,2.4,0.5c0.4,0.1,0.8,0.1,1.2,0.1c1,0,2.1-0.1,3.1-0.4c1.4-0.4,2.7-1,3.8-1.8
				c0.2-0.1,0.3-0.2,0.5-0.3c0.1-0.1,0.2-0.1,0.3-0.2c0.2-0.2,0.4-0.3,0.6-0.5c1.7-1.4,2.9-3.3,3.6-5.4c0-0.1,0.1-0.2,0.1-0.3
				c0.3-0.8,0.4-1.7,0.5-2.6C253.2,52.1,253.1,50.9,252.8,49.7z M229.5,51c0.5-5.8,5.4-10.2,11.3-10.2c0.3,0,0.7,0.1,1.1,0.1
				c3,0.3,5.8,1.7,7.7,4.1c0.4,0.6,0.7,1.1,1.1,1.8c0,0,0.1,0.1,0.1,0.2c0,0.1,0.1,0.1,0.1,0.2c0,0,0,0,0,0c0,0.1,0,0.2,0.1,0.2
				c0.9,1.9,1.2,3.9,1.1,5.8c-0.6,5.8-5.5,10.3-11.4,10.2c-0.4,0-0.8,0-1.1-0.1c-1.7-0.2-3.3-0.7-4.8-1.6l-0.3-0.2
				c-0.8-0.5-1.4-1.1-2.1-1.7c-0.1-0.1-0.2-0.2-0.2-0.2s0,0-0.1-0.1l-0.1-0.1C230.1,57,229.2,54,229.5,51z M234.1,59.4
				c-1.6-1.9-2.3-4.3-2-6.8c0.5-5.1,4.8-8.9,9.9-8.9h1c2,0.1,3.9,0.8,5.5,2.1c-1.7-2.1-4.1-3.4-6.8-3.7h-1c-5.1,0-9.4,3.8-9.9,8.9
				c-0.3,2.6,0.5,5.2,2.2,7.3C233.3,58.7,233.7,59,234.1,59.4z M241.7,42.1h-1c-5.1,0-9.4,3.8-9.9,8.9c-0.3,2.6,0.5,5.2,2.2,7.3
				c0.3,0.4,0.7,0.7,1.1,1.1c-1.6-1.9-2.3-4.3-2-6.8c0.5-5.1,4.8-8.9,9.9-8.9h1c2,0.1,3.9,0.8,5.5,2.1
				C246.8,43.7,244.4,42.4,241.7,42.1z M252.8,49.7c0-0.1,0-0.2-0.1-0.3c0-0.1-0.1-0.2-0.1-0.3c0-0.1,0-0.2-0.1-0.2
				c0-0.1-0.1-0.2-0.1-0.3c0,0,0,0,0,0c-0.1-0.3-0.2-0.7-0.4-1c-0.1-0.2-0.1-0.4-0.2-0.5c-0.1-0.2-0.1-0.3-0.2-0.5
				c0-0.1-0.1-0.2-0.2-0.3c-0.1-0.3-0.3-0.5-0.5-0.8c0,0,0-0.1-0.1-0.1c0-0.1-0.1-0.1-0.1-0.2c-0.2-0.3-0.4-0.5-0.6-0.8
				c-2.1-2.6-5.1-4.2-8.4-4.5c-0.4-0.1-0.8-0.1-1.2-0.1c-0.8,0-1.6,0.1-2.3,0.2c-0.4,0.1-0.8,0.2-1.2,0.3c-0.2,0-0.3,0.1-0.5,0.1
				c-0.3,0.1-0.6,0.2-0.8,0.3c-0.2,0.1-0.4,0.2-0.7,0.3c-0.1,0-0.2,0.1-0.3,0.2c-0.2,0.1-0.3,0.2-0.5,0.3c-0.2,0.1-0.3,0.2-0.5,0.3
				c-0.3,0.2-0.6,0.4-0.9,0.6c-0.1,0.1-0.1,0.1-0.2,0.2l-0.1,0.1c0,0,0,0-0.1,0.1c-0.1,0-0.1,0.1-0.2,0.2l-0.1,0.1l0,0l-0.1,0
				c0,0-0.1,0.1-0.2,0.2c-0.1,0.1-0.2,0.2-0.3,0.3c-0.1,0.1-0.2,0.2-0.3,0.3c0,0-0.1,0.1-0.1,0.2c-0.1,0.1-0.1,0.2-0.2,0.3
				c0,0,0,0,0,0c-0.2,0.2-0.4,0.4-0.5,0.7c0,0.1-0.1,0.2-0.1,0.3c0,0.1-0.1,0.1-0.1,0.2c0,0,0,0,0,0l0,0l0,0
				c-0.1,0.1-0.1,0.1-0.2,0.2c-0.3,0.5-0.6,1-0.8,1.5c-0.1,0.2-0.2,0.3-0.2,0.5c-0.1,0.2-0.1,0.3-0.2,0.5c-0.1,0.4-0.3,0.8-0.4,1.3
				c-0.1,0.3-0.1,0.5-0.2,0.8c0,0,0,0,0,0c0,0,0,0,0,0.1c0,0,0,0,0,0s0,0,0,0c0,0.2,0,0.3-0.1,0.5v0.3c-0.3,3.1,0.7,6.4,2.7,8.8
				c1.6,1.9,3.7,3.3,6,4c0.8,0.3,1.6,0.4,2.4,0.5c0.4,0.1,0.8,0.1,1.2,0.1c1,0,2.1-0.1,3.1-0.4c1.4-0.4,2.7-1,3.8-1.8
				c0.2-0.1,0.3-0.2,0.5-0.3c0.1-0.1,0.2-0.1,0.3-0.2c0.2-0.2,0.4-0.3,0.6-0.5c1.7-1.4,2.9-3.3,3.6-5.4c0-0.1,0.1-0.2,0.1-0.3
				c0.3-0.8,0.4-1.7,0.5-2.6C253.2,52.1,253.1,50.9,252.8,49.7z M229.5,51c0.5-5.8,5.4-10.2,11.3-10.2c0.3,0,0.7,0.1,1.1,0.1
				c3,0.3,5.8,1.7,7.7,4.1c0.4,0.6,0.7,1.1,1.1,1.8c0,0,0.1,0.1,0.1,0.2c0,0.1,0.1,0.1,0.1,0.2c0,0,0,0,0,0c0,0.1,0,0.2,0.1,0.2
				c0.9,1.9,1.2,3.9,1.1,5.8c-0.6,5.8-5.5,10.3-11.4,10.2c-0.4,0-0.8,0-1.1-0.1c-1.7-0.2-3.3-0.7-4.8-1.6l-0.3-0.2
				c-0.8-0.5-1.4-1.1-2.1-1.7c-0.1-0.1-0.2-0.2-0.2-0.2s0,0-0.1-0.1l-0.1-0.1C230.1,57,229.2,54,229.5,51z M234.1,59.4
				c-1.6-1.9-2.3-4.3-2-6.8c0.5-5.1,4.8-8.9,9.9-8.9h1c2,0.1,3.9,0.8,5.5,2.1c-1.7-2.1-4.1-3.4-6.8-3.7h-1c-5.1,0-9.4,3.8-9.9,8.9
				c-0.3,2.6,0.5,5.2,2.2,7.3C233.3,58.7,233.7,59,234.1,59.4z M255.9,39.8c-0.2-0.2-0.4-0.5-0.6-0.7c-3.3-3.6-7.8-5.9-12.7-6.4
				c-0.6-0.1-1.3-0.1-1.9-0.1c-10.1-0.1-18.5,7.6-19.5,17.6c-0.1,0.7-0.1,1.3-0.1,2s0,1.3,0.1,1.9c0.3,3.2,1.4,6.2,3.2,8.9
				c0.3,0.5,0.7,1,1.1,1.4c0.4,0.4,0.6,0.7,0.9,1c3.2,3.4,7.6,5.6,12.3,6c0.6,0.1,1.3,0.1,1.9,0.1c10.1,0.1,18.6-7.5,19.6-17.5
				C260.7,48.9,259.2,43.8,255.9,39.8z M259,53.8c-0.2,2.5-1,4.8-2.1,6.8c-0.2,0.3-0.3,0.6-0.5,0.9c-0.2,0.3-0.4,0.6-0.6,1
				c-0.3,0.4-0.6,0.9-1,1.3c-0.1,0.1-0.2,0.2-0.3,0.3c-0.3,0.3-0.6,0.6-0.9,0.9c-0.2,0.2-0.4,0.4-0.6,0.6l-0.1,0.1
				c-3.3,3-7.7,4.8-12.5,4.7c-0.6,0-1.3,0-1.9-0.1c-2-0.2-3.9-0.7-5.7-1.5c-0.3-0.1-0.5-0.2-0.8-0.4c-0.3-0.1-0.6-0.3-0.9-0.4
				c-0.4-0.2-0.8-0.4-1.2-0.7c-0.4-0.2-0.7-0.5-1-0.7c-0.2-0.1-0.4-0.3-0.6-0.5c-0.2-0.2-0.4-0.3-0.6-0.5c-0.4-0.4-0.8-0.8-1.2-1.2
				c0-0.1,0-0.2-0.1-0.3c0,0,0,0,0,0c0,0,0-0.1-0.1-0.1c-0.1-0.1-0.1-0.2-0.2-0.2c-0.1-0.1-0.2-0.2-0.2-0.3c0,0,0,0,0,0
				c0,0-0.1-0.1-0.1-0.2c-0.3-0.4-0.6-0.9-0.9-1.3c-0.2-0.2-0.3-0.5-0.5-0.8c-0.2-0.3-0.3-0.6-0.5-0.9c-1.5-3.1-2.2-6.6-1.8-10
				c0.1-0.7,0.2-1.3,0.3-2c0.1-0.5,0.2-0.9,0.3-1.4c0-0.1,0.1-0.3,0.1-0.4c0.3-0.9,0.6-1.7,1-2.6c0-0.1,0.1-0.2,0.1-0.3
				c0,0,0.1-0.1,0.1-0.2c0.1-0.1,0.1-0.2,0.2-0.3c0.2-0.3,0.3-0.6,0.5-0.9c0.2-0.4,0.5-0.7,0.7-1.1c0.2-0.2,0.4-0.5,0.6-0.7
				c0,0,0-0.1,0.1-0.1c0.1-0.2,0.3-0.3,0.4-0.5c0.2-0.2,0.4-0.4,0.6-0.7c0.2-0.2,0.5-0.5,0.7-0.7c0.1,0,0.1-0.1,0.2-0.1
				c0.2-0.2,0.3-0.3,0.5-0.4c0.1-0.1,0.1-0.1,0.2-0.1c0.1-0.2,0.3-0.2,0.4-0.3c0,0,0,0,0,0c0,0,0,0,0,0c0,0,0,0,0.1,0
				c0,0,0,0,0.1-0.1c0.1-0.1,0.2-0.2,0.4-0.3c0.2-0.1,0.3-0.2,0.5-0.4s0.5-0.3,0.8-0.5c1.9-1.1,4-1.9,6.3-2.3c0,0,0.1,0,0.1,0
				c0.1,0,0.2,0,0.2,0c0.1,0,0.2,0,0.2,0c0,0,0.1,0,0.2,0c0,0,0.1,0,0.1,0c0.1,0,0.2,0,0.3,0c0,0,0.1,0,0.1,0c0,0,0,0,0.1,0
				c0,0,0,0,0,0c0.3,0,0.7-0.1,1-0.1c0.1,0,0.2,0,0.4,0h0.8c0.1,0,0.3,0,0.4,0c0.3,0,0.5,0,0.8,0.1h0c0,0,0,0,0.1,0s0,0,0,0
				c2.7,0.3,5.4,1.2,7.8,2.6c0.7,0.4,1.3,0.9,2,1.4c0,0,0,0,0.1,0c0.6,0.5,1.2,1.1,1.8,1.6c0.2,0.2,0.3,0.3,0.5,0.5l0.5,0.6
				c0.3,0.4,0.6,0.7,0.9,1.1c0.1,0.2,0.2,0.3,0.3,0.5c0.2,0.3,0.4,0.6,0.6,0.9l0.1,0.1c0.2,0.3,0.3,0.6,0.5,0.9c0,0,0,0.1,0.1,0.1
				c0,0.1,0.1,0.1,0.1,0.2c0.1,0.1,0.1,0.3,0.2,0.4c0,0.1,0.1,0.1,0.1,0.2c0,0.1,0.1,0.1,0.1,0.2c0.2,0.4,0.3,0.7,0.4,1.1
				c0.1,0.3,0.2,0.6,0.3,0.9c0,0,0,0.1,0,0.1c0,0.2,0.1,0.4,0.1,0.6c0,0.1,0,0.1,0,0.2c0.1,0.3,0.1,0.6,0.2,0.9
				C259.2,50.4,259.2,52.1,259,53.8z M252.8,49.4c0-0.1-0.1-0.2-0.1-0.3c0-0.1,0-0.2-0.1-0.2c0-0.1-0.1-0.2-0.1-0.3c0,0,0,0,0,0
				c-0.1-0.3-0.2-0.7-0.4-1c-0.1-0.2-0.1-0.4-0.2-0.5c-0.1-0.2-0.1-0.3-0.2-0.5c0-0.1-0.1-0.2-0.2-0.3c-0.1-0.3-0.3-0.5-0.5-0.8
				c0,0,0-0.1-0.1-0.1c0-0.1-0.1-0.1-0.1-0.2c-0.2-0.3-0.4-0.5-0.6-0.8c-2.1-2.6-5.1-4.2-8.4-4.5c-0.4-0.1-0.8-0.1-1.2-0.1
				c-0.8,0-1.6,0.1-2.3,0.2c-0.4,0.1-0.8,0.2-1.2,0.3c-0.2,0-0.3,0.1-0.5,0.1c-0.3,0.1-0.6,0.2-0.8,0.3c-0.2,0.1-0.4,0.2-0.7,0.3
				c-0.1,0-0.2,0.1-0.3,0.2c-0.2,0.1-0.3,0.2-0.5,0.3c-0.2,0.1-0.3,0.2-0.5,0.3c-0.3,0.2-0.6,0.4-0.9,0.6c-0.1,0.1-0.1,0.1-0.2,0.2
				l-0.1,0.1c0,0,0,0-0.1,0.1c-0.1,0-0.1,0.1-0.2,0.2l-0.1,0.1l0,0l-0.1,0c0,0-0.1,0.1-0.2,0.2c-0.1,0.1-0.2,0.2-0.3,0.3
				c-0.1,0.1-0.2,0.2-0.3,0.3c0,0-0.1,0.1-0.1,0.2c-0.1,0.1-0.1,0.2-0.2,0.3c0,0,0,0,0,0c-0.2,0.2-0.4,0.4-0.5,0.7
				c0,0.1-0.1,0.2-0.1,0.3c0,0.1-0.1,0.1-0.1,0.2c0,0,0,0,0,0l0,0l0,0c-0.1,0.1-0.1,0.1-0.2,0.2c-0.3,0.5-0.6,1-0.8,1.5
				c-0.1,0.2-0.2,0.3-0.2,0.5c-0.1,0.2-0.1,0.3-0.2,0.5c-0.1,0.4-0.3,0.8-0.4,1.3c-0.1,0.3-0.1,0.5-0.2,0.8c0,0,0,0,0,0
				c0,0,0,0,0,0.1c0,0,0,0,0,0s0,0,0,0c0,0.2,0,0.3-0.1,0.5v0.3c-0.3,3.1,0.7,6.4,2.7,8.8c1.6,1.9,3.7,3.3,6,4
				c0.8,0.3,1.6,0.4,2.4,0.5c0.4,0.1,0.8,0.1,1.2,0.1c1,0,2.1-0.1,3.1-0.4c1.4-0.4,2.7-1,3.8-1.8c0.2-0.1,0.3-0.2,0.5-0.3
				c0.1-0.1,0.2-0.1,0.3-0.2c0.2-0.2,0.4-0.3,0.6-0.5c1.7-1.4,2.9-3.3,3.6-5.4c0-0.1,0.1-0.2,0.1-0.3c0.3-0.8,0.4-1.7,0.5-2.6
				c0.2-1.2,0.1-2.4-0.2-3.6C252.8,49.6,252.8,49.5,252.8,49.4z M229.5,51c0.5-5.8,5.4-10.2,11.3-10.2c0.3,0,0.7,0.1,1.1,0.1
				c3,0.3,5.8,1.7,7.7,4.1c0.4,0.6,0.7,1.1,1.1,1.8c0,0,0.1,0.1,0.1,0.2c0,0.1,0.1,0.1,0.1,0.2c0,0,0,0,0,0c0,0.1,0,0.2,0.1,0.2
				c0.9,1.9,1.2,3.9,1.1,5.8c-0.6,5.8-5.5,10.3-11.4,10.2c-0.4,0-0.8,0-1.1-0.1c-1.7-0.2-3.3-0.7-4.8-1.6l-0.3-0.2
				c-0.8-0.5-1.4-1.1-2.1-1.7c-0.1-0.1-0.2-0.2-0.2-0.2s0,0-0.1-0.1l-0.1-0.1C230.1,57,229.2,54,229.5,51z M234.1,59.4
				c-1.6-1.9-2.3-4.3-2-6.8c0.5-5.1,4.8-8.9,9.9-8.9h1c2,0.1,3.9,0.8,5.5,2.1c-1.7-2.1-4.1-3.4-6.8-3.7h-1c-5.1,0-9.4,3.8-9.9,8.9
				c-0.3,2.6,0.5,5.2,2.2,7.3C233.3,58.7,233.7,59,234.1,59.4z M242.1,33.7C242.1,33.7,242.1,33.7,242.1,33.7
				C242.1,33.7,242.1,33.7,242.1,33.7c-0.1,0-0.1,0-0.1,0c-0.1,0-0.2,0-0.3,0c-0.1,0-0.2,0-0.3,0C241.6,33.6,241.9,33.6,242.1,33.7
				L242.1,33.7C242.2,33.7,242.2,33.7,242.1,33.7z M241.7,42.1h-1c-5.1,0-9.4,3.8-9.9,8.9c-0.3,2.6,0.5,5.2,2.2,7.3
				c0.3,0.4,0.7,0.7,1.1,1.1c-1.6-1.9-2.3-4.3-2-6.8c0.5-5.1,4.8-8.9,9.9-8.9h1c2,0.1,3.9,0.8,5.5,2.1
				C246.8,43.7,244.4,42.4,241.7,42.1z M241.7,42.1h-1c-5.1,0-9.4,3.8-9.9,8.9c-0.3,2.6,0.5,5.2,2.2,7.3c0.3,0.4,0.7,0.7,1.1,1.1
				c-1.6-1.9-2.3-4.3-2-6.8c0.5-5.1,4.8-8.9,9.9-8.9h1c2,0.1,3.9,0.8,5.5,2.1C246.8,43.7,244.4,42.4,241.7,42.1z M252.8,49.7
				c0-0.1,0-0.2-0.1-0.3c0-0.1-0.1-0.2-0.1-0.3c0-0.1,0-0.2-0.1-0.2c0-0.1-0.1-0.2-0.1-0.3c0,0,0,0,0,0c-0.1-0.3-0.2-0.7-0.4-1
				c-0.1-0.2-0.1-0.4-0.2-0.5c-0.1-0.2-0.1-0.3-0.2-0.5c0-0.1-0.1-0.2-0.2-0.3c-0.1-0.3-0.3-0.5-0.5-0.8c0,0,0-0.1-0.1-0.1
				c0-0.1-0.1-0.1-0.1-0.2c-0.2-0.3-0.4-0.5-0.6-0.8c-2.1-2.6-5.1-4.2-8.4-4.5c-0.4-0.1-0.8-0.1-1.2-0.1c-0.8,0-1.6,0.1-2.3,0.2
				c-0.4,0.1-0.8,0.2-1.2,0.3c-0.2,0-0.3,0.1-0.5,0.1c-0.3,0.1-0.6,0.2-0.8,0.3c-0.2,0.1-0.4,0.2-0.7,0.3c-0.1,0-0.2,0.1-0.3,0.2
				c-0.2,0.1-0.3,0.2-0.5,0.3c-0.2,0.1-0.3,0.2-0.5,0.3c-0.3,0.2-0.6,0.4-0.9,0.6c-0.1,0.1-0.1,0.1-0.2,0.2l-0.1,0.1
				c0,0,0,0-0.1,0.1c-0.1,0-0.1,0.1-0.2,0.2l-0.1,0.1l0,0l-0.1,0c0,0-0.1,0.1-0.2,0.2c-0.1,0.1-0.2,0.2-0.3,0.3
				c-0.1,0.1-0.2,0.2-0.3,0.3c0,0-0.1,0.1-0.1,0.2c-0.1,0.1-0.1,0.2-0.2,0.3c0,0,0,0,0,0c-0.2,0.2-0.4,0.4-0.5,0.7
				c0,0.1-0.1,0.2-0.1,0.3c0,0.1-0.1,0.1-0.1,0.2c0,0,0,0,0,0l0,0l0,0c-0.1,0.1-0.1,0.1-0.2,0.2c-0.3,0.5-0.6,1-0.8,1.5
				c-0.1,0.2-0.2,0.3-0.2,0.5c-0.1,0.2-0.1,0.3-0.2,0.5c-0.1,0.4-0.3,0.8-0.4,1.3c-0.1,0.3-0.1,0.5-0.2,0.8c0,0,0,0,0,0
				c0,0,0,0,0,0.1c0,0,0,0,0,0s0,0,0,0c0,0.2,0,0.3-0.1,0.5v0.3c-0.3,3.1,0.7,6.4,2.7,8.8c1.6,1.9,3.7,3.3,6,4
				c0.8,0.3,1.6,0.4,2.4,0.5c0.4,0.1,0.8,0.1,1.2,0.1c1,0,2.1-0.1,3.1-0.4c1.4-0.4,2.7-1,3.8-1.8c0.2-0.1,0.3-0.2,0.5-0.3
				c0.1-0.1,0.2-0.1,0.3-0.2c0.2-0.2,0.4-0.3,0.6-0.5c1.7-1.4,2.9-3.3,3.6-5.4c0-0.1,0.1-0.2,0.1-0.3c0.3-0.8,0.4-1.7,0.5-2.6
				C253.2,52.1,253.1,50.9,252.8,49.7z M229.5,51c0.5-5.8,5.4-10.2,11.3-10.2c0.3,0,0.7,0.1,1.1,0.1c3,0.3,5.8,1.7,7.7,4.1
				c0.4,0.6,0.7,1.1,1.1,1.8c0,0,0.1,0.1,0.1,0.2c0,0.1,0.1,0.1,0.1,0.2c0,0,0,0,0,0c0,0.1,0,0.2,0.1,0.2c0.9,1.9,1.2,3.9,1.1,5.8
				c-0.6,5.8-5.5,10.3-11.4,10.2c-0.4,0-0.8,0-1.1-0.1c-1.7-0.2-3.3-0.7-4.8-1.6l-0.3-0.2c-0.8-0.5-1.4-1.1-2.1-1.7
				c-0.1-0.1-0.2-0.2-0.2-0.2s0,0-0.1-0.1l-0.1-0.1C230.1,57,229.2,54,229.5,51z M234.1,59.4c-1.6-1.9-2.3-4.3-2-6.8
				c0.5-5.1,4.8-8.9,9.9-8.9h1c2,0.1,3.9,0.8,5.5,2.1c-1.7-2.1-4.1-3.4-6.8-3.7h-1c-5.1,0-9.4,3.8-9.9,8.9c-0.3,2.6,0.5,5.2,2.2,7.3
				C233.3,58.7,233.7,59,234.1,59.4z M256.7,73.5l-2.1,0.2c-0.1,2.8,0.9,5.6,2.6,7.9c0.3,0.4,0.6,0.8,1,1.1
				C256.3,80,256.1,75.6,256.7,73.5z M241.7,42.1h-1c-5.1,0-9.4,3.8-9.9,8.9c-0.3,2.6,0.5,5.2,2.2,7.3c0.3,0.4,0.7,0.7,1.1,1.1
				c-1.6-1.9-2.3-4.3-2-6.8c0.5-5.1,4.8-8.9,9.9-8.9h1c2,0.1,3.9,0.8,5.5,2.1C246.8,43.7,244.4,42.4,241.7,42.1z M241.7,42.1h-1
				c-5.1,0-9.4,3.8-9.9,8.9c-0.3,2.6,0.5,5.2,2.2,7.3c0.3,0.4,0.7,0.7,1.1,1.1c-1.6-1.9-2.3-4.3-2-6.8c0.5-5.1,4.8-8.9,9.9-8.9h1
				c2,0.1,3.9,0.8,5.5,2.1C246.8,43.7,244.4,42.4,241.7,42.1z M252.8,49.7c0-0.1,0-0.2-0.1-0.3c0-0.1-0.1-0.2-0.1-0.3
				c0-0.1,0-0.2-0.1-0.2c0-0.1-0.1-0.2-0.1-0.3c0,0,0,0,0,0c-0.1-0.3-0.2-0.7-0.4-1c-0.1-0.2-0.1-0.4-0.2-0.5
				c-0.1-0.2-0.1-0.3-0.2-0.5c0-0.1-0.1-0.2-0.2-0.3c-0.1-0.3-0.3-0.5-0.5-0.8c0,0,0-0.1-0.1-0.1c0-0.1-0.1-0.1-0.1-0.2
				c-0.2-0.3-0.4-0.5-0.6-0.8c-2.1-2.6-5.1-4.2-8.4-4.5c-0.4-0.1-0.8-0.1-1.2-0.1c-0.8,0-1.6,0.1-2.3,0.2c-0.4,0.1-0.8,0.2-1.2,0.3
				c-0.2,0-0.3,0.1-0.5,0.1c-0.3,0.1-0.6,0.2-0.8,0.3c-0.2,0.1-0.4,0.2-0.7,0.3c-0.1,0-0.2,0.1-0.3,0.2c-0.2,0.1-0.3,0.2-0.5,0.3
				c-0.2,0.1-0.3,0.2-0.5,0.3c-0.3,0.2-0.6,0.4-0.9,0.6c-0.1,0.1-0.1,0.1-0.2,0.2l-0.1,0.1c0,0,0,0-0.1,0.1c-0.1,0-0.1,0.1-0.2,0.2
				l-0.1,0.1l0,0l-0.1,0c0,0-0.1,0.1-0.2,0.2c-0.1,0.1-0.2,0.2-0.3,0.3c-0.1,0.1-0.2,0.2-0.3,0.3c0,0-0.1,0.1-0.1,0.2
				c-0.1,0.1-0.1,0.2-0.2,0.3c0,0,0,0,0,0c-0.2,0.2-0.4,0.4-0.5,0.7c0,0.1-0.1,0.2-0.1,0.3c0,0.1-0.1,0.1-0.1,0.2c0,0,0,0,0,0l0,0
				l0,0c-0.1,0.1-0.1,0.1-0.2,0.2c-0.3,0.5-0.6,1-0.8,1.5c-0.1,0.2-0.2,0.3-0.2,0.5c-0.1,0.2-0.1,0.3-0.2,0.5
				c-0.1,0.4-0.3,0.8-0.4,1.3c-0.1,0.3-0.1,0.5-0.2,0.8c0,0,0,0,0,0c0,0,0,0,0,0.1c0,0,0,0,0,0s0,0,0,0c0,0.2,0,0.3-0.1,0.5v0.3
				c-0.3,3.1,0.7,6.4,2.7,8.8c1.6,1.9,3.7,3.3,6,4c0.8,0.3,1.6,0.4,2.4,0.5c0.4,0.1,0.8,0.1,1.2,0.1c1,0,2.1-0.1,3.1-0.4
				c1.4-0.4,2.7-1,3.8-1.8c0.2-0.1,0.3-0.2,0.5-0.3c0.1-0.1,0.2-0.1,0.3-0.2c0.2-0.2,0.4-0.3,0.6-0.5c1.7-1.4,2.9-3.3,3.6-5.4
				c0-0.1,0.1-0.2,0.1-0.3c0.3-0.8,0.4-1.7,0.5-2.6C253.2,52.1,253.1,50.9,252.8,49.7z M229.5,51c0.5-5.8,5.4-10.2,11.3-10.2
				c0.3,0,0.7,0.1,1.1,0.1c3,0.3,5.8,1.7,7.7,4.1c0.4,0.6,0.7,1.1,1.1,1.8c0,0,0.1,0.1,0.1,0.2c0,0.1,0.1,0.1,0.1,0.2c0,0,0,0,0,0
				c0,0.1,0,0.2,0.1,0.2c0.9,1.9,1.2,3.9,1.1,5.8c-0.6,5.8-5.5,10.3-11.4,10.2c-0.4,0-0.8,0-1.1-0.1c-1.7-0.2-3.3-0.7-4.8-1.6
				l-0.3-0.2c-0.8-0.5-1.4-1.1-2.1-1.7c-0.1-0.1-0.2-0.2-0.2-0.2s0,0-0.1-0.1l-0.1-0.1C230.1,57,229.2,54,229.5,51z M234.1,59.4
				c-1.6-1.9-2.3-4.3-2-6.8c0.5-5.1,4.8-8.9,9.9-8.9h1c2,0.1,3.9,0.8,5.5,2.1c-1.7-2.1-4.1-3.4-6.8-3.7h-1c-5.1,0-9.4,3.8-9.9,8.9
				c-0.3,2.6,0.5,5.2,2.2,7.3C233.3,58.7,233.7,59,234.1,59.4z M220,19.5l-10.2,27.1l2,0.8l10.4-27.1L220,19.5z M219.7,51.7
				l-3.1,7.3l2,0.8l1.4-3.5C219.8,54.8,219.7,53.2,219.7,51.7z M218.8,18l-7.8-2.8l-3.1,8.7L198.3,51l1.2,0.5l1.6,0.7l14.4,5.7
				l2.8-6.7l-10.6-4.1L218.4,19L218.8,18z M206.7,47.1l-0.2,0.6v0.1l10.6,4.1l-2.1,4.7l-13.6-5.4l-1.6-0.6l-0.2-0.1l9.3-26.1
				l2.8-7.8l5.9,2.1L206.7,47.1z M205,13.9l-10.5,35.9l2.3,0.7l10.5-35.9L205,13.9z M198.4,11.4l-1.9-0.5l-1.4-0.4l-2.2,9l-6.8,28
				l0.6,0.2l1.8,0.5l4.8,1.2l9.8-36.8L198.4,11.4z M192.7,48.2l-3.9-1l-1.5-0.4l2.9-12.1l3.7-14.9l2-8l0.4,0.1l1.9,0.5l3.8,1
				L192.7,48.2z M186.2,9.4l-2.6,37.5l1.3,0.2l1.2-4.4l2.6-32.9L186.2,9.4z M175,7.3l-0.8-0.2l-2.6,8.8l-1.6,5.2l-1.4,4.5L165.8,7
				l-0.1-0.4V6.4l-11-0.3l-2.9,38.6l7.3-0.1h0.2v-0.1l1.6-18l0.9,5.6l1.4,8l0.8,4.6l2.6,0.2l3.2,0.2h0.4l5.3-17.5l-0.4,6.8l-0.5,8.1
				l-0.2,2.8l0.9,0.1l5.2,0.8l1.6,0.2l2-37.6V8.5L175,7.3z M181.1,45.4L181.1,45.4l-3.7-0.6l-2-0.3l0.3-4.6l0.1-1l0.5-8.2l0.2-2.8
				l0.1-2.1l0.4-6l0-0.4l-0.1,0.4v-0.4L169.5,44l-2.7-0.2l-1.9-0.2l-1.2-7.1l-1.1-6.3l-0.3-1.8l-1.7-9.6l-2.2,24.7l-3.8,0.1h-1.7
				l2-26.4L155.7,7h0.2l2.5,0.1l6.4,0.2l3,19.9l0.4,2.9l0.1-0.2v0.2l3.5-11.7l3.1-10l2.1,0.3l5.5,0.6h0.1l0.4,0.1L181.1,45.4z
				 M171.4,45.1l1.8,0.2l0.6-8.5L171.4,45.1z M170.3,7.2L168,7.1l1.2,10.3l1.6-5.2L170.3,7.2z M161.3,34.6l-0.7,9.9h1.9L161.3,34.6z
				 M142.1,35.6l-2.3,0.5l0.1,0.4l1.6,7.9l2.3-0.4L142.1,35.6z M138.3,37.1l-10.5,2l3.8-30.4l-0.2-0.9l-1.6,0.4L126.1,9l-18.4,4.1
				l1.9,7.1l0.3-0.1l2.3-0.5l10.1-2.2l-0.1,1.1l-3.7,28.6l-0.1,0.7l-0.1,0.8l1.1-0.2l2.3-0.5l18-3.5L138.3,37.1z M119.6,47.3
				L119.6,47.3l-0.1,0.1l3.7-29.1l0.2-1.2l0.1-0.9L112,18.7l-1.7,0.3l-1.4-5.1l1.7-0.4l20-4.5l-4,31.4h0.1l10.8-2.2l1.1,5.4
				l-16.7,3.3L119.6,47.3z M135.6,6.8l-2.3,0.5l0.2,1.4l-3.4,28l2.3-0.5l3.4-28L135.6,6.8z M98.5,15.4L96.3,16l20.6,31.2l0.4-3.5
				L98.5,15.4z M101.7,38.6l-3.4-5.1l-6-8.8l4.6,18.1l6-2.5L101.7,38.6z M97.6,41.5l-3-11.6l1.5,2.2l2.9,4.2l1.8,2.7l0.1,0.1
				l0.5,0.8L97.6,41.5z M98.1,40.3l1.6-0.7l-3.1-5.3L98.1,40.3z M101.7,38.6l-3.4-5.1l-6-8.8l4.6,18.1l6-2.5L101.7,38.6z M97.6,41.5
				l-3-11.6l1.5,2.2l2.9,4.2l1.8,2.7l0.1,0.1l0.5,0.8L97.6,41.5z M98.1,40.3l1.6-0.7l-3.1-5.3L98.1,40.3z M116.3,49l-0.1-0.2
				L94.6,17.2l-0.1-0.1l-10,4.2l9.8,37.2l6.7-2.9v-0.3L99.6,49l0.8-0.4l1.6-0.7l3.1-1.3l4.2,5.4l7.1-2.9L116.3,49z M109.7,50.8
				l-3.8-4.9l-0.4-0.5l-7,3L100,55l-4,1.7l-1,0.4l-9.2-35.2l0.8-0.3l7.6-3.2l20.7,30.2l-4,1.7L109.7,50.8z M98.3,33.5l-6-8.8
				l4.6,18.1l6-2.5l-1.2-1.7L98.3,33.5z M97.6,41.5l-3-11.6l1.5,2.2l2.9,4.2l1.8,2.7l0.1,0.1l0.5,0.8L97.6,41.5z M98.1,40.3l1.6-0.7
				l-3.1-5.3L98.1,40.3z M101.7,38.6l-3.4-5.1l-6-8.8l4.6,18.1l6-2.5L101.7,38.6z M97.6,41.5l-3-11.6l1.5,2.2l2.9,4.2l1.8,2.7
				l0.1,0.1l0.5,0.8L97.6,41.5z M98.1,40.3l1.6-0.7l-3.1-5.3L98.1,40.3z M102.8,49.1l-1.6,0.8l1.1,5.1l1.7-0.7L102.8,49.1z
				 M101.7,38.6l-3.4-5.1l-6-8.8l4.6,18.1l6-2.5L101.7,38.6z M97.6,41.5l-3-11.6l1.5,2.2l2.9,4.2l1.8,2.7l0.1,0.1l0.5,0.8L97.6,41.5
				z M98.1,40.3l1.6-0.7l-3.1-5.3L98.1,40.3z M88.9,51.3l-15-24.5l-6.2,3.7L67,30.9l13.2,21.2l0.1,0.2v0.1c0.7,0.8,1.2,1.9,1.3,3
				c0,0.1,0,0.1,0,0.2c-0.1,0.6-0.4,1.2-0.8,1.6L79.3,58l-1.6,0.9L77,59.3l4.2,6.4l0.4,0.6l4-2.4c1.4-0.8,2.6-1.9,3.5-3.2
				c0.2-0.3,0.4-0.7,0.6-1.1c0.2-0.5,0.4-1,0.5-1.5C90.7,55.7,90.2,53.3,88.9,51.3z M88.5,59.5c-0.8,1.5-2,2.8-3.5,3.6l-1.8,1.1
				l-0.7,0.4L81.8,65l-3.5-5.3l1.5-0.9l1.5-0.9l0.1-0.1c0.8-0.7,1.3-1.8,1.2-2.9c-0.1-0.7-0.3-1.4-0.7-2c-0.3-0.5-0.6-0.8-0.7-1.1
				L81,51.6l-3.2-5.2l-9.5-15.2l1.5-0.9l3.7-2.2l14.3,23.8c0.2,0.3,0.4,0.7,0.6,1c1,2.1,1,4.4,0.2,6.4
				C88.6,59.4,88.6,59.4,88.5,59.5z M88.2,43.6L77,25.2l-1.9,0.9L89.8,50c0.1,0.2,0.3,0.4,0.4,0.6L88.2,43.6z M79.2,67.3L56.3,38.1
				l-0.5,0.3l-3.3,2.7l-1.4,1.1l-0.7,0.6l3.9,4.8l3.5,4.3l3,3.6l-14.3-9.2l-0.2-0.1l-0.2-0.1l-2.7,2.6l-1.7,1.7l-0.4,0.4L65,77.3
				l1,1.2l0.6-0.6l4.3-3.7L70.7,74l-7.6-9.2l3.7,2.1l4.7,2.7l3.2,1.8l0.7-0.6l4.1-3.1L79.2,67.3z M58.9,61.3l10.6,12.8l-1.7,1.5
				l-0.2,0.2l-1.5,1.3L42.6,50.8l1.2-1.1l2.5-2.3l19.2,12.4l-0.2-0.2l0.2,0.1l-8.6-10.5L51.8,43l1.4-1.1l3-2.4L65,50.7l0.8,1
				l12.3,15.7l-2,1.5l-1.5,1.2l-4.9-2.7L58.9,61.3z M59.3,35.9l-1.8,1.3l16.8,21.5l1.8-1.3L59.3,35.9z M72.9,71.6l-4.5-2.4l3.5,4.1
				l1.4-1.3L72.9,71.6z M62.7,76.6l-14.2-5.1l-8.2-19.4l-1.1,1.2l8.1,19.4l18.2,6.5L62.7,76.6z M46.5,73.7l-8.3-19.3l-4,4.2L33,59.8
				l-0.6,0.7L37,71.1l1.5,3.3l1.4,3.1l-13-10.2l-0.2-0.2l-4,5.3l-0.6,0.8L51.2,96l0.6-0.7l1.1-1.4l2.9-3.7l-11.6-9.3l4.2,1.3
				l4.6,1.5l6.7,2.2l0.6-0.6l1.2-1.3l3.3-3.7L46.5,73.7z M54.4,90.4l-2.3,2.8L51,94.6L23.5,73l1-1.3l2.4-3.1l13.9,10.9L54.4,90.4z
				 M60.3,83.7l-1,1.1L50.8,82l-9.2-3l-2.9-6.6l-5.2-11.7l1.1-1.1l3.2-3.5l7.6,18.1l0.1,0.3l17.4,6.2L60.3,83.7z M55.7,86l-4.6-1.5
				l6,4.8l1-1.4L55.7,86z M50.7,45.4l-1.8-1.2l-1.4,1.2l6.8,4.3L50.7,45.4z M34.4,68.6l-5.3-4.1l-1.2,1.6l8.1,6.4L34.4,68.6z
				 M241.7,42.1h-1c-5.1,0-9.4,3.8-9.9,8.9c-0.3,2.6,0.5,5.2,2.2,7.3c0.3,0.4,0.7,0.7,1.1,1.1c-1.6-1.9-2.3-4.3-2-6.8
				c0.5-5.1,4.8-8.9,9.9-8.9h1c2,0.1,3.9,0.8,5.5,2.1C246.8,43.7,244.4,42.4,241.7,42.1z M241.7,42.1h-1c-5.1,0-9.4,3.8-9.9,8.9
				c-0.3,2.6,0.5,5.2,2.2,7.3c0.3,0.4,0.7,0.7,1.1,1.1c-1.6-1.9-2.3-4.3-2-6.8c0.5-5.1,4.8-8.9,9.9-8.9h1c2,0.1,3.9,0.8,5.5,2.1
				C246.8,43.7,244.4,42.4,241.7,42.1z M253,51.3c0-0.2,0-0.4,0-0.6c-0.1-0.6-0.1-1.1-0.3-1.7c0-0.1,0-0.2-0.1-0.2
				c0-0.1-0.1-0.2-0.1-0.3c0,0,0,0,0,0c-0.1-0.3-0.2-0.7-0.4-1c-0.1-0.2-0.1-0.4-0.2-0.5c-0.1-0.2-0.1-0.3-0.2-0.5
				c0-0.1-0.1-0.2-0.2-0.3c-0.1-0.1-0.1-0.1-0.2-0.2c-0.1-0.2-0.2-0.3-0.3-0.5c0,0,0-0.1-0.1-0.1c0-0.1-0.1-0.1-0.1-0.2
				c-0.2-0.3-0.4-0.5-0.6-0.8c-2.1-2.6-5.1-4.2-8.4-4.5c-0.4-0.1-0.8-0.1-1.2-0.1c-0.8,0-1.6,0.1-2.3,0.2c-0.4,0.1-0.8,0.2-1.2,0.3
				c-0.2,0-0.3,0.1-0.5,0.1c-0.3,0.1-0.6,0.2-0.8,0.3c-0.2,0.1-0.4,0.2-0.7,0.3c-0.1,0-0.2,0.1-0.3,0.2c-0.2,0.1-0.3,0.2-0.5,0.3
				c-0.2,0.1-0.3,0.2-0.5,0.3c-0.3,0.2-0.6,0.4-0.9,0.6c-0.1,0.1-0.1,0.1-0.2,0.2l-0.1,0.1c0,0,0,0-0.1,0.1c-0.1,0-0.1,0.1-0.2,0.2
				l-0.1,0.1l0,0l-0.1,0c0,0-0.1,0.1-0.2,0.2c-0.1,0.1-0.2,0.2-0.3,0.3c-0.1,0.1-0.2,0.2-0.3,0.3c0,0-0.1,0.1-0.1,0.2
				c-0.1,0.1-0.1,0.2-0.2,0.3c0,0,0,0,0,0c-0.2,0.2-0.4,0.4-0.5,0.7c0,0.1-0.1,0.2-0.1,0.3c0,0.1-0.1,0.1-0.1,0.2c0,0,0,0,0,0l0,0
				l0,0c-0.1,0.1-0.1,0.1-0.2,0.2c-0.3,0.5-0.6,1-0.8,1.5c-0.1,0.2-0.2,0.3-0.2,0.5c-0.1,0.2-0.1,0.3-0.2,0.5
				c-0.1,0.4-0.3,0.8-0.4,1.3c-0.1,0.3-0.1,0.5-0.2,0.8c0,0,0,0,0,0c0,0,0,0,0,0.1c0,0,0,0,0,0s0,0,0,0c0,0.2,0,0.3-0.1,0.5v0.3
				c-0.3,3.1,0.7,6.4,2.7,8.8c1.6,1.9,3.7,3.3,6,4c0.8,0.3,1.6,0.4,2.4,0.5c0.4,0.1,0.8,0.1,1.2,0.1c1,0,2.1-0.1,3.1-0.4
				c1.4-0.4,2.7-1,3.8-1.8c0.2-0.1,0.3-0.2,0.5-0.3c0.1-0.1,0.2-0.1,0.3-0.2c0.2-0.2,0.4-0.3,0.6-0.5c1.7-1.4,2.9-3.3,3.6-5.4
				c0-0.1,0.1-0.2,0.1-0.3c0.2-0.7,0.4-1.5,0.4-2.3c0.1-0.6,0.1-1.3,0.1-1.9C253,51.6,253,51.5,253,51.3z M229.5,51
				c0.5-5.8,5.4-10.2,11.3-10.2c0.3,0,0.7,0.1,1.1,0.1c3,0.3,5.8,1.7,7.7,4.1c0.4,0.6,0.7,1.1,1.1,1.8c0,0,0.1,0.1,0.1,0.2
				c0,0.1,0.1,0.1,0.1,0.2c0,0,0,0,0,0c0,0.1,0,0.2,0.1,0.2c0.9,1.9,1.2,3.9,1.1,5.8c-0.6,5.8-5.5,10.3-11.4,10.2
				c-0.4,0-0.8,0-1.1-0.1c-1.7-0.2-3.3-0.7-4.8-1.6l-0.3-0.2c-0.8-0.5-1.4-1.1-2.1-1.7c-0.1-0.1-0.2-0.2-0.2-0.2s0,0-0.1-0.1
				l-0.1-0.1C230.1,57,229.2,54,229.5,51z M234.1,59.4c-1.6-1.9-2.3-4.3-2-6.8c0.5-5.1,4.8-8.9,9.9-8.9h1c2,0.1,3.9,0.8,5.5,2.1
				c-1.7-2.1-4.1-3.4-6.8-3.7h-1c-5.1,0-9.4,3.8-9.9,8.9c-0.3,2.6,0.5,5.2,2.2,7.3C233.3,58.7,233.7,59,234.1,59.4z M101.7,38.6
				l-3.4-5.1l-6-8.8l4.6,18.1l6-2.5L101.7,38.6z M97.6,41.5l-3-11.6l1.5,2.2l2.9,4.2l1.8,2.7l0.1,0.1l0.5,0.8L97.6,41.5z M98.1,40.3
				l1.6-0.7l-3.1-5.3L98.1,40.3z M241.7,42.1h-1c-5.1,0-9.4,3.8-9.9,8.9c-0.3,2.6,0.5,5.2,2.2,7.3c0.3,0.4,0.7,0.7,1.1,1.1
				c-1.6-1.9-2.3-4.3-2-6.8c0.5-5.1,4.8-8.9,9.9-8.9h1c2,0.1,3.9,0.8,5.5,2.1C246.8,43.7,244.4,42.4,241.7,42.1z M241.7,42.1h-1
				c-5.1,0-9.4,3.8-9.9,8.9c-0.3,2.6,0.5,5.2,2.2,7.3c0.3,0.4,0.7,0.7,1.1,1.1c-1.6-1.9-2.3-4.3-2-6.8c0.5-5.1,4.8-8.9,9.9-8.9h1
				c2,0.1,3.9,0.8,5.5,2.1C246.8,43.7,244.4,42.4,241.7,42.1z M253,51.3c0-0.2,0-0.4,0-0.6c-0.1-0.6-0.1-1.1-0.3-1.7
				c0-0.1,0-0.2-0.1-0.2c0-0.1-0.1-0.2-0.1-0.3c0,0,0,0,0,0c-0.1-0.3-0.2-0.7-0.4-1c-0.1-0.2-0.1-0.4-0.2-0.5
				c-0.1-0.2-0.1-0.3-0.2-0.5c0-0.1-0.1-0.2-0.2-0.3c-0.1-0.1-0.1-0.1-0.2-0.2c-0.1-0.2-0.2-0.3-0.3-0.5c0,0,0-0.1-0.1-0.1
				c0-0.1-0.1-0.1-0.1-0.2c-0.2-0.3-0.4-0.5-0.6-0.8c-2.1-2.6-5.1-4.2-8.4-4.5c-0.4-0.1-0.8-0.1-1.2-0.1c-0.8,0-1.6,0.1-2.3,0.2
				c-0.4,0.1-0.8,0.2-1.2,0.3c-0.2,0-0.3,0.1-0.5,0.1c-0.3,0.1-0.6,0.2-0.8,0.3c-0.2,0.1-0.4,0.2-0.7,0.3c-0.1,0-0.2,0.1-0.3,0.2
				c-0.2,0.1-0.3,0.2-0.5,0.3c-0.2,0.1-0.3,0.2-0.5,0.3c-0.3,0.2-0.6,0.4-0.9,0.6c-0.1,0.1-0.1,0.1-0.2,0.2l-0.1,0.1
				c0,0,0,0-0.1,0.1c-0.1,0-0.1,0.1-0.2,0.2l-0.1,0.1l0,0l-0.1,0c0,0-0.1,0.1-0.2,0.2c-0.1,0.1-0.2,0.2-0.3,0.3
				c-0.1,0.1-0.2,0.2-0.3,0.3c0,0-0.1,0.1-0.1,0.2c-0.1,0.1-0.1,0.2-0.2,0.3c0,0,0,0,0,0c-0.2,0.2-0.4,0.4-0.5,0.7
				c0,0.1-0.1,0.2-0.1,0.3c0,0.1-0.1,0.1-0.1,0.2c0,0,0,0,0,0l0,0l0,0c-0.1,0.1-0.1,0.1-0.2,0.2c-0.3,0.5-0.6,1-0.8,1.5
				c-0.1,0.2-0.2,0.3-0.2,0.5c-0.1,0.2-0.1,0.3-0.2,0.5c-0.1,0.4-0.3,0.8-0.4,1.3c-0.1,0.3-0.1,0.5-0.2,0.8c0,0,0,0,0,0
				c0,0,0,0,0,0.1c0,0,0,0,0,0s0,0,0,0c0,0.2,0,0.3-0.1,0.5v0.3c-0.3,3.1,0.7,6.4,2.7,8.8c1.6,1.9,3.7,3.3,6,4
				c0.8,0.3,1.6,0.4,2.4,0.5c0.4,0.1,0.8,0.1,1.2,0.1c1,0,2.1-0.1,3.1-0.4c1.4-0.4,2.7-1,3.8-1.8c0.2-0.1,0.3-0.2,0.5-0.3
				c0.1-0.1,0.2-0.1,0.3-0.2c0.2-0.2,0.4-0.3,0.6-0.5c1.7-1.4,2.9-3.3,3.6-5.4c0-0.1,0.1-0.2,0.1-0.3c0.2-0.7,0.4-1.5,0.4-2.3
				c0.1-0.6,0.1-1.3,0.1-1.9C253,51.6,253,51.5,253,51.3z M229.5,51c0.5-5.8,5.4-10.2,11.3-10.2c0.3,0,0.7,0.1,1.1,0.1
				c3,0.3,5.8,1.7,7.7,4.1c0.4,0.6,0.7,1.1,1.1,1.8c0,0,0.1,0.1,0.1,0.2c0,0.1,0.1,0.1,0.1,0.2c0,0,0,0,0,0c0,0.1,0,0.2,0.1,0.2
				c0.9,1.9,1.2,3.9,1.1,5.8c-0.6,5.8-5.5,10.3-11.4,10.2c-0.4,0-0.8,0-1.1-0.1c-1.7-0.2-3.3-0.7-4.8-1.6l-0.3-0.2
				c-0.8-0.5-1.4-1.1-2.1-1.7c-0.1-0.1-0.2-0.2-0.2-0.2s0,0-0.1-0.1l-0.1-0.1C230.1,57,229.2,54,229.5,51z M234.1,59.4
				c-1.6-1.9-2.3-4.3-2-6.8c0.5-5.1,4.8-8.9,9.9-8.9h1c2,0.1,3.9,0.8,5.5,2.1c-1.7-2.1-4.1-3.4-6.8-3.7h-1c-5.1,0-9.4,3.8-9.9,8.9
				c-0.3,2.6,0.5,5.2,2.2,7.3C233.3,58.7,233.7,59,234.1,59.4z M101.7,38.6l-3.4-5.1l-6-8.8l4.6,18.1l6-2.5L101.7,38.6z M97.6,41.5
				l-3-11.6l1.5,2.2l2.9,4.2l1.8,2.7l0.1,0.1l0.5,0.8L97.6,41.5z M98.1,40.3l1.6-0.7l-3.1-5.3L98.1,40.3z M101.7,38.6l-3.4-5.1
				l-6-8.8l4.6,18.1l6-2.5L101.7,38.6z M97.6,41.5l-3-11.6l1.5,2.2l2.9,4.2l1.8,2.7l0.1,0.1l0.5,0.8L97.6,41.5z M98.1,40.3l1.6-0.7
				l-3.1-5.3L98.1,40.3z M101.7,38.6l-3.4-5.1l-6-8.8l4.6,18.1l6-2.5L101.7,38.6z M97.6,41.5l-3-11.6l1.5,2.2l2.9,4.2l1.8,2.7
				l0.1,0.1l0.5,0.8L97.6,41.5z M98.1,40.3l1.6-0.7l-3.1-5.3L98.1,40.3z M101.7,38.6l-3.4-5.1l-6-8.8l4.6,18.1l6-2.5L101.7,38.6z
				 M97.6,41.5l-3-11.6l1.5,2.2l2.9,4.2l1.8,2.7l0.1,0.1l0.5,0.8L97.6,41.5z M98.1,40.3l1.6-0.7l-3.1-5.3L98.1,40.3z M101.7,38.6
				l-3.4-5.1l-6-8.8l4.6,18.1l6-2.5L101.7,38.6z M97.6,41.5l-3-11.6l1.5,2.2l2.9,4.2l1.8,2.7l0.1,0.1l0.5,0.8L97.6,41.5z M98.1,40.3
				l1.6-0.7l-3.1-5.3L98.1,40.3z M101.7,38.6l-3.4-5.1l-6-8.8l4.6,18.1l6-2.5L101.7,38.6z M97.6,41.5l-3-11.6l1.5,2.2l2.9,4.2
				l1.8,2.7l0.1,0.1l0.5,0.8L97.6,41.5z M98.1,40.3l1.6-0.7l-3.1-5.3L98.1,40.3z M101.7,38.6l-3.4-5.1l-6-8.8l4.6,18.1l6-2.5
				L101.7,38.6z M97.6,41.5l-3-11.6l1.5,2.2l2.9,4.2l1.8,2.7l0.1,0.1l0.5,0.8L97.6,41.5z M98.1,40.3l1.6-0.7l-3.1-5.3L98.1,40.3z"/>
			<path class="st2" d="M155.7,2.2h-0.1c-54.1,0-108,24.4-140.2,73c11.9,8.4,36.9,27.5,36.9,27.5c24-36.1,63.1-55.5,102.9-55h1.2
				c41.2,0,79.7,20.6,102.6,55l36.9-27.5C263.5,26.7,209.7,2.2,155.7,2.2z M222.2,20.3l-10.4,27.1l-2-0.8L220,19.5L222.2,20.3z
				 M170.3,7.2l0.5,5l-1.6,5.2L168,7.1L170.3,7.2z M135.6,6.8l0.2,1.4l-3.4,28l-2.3,0.5l3.4-28l-0.2-1.4L135.6,6.8z M77,25.2
				l11.2,18.4l2,7c-0.1-0.2-0.3-0.4-0.4-0.6L75.1,26.1L77,25.2z M59.3,35.9l16.8,21.5l-1.8,1.3L57.5,37.2L59.3,35.9z M48.9,44.2
				l1.8,1.2l3.6,4.3l-6.8-4.3L48.9,44.2z M29.1,64.5l5.3,4.1l1.6,3.9l-8.1-6.4L29.1,64.5z M57.1,89.3l-6-4.8l4.6,1.5l2.4,1.9
				L57.1,89.3z M61.5,84l-1.2,1.3l-0.6,0.6L53,83.7l-4.6-1.5l-4.2-1.3l11.6,9.3l-2.9,3.7l-1.1,1.4L51.2,96L22.1,73.2l0.6-0.8l4-5.3
				l0.2,0.2l13,10.2l-1.4-3.1L37,71.1l-4.6-10.6l0.6-0.7l1.2-1.2l4-4.2l8.3,19.3l18.3,6.6L61.5,84z M47.3,72.7l-8.1-19.4l1.1-1.2
				l8.2,19.4l14.2,5.1l2.8,2.6L47.3,72.7z M71.9,73.3l-3.5-4.1l4.5,2.4l0.4,0.4L71.9,73.3z M75.4,70.8l-0.7,0.6l-3.2-1.8l-4.7-2.7
				l-3.7-2.1l7.6,9.2l0.2,0.2l-4.3,3.7L66,78.5l-1-1.2L41.3,50.8l0.4-0.4l1.7-1.7l2.7-2.6l0.2,0.1l0.2,0.1l14.3,9.2l-3-3.6l-3.5-4.3
				l-3.9-4.8l0.7-0.6l1.4-1.1l3.3-2.7l0.5-0.3l22.9,29.2l0.3,0.4L75.4,70.8z M90.2,58.1c-0.1,0.5-0.3,1-0.5,1.5
				c-0.2,0.4-0.4,0.8-0.6,1.1c-0.9,1.3-2.1,2.4-3.5,3.2l-4,2.4l-0.4-0.6L77,59.3l0.7-0.4l1.6-0.9l1.5-0.8c0.4-0.4,0.7-1,0.8-1.6
				c0-0.1,0-0.1,0-0.2c-0.1-1.1-0.6-2.2-1.3-3v-0.1l-0.1-0.2L67,30.9l0.7-0.4l6.2-3.7l15,24.5C90.2,53.3,90.7,55.7,90.2,58.1z
				 M102.3,55l-1.1-5.1l1.6-0.8l1.2,5.2L102.3,55z M109.3,52l-4.2-5.4l-3.1,1.3l-1.6,0.7L99.6,49l1.4,6.3v0.3l-6.7,2.9l-9.8-37.2
				l10-4.2l0.1,0.1l21.6,31.6l0.1,0.2l0.1,0.1L109.3,52z M116.9,47.2L96.3,16l2.2-0.6l18.8,28.3L116.9,47.2z M121.7,47.9l-2.3,0.5
				l-1.1,0.2l0.1-0.8l0.1-0.7l3.7-28.6l0.1-1.1l-10.1,2.2l-2.3,0.5l-0.3,0.1l-1.9-7.1L126.1,9l3.7-0.8l1.6-0.4l0.2,0.9l-3.8,30.4
				l10.5-2l1.4,7.3L121.7,47.9z M141.5,44.4l-1.6-7.9l-0.1-0.4l2.3-0.5l1.7,8.4L141.5,44.4z M160.6,44.5l0.7-9.9l1.2,9.9H160.6z
				 M173.2,45.3l-1.8-0.2l2.4-8.3L173.2,45.3z M180.5,46.2l-5.2-0.8l-0.9-0.1l0.2-2.8l0.5-8.1l0.4-6.8l-5.3,17.5h-0.4l-3.2-0.2
				l-2.6-0.2l-0.8-4.6l-1.4-8l-0.9-5.6l-1.6,18v0.1h-0.2l-7.3,0.1l2.9-38.6l11,0.3v0.2l0.1,0.4l2.8,18.6l1.4-4.5l1.6-5.2l2.6-8.8
				l0.8,0.2l9.1,1.2v0.3l-2,37.6L180.5,46.2z M183.6,46.9l2.6-37.5l2.5,0.4l-2.6,32.9l-1.2,4.4L183.6,46.9z M188.5,48.2l-1.8-0.5
				l-0.6-0.2l6.8-28l2.2-9l1.4,0.4l1.9,0.5l4.7,1.2l-9.8,36.8L188.5,48.2z M194.5,49.8L205,13.9l2.3,0.7l-10.5,35.9L194.5,49.8z
				 M201.1,52.2l-1.6-0.7l-1.2-0.5l9.6-27.1l3.1-8.7l7.8,2.8l-0.4,1l-10.7,28.1l10.6,4.1l-2.8,6.7L201.1,52.2z M218.6,59.8l-2-0.8
				l3.1-7.3c0,1.5,0.1,3.1,0.3,4.6L218.6,59.8z M225.5,64.4c-0.4-0.4-0.8-0.9-1.1-1.4c-1.8-2.7-2.9-5.7-3.2-8.9
				c-0.1-0.6-0.1-1.2-0.1-1.9s0-1.3,0.1-2c1-10,9.4-17.7,19.5-17.6c0.6,0,1.3,0,1.9,0.1c4.9,0.5,9.4,2.8,12.7,6.4
				c0.2,0.2,0.4,0.5,0.6,0.7c3.3,4,4.8,9.1,4.3,14.2c-1,10-9.5,17.6-19.6,17.5c-0.6,0-1.3,0-1.9-0.1c-4.7-0.4-9.1-2.6-12.3-6
				C226.1,65.1,225.9,64.8,225.5,64.4z M242.7,73.8c-0.7,0-1.4,0-2-0.1c-5.3-0.5-10.5-2.5-13.7-6.2c3.1,2.9,7.8,4.4,12.4,4.8
				c0.7,0.1,1.3,0.1,2,0.1c4.8,0,9.4-1.7,13-4.8c8.2-7.2,9.1-19.6,2-27.8c6.2,5.8,7.9,14.9,4.3,22.6c-0.1,0.2-0.3,0.4-0.4,0.6
				c-0.3,0.4-0.5,0.9-0.7,1.4c-2.4,3.8-5.9,6.6-10.1,8.2c0,0-1.4,0.4-2.9,0.8C245.3,73.7,244,73.8,242.7,73.8z M258.2,82.7
				c-0.4-0.3-0.7-0.7-1-1.1c-1.7-2.3-2.7-5.1-2.6-7.9l2.1-0.2C256.1,75.6,256.3,80,258.2,82.7z M268.2,92.3
				c-6.2,5.1-12.2,0.5-12.9-0.2c4,1.9,8.8,1.4,12.4-1.4c1.9-1.7,3.2-4.1,3.6-6.6C271.8,87.2,270.6,90.3,268.2,92.3z M270.3,68.1
				c-0.9,0.6-1.5,1.7-1.4,2.9c-1.1-2.4,0-3.6,0.2-3.8c0.2-0.1,0.4-0.3,0.6-0.4c1-0.5,2.2-0.1,2.6,0.8
				C271.6,67.5,270.9,67.7,270.3,68.1z M274.2,73.8l0.4-1.1c0.5-1.9,0-4-1.4-5.5c-0.7-0.9-1.8-1.5-3-1.6c-0.6,0-1.2,0.3-1.7,0.7
				c-1.2,1.1-1.6,2.1,0.4,7.8c2.1,6.5,2.5,11.1-1.9,15c-1.8,1.7-4.3,2.7-6.8,2.7c-3.6-0.1-6.9-1.8-9.1-4.5c-3-3.4-4.7-7.8-4.8-12.4
				V74l0.9-0.2l5-1.1l1.2-0.3v1.2c0.2,3.9,1.1,6.5,3.1,8.7c0.8,1.1,2,1.8,3.3,1.9c0.6-0.1,1.3-0.3,1.8-0.8c1.2-1.1,1.6-2.2-0.2-7.6
				c-2.1-6.2-3.2-10.9,1.7-15.3c1.9-1.7,4.2-2.6,6.7-2.6c2.6,0.1,5.1,1,7.1,2.7v-6.1l0.6,0.7l3.9,4.5V60l0.1,0.7l0.7,0.2l0.2,0.1
				l0.2,0.3l0.3,0.6l3.9,4.6h-0.2l-6.1-1.2c1.6,2.8,2,6.2,1,9.3l-0.3,0.9l-0.9-0.2l-5-1.2L274.2,73.8z M288.4,69.7l-5.1-1.3
				c-0.2-0.7-0.4-1.3-0.8-1.8l4.2,1.1L288.4,69.7z M283.4,78.5l-6.8-1.6c0.1-0.5,0.2-1,0.2-1.5l5.4,1.3c0.8-2.2,1-4.6,0.6-6.9
				C284,72.2,284.3,74.9,283.4,78.5z"/>
			<path class="st2" d="M54.8,102.9c6.3-2.2,12.9-3.7,19.6-4.6l-9.3-8.7C61.4,93.8,57.9,98.2,54.8,102.9z"/>
			<path class="st2" d="M72,101c-6,0.9-11.8,2.3-17.5,4.3l-0.8,0.3l-0.8,0.3l-0.6,0.2l0,0L31.5,90c-5.7,8.9-11.7,21.6-14.2,31.2
				c7.8-3.8,16.1-6.7,24.6-8.7c0.8,11.7,3.1,23.2,6.8,34.3c3.1-12,8.2-23.5,14.9-33.9c2.8-4.3,5.9-8.4,9.4-12.3l0,0L72,101z"/>
			<path class="st2" d="M256.3,102.9c-6.3-2.3-12.9-3.8-19.6-4.6l9.2-8.7C249.7,93.8,253.2,98.2,256.3,102.9z"/>
			<path class="st2" d="M293.8,121.3c-7.9-3.8-16.1-6.7-24.6-8.6c-0.8,11.7-3.1,23.2-6.8,34.3c-3.1-12-8.1-23.5-14.9-33.9
				c-2.8-4.3-6-8.4-9.4-12.3l0.9,0.2c5.9,0.8,11.8,2.2,17.5,4.2l1.6,0.6l0.6,0.2l21-15.8C285.7,99.9,290.5,110.4,293.8,121.3z"/>
			<path class="st3" d="M68.3,31.2l9.5,15.2L68.3,31.2z"/>
			<path class="st3" d="M78.3,59.7l3.5,5.3h-0.1L78.3,59.7l1.4-0.9l1.5-0.9l0.1-0.1c0.9-0.7,1.3-1.8,1.2-2.9c-0.1-0.7-0.3-1.4-0.7-2
				c-0.2-0.4-0.5-0.8-0.7-1.1L81,51.6l0.2,0.2c0.1,0.3,0.4,0.6,0.7,1.1c0.4,0.6,0.6,1.3,0.7,2c0.1,1.1-0.4,2.2-1.2,2.9l-0.1,0.1
				l-1.5,0.9L78.3,59.7z"/>
			<path class="st3" d="M88.5,59.5c-0.7,1.6-1.9,2.9-3.6,3.7l-1.8,1.1l-0.6,0.3l0.7-0.4l1.8-1.1C86.5,62.3,87.7,61,88.5,59.5z"/>
			<polygon class="st3" points="94.6,29.9 97.6,41.5 97.5,41.5 			"/>
			<polygon class="st3" points="99.7,39.6 98.1,40.3 96.6,34.3 			"/>
			<path class="st3" d="M233,58.3c-1.7-2.1-2.5-4.7-2.2-7.3c0.5-5.1,4.8-8.9,9.9-8.9h1c2.7,0.3,5.1,1.6,6.8,3.7
				c-1.6-1.3-3.5-2-5.5-2.1h-1c-5.1,0-9.4,3.8-9.9,8.9c-0.3,2.5,0.4,4.9,2,6.8C233.7,59,233.3,58.7,233,58.3z"/>
			<path class="st3" d="M252.3,52.4c0,6.2-5.1,11.3-11.4,11.2c-0.3,0-0.7-0.1-1.1-0.1c-1.7-0.2-3.3-0.7-4.8-1.6l-0.3-0.2
				c-1-0.6-1.9-1.5-2.7-2.4l0.1,0.1c0.1,0.1,0.1,0.1,0.1,0.1s0.1,0.1,0.2,0.2c0.7,0.6,1.3,1.2,2.1,1.7l0.3,0.2
				c1.5,0.9,3.1,1.4,4.8,1.6c0.3,0.1,0.7,0.1,1.1,0.1c5.9,0.1,10.8-4.4,11.4-10.2c0.1-1.9-0.2-3.9-1.1-5.8c0,0-0.1-0.1-0.1-0.2
				c0.1,0.1,0.2,0.3,0.4,0.6C252,49.2,252.3,50.8,252.3,52.4z"/>
			<path class="st3" d="M240.6,70.5c-0.6,0-1.3,0-1.9-0.1c-3-0.3-5.9-1.4-8.5-3c-0.4-0.2-0.7-0.5-1-0.7c-0.2-0.1-0.4-0.3-0.6-0.5
				c-0.2-0.2-0.4-0.3-0.6-0.5c-0.4-0.4-0.8-0.8-1.2-1.2c-0.2-0.2-0.4-0.5-0.6-0.7c-0.1-0.2-0.3-0.3-0.4-0.5
				c-0.3-0.4-0.6-0.9-0.9-1.3c-0.2-0.2-0.3-0.5-0.5-0.8s-0.3-0.6-0.5-0.9c-1.5-3.1-2.2-6.6-1.8-10c0.1-0.7,0.2-1.3,0.3-2
				c0.7-3.5,2.4-6.6,4.8-9c-2.4,2.4-4.1,5.5-4.9,9c-0.1,0.7-0.2,1.3-0.3,2c0,0.3,0,0.6-0.1,0.9c0,0.6,0,1.2,0,1.8
				c0,0.3,0,0.6,0.1,0.9c0,0.3,0.1,0.5,0.1,0.8c0.3,1.9,0.8,3.8,1.7,5.6c0.6,1.2,1.4,2.4,2.2,3.5c2.5,3.1,6,5.3,9.9,6.2
				c0.2,0,0.4,0.1,0.6,0.1c0.2,0.1,0.4,0.1,0.6,0.1c0.2,0,0.5,0.1,0.8,0.1c0.1,0,0.2,0,0.4,0.1c0.1,0,0.2,0,0.3,0
				c0.2,0,0.4,0.1,0.6,0.1c0.2,0,0.3,0,0.5,0C240,70.5,240.3,70.5,240.6,70.5c0.3,0,0.6,0,0.9,0c0.2,0,0.4,0,0.7,0
				c0.4,0,0.8-0.1,1.1-0.1c1.1-0.2,2.2-0.4,3.3-0.8c0.3-0.1,0.5-0.2,0.8-0.3c1.6-0.6,3.1-1.5,4.4-2.5c0.4-0.3,0.9-0.7,1.3-1.1
				C249.8,68.8,245.4,70.5,240.6,70.5z M243.8,64c-0.5,0.2-1.1,0.3-1.6,0.3c-0.5,0.1-1,0.1-1.6,0.1l0,0c-0.1,0-0.2,0-0.2,0
				c-0.3,0-0.5,0-0.8-0.1l0,0c-0.2,0-0.4,0-0.6-0.1c-0.1,0-0.2,0-0.3,0c-0.4,0-0.8-0.1-1.1-0.2c-0.1,0-0.2-0.1-0.4-0.1
				c-2.4-0.7-4.4-2.1-6-4c-2.1-2.5-3.1-5.8-2.7-9c0.2-2.1,1-4.1,2.1-5.8c0.2-0.2,0.4-0.5,0.5-0.7c0.1-0.1,0.2-0.2,0.3-0.3
				c0,0,0.1-0.1,0.1-0.2c-0.1,0.1-0.1,0.2-0.2,0.3c-0.2,0.2-0.4,0.4-0.5,0.7s-0.3,0.5-0.5,0.7l0,0c-0.3,0.5-0.6,1-0.8,1.5
				c-0.1,0.2-0.2,0.3-0.2,0.5c-0.1,0.2-0.1,0.3-0.2,0.5c-0.1,0.4-0.3,0.8-0.4,1.3c-0.1,0.3-0.1,0.6-0.2,1c0,0.2,0,0.3-0.1,0.5
				c0,0.1,0,0.2,0,0.3c-0.3,3.1,0.7,6.4,2.7,8.8c1.6,1.9,3.7,3.3,6,4c0.8,0.3,1.6,0.4,2.4,0.5c0.4,0.1,0.8,0.1,1.2,0.1
				C241.6,64.5,242.7,64.4,243.8,64c1.3-0.3,2.6-0.9,3.7-1.7C246.4,63.1,245.2,63.7,243.8,64z M233.1,42.3c0.3-0.2,0.6-0.4,0.9-0.6
				C233.7,41.9,233.4,42.1,233.1,42.3z M232.3,43c0,0-0.1,0.1-0.2,0.2c0.1-0.1,0.2-0.2,0.4-0.3L232.3,43z"/>
			<polygon class="st3" points="110.6,13.5 108.9,13.9 110.3,19 110.2,19 108.8,13.9 			"/>
			<polygon class="st3" points="137.5,38.2 137.5,38.2 126.7,40.4 126.7,40.4 			"/>
			<polygon class="st3" points="164.9,7.3 167.8,27.2 164.8,7.3 			"/>
			<polygon class="st3" points="167.8,27.2 168.3,29.8 168.3,29.8 168.2,30.1 			"/>
			<path class="st3" d="M175.5,44.4l0.3-4.6L175.5,44.4z"/>
			<polygon class="st3" points="177,19.7 177.1,19.3 176.4,30.6 175.9,38.8 175.8,39.8 175.8,38.8 176.3,30.6 			"/>
			<polygon class="st3" points="177,8.6 174.9,8.3 174.9,8.2 177.1,8.5 182.5,9.2 			"/>
			<path class="st3" d="M94.2,18.4l20.7,30.2l0,0L94.1,18.2l-7.6,3.3l-0.8,0.3L95,57.1l-9.2-35.2l0.8-0.3L94.2,18.4z"/>
			<polygon class="st3" points="206.5,47.7 217.1,51.8 217.1,51.9 206.5,47.8 			"/>
			<polygon class="st3" points="208.9,24.4 199.6,50.5 199.5,50.5 208.8,24.2 211.7,16.5 217.6,18.7 211.7,16.6 			"/>
			<polygon class="st3" points="195.9,11.7 196.3,11.9 195.9,11.8 			"/>
			<polygon class="st3" points="202,13.3 202,13.4 198.2,12.4 196.3,11.9 198.2,12.3 			"/>
			<polygon class="st3" points="54.4,90.4 52.1,93.3 51,94.6 52.1,93.2 			"/>
			<polygon class="st3" points="53.2,41.9 51.8,43 53.1,41.8 56.2,39.4 65,50.7 56.2,39.5 			"/>
			<polygon class="st3" points="65.5,59.8 46.3,47.4 43.8,49.7 46.2,47.3 65.3,59.6 			"/>
			<polygon class="st3" points="67.8,75.6 69.5,74.1 58.9,61.3 69.6,74.1 			"/>
			<polygon class="st3" points="281.2,63.9 284,64.5 281.8,61.9 281.8,61.9 284.1,64.6 			"/>
			<path class="st1" d="M262.3,75.5c-2.2-6.5-2.8-10.4,1.4-14.2c1.4-1.3,3.3-2.1,5.3-2.3c-1.9,0.2-3.8,1-5.2,2.3
				C259.6,65.1,260.2,69,262.3,75.5c1.9,5.5,1.7,7.2,0,8.7c-0.6,0.5-1.4,0.9-2.2,1c0.8-0.1,1.5-0.5,2.1-1
				C263.9,82.7,264.1,81,262.3,75.5z"/>
			<path class="st1" d="M269.3,82c-0.1,2.5-1,4.4-3.1,6.3c-1.6,1.5-3.8,2.4-6.1,2.4c-3.3-0.1-6.3-1.7-8.3-4.2c-1.1-1.2-2-2.6-2.7-4
				c0.7,1.4,1.6,2.7,2.7,3.9c2.1,2.5,5.1,4.1,8.3,4.2c2.2-0.1,4.4-0.9,6.1-2.5C268.2,86.3,269.2,84.4,269.3,82z"/>
			<path class="st1" d="M274,66.6c-0.9-1.2-2.3-1.9-3.8-2c-0.9,0-1.7,0.3-2.4,0.9c-0.9,0.8-1.4,1.6-1.4,2.8c0-1.4,0.5-2.2,1.4-3
				c0.7-0.6,1.5-0.9,2.4-0.9c1.5,0.1,2.9,0.8,3.8,2c1.4,1.4,2.1,3.4,1.8,5.4C275.9,69.9,275.3,68.1,274,66.6z"/>
			<path class="st1" d="M280.6,74.3l-5-1.2c0-0.1,0-0.1,0-0.2l5,1.2c0.4-1.4,0.5-2.8,0.4-4.2C281.1,71.4,281,72.9,280.6,74.3z"/>
			<polygon class="st1" points="54.4,90.4 52.1,93.3 51,94.6 52.1,93.2 			"/>
			<polygon class="st1" points="164.9,7.3 167.8,27.2 164.8,7.3 			"/>
			<polygon class="st1" points="167.8,27.2 168.3,29.8 168.3,29.8 168.2,30.1 			"/>
			<path class="st1" d="M175.5,44.4l0.3-4.6L175.5,44.4z"/>
			<polygon class="st1" points="177,19.7 177.1,19.3 176.4,30.6 175.9,38.8 175.8,39.8 175.8,38.8 176.3,30.6 			"/>
			<polygon class="st1" points="177,8.6 174.9,8.3 174.9,8.2 177.1,8.5 182.5,9.2 			"/>
			<polygon class="st1" points="53.2,41.9 51.8,43 53.1,41.8 56.2,39.4 65,50.7 56.2,39.5 			"/>
			<polygon class="st1" points="65.5,59.8 46.3,47.4 43.8,49.7 46.2,47.3 65.3,59.6 			"/>
			<polygon class="st1" points="67.8,75.6 69.5,74.1 58.9,61.3 69.6,74.1 			"/>
			<polygon class="st1" points="195.9,11.7 196.3,11.9 195.9,11.8 			"/>
			<polygon class="st1" points="202,13.3 202,13.4 198.2,12.4 196.3,11.9 198.2,12.3 			"/>
			<polygon class="st1" points="206.5,47.7 217.1,51.8 217.1,51.9 206.5,47.8 			"/>
			<polygon class="st1" points="208.9,24.4 199.6,50.5 199.5,50.5 208.8,24.2 211.7,16.5 217.6,18.7 211.7,16.6 			"/>
			<path class="st1" d="M259,49c0.3,1.6,0.3,3.3,0.1,5c-0.2,2.5-1,4.8-2.1,6.8c1.1-2.1,1.9-4.4,2.2-6.9
				C259.4,52.2,259.3,50.6,259,49z M250.3,44.3c-2.1-2.6-5.1-4.2-8.4-4.5c-0.4-0.1-0.8-0.1-1.2-0.1c-0.8,0-1.6,0.1-2.3,0.2
				c-0.4,0.1-0.8,0.2-1.2,0.3c-0.2,0-0.3,0.1-0.5,0.1c-0.3,0.1-0.6,0.2-0.8,0.3s-0.4,0.2-0.7,0.3c-0.1,0-0.2,0.1-0.3,0.2
				c-0.2,0.1-0.3,0.2-0.5,0.3s-0.3,0.2-0.5,0.3c-0.3,0.2-0.6,0.4-0.9,0.6c-0.1,0.1-0.1,0.1-0.2,0.2l-0.1,0.1
				c2.1-1.7,4.9-2.8,7.8-2.8c0.4,0,0.8,0,1.2,0.1c3.3,0.3,6.3,1.9,8.4,4.5c1.7,2.2,2.7,4.8,2.8,7.5V52c0,1.6-0.3,3.2-0.9,4.7
				c-0.7,1.8-1.8,3.3-3.2,4.6c2.3-2,3.8-4.8,4.1-8C253.4,50.1,252.4,46.9,250.3,44.3z M250.3,36.3c-2.4-1.4-5.1-2.3-7.8-2.6
				c-0.2,0-0.3,0-0.5-0.1c-0.2,0-0.3,0-0.5,0c-0.3,0-0.5,0-0.8,0h-0.1c-0.6,0-1.1,0-1.7,0.1c-0.2,0-0.4,0-0.6,0.1
				c-0.2,0-0.4,0.1-0.6,0.1c-0.4,0.1-0.7,0.1-1.1,0.2c-0.3,0.1-0.6,0.1-0.8,0.2c-6.7,1.7-11.9,7.1-13.3,13.9c-0.1,0.7-0.2,1.3-0.3,2
				c0,0.3,0,0.6-0.1,1c0,0.6,0,1.2,0,1.8c0,0.3,0,0.6,0.1,0.9c0,0.3,0.1,0.5,0.1,0.8c0.3,1.9,0.9,3.7,1.7,5.5c0.2,0.3,0.4,0.7,0.6,1
				c-0.2-0.3-0.3-0.6-0.5-0.9c-1.5-3.1-2.2-6.6-1.8-10c0.1-0.7,0.2-1.3,0.3-2c0.7-3.5,2.4-6.6,4.8-9c0.5-0.5,1-1,1.5-1.4
				c0.2-0.2,0.4-0.3,0.5-0.4c0.2-0.1,0.3-0.3,0.5-0.4c0.2-0.1,0.3-0.2,0.5-0.4s0.5-0.3,0.8-0.5c2.3-1.3,4.9-2.2,7.7-2.5
				c0.6-0.1,1.1-0.1,1.7-0.1c0.6,0,1.2,0,1.9,0.1C245.2,34,247.9,34.9,250.3,36.3c1.4,0.8,2.7,1.9,3.8,3
				C253,38.2,251.7,37.2,250.3,36.3z M232.3,43c0,0-0.1,0.1-0.2,0.2c0.1-0.1,0.2-0.2,0.4-0.3L232.3,43z M231.2,44.1l0.1-0.1
				c0,0,0.1-0.1,0.1-0.2C231.4,43.9,231.3,44,231.2,44.1z M228.3,50.8c0,0.1,0,0.2,0,0.3C228.3,51,228.3,51,228.3,50.8
				c0-0.1,0-0.3,0.1-0.5C228.3,50.5,228.3,50.6,228.3,50.8z M226.2,63.8c-0.1-0.2-0.3-0.3-0.4-0.5C225.9,63.4,226,63.6,226.2,63.8
				c0.1,0.2,0.4,0.4,0.6,0.7C226.6,64.3,226.4,64,226.2,63.8z"/>
			<polygon class="st1" points="110.6,13.5 108.9,13.9 110.3,19 110.2,19 108.8,13.9 			"/>
			<polygon class="st1" points="137.5,38.2 137.5,38.2 126.7,40.4 126.7,40.4 			"/>
			<polygon class="st1" points="278.1,60.2 281.2,63.9 278.5,60.8 278.4,60.7 278.4,60.7 			"/>
			<polygon class="st1" points="284.1,64.6 281.2,63.9 284,64.5 281.8,61.9 281.8,61.9 			"/>
			<path class="st1" d="M68.3,31.2l9.5,15.2L68.3,31.2z"/>
			<path class="st1" d="M78.3,59.7l3.5,5.3h-0.1L78.3,59.7l1.4-0.9l1.5-0.9l0.1-0.1c0.9-0.7,1.3-1.8,1.2-2.9c-0.1-0.7-0.3-1.4-0.7-2
				c-0.2-0.4-0.5-0.8-0.7-1.1L81,51.6l0.2,0.2c0.1,0.3,0.4,0.6,0.7,1.1c0.4,0.6,0.6,1.3,0.7,2c0.1,1.1-0.4,2.2-1.2,2.9l-0.1,0.1
				l-1.5,0.9L78.3,59.7z"/>
			<path class="st1" d="M88.5,59.5c-0.7,1.6-1.9,2.9-3.6,3.7l-1.8,1.1l-0.6,0.3l0.7-0.4l1.8-1.1C86.5,62.3,87.7,61,88.5,59.5z"/>
			<path class="st1" d="M94.2,18.4l20.7,30.2l0,0L94.1,18.2l-7.6,3.3l-0.8,0.3L95,57.1l-9.2-35.2l0.8-0.3L94.2,18.4z"/>
			<g>
				<path class="st4" d="M258.2,82.7c-0.4-0.3-0.7-0.7-1-1.1c-1.7-2.3-2.7-5.1-2.6-7.9l2.1-0.2C256.1,75.6,256.3,80,258.2,82.7z"/>
			</g>
			<polygon class="st4" points="104,54.3 102.3,55 101.2,49.9 102.8,49.1 			"/>
			<polygon class="st4" points="117.3,43.7 116.9,47.2 96.3,16 98.5,15.4 			"/>
			<polygon class="st4" points="99.7,39.6 98.1,40.3 96.6,34.3 			"/>
			<polygon class="st4" points="58.1,87.9 57.1,89.3 51.1,84.5 55.7,86 			"/>
			<polygon class="st4" points="65.5,79.2 47.3,72.7 39.2,53.3 40.3,52.1 48.5,71.5 62.7,76.6 			"/>
			<polygon class="st4" points="36,72.5 27.9,66.1 29.1,64.5 34.4,68.6 			"/>
			<polygon class="st4" points="162.5,44.5 160.6,44.5 161.3,34.6 			"/>
			<polygon class="st4" points="170.8,12.2 169.2,17.4 168,7.1 170.3,7.2 			"/>
			<polygon class="st4" points="188.7,9.8 186.1,42.7 184.9,47.1 183.6,46.9 186.2,9.4 			"/>
			<polygon class="st4" points="173.8,36.8 173.2,45.3 171.4,45.1 			"/>
			<polygon class="st4" points="76.1,57.4 74.3,58.7 57.5,37.2 59.3,35.9 			"/>
			<polygon class="st4" points="73.3,72 71.9,73.3 68.4,69.2 72.9,71.6 			"/>
			<polygon class="st4" points="54.3,49.7 47.5,45.4 48.9,44.2 50.7,45.4 			"/>
			<polygon class="st4" points="207.3,14.6 196.8,50.5 194.5,49.8 205,13.9 			"/>
			<path class="st4" d="M220,56.3l-1.4,3.5l-2-0.8l3.1-7.3C219.7,53.2,219.8,54.8,220,56.3z"/>
			<polygon class="st4" points="222.2,20.3 211.8,47.4 209.8,46.6 220,19.5 			"/>
			<path class="st4" d="M248.5,45.8c-1.6-1.3-3.5-2-5.5-2.1h-1c-5.1,0-9.4,3.8-9.9,8.9c-0.3,2.5,0.4,4.9,2,6.8
				c-0.4-0.4-0.8-0.7-1.1-1.1c-1.7-2.1-2.5-4.7-2.2-7.3c0.5-5.1,4.8-8.9,9.9-8.9h1C244.4,42.4,246.8,43.7,248.5,45.8z"/>
			<polygon class="st4" points="135.8,8.2 132.4,36.2 130.1,36.7 133.5,8.7 133.3,7.3 135.6,6.8 			"/>
			<polygon class="st4" points="143.8,44 141.5,44.4 139.9,36.5 139.8,36.1 142.1,35.6 			"/>
			<path class="st4" d="M90.2,50.6c-0.1-0.2-0.3-0.4-0.4-0.6L75.1,26.1l1.9-0.9l11.2,18.4L90.2,50.6z"/>
			<path class="st4" d="M288.4,69.7l-5.1-1.3c-0.2-0.7-0.4-1.3-0.8-1.8l4.2,1.1L288.4,69.7z"/>
			<g>
				<path class="st4" d="M283.4,78.5l-6.8-1.6c0.1-0.5,0.2-1,0.2-1.5l5.4,1.3c0.8-2.2,1-4.6,0.6-6.9C284,72.2,284.3,74.9,283.4,78.5
					z"/>
			</g>
			<path class="st4" d="M101.7,38.6l-3.4-5.1l-6-8.8l4.6,18.1l6-2.5L101.7,38.6z M97.6,41.5L97.6,41.5l-3-11.6l1.5,2.2l2.9,4.2
				l1.8,2.7l0.1,0.1l0.5,0.8L97.6,41.5z"/>
			<path class="st4" d="M46.5,73.7l-8.3-19.3l-4,4.2L33,59.8l-0.6,0.7L37,71.1l1.5,3.3l1.4,3.1l-13-10.2l-0.2-0.2l-4,5.3l-0.6,0.8
				L51.2,96l0.6-0.7l1.1-1.4l2.9-3.7l-11.6-9.3l4.2,1.3l4.6,1.5l6.7,2.2l0.6-0.6l1.2-1.3l3.3-3.7L46.5,73.7z M54.4,90.4l-2.3,2.8
				L51,94.6L23.5,73l1-1.4l2.4-3.1l13.9,10.9L54.4,90.4z M60.3,83.7l-1,1.1L50.8,82l-9.2-3l-3-6.7l-5.2-11.7l1.1-1.2l3.3-3.4
				l7.6,18.1l0.1,0.3l17.4,6.3L60.3,83.7z"/>
			<path class="st4" d="M79.2,67.3L56.3,38.1l-0.5,0.3l-3.3,2.7l-1.4,1.1l-0.7,0.6l3.9,4.8l3.5,4.3l3,3.6l-14.3-9.2l-0.2-0.1
				l-0.2-0.1l-2.7,2.6l-1.7,1.7l-0.4,0.4L65,77.3l1,1.2l0.6-0.6l4.3-3.7L70.7,74l-7.6-9.2l3.7,2.1l4.7,2.7l3.2,1.8l0.7-0.6l4.1-3.1
				L79.2,67.3z M76.1,69l-1.5,1.2l-4.9-2.8l-10.8-6.1l10.6,12.8l-1.7,1.5l-0.2,0.2l-0.1,0.1l-1.4,1.3L42.6,50.8l1.2-1.1l2.5-2.3
				l19.2,12.4l-0.2-0.2l-8.4-10.3L51.8,43l1.4-1.1l3-2.4L65,50.7l0.8,1l12.4,15.7L76.1,69z"/>
			<path class="st4" d="M198.4,11.4l-1.9-0.5l-1.4-0.4l-2.2,9l-6.8,28l0.6,0.2l1.8,0.5l4.8,1.2l9.8-36.8L198.4,11.4z M192.7,48.2
				l-3.9-1l-1.5-0.4l2.9-12.1l3.6-14.9l2-8h0.1l0.4,0.1l1.9,0.5l3.8,1L192.7,48.2z"/>
			<path class="st4" d="M218.8,18l-7.8-2.8l-3.1,8.7L198.3,51l1.2,0.5l1.6,0.7l14.4,5.7l2.8-6.7l-10.6-4.1L218.4,19L218.8,18z
				 M206.7,47.2l-0.2,0.5v0.1l10.6,4.1l-2.1,4.9l-13.6-5.4l-1.6-0.7l-0.2-0.1v-0.1l9.3-26.1l2.8-7.8l5.9,2.1L206.7,47.2z"/>
			<path class="st4" d="M239.8,33.6c-0.2,0-0.4,0-0.7,0.1c0.3,0,0.6-0.1,0.9-0.1H239.8z M255.9,39.8c-0.2-0.2-0.4-0.5-0.6-0.7
				c-3.3-3.6-7.8-5.9-12.7-6.4c-0.6-0.1-1.3-0.1-1.9-0.1c-10.1-0.1-18.5,7.6-19.5,17.6c-0.1,0.7-0.1,1.3-0.1,2s0,1.3,0.1,1.9
				c0.3,3.2,1.4,6.2,3.2,8.9c0.3,0.5,0.7,1,1.1,1.4c0.4,0.4,0.6,0.7,0.9,1c3.2,3.4,7.6,5.6,12.3,6c0.6,0.1,1.3,0.1,1.9,0.1
				c10.1,0.1,18.6-7.5,19.6-17.5C260.7,48.9,259.2,43.8,255.9,39.8z M259.3,53.9c-0.4,3.8-2,7.3-4.4,10c-0.1,0.1-0.2,0.2-0.3,0.3
				l-1.6,1.6c-0.1,0.1-0.2,0.1-0.2,0.2c-0.1,0.1-0.2,0.2-0.3,0.3c-0.1,0.1-0.2,0.2-0.4,0.3c-0.1,0.1-0.2,0.2-0.4,0.3
				c-1.3,1-2.8,1.9-4.4,2.5c-0.3,0.1-0.5,0.2-0.8,0.3c-1.1,0.3-2.1,0.6-3.3,0.8c-0.4,0.1-0.8,0.1-1.1,0.1h-3c-0.2,0-0.3,0-0.5-0.1
				h-0.4c-0.1,0-0.2,0-0.4-0.1c-0.2,0-0.5-0.1-0.8-0.1c-0.2,0-0.4-0.1-0.6-0.1c-0.2,0-0.4-0.1-0.6-0.1c-2-0.5-4-1.4-5.8-2.6
				c-0.4-0.2-0.7-0.5-1-0.7c-0.2-0.1-0.4-0.3-0.6-0.5c-0.2-0.2-0.4-0.3-0.6-0.5l-1.2-1.2c-0.2-0.2-0.4-0.5-0.6-0.7
				c-0.1-0.2-0.3-0.3-0.4-0.5c-0.3-0.4-0.6-0.9-0.9-1.3c-0.2-0.2-0.3-0.5-0.5-0.8s-0.3-0.6-0.5-0.9c-1.5-3.1-2.2-6.6-1.8-10
				c0.1-0.7,0.2-1.3,0.3-2c0.7-3.5,2.4-6.6,4.8-9c0.5-0.5,1-1,1.5-1.4c0.2-0.2,0.4-0.3,0.5-0.4c0.2-0.1,0.3-0.3,0.5-0.4
				c0.2-0.1,0.3-0.2,0.5-0.4c1.6-1.1,3.4-1.9,5.4-2.5c0.3-0.1,0.5-0.1,0.8-0.2c0.4-0.1,0.7-0.2,1.1-0.2c0,0,0.1,0,0.1,0
				c0.1,0,0.2,0,0.2,0c0.1,0,0.2,0,0.2,0c0,0,0.1,0,0.2,0c0,0,0.1,0,0.1,0c0.1,0,0.3-0.1,0.4-0.1h0.1c0,0,0,0,0,0c0.1,0,0.2,0,0.3,0
				h0c0.3,0,0.6-0.1,0.9-0.1h0.1c0,0,0,0,0,0c0,0,0,0,0,0h1.5c0.1,0,0.3,0,0.4,0c0,0,0.1,0,0.1,0c0,0,0,0,0,0c0,0,0,0,0,0
				c0,0,0,0,0,0c2.8,0.3,5.4,1.2,7.8,2.6c0.7,0.4,1.4,0.9,2.1,1.4c0,0,0,0,0.1,0c2.3,1.7,4,3.9,5.3,6.3c0,0.1,0.1,0.1,0.1,0.2
				c0.1,0.1,0.1,0.3,0.2,0.4c0,0.1,0.1,0.1,0.1,0.2c0.2,0.4,0.4,0.8,0.5,1.3C259.2,48.5,259.5,51.2,259.3,53.9z M239.8,33.6
				c-0.2,0-0.4,0-0.7,0.1c0.3,0,0.6-0.1,0.9-0.1H239.8z"/>
			<path class="st4" d="M251.4,45.9c-0.1-0.2-0.2-0.3-0.3-0.5c-0.1-0.1-0.1-0.2-0.2-0.3c-0.2-0.3-0.4-0.5-0.6-0.8
				c-2.1-2.6-5.1-4.2-8.4-4.5c-0.4,0-0.8-0.1-1.2-0.1c-0.8,0-1.6,0.1-2.3,0.2c-0.4,0.1-0.8,0.2-1.2,0.3c-0.2,0-0.3,0.1-0.5,0.1
				c-0.3,0.1-0.6,0.2-0.8,0.3c-0.2,0.1-0.4,0.2-0.7,0.3c-0.1,0-0.2,0.1-0.3,0.2c-0.2,0.1-0.3,0.2-0.5,0.3c-0.2,0.1-0.3,0.2-0.5,0.3
				c-0.3,0.2-0.6,0.4-0.9,0.6c-0.1,0.1-0.1,0.1-0.2,0.2l-0.1,0.1c0,0,0,0-0.1,0.1c-0.1,0-0.1,0.1-0.2,0.2l-0.1,0.1l0,0l-0.1,0
				c0,0-0.1,0.1-0.2,0.2c-0.1,0.1-0.2,0.2-0.3,0.3c-0.1,0.1-0.2,0.2-0.3,0.3c0,0-0.1,0.1-0.1,0.2c-0.1,0.1-0.1,0.2-0.2,0.3
				c0,0,0,0,0,0c-0.2,0.2-0.4,0.4-0.5,0.7c0,0.1-0.1,0.2-0.1,0.3c0,0.1-0.1,0.1-0.1,0.2c0,0,0,0,0,0l0,0l0,0
				c-0.1,0.1-0.1,0.1-0.2,0.2c-0.3,0.5-0.6,1-0.8,1.5c-0.1,0.2-0.2,0.3-0.2,0.5c-0.1,0.2-0.1,0.3-0.2,0.5c-0.1,0.4-0.3,0.8-0.4,1.3
				c-0.1,0.3-0.1,0.5-0.2,0.8c0,0,0,0.1,0,0.1c0,0,0,0,0,0s0,0,0,0c0,0.2,0,0.3-0.1,0.5v0.3c-0.2,3.1,0.7,6.3,2.7,8.7
				c0.1,0.2,0.3,0.3,0.4,0.5c0,0,0,0,0,0c1.5,1.6,3.4,2.9,5.5,3.5c0.2,0,0.3,0.1,0.5,0.1c0.4,0.1,0.8,0.2,1.1,0.2h0.3c0,0,0,0,0,0
				c0.1,0,0.1,0,0.2,0c0.1,0,0.2,0.1,0.3,0.1h0.2c0,0,0,0,0,0c0.2,0,0.4,0,0.6,0.1c0,0,0,0,0,0c0.1,0,0.2,0,0.2,0h0.3
				c0.5,0,0.9,0,1.3-0.1c0.5-0.1,1-0.2,1.5-0.3c1.6-0.4,3.1-1.1,4.3-2.1c0,0,0,0,0,0c0.3-0.2,0.6-0.5,0.9-0.8c0,0,0.1-0.1,0.1-0.1
				c0.1-0.1,0.2-0.2,0.4-0.4c0.2-0.2,0.3-0.4,0.5-0.5c1.6-1.9,2.7-4.2,2.9-6.8c0-0.4,0.1-0.8,0.1-1.3v-0.1c0-0.4,0-0.8,0-1.2
				c0,0,0,0,0,0C252.7,49.1,252.2,47.4,251.4,45.9z M240.7,40.6c0.4,0,0.8,0,1.1,0.1c3,0.3,5.8,1.8,7.7,4.1c0.5,0.6,0.9,1.2,1.2,1.9
				c0,0,0,0,0,0c0,0,0,0,0.1,0c0,0.1,0.1,0.2,0.1,0.3c0,0,0,0,0,0c0,0.1,0,0.2,0.1,0.2c0.9,1.9,1.2,3.9,1.1,5.8
				c-0.6,5.8-5.5,10.3-11.4,10.2c-0.4,0-0.8,0-1.1-0.1c-1.7-0.2-3.3-0.7-4.8-1.6l-0.3-0.2c-0.8-0.5-1.4-1.1-2.1-1.7
				c-0.1-0.1-0.2-0.2-0.2-0.2s0,0-0.1-0.1l-0.1-0.1c-0.1-0.1-0.1-0.1-0.2-0.2c-1.9-2.3-2.8-5.3-2.5-8.3
				C229.9,45,234.8,40.6,240.7,40.6z"/>
			<path class="st2" d="M251,47.3c0,0-0.1-0.1-0.1-0.2c0,0,0,0,0,0c0-0.1-0.1-0.1-0.1-0.2c0-0.1-0.1-0.1-0.1-0.2
				c-0.4-0.6-0.7-1.2-1.1-1.8c-1.9-2.4-4.7-3.8-7.7-4.1c-0.4,0-0.8-0.1-1.1-0.1c-5.9,0-10.8,4.4-11.3,10.2c-0.3,3,0.6,6,2.5,8.3
				l0.1,0.1c0.1,0.1,0.1,0.1,0.1,0.1s0.1,0.1,0.2,0.2c0.7,0.6,1.3,1.2,2.1,1.7l0.3,0.2c1.5,0.9,3.1,1.4,4.8,1.6
				c0.3,0.1,0.7,0.1,1.1,0.1c5.9,0.1,10.8-4.4,11.4-10.2C252.2,51.2,251.9,49.2,251,47.3z M243,43.7h-1c-5.1,0-9.4,3.8-9.9,8.9
				c-0.3,2.5,0.4,4.9,2,6.8c-0.4-0.4-0.8-0.7-1.1-1.1c-1.7-2.1-2.5-4.7-2.2-7.3c0.5-5.1,4.8-8.9,9.9-8.9h1c2.7,0.3,5.1,1.6,6.8,3.7
				C246.9,44.5,245,43.8,243,43.7z"/>
			<path class="st4" d="M138.3,37.1l-10.5,2l3.8-30.4l-0.2-0.9l-1.6,0.4L126.1,9l-18.4,4.1l1.9,7.1l0.3-0.1l2.3-0.5l10.1-2.2
				l-0.1,1.1l-3.7,28.6l-0.1,0.7l-0.1,0.8l1.1-0.2l2.3-0.5l18-3.5L138.3,37.1z M119.6,47.4l0-0.1l3.6-29l0.2-1.2l0.1-0.9L112,18.7
				l-1.7,0.4V19l-1.4-5.1l1.7-0.4l20-4.5l-3.9,31.4l10.8-2.2h0.1l1.1,5.4l-16.8,3.3L119.6,47.4z"/>
			<path class="st4" d="M286.8,66.5l-3.9-4.6l-0.3-0.6l-0.2-0.3l-0.2-0.1l-0.7-0.2l-0.1-0.7v-0.3l-3.9-4.5l-0.6-0.7v6.1
				c-2-1.7-4.5-2.6-7.1-2.7c-2.5,0-4.8,0.9-6.7,2.6c-4.9,4.4-3.8,9.1-1.7,15.3c1.8,5.4,1.4,6.5,0.2,7.6c-0.5,0.5-1.2,0.7-1.8,0.8
				c-1.3-0.1-2.5-0.8-3.3-1.9c-2-2.2-2.9-4.8-3.1-8.7v-1.2l-1.2,0.3l-5,1.1l-0.9,0.2v0.9c0.1,4.6,1.8,9,4.8,12.4
				c2.2,2.7,5.5,4.4,9.1,4.5c2.5,0,5-1,6.8-2.7c4.4-3.9,4-8.5,1.9-15c-2-5.7-1.6-6.7-0.4-7.8c0.5-0.4,1.1-0.7,1.7-0.7
				c1.2,0.1,2.3,0.7,3,1.6c1.4,1.5,1.9,3.6,1.4,5.5l-0.4,1.1l1.1,0.3l5,1.2l0.9,0.2l0.3-0.9c1-3.1,0.6-6.5-1-9.3l6.1,1.2H286.8z
				 M275.7,72.1v-0.4c0.1-0.4,0.1-0.8,0.1-1.1c0-1.6-0.7-3.1-1.9-4.3c-0.1-0.1-0.2-0.3-0.3-0.4c-0.1-0.1-0.2-0.2-0.3-0.3
				c-0.9-0.8-2-1.2-3.1-1.3c-0.9,0-1.7,0.3-2.4,0.9c-1,0.8-1.5,1.7-1.4,3v0.1c0,0.7,0.1,1.4,0.4,2.4c0.2,0.9,0.6,2.1,1,3.4
				c0.8,2.3,1.3,4.2,1.4,6c0,0.2,0,0.5,0.1,0.7V82c-0.1,2.4-1.1,4.3-3.1,6.1c-1.7,1.6-3.9,2.4-6.1,2.5h0c-3-0.1-5.8-1.5-7.8-3.6
				c0,0-0.1-0.1-0.1-0.1c-0.1-0.1-0.3-0.3-0.4-0.5c-1.1-1.2-2-2.5-2.7-3.9c-0.2-0.5-0.5-1-0.6-1.5c-0.8-2-1.2-4.1-1.2-6.2l5-1.1
				c0,0,0,0,0,0c0.2,3.7,1.1,6.7,3.4,9.3c1,1.3,2.5,2.1,4.1,2.2h0.4c0.2,0,0.4-0.1,0.6-0.1c0.6-0.2,1.2-0.5,1.6-0.9
				c1.7-1.5,1.9-3.2,0.1-8.7c-2.2-6.5-2.8-10.4,1.4-14.2c1.2-1.1,2.8-1.9,4.5-2.2c0.2,0,0.5-0.1,0.7-0.1h0.8c0.4,0,0.8,0,1.2,0.1
				c1.5,0.2,2.9,0.8,4.2,1.6c0.4,0.2,0.7,0.5,1.1,0.8c0.5,0.4,1.1,1,1.5,1.5c0.6,0.6,1.1,1.2,1.5,2c0,0,0,0,0,0.1
				c0.6,1.1,1.1,2.2,1.3,3.5c0.1,0.2,0.1,0.4,0.1,0.5c0,0.2,0.1,0.4,0.1,0.5v0.9c0.1,1.2-0.1,2.4-0.4,3.6c0,0,0,0,0,0l-5-1.2
				C275.6,72.6,275.6,72.3,275.7,72.1z M278.4,60.7l-0.4-0.5l-0.1-2.8l0.5,0.6l1.9,2.1l0.2,1.3l1.2,0.4l0.1,0.1l2.2,2.6l-2.8-0.6
				L278.4,60.7z"/>
			<path class="st4" d="M88.9,51.3l-15-24.5l-6.2,3.7L67,30.9l13.2,21.2l0.1,0.2v0.1c0.7,0.8,1.2,1.9,1.3,3c0,0.1,0,0.1,0,0.2
				c-0.1,0.6-0.4,1.2-0.8,1.6L79.3,58l-1.6,0.9L77,59.3l4.2,6.4l0.4,0.6l4-2.4c1.4-0.8,2.6-1.9,3.5-3.2c0.2-0.3,0.4-0.7,0.6-1.1
				c0.2-0.5,0.4-1,0.5-1.5C90.7,55.7,90.2,53.3,88.9,51.3z M89.1,57.9c-0.1,0.5-0.3,0.9-0.5,1.4c0,0.1,0,0.1-0.1,0.2
				c-0.8,1.5-2,2.8-3.5,3.6l-1.8,1.1l-0.7,0.4L81.8,65l-3.5-5.3l1.5-0.9l1.5-0.9l0.1-0.1c0.8-0.7,1.3-1.8,1.2-2.9
				c-0.1-0.7-0.3-1.4-0.7-2c-0.3-0.5-0.6-0.8-0.7-1.1L81,51.6l-3.2-5.2l-9.5-15.2v-0.1l1.6-0.9l3.7-2.2L88,51.8
				C89.2,53.6,89.6,55.8,89.1,57.9z"/>
			<path class="st4" d="M116.3,49l-0.1-0.2L94.6,17.2l-0.1-0.1l-10,4.2l9.8,37.2l6.7-2.9v-0.3L99.6,49l0.8-0.4l1.6-0.7l3.1-1.3
				l4.2,5.4l7.1-2.9L116.3,49z M110.9,50.3l-1.2,0.5l-3.8-4.9l-0.4-0.5l-7,3L100,55l-4,1.7l-1,0.4l-9.2-35.2l0.8-0.3l7.6-3.2
				l20.7,30.2l0.1,0.2L110.9,50.3z"/>
			<path class="st2" d="M100.9,39.1l-0.1-0.1L99,36.3l-2.9-4.2l-1.5-2.2l3,11.6l3.8-1.6L100.9,39.1z M98.1,40.3l-1.5-6l3.1,5.3
				L98.1,40.3z"/>
			<g>
				<path class="st4" d="M268.2,92.3c-6.2,5.1-12.2,0.5-12.9-0.2c4,1.9,8.8,1.4,12.4-1.4c1.9-1.7,3.2-4.1,3.6-6.6
					C271.8,87.2,270.6,90.3,268.2,92.3z"/>
			</g>
			<g>
				<path class="st4" d="M272.3,67.6c-0.7-0.1-1.4,0.1-2,0.5c-0.9,0.6-1.5,1.7-1.4,2.9c-1.1-2.4,0-3.6,0.2-3.8
					c0.2-0.1,0.4-0.3,0.6-0.4C270.7,66.3,271.9,66.7,272.3,67.6z"/>
			</g>
			<path class="st4" d="M260.7,62.4c-0.1,0.2-0.3,0.4-0.4,0.6c-0.3,0.4-0.5,0.9-0.7,1.4c-2.4,3.8-5.9,6.6-10.1,8.2
				c0,0-1.4,0.4-2.9,0.8c-1.3,0.3-2.6,0.4-3.9,0.4c-0.7,0-1.4,0-2-0.1c-5.3-0.5-10.5-2.5-13.7-6.2c3.1,2.9,7.8,4.4,12.4,4.8
				c0.7,0.1,1.3,0.1,2,0.1c4.8,0,9.4-1.7,13-4.8c8.2-7.2,9.1-19.6,2-27.8C262.6,45.6,264.3,54.7,260.7,62.4z"/>
			<path class="st2" d="M290.6,87.4c-2,0-3.5,1.6-3.6,3.5c0,2,1.6,3.5,3.5,3.6s3.5-1.6,3.6-3.5v-0.2
				C294.1,88.8,292.5,87.4,290.6,87.4z M292.5,92.8c-0.5,0.5-1.2,0.8-1.9,0.8c-1.5,0-2.7-1.2-2.7-2.7s1.2-2.7,2.7-2.7
				s2.7,1.2,2.7,2.7C293.3,91.7,293,92.3,292.5,92.8z"/>
			<path class="st2" d="M291.3,91.4c0.5-0.2,0.8-0.7,0.8-1.2c0-0.3-0.1-0.6-0.3-0.8c-0.3-0.3-0.7-0.4-1.1-0.4h-1.4v3.7h0.8v-1.2h0.4
				l0.8,1.2h0.9L291.3,91.4z M290.7,90.7h-0.6v-1h0.6c0.4,0.1,0.6,0.2,0.6,0.5S291.1,90.7,290.7,90.7z"/>
			<path class="st4" d="M175,7.3l-0.8-0.2l-2.6,8.8l-1.6,5.2l-1.4,4.5L165.8,7l-0.1-0.4V6.4l-11-0.3l-2.9,38.6l7.3-0.1h0.2v-0.1
				l1.6-18l0.9,5.6l1.4,8l0.8,4.6l2.6,0.2l3.2,0.2h0.4l5.3-17.5l-0.4,6.8l-0.5,8.1l-0.2,2.8l0.9,0.1l5.2,0.8l1.6,0.2l2-37.6V8.5
				L175,7.3z M181.3,45.4l-0.2,0l-3.6-0.6l-2-0.3v-0.1l0.3-4.6l0.1-1l0.5-8.2l0.7-11.3l-0.1,0.4l0,0.1L169.5,44l-2.7-0.2l-1.9-0.1
				l-1.2-7.2l-1.1-6.2l-0.3-1.8l-1.7-9.6l-2.2,24.7h-5.5l2-26.4L155.7,7h0.2l2.5,0.1l6.4,0.2l3,19.9l0.4,2.9l0.1-0.2l3.4-11.4
				l3.1-10.1h0.1l2.1,0.3l5.5,0.6h0.1l0.5,0.1L181.3,45.4z"/>
		</g>
	</g>
</g>
</svg>
