<svg width="33" height="32" viewBox="0 0 33 32" fill="none" xmlns="http://www.w3.org/2000/svg">
<g clip-path="url(#clip0_106_141)">
<path d="M24.5 4C25.5609 4 26.5783 4.42143 27.3284 5.17157C28.0786 5.92172 28.5 6.93913 28.5 8V24C28.5 25.0609 28.0786 26.0783 27.3284 26.8284C26.5783 27.5786 25.5609 28 24.5 28H8.5C7.43913 28 6.42172 27.5786 5.67157 26.8284C4.92143 26.0783 4.5 25.0609 4.5 24V8C4.5 6.93913 4.92143 5.92172 5.67157 5.17157C6.42172 4.42143 7.43913 4 8.5 4H24.5ZM24.5 6.66667H8.5C8.14638 6.66667 7.80724 6.80714 7.55719 7.05719C7.30714 7.30724 7.16667 7.64638 7.16667 8V24C7.16667 24.3536 7.30714 24.6928 7.55719 24.9428C7.80724 25.1929 8.14638 25.3333 8.5 25.3333H24.5C24.8536 25.3333 25.1928 25.1929 25.4428 24.9428C25.6929 24.6928 25.8333 24.3536 25.8333 24V8C25.8333 7.64638 25.6929 7.30724 25.4428 7.05719C25.1928 6.80714 24.8536 6.66667 24.5 6.66667ZM11.1667 13.3333C11.4932 13.3334 11.8085 13.4533 12.0525 13.6703C12.2965 13.8873 12.4525 14.1863 12.4907 14.5107L12.5 14.6667V21.3333C12.4996 21.6732 12.3695 22 12.1362 22.2472C11.9029 22.4943 11.5841 22.643 11.2448 22.6629C10.9056 22.6828 10.5715 22.5724 10.3109 22.3543C10.0503 22.1362 9.8828 21.8268 9.84267 21.4893L9.83333 21.3333V14.6667C9.83333 14.313 9.97381 13.9739 10.2239 13.7239C10.4739 13.4738 10.813 13.3333 11.1667 13.3333ZM15.1667 12C15.4789 12 15.7813 12.1095 16.0211 12.3096C16.2608 12.5096 16.4228 12.7875 16.4787 13.0947C16.747 12.9391 17.0244 12.7997 17.3093 12.6773C18.1987 12.2973 19.5307 12.088 20.7333 12.4653C21.364 12.6653 21.9973 13.0387 22.4667 13.6747C22.8867 14.2413 23.1133 14.9307 23.1587 15.7053L23.1667 16V21.3333C23.1663 21.6732 23.0362 22 22.8029 22.2472C22.5696 22.4943 22.2507 22.643 21.9115 22.6629C21.5722 22.6828 21.2382 22.5724 20.9776 22.3543C20.717 22.1362 20.5495 21.8268 20.5093 21.4893L20.5 21.3333V16C20.5 15.56 20.3933 15.3547 20.324 15.26C20.2245 15.1362 20.0873 15.0482 19.9333 15.0093C19.4693 14.8627 18.8013 14.94 18.3573 15.1293C17.6907 15.4147 17.08 15.8627 16.664 16.2773L16.5 16.4533V21.3333C16.4996 21.6732 16.3695 22 16.1362 22.2472C15.9029 22.4943 15.5841 22.643 15.2448 22.6629C14.9056 22.6828 14.5715 22.5724 14.3109 22.3543C14.0503 22.1362 13.8828 21.8268 13.8427 21.4893L13.8333 21.3333V13.3333C13.8333 12.9797 13.9738 12.6406 14.2239 12.3905C14.4739 12.1405 14.813 12 15.1667 12ZM11.1667 9.33333C11.5203 9.33333 11.8594 9.47381 12.1095 9.72386C12.3595 9.97391 12.5 10.313 12.5 10.6667C12.5 11.0203 12.3595 11.3594 12.1095 11.6095C11.8594 11.8595 11.5203 12 11.1667 12C10.813 12 10.4739 11.8595 10.2239 11.6095C9.97381 11.3594 9.83333 11.0203 9.83333 10.6667C9.83333 10.313 9.97381 9.97391 10.2239 9.72386C10.4739 9.47381 10.813 9.33333 11.1667 9.33333Z" fill="white"/>
</g>
<defs>
<clipPath id="clip0_106_141">
<rect width="32" height="32" fill="white" transform="translate(0.5)"/>
</clipPath>
</defs>
</svg>
