<svg xmlns="http://www.w3.org/2000/svg" viewBox="0 0 100 98.52"><defs><style>.cls-1{fill:#1a1818;}</style></defs><g id="Layer_2" data-name="Layer 2"><g id="Layer_1-2" data-name="Layer 1"><path class="cls-1" d="M15.28,48.82l.05,0v-.17a39.65,39.65,0,0,1,46.74-39c.79-1.68,1.47-3.15,2-4.39A44.32,44.32,0,0,0,10.62,48.61c0,1.18.05,2.35.14,3.51C12.17,51,13.67,49.94,15.28,48.82Z"/><path class="cls-1" d="M79.74,17.75c1-1.34,2-2.61,2.77-3.81-.85-.68-1.72-1.32-2.62-1.94l-2,4.33C78.52,16.79,79.14,17.26,79.74,17.75Z"/><path class="cls-1" d="M90.69,31.56A39.6,39.6,0,0,1,71.17,84.74a25.35,25.35,0,0,0-.27,4.61c.11.16.21.32.31.48A44.28,44.28,0,0,0,93.89,27.5C92.86,28.86,91.79,30.22,90.69,31.56Z"/><path class="cls-1" d="M53.77,88.2a38.89,38.89,0,0,1-11.56-2.08Q41,88.25,39.8,90.26a44.06,44.06,0,0,0,14.35,2.66A27.43,27.43,0,0,1,53.77,88.2Z"/><path class="cls-1" d="M96.37,1.69a4.29,4.29,0,0,0-4.91,3.58C90.4,12,80.8,24.72,67.51,37.61a42.94,42.94,0,0,0-4.44-.23C71.78,19.63,77.77,6.32,77.89,6.06A4.3,4.3,0,0,0,70,2.54C69.92,2.82,63,18.28,53.16,38c-1.81.21-3.72.46-5.75.78-3.95.61-14.75,3.13-29.69,13.52C4.36,61.61-1.49,69.31.32,75.21c.81,2.63,3.37,5.8,11,5.89,6.92.1,15.23-3.17,23.27-7.6-3.11,5.56-6.26,11-9.38,16.1a4.31,4.31,0,0,0,1.44,5.91,4.19,4.19,0,0,0,2.23.63,4.28,4.28,0,0,0,3.67-2.06c5.75-9.39,11.58-19.87,17.07-30.24,6.55-4.71,11.92-9.21,14.77-11.68,1.87-1.62,3.78-3.35,5.71-5.14a2.05,2.05,0,0,1,.78.57c.2.32.27,2-2,5.83A79.21,79.21,0,0,0,59,79.26c-1.85,9.88-1,16.1,2.39,18.49a4.3,4.3,0,0,0,5.52-6.54c-1.2-3.59,1-19.85,9.24-33.31,3.77-6.19,4.4-11.26,1.85-15.07a9.52,9.52,0,0,0-1.64-1.89C87.92,29.3,98.47,16,100,6.61A4.3,4.3,0,0,0,96.37,1.69ZM11.55,72.5h-.16a11.79,11.79,0,0,1-2.53-.24c.91-1.88,4.37-6.34,13.77-12.87,13.44-9.35,22.91-11.55,25.84-12-1.8,3.52-3.66,7.12-5.56,10.74C30.05,67.13,18.59,72.5,11.55,72.5Z"/></g></g></svg>