<svg width="55" height="54" viewBox="0 0 55 54" fill="none" xmlns="http://www.w3.org/2000/svg">
<path d="M8.75549 26.755L8.7809 26.7366C8.7809 26.7067 8.7809 26.6745 8.7809 26.6423C8.78702 20.9934 11.0427 15.5776 15.053 11.583C19.0633 7.58845 24.5007 5.34131 30.1725 5.33461C31.4657 5.33432 32.7563 5.45061 34.0284 5.68207C34.4512 4.78006 34.8186 3.98621 35.1259 3.31891C33.4972 2.97628 31.8371 2.80352 30.1725 2.80347C23.8271 2.81138 17.7439 5.32559 13.2573 9.79458C8.77064 14.2636 6.24685 20.3225 6.23951 26.6423C6.23951 27.2796 6.26493 27.9078 6.31576 28.5314C7.06431 27.9492 7.87525 27.3556 8.75549 26.755Z" fill="white"/>
<path d="M43.5586 10.0449C44.1131 9.32234 44.6145 8.63893 45.0534 7.99694C44.5914 7.63184 44.1185 7.28362 43.6349 6.95227C43.3299 7.61037 42.9672 8.39272 42.5513 9.28323C42.8964 9.52714 43.2321 9.78102 43.5586 10.0449Z" fill="white"/>
<path d="M49.4708 17.4727C50.8447 20.3356 51.5553 23.4692 51.5502 26.6423C51.5458 30.7488 50.3521 34.7668 48.1121 38.2144C45.8722 41.662 42.6811 44.3928 38.9218 46.0792C38.7978 46.8984 38.7507 47.7272 38.7808 48.5551C38.8394 48.641 38.8948 48.7285 38.9472 48.8174C43.4102 47.0558 47.2396 44.0005 49.9396 40.0469C52.6397 36.0934 54.086 31.4237 54.0915 26.6423C54.0962 22.6782 53.1025 18.7762 51.2013 15.2936C50.6445 16.023 50.0646 16.7524 49.4708 17.4727Z" fill="white"/>
<path d="M29.5325 47.9407C27.4087 47.8807 25.306 47.5038 23.2945 46.8224C22.8556 47.5894 22.422 48.3319 21.9938 49.0498C24.4793 49.9505 27.0982 50.4327 29.7427 50.4764C29.5986 49.6389 29.5282 48.7904 29.5325 47.9407Z" fill="white"/>
<path d="M52.539 1.40444C51.9302 1.30838 51.3081 1.45708 50.8094 1.81783C50.3107 2.17857 49.9763 2.72183 49.8798 3.32811C49.3091 6.92233 44.127 13.7932 36.9418 20.7263C36.1452 20.6424 35.3447 20.6002 34.5437 20.5997C39.2522 11.0573 42.4866 3.89416 42.556 3.7561C42.8072 3.19606 42.8252 2.55966 42.6061 1.98641C42.3869 1.41316 41.9485 0.949841 41.3869 0.69802C40.826 0.450779 40.1896 0.434425 39.6166 0.65253C39.0436 0.870636 38.5804 1.30551 38.328 1.86235C38.261 2.01421 34.5067 10.3302 29.2091 20.961C28.2341 21.076 27.2014 21.2141 26.1039 21.3821C23.9715 21.7111 18.1378 23.0687 10.0701 28.6557C2.85717 33.6512 -0.3057 37.7908 0.67389 40.9616C1.10824 42.3791 2.49445 44.0818 6.59533 44.1324C10.3358 44.1854 14.8248 42.4297 19.1636 40.0412C17.4863 43.0325 15.7859 45.9572 14.1017 48.7023C13.7803 49.2246 13.6801 49.8525 13.823 50.4482C13.9659 51.044 14.3403 51.5589 14.8641 51.88C15.2276 52.1025 15.6458 52.2204 16.0724 52.2206C16.4709 52.2223 16.8632 52.1212 17.2109 51.9273C17.5587 51.7334 17.8501 51.4531 18.057 51.1138C21.1598 46.0515 24.3088 40.4232 27.2707 34.8478C30.8078 32.3166 33.7096 29.8913 35.2483 28.5636C36.2579 27.6938 37.293 26.7642 38.335 25.8024C38.4976 25.8696 38.6411 25.9754 38.7531 26.1107C38.8617 26.2787 38.901 27.2083 37.6511 29.247C35.0842 33.533 33.2912 38.2337 32.3534 43.1361C31.3577 48.4561 31.792 51.8018 33.6449 53.0835C34.0318 53.3547 34.4934 53.5002 34.9665 53.5C35.3415 53.5013 35.7112 53.4118 36.0437 53.239C36.3762 53.0662 36.6614 52.8154 36.8748 52.5082C37.1843 52.0657 37.3288 51.5293 37.2832 50.9919C37.2377 50.4545 37.0049 49.9498 36.6253 49.5652C35.9807 47.6346 37.1821 38.8907 41.6156 31.6516C43.6534 28.322 43.9907 25.593 42.616 23.5404C42.3652 23.1678 42.0687 22.8277 41.7335 22.528C47.9714 16.2669 53.6711 9.08761 54.4681 4.05984C54.5188 3.75906 54.509 3.45125 54.4391 3.15431C54.3693 2.85736 54.2409 2.57722 54.0614 2.33014C53.8819 2.08306 53.6549 1.87398 53.3935 1.71506C53.1322 1.55615 52.8417 1.45056 52.539 1.40444ZM6.73163 39.4958H6.64152C6.18229 39.4993 5.72394 39.4553 5.2738 39.3647C5.76821 38.3522 7.63498 35.9545 12.7131 32.4409C19.9723 27.4131 25.0851 26.2281 26.6677 25.9611C25.6973 27.8549 24.6923 29.7924 23.6642 31.739C16.7193 36.6034 10.5298 39.4958 6.73163 39.4958Z" fill="white"/>
</svg>
