<svg xmlns="http://www.w3.org/2000/svg" viewBox="0 0 320.05 149.98"><defs><style>.cls-1{fill:#fff;}</style></defs><g id="Layer_2" data-name="Layer 2"><g id="Layer_1-2" data-name="Layer 1"><path class="cls-1" d="M106.1,28C105.11,9.12,92.48.11,78.53.11A38,38,0,0,0,54,9.55C48.33,2.85,41.4,0,34.92,0,24.82,0,16.14,7,16.14,17A20.53,20.53,0,0,0,17.45,24c1.88,5.05,7.92,10,15.5,10,4.94,0,10.65-2.19,16.37-7.9a70.13,70.13,0,0,1,3.17,21.19c0,13.41-3.61,26.48-11,32A17.47,17.47,0,0,1,31,82.61,17.53,17.53,0,0,1,13.5,68.33,18.29,18.29,0,0,1,13.06,64c0-5.6,2.32-11.64,7.26-13.73a12.47,12.47,0,0,0-2.87,8.13,13.6,13.6,0,0,0,1.44,6.26,13.82,13.82,0,0,0,12.52,7.91c6.48,0,12.74-4.62,12.74-13.07a24.53,24.53,0,0,0-.32-3.74c-1.77-8.89-9.46-14-18-14a22.77,22.77,0,0,0-4.62.55C6.8,45.58,0,57.66,0,70.42c0,17.13,12.08,35.36,33.94,35.36,1.42,0,2.86-.11,4.27-.21C60.62,103.26,68.1,82.5,69.09,69.2c1.42.12,2.75.23,4.06.23,23.06,0,33.07-22.09,33.07-39.12Zm-65-12c-3.84,0-6.82-1.64-8-3.17A3,3,0,0,1,32.3,11c0-1.54,1.52-2.74,3.72-2.74,2.74,0,6.48,1.75,9.33,7.14A15.46,15.46,0,0,1,41.08,16ZM82.27,53.61c-2.09,3.5-5,6.14-7.79,6.14-2.43,0-4.73-2.19-5.73-7.9-2.3-12.75-3.84-21.42-9.88-34.28,3.51-3,6.8-4.28,9.78-4.28,10,0,16.81,14.06,16.81,26.91A26.61,26.61,0,0,1,82.27,53.61Z"/><path class="cls-1" d="M242.19,60.64c1,3.61-9.57,18.12-14.07,15,6.7-7.69,17-17.13,17.91-26.13,1.62-16.43-30.74-13.41-32.43-8.07-3.87-4.61-13.94-5.84-16.78.59-1.65,3.62-2,9.68-2.09,15,0,1.44.89,14.73-1.31,14.83-4.5.23-4.29-21.84,0-27.67-1.76-7.25-14.28-7.58-17.13-2.53-2,3.63-2.32,11.1-2.32,15.37-.11,7.92.88,14.62-1.42,14.83-4.62.45-3.63-22.39.55-28.22-1.54-7.14-16.16-7.92-18.35-2.09-1.1,3.07-2,9-2.05,15.65a1.07,1.07,0,0,0-.36.61c-2,11.64-6.7,18.23-7.58,9.45-.55-6.15-.22-19.77,4.51-25.27-1.88-4.5-15.16-6.82-19.24,4.18-1.31-4.07-4-6.16-6.25-6.71-24.61-5.81-32.3,48.89-11,50.75,12.08,1.1,14.82-13.72,16.26-21.64a.33.33,0,0,1,.65,0c0,5.17-.33,21.54,12,21.54,6.59,0,10-8.64,12.23-18.2,1.94,9.88,6.43,18.2,15.21,18.2,4.84,0,8-4.4,9.57-10.44,2,4.84,5.93,10.44,13.39,10.44,10.44,0,14.07-9.12,15.82-17.8,2-9.58,2.35-21,5.4-26.37a81.14,81.14,0,0,1-.9,12.74c-.44,2.32,3.74,3.53,4.18,1.22,2.3-11.87,11.53-11.21,5.6,1.31-4.84,9.89-12.74,19.56-13.62,20.87-3,4.4,8.46,10.44,10.54,7,4.73-8.24,4.62-.55,14.61,1.43,10.22,2,16.16-6.59,17-14.84C251.53,67.89,247.79,60.3,242.19,60.64ZM113.59,77c-5.1-2.82.87-29.47,9.26-30.25C128.75,46.13,119.66,80.24,113.59,77Z"/><path class="cls-1" d="M294.13,96.44c3.74-27-6.25-46.78,3.19-54.47-.44-4.73-9.67-7.14-15.48-2.09-2.32,2.09-4,6-4.52,10.77-2.19,17.34-4.5,26.78-7.69,26.13-4.5-1-.87-25.37,3.63-31.2-.76-7.14-14.38-9-17.13-3.19-5.61,12-9.12,43.85,5.81,47.9,7.37,2.09,12.21-1.86,14.95-8.46.22,4.62-.12,8.8-1.32,11.76C263.93,91.94,247,95.34,240,105c-10.1,13.83,5.05,33.6,26.14,29.1,9.13-1.86,19-8.68,23.62-20.87,11.53,7,4.29,26.47-6.7,26.58,6.59,15.27,30.42,13.07,35.81-4.94S310.84,101.39,294.13,96.44Zm-46.78,16.37c.1-4,11.85-8,22.83-5.6C263.71,118.2,247.35,117.54,247.35,112.81Z"/><path class="cls-1" d="M112.66,103.92a6.11,6.11,0,0,0-1.28-2,5.76,5.76,0,0,0-2-1.29,6.61,6.61,0,0,0-2.52-.46,7,7,0,0,0-2.36.4,5.75,5.75,0,0,0-1.88,1.13v-1.26h-2.29v18h2.29v-7.11a7,7,0,0,0,4.46,1.52,6,6,0,0,0,2.41-.47,5.62,5.62,0,0,0,1.9-1.31,5.4,5.4,0,0,0,1.25-2,6.79,6.79,0,0,0,.45-2.54A7.21,7.21,0,0,0,112.66,103.92Zm-2.79,5.64a4.27,4.27,0,0,1-3.13,1.12,4.4,4.4,0,0,1-3.19-1.13,4.75,4.75,0,0,1,0-6.2,4.34,4.34,0,0,1,3.14-1.1,4.39,4.39,0,0,1,3.19,1.15,4.14,4.14,0,0,1,1.17,3.13A4,4,0,0,1,109.87,109.56Z"/><path class="cls-1" d="M133.62,105.76a5.78,5.78,0,0,0-.43-2.25,5,5,0,0,0-1.19-1.79,5.46,5.46,0,0,0-1.81-1.16,6.37,6.37,0,0,0-2.31-.41,6.56,6.56,0,0,0-2.48.47,5.92,5.92,0,0,0-1.93,1.34,6.57,6.57,0,0,0-1.25,2.06,7.73,7.73,0,0,0-.44,2.66,5.58,5.58,0,0,0,1.92,4.54,8,8,0,0,0,5.34,1.62,12.56,12.56,0,0,0,2.52-.23,6.56,6.56,0,0,0,1.82-.56v-1.92c-.75.1-1.5.23-2.23.36a10.35,10.35,0,0,1-2.23.22,5.91,5.91,0,0,1-3.31-.84,3.39,3.39,0,0,1-1.51-2.4h9.28A5.84,5.84,0,0,0,133.62,105.76Zm-2.26-.3h-7.29a3.79,3.79,0,0,1,1.27-2.37,4,4,0,0,1,2.54-.8,3.73,3.73,0,0,1,2.52.82,2.65,2.65,0,0,1,1,2.1Z"/><path class="cls-1" d="M148,102.44v-2.29h-2.38V96.79h-2.26v3.36h-2.26v2.29h2.26v6.62c0,2.53,1.19,3.78,3.57,3.78h.92v-2.16a6.26,6.26,0,0,1-1.15-.08,1.29,1.29,0,0,1-.68-.29,1.11,1.11,0,0,1-.32-.63,5.9,5.9,0,0,1-.08-1.05v-6.19Z"/><path class="cls-1" d="M166.46,107.11a3.22,3.22,0,0,0-1.31-1,7.26,7.26,0,0,0-1.71-.44,15.58,15.58,0,0,1-1.71-.29,3.85,3.85,0,0,1-1.31-.5,1.18,1.18,0,0,1-.53-1.1,1.42,1.42,0,0,1,.21-.78,1.61,1.61,0,0,1,.54-.5,2.6,2.6,0,0,1,.71-.26,4.52,4.52,0,0,1,.8-.08,5.43,5.43,0,0,1,1.77.29,5.37,5.37,0,0,1,1.55.93l1.1-1.7c-.4-.22-.76-.43-1.07-.63a10.11,10.11,0,0,0-.91-.49,5.73,5.73,0,0,0-1-.3,7.6,7.6,0,0,0-1.27-.11,6.38,6.38,0,0,0-1.72.24,4.46,4.46,0,0,0-1.42.74,3.67,3.67,0,0,0-1,1.22,3.8,3.8,0,0,0-.37,1.7,2.74,2.74,0,0,0,.54,1.8,3.33,3.33,0,0,0,1.31,1,6.63,6.63,0,0,0,1.71.47c.62.1,1.19.2,1.71.32a4.27,4.27,0,0,1,1.31.54,1.17,1.17,0,0,1,.53,1.08,1,1,0,0,1-.26.76,1.47,1.47,0,0,1-.64.48,2.63,2.63,0,0,1-.81.24,3.65,3.65,0,0,1-.79.08,5.75,5.75,0,0,1-2.12-.41,10.06,10.06,0,0,1-1.91-1l-1.06,1.71c.41.25.79.49,1.16.7a7.12,7.12,0,0,0,1.09.57,7.79,7.79,0,0,0,1.16.36,5.92,5.92,0,0,0,1.38.14,7.05,7.05,0,0,0,1.78-.21,5,5,0,0,0,1.56-.67,3.56,3.56,0,0,0,1.1-1.18A3.46,3.46,0,0,0,167,109,3,3,0,0,0,166.46,107.11Z"/><path class="cls-1" d="M186.6,101.83a4.1,4.1,0,0,0-3.46-1.68,7.37,7.37,0,0,0-1.22.11,3.94,3.94,0,0,0-1.09.38,7.56,7.56,0,0,0-1.08.7,13.3,13.3,0,0,0-1.19,1.07V93.13h-2.29v19.71h2.29v-6.31a4.91,4.91,0,0,1,.29-1.64,4.43,4.43,0,0,1,.79-1.29,3.61,3.61,0,0,1,2.73-1.16,2.94,2.94,0,0,1,2.32,1,4,4,0,0,1,.86,2.72v6.71h2.32V106.4A7.42,7.42,0,0,0,186.6,101.83Z"/><path class="cls-1" d="M209.33,104a6.64,6.64,0,0,0-1.37-2,6.52,6.52,0,0,0-2-1.38,6.16,6.16,0,0,0-2.47-.5,6.23,6.23,0,0,0-2.47.5,6.25,6.25,0,0,0-3.36,3.37,6.49,6.49,0,0,0-.49,2.48,6.37,6.37,0,0,0,.49,2.47,6.25,6.25,0,0,0,3.36,3.37,6.23,6.23,0,0,0,2.47.5,6.16,6.16,0,0,0,2.47-.5,6.49,6.49,0,0,0,2-1.37,6.68,6.68,0,0,0,1.37-2,5.9,5.9,0,0,0,.5-2.45A6,6,0,0,0,209.33,104Zm-2,4.06a4.13,4.13,0,0,1-.9,1.32,3.57,3.57,0,0,1-1.33.92,3.78,3.78,0,0,1-1.61.34,3.85,3.85,0,0,1-1.59-.34,3.92,3.92,0,0,1-1.33-.92,4.7,4.7,0,0,1-.9-1.34,4.15,4.15,0,0,1,0-3.22,4.64,4.64,0,0,1,.88-1.31,4.47,4.47,0,0,1,1.33-.88,4.31,4.31,0,0,1,3.26,0,3.84,3.84,0,0,1,1.33.87,3.9,3.9,0,0,1,.89,1.31,4.37,4.37,0,0,1,.32,1.65A3.7,3.7,0,0,1,207.3,108.1Z"/><path class="cls-1" d="M231.37,103.92a6,6,0,0,0-1.28-2,5.67,5.67,0,0,0-2-1.29,6.6,6.6,0,0,0-2.51-.46,7,7,0,0,0-2.37.4,5.71,5.71,0,0,0-1.87,1.13v-1.26h-2.29v18h2.29v-7.11a6.94,6.94,0,0,0,4.45,1.52,5.89,5.89,0,0,0,2.41-.47,5.76,5.76,0,0,0,1.91-1.31,5.4,5.4,0,0,0,1.25-2,7.51,7.51,0,0,0,0-5.12Zm-2.79,5.64a4.25,4.25,0,0,1-3.13,1.12,4.37,4.37,0,0,1-3.18-1.13,4.74,4.74,0,0,1-.05-6.2,5,5,0,0,1,6.33.05,4.15,4.15,0,0,1,1.18,3.13A4,4,0,0,1,228.58,109.56Z"/></g></g></svg>