<svg xmlns="http://www.w3.org/2000/svg" viewBox="0 0 146.29 178.69"><defs><style>.cls-1{fill:#fff;}</style></defs><g id="Layer_2" data-name="Layer 2"><g id="Layer_1-2" data-name="Layer 1"><path class="cls-1" d="M67.26,123.54,90,146.29h56.27V0H0V146.29H44.12l23.14-22.75M115.74,129,67.1,80.38l48.64-48.66Z"/><path class="cls-1" d="M12.33,158.62v14H8.77V161.34H3.53v11.24H0v-14Z"/><path class="cls-1" d="M18.58,166.59c.09,2.52,2,3.61,4.3,3.61a11.29,11.29,0,0,0,3.87-.63l.52,2.41a12.51,12.51,0,0,1-4.88.89c-4.53,0-7.19-2.78-7.19-7.05,0-3.87,2.35-7.52,6.82-7.52s6,3.73,6,6.8a9.67,9.67,0,0,1-.11,1.49Zm6.14-2.47c0-1.29-.55-3.41-2.9-3.41-2.18,0-3.1,2-3.24,3.41Z"/><path class="cls-1" d="M30.88,163.26c0-1.83-.06-3.32-.11-4.64h3.09l.18,2.15h.05a5.44,5.44,0,0,1,4.79-2.47c3.21,0,5.88,2.76,5.88,7.11,0,5.05-3.18,7.49-6.37,7.49A4.56,4.56,0,0,1,34.47,171h-.06v7.23H30.88Zm3.53,3.47a6.17,6.17,0,0,0,.08,1,3.23,3.23,0,0,0,3.13,2.46c2.24,0,3.55-1.86,3.55-4.61,0-2.47-1.2-4.47-3.46-4.47a3.35,3.35,0,0,0-3.19,2.6,5.55,5.55,0,0,0-.11.89Z"/><path class="cls-1" d="M51.15,158.62v11.24H56.4V158.62H60V170l1.49.06-.18,7H58.58l-.12-4.48H47.63v-14Z"/><path class="cls-1" d="M66.44,166.59c.08,2.52,2,3.61,4.3,3.61a11.33,11.33,0,0,0,3.87-.63l.51,2.41a12.42,12.42,0,0,1-4.87.89c-4.53,0-7.2-2.78-7.2-7.05,0-3.87,2.35-7.52,6.83-7.52s6,3.73,6,6.8a8.33,8.33,0,0,1-.12,1.49Zm6.13-2.47c0-1.29-.54-3.41-2.89-3.41-2.18,0-3.1,2-3.24,3.41Z"/><path class="cls-1" d="M91,158.62v14H87.48V161.34H82.23v11.24H78.71v-14Z"/><path class="cls-1" d="M98.29,158.62v11.24h5.25V158.62h3.55V170l1.49.06-.17,7h-2.69l-.12-4.48H94.76v-14Z"/><path class="cls-1" d="M114.52,158.62v5c0,2.2-.09,3.7-.2,5.65h.11c.75-1.64,1.15-2.67,1.9-4.13l3.41-6.54H124v14h-3.35v-5c0-2.23.08-3.26.23-5.9h-.12c-.69,1.66-1.15,2.66-1.83,4-1.07,2.07-2.36,4.59-3.56,6.88h-4.21v-14Z"/><path class="cls-1" d="M124.38,175.94a3.94,3.94,0,0,0,2.64-1c.66-.71.92-1.8.92-4.84V158.62h3.53v12.47c0,2.9-.58,4.7-1.84,6a7.31,7.31,0,0,1-4.9,1.63Zm7.32-21.22a1.87,1.87,0,0,1-2,1.89,1.85,1.85,0,0,1-2-1.89,2,2,0,0,1,4,0Z"/><path class="cls-1" d="M146.06,169.23a19,19,0,0,0,.23,3.35h-3.18l-.26-1.55h-.09a5.1,5.1,0,0,1-4.13,1.87,4.14,4.14,0,0,1-4.38-4.16c0-3.5,3.12-5.3,8.28-5.27v-.23c0-.92-.37-2.44-2.84-2.44a7.39,7.39,0,0,0-3.75,1l-.69-2.29a10.06,10.06,0,0,1,5.05-1.24c4.47,0,5.76,2.84,5.76,5.91Zm-3.44-3.47c-2.5,0-4.88.49-4.88,2.61a1.85,1.85,0,0,0,2,2,2.87,2.87,0,0,0,2.78-1.92,2.23,2.23,0,0,0,.09-.77Z"/></g></g></svg>