<?xml version="1.0" encoding="utf-8"?>
<!-- Generator: Adobe Illustrator 26.0.3, SVG Export Plug-In . SVG Version: 6.00 Build 0)  -->
<svg version="1.1" id="Layer_1" xmlns="http://www.w3.org/2000/svg" xmlns:xlink="http://www.w3.org/1999/xlink" x="0px" y="0px"
	 viewBox="0 0 250 250" style="enable-background:new 0 0 250 250;" xml:space="preserve">
<style type="text/css">
	.st0{fill:none;stroke:#161615;stroke-width:15;}
</style>
<circle class="st0" cx="125" cy="125" r="117.5"/>
<path d="M62.7,143.3c-2.8,0-5.2-0.6-7.4-1.7c-2.2-1.1-3.9-2.7-5.1-4.7c-1.2-2-1.8-4.2-1.8-6.8v-20.6h8.2v20.2c0,1.2,0.3,2.3,0.8,3.3
	c0.5,1,1.3,1.7,2.2,2.3c0.9,0.5,2,0.8,3.1,0.8c1.2,0,2.3-0.3,3.2-0.8c1-0.6,1.7-1.3,2.3-2.3c0.6-1,0.9-2.1,0.9-3.3v-20.2H77v20.6
	c0,2.5-0.6,4.8-1.9,6.8c-1.2,2-2.9,3.5-5.1,4.7C67.9,142.7,65.4,143.3,62.7,143.3z M84.5,143v-6.8h5.6v-19.8h-5.6v-6.8h19.4v6.8
	h-5.7v19.8h5.7v6.8H84.5z M107.8,149.8l19.9-40.2h7.6l-19.8,40.2H107.8z M154.1,143.3c-2.8,0-5.2-0.6-7.4-1.7
	c-2.2-1.1-3.9-2.7-5.1-4.7c-1.2-2-1.8-4.2-1.8-6.8v-20.6h8.2v20.2c0,1.2,0.3,2.3,0.8,3.3c0.5,1,1.3,1.7,2.2,2.3
	c0.9,0.5,2,0.8,3.1,0.8c1.2,0,2.3-0.3,3.2-0.8c1-0.6,1.7-1.3,2.3-2.3c0.6-1,0.9-2.1,0.9-3.3v-20.2h7.9v20.6c0,2.5-0.6,4.8-1.9,6.8
	c-1.2,2-2.9,3.5-5.1,4.7C159.3,142.7,156.9,143.3,154.1,143.3z M195.8,143l-10.4-15l-13.3-18.4h9.9l10.1,14.8l13.5,18.6H195.8z
	 M171.9,143l12.8-18.2l6.5,3.8l-9.9,14.4H171.9z M192.9,127.5l-6.5-3.6l9.4-14.3h9.4L192.9,127.5z"/>
</svg>
