<?xml version="1.0" encoding="utf-8"?>
<!-- Generator: Adobe Illustrator 26.0.3, SVG Export Plug-In . SVG Version: 6.00 Build 0)  -->
<svg version="1.1" id="Layer_1" xmlns="http://www.w3.org/2000/svg" xmlns:xlink="http://www.w3.org/1999/xlink" x="0px" y="0px"
	 viewBox="0 0 273.7 179.7" style="enable-background:new 0 0 273.7 179.7;" xml:space="preserve">
<style type="text/css">
	.st0{fill:#161615;}
</style>
<g id="Layer_2_00000080923317382526617910000001413810813090159254_">
	<g id="Layer_1-2">
		<path class="st0" d="M132.2,48.9c6.9-2.2,13.1-4.4,19.2-6.5c5.1-1.8,9.9-3.4,14.5-4.9l1.6-0.5c3.1-0.9,5.8-2.8,7.8-5.4
			c1.9-2.6,3.8-9.2,2.9-11.3c-0.6-1.3-2.4-3.3-7.7-2.2c-8.9,1.9-19.4,4.5-32.9,8c1.5-6.5,3-12.6,4.4-18c0.5-1.4,0.5-2.8,0-4.2
			c-0.6-1.6-1.9-2.9-3.6-3.4c-2.2-0.8-5.1-0.6-8.6,0.6c-5.4,2-8.9,5.6-9.8,10.1c-1.5,6.1-3,13.1-4.4,20.7
			c-11.8,3.2-24.4,6.5-37.3,9.4c-1.2,0.2-2.4,0.7-3.4,1.5c-3.7,2.4-5.7,6.6-5.2,11c0,2.2,1,4.2,2.7,5.6c1.1,0.8,2.4,1.2,3.7,1.1l0,0
			c-1.2,33.4-3.5,57.4-7.1,73.3c-0.8,3.4-1.8,6.7-2.9,9.9c-1,2.8-2.2,3.9-2.9,4l-0.3,0.1c-0.8,0.1-1.2,0.2-2.8-1.2
			c-2.2-2-3.8-4.6-4.7-7.4c-0.9-2.4-1.4-5-1.5-7.5c0-2.2,0.3-5.4,0.8-9.7c0.2-3.9-2.5-5.6-3.8-6.4c-2.2-1.5-4.8-2.2-7.4-2.1
			c-4,0.2-5.5,2.1-6,3.6l-0.7,1.8l-1.9,4.6c-1.1,2.6-2,4.7-2.7,6.3c-0.6,1.4-1.5,3.1-2.6,4.8c-0.5,0.8-0.9,1.5-1.3,2.2l-0.1,0.1
			c-0.5,0.9-1,1.9-1.5,2.7c-0.2,0.4-0.5,0.7-0.8,1c-1.2-2.8-2-5.8-2.4-8.9c-1.1-8.5,0.2-24.4,3.8-32.4l0.1-0.3v-2.4v-0.3
			c-0.3-1.8-1.1-3.5-2.5-4.8c-1.2-1.2-5.5-3-10.2-5c-1.4-0.6-2.6-1.1-2.9-1.3c-6.7-2.7-10.1-2.9-11-0.6c-0.9,2.1-0.7,6.2-0.6,9.9
			v0.2c0,1,0.1,1.9,0.1,2.5c-0.1,2.8,1.1,10.3,2,15.6c0.1,0.8,1.3,8.2,2.9,13.7c1.3,4.7,3.2,9.3,5.5,13.6c3.3,6.2,9.2,12.3,14,14.4
			c0.6,0.3,1.3,0.5,1.9,0.8c3.3,1.2,6.9,0.9,9.9-0.9c2.7-1.7,5-3.9,6.8-6.4c1,1.6,2.1,3,3.4,4.4c5.1,5.6,10.5,8.6,16.7,9.3
			s11.1-1.6,14.9-6.9c2.2-3.4,3.9-7.2,5.1-11.1c1.3-3.8,2.3-7.6,3.2-11.4c0.6-2.9,1.4-7.4,2.5-13.8c3.3-20.1,5.5-40.3,6.5-60.7
			l2.1-0.4l4.8-1c3.1-0.7,6.1-1.3,8.9-1.9l-0.7,4.2c-0.7,4.2-1.6,9.1-2.8,16.5v0.1c-2.1,12.7-3.4,20.9-4,25.6
			c-0.9,5.2-2.2,12.9-4.4,25.7C97.5,136.8,96,146,95,153.8c-0.9,6.4-1.5,12.8-1.7,19.2c0,2.7,1.4,4.6,4.2,5.9c1,0.5,2.1,0.7,3.2,0.9
			c0.3,0,0.6,0,0.9,0c1.1,0,2.1-0.2,3.2-0.5c2.3-0.7,4.2-2.5,4.8-4.9c1.3-4.8,2.7-10.6,3.9-17.4s2.3-13.2,3.1-18.9
			c1-6.9,2-13.8,3.2-21.2c1.2-8,2.4-15.4,3.5-21.3c0.9-4.8,2-10.6,3.2-17.3c1.3-6.8,2.6-13.4,3.9-19.5
			C131.3,53.4,131.5,52.3,132.2,48.9z"/>
		<path class="st0" d="M273.5,85.1L273.5,85.1c-0.7-3.2-2.2-6.1-4.4-8.6c-4.4-4.9-9.5-9.1-15.1-12.4c-7.9-4.7-17.2-6.6-26.3-5.3
			c-6.6,1.2-12.9,4-18.2,8.1c-3.9,3.2-7.6,6.7-10.9,10.5c-1.1,1.2-2.2,2.5-3.4,3.9l-0.1,0.1c-2.7,3-5.8,7-7.9,9.8
			c-1.3,1.7-2.6,3.4-3.8,5l-2.4,3.3l-1.6,2.1l-3.3,4.4c-1.7,2.2-3.5,4.6-5.8,7.4c-0.6,0.8-1.3,1.6-2,2.4c-0.4,0.4-0.8,0.9-1.3,1.5
			l-0.1,0.1c-2.9,3.5-7.8,9.4-13.7,10.7c-1.4,0.3-3.8,0.5-5-1.7c-0.7-1.5-1-3.1-1-4.7c9-7.2,17.4-15.1,25-23.8
			c9-9.9,15.5-19.3,19.2-27.7c2.6-5.5,3.3-10.1,2.1-13.8c-1.3-3.8-4.5-6-9.5-6.5c-9.5-0.7-19.9,4.8-30.1,16
			c-8.8,9.7-15.5,21-19.9,33.3c-4.5,12.2-6.1,23.1-4.9,33.4c0.9,7.7,3.5,13.1,7.9,16.1c2.7,1.9,6,3,9.3,3c0.9,0,1.7-0.1,2.6-0.2
			c1-0.2,2-0.4,2.9-0.7c6.6-2.1,12.7-5.8,17.7-10.6c0.1-0.1,0.2-0.2,0.2-0.2c1.1-1,2.2-1.9,3.2-2.9c2.8-2.7,5.3-5.7,7.7-8.5
			c2.7-3.2,4.9-5.9,6.8-8.5l1.4-1.9l2.6-3.5c2-2.6,4.5-5.9,7.2-9c2.3-2.7,4.8-5.3,7.5-7.7c3.5-3.1,7.3-5.7,11.5-7.8
			c1-0.5,2-0.9,3-1.3c4.1-1.4,8.4-2,12.7-1.6c4.9,0.7,9.5,2.5,13.7,5.2c3.5,2.4,6.7,5.2,9.5,8.2c1.9,2.1,4.4,3.4,7.2,3.7
			c2.4,0.2,4.7-1.2,5.8-3.3l0-0.1C271,97.6,274.4,88.9,273.5,85.1z M150.9,99.5c2.2-6.3,5.3-12.3,9.2-17.7
			c4.9-6.9,9.4-11.1,11.9-11.1c0.3,0,0.5,0,0.7,0.2l0.4,0.1c0,0.1,0,0.3,0,0.4c-0.2,0.6-0.5,1.2-0.8,1.7c-0.4,0.8-0.9,1.5-1.4,2.2
			c-0.6,0.9-1.2,1.7-1.6,2.3s-1.1,1.4-1.9,2.3c-0.6,0.7-1.3,1.6-1.6,1.9C161.5,87.6,156.5,93.6,150.9,99.5z"/>
	</g>
</g>
</svg>
