<svg xmlns="http://www.w3.org/2000/svg" viewBox="0 0 273.67 179.74"><defs><style>.cls-1{fill:#fff;}</style></defs><g id="Layer_2" data-name="Layer 2"><g id="Layer_1-2" data-name="Layer 1"><path class="cls-1" d="M132.21,48.92c6.93-2.25,13.15-4.4,19.17-6.49,5.11-1.76,9.94-3.44,14.48-4.91l1.57-.51a15,15,0,0,0,7.77-5.43c1.93-2.59,3.84-9.22,2.88-11.32-.6-1.31-2.39-3.33-7.73-2.19-8.9,1.93-19.39,4.48-32.94,8,1.48-6.51,3-12.55,4.4-18a6.18,6.18,0,0,0,0-4.19A5.58,5.58,0,0,0,138.24.47c-2.24-.79-5.1-.59-8.59.62-5.4,2-8.89,5.61-9.83,10.1-1.48,6.14-3,13.11-4.42,20.72-11.8,3.19-24.4,6.54-37.26,9.4a8.44,8.44,0,0,0-3.39,1.45,11.53,11.53,0,0,0-5.17,11,7.37,7.37,0,0,0,2.71,5.58A6.07,6.07,0,0,0,76,60.46h0c-1.17,33.38-3.5,57.36-7.12,73.29a98.9,98.9,0,0,1-2.9,9.92c-1,2.75-2.21,3.87-2.9,4l-.29.06c-.77.14-1.2.22-2.76-1.17a17.78,17.78,0,0,1-4.71-7.36,23.3,23.3,0,0,1-1.47-7.54c.05-2.19.32-5.4.8-9.66.24-3.89-2.5-5.6-3.84-6.43a12.42,12.42,0,0,0-7.38-2.11c-4,.2-5.46,2.06-6,3.56l-.72,1.76-1.87,4.6c-1.09,2.62-2,4.74-2.72,6.28-.64,1.38-1.53,3.05-2.57,4.83-.45.76-.87,1.51-1.27,2.24l-.07.11c-.51.92-1,1.87-1.55,2.68a4.2,4.2,0,0,1-.82,1,30.64,30.64,0,0,1-2.38-8.89c-1.15-8.48.23-24.45,3.75-32.42l.07-.26V96.58l0-.32a8.56,8.56,0,0,0-2.45-4.84c-1.25-1.17-5.52-3-10.16-5-1.39-.59-2.59-1.1-2.94-1.29C5,82.4,1.66,82.2.7,84.5-.17,86.64,0,90.74.13,94.41v.21c0,1,.09,1.93.08,2.47-.06,2.82,1.1,10.27,2,15.63.13.82,1.35,8.21,2.89,13.71A68.65,68.65,0,0,0,10.6,140c3.29,6.23,9.16,12.3,14,14.44a18.34,18.34,0,0,0,1.9.76,11.26,11.26,0,0,0,9.92-.93,24.19,24.19,0,0,0,6.8-6.41,30.79,30.79,0,0,0,3.42,4.39c5.07,5.58,10.51,8.6,16.65,9.26s11.14-1.65,14.89-6.94a46.7,46.7,0,0,0,5.1-11.06,106,106,0,0,0,3.2-11.44c.58-2.87,1.4-7.37,2.48-13.75a533.93,533.93,0,0,0,6.52-60.66l2.1-.44,4.78-1c3.13-.69,6.09-1.34,8.91-1.87l-.72,4.2c-.73,4.22-1.57,9.09-2.82,16.52l0,.14c-2.12,12.73-3.38,20.93-4,25.56-.86,5.22-2.18,12.89-4.42,25.65-1.83,10.39-3.29,19.59-4.35,27.34a183.69,183.69,0,0,0-1.71,19.22c0,2.66,1.38,4.65,4.15,5.91a10.63,10.63,0,0,0,3.25.85,8.44,8.44,0,0,0,.87,0,9.78,9.78,0,0,0,3.15-.53,7.09,7.09,0,0,0,4.85-4.86c1.35-4.75,2.66-10.61,3.9-17.4s2.29-13.23,3.11-18.94c1-6.88,2-13.82,3.16-21.21,1.23-8,2.43-15.37,3.47-21.28.88-4.82,2-10.63,3.2-17.26,1.28-6.83,2.6-13.4,3.91-19.52C131.3,53.42,131.53,52.33,132.21,48.92Z"/><path class="cls-1" d="M273.51,85.12h0a19.5,19.5,0,0,0-4.4-8.6A62.87,62.87,0,0,0,254,64.13a40.67,40.67,0,0,0-26.26-5.33,42.14,42.14,0,0,0-18.22,8.14,81.11,81.11,0,0,0-10.87,10.52c-1.08,1.21-2.19,2.48-3.44,3.89l-.08.1c-2.68,3-5.79,7-7.93,9.85-1.32,1.74-2.59,3.44-3.77,5L181,99.63l-1.55,2.07-3.29,4.44c-1.67,2.24-3.52,4.58-5.83,7.37-.63.76-1.3,1.55-2,2.39-.38.42-.79.92-1.27,1.49l-.1.13c-2.93,3.53-7.84,9.43-13.73,10.72-1.36.3-3.8.48-5-1.74a10.6,10.6,0,0,1-1-4.72,199.66,199.66,0,0,0,25-23.75c9-9.94,15.49-19.26,19.25-27.69,2.62-5.48,3.31-10.11,2.06-13.75-1.33-3.83-4.52-6-9.49-6.52-9.51-.73-19.91,4.8-30.08,16a99.51,99.51,0,0,0-19.95,33.27c-4.46,12.21-6.06,23.14-4.89,33.39.85,7.68,3.49,13.1,7.85,16.13a16.2,16.2,0,0,0,9.32,3,17.19,17.19,0,0,0,2.56-.2,19.64,19.64,0,0,0,2.9-.69,45.28,45.28,0,0,0,17.68-10.61,2.11,2.11,0,0,0,.23-.25c1.15-1,2.21-1.92,3.25-2.93,2.78-2.74,5.34-5.71,7.73-8.52,2.71-3.2,4.88-5.89,6.81-8.47l1.4-1.86,2.64-3.51c2-2.57,4.54-5.92,7.2-9a92,92,0,0,1,7.47-7.7,52.32,52.32,0,0,1,11.51-7.81c1-.46,2-.89,3-1.29a30.56,30.56,0,0,1,12.67-1.58A34.22,34.22,0,0,1,247,92.66a58.07,58.07,0,0,1,9.52,8.24,11.46,11.46,0,0,0,7.17,3.69,6,6,0,0,0,5.76-3.35l.05-.12C271,97.58,274.43,88.93,273.51,85.12ZM150.92,99.52a72.2,72.2,0,0,1,9.23-17.73c4.92-6.9,9.44-11.05,11.93-11.05a1.78,1.78,0,0,1,.74.15l.39.13a.52.52,0,0,1,0,.37,17.17,17.17,0,0,1-.8,1.73A25.84,25.84,0,0,1,171,75.33c-.64.94-1.18,1.71-1.62,2.26s-1.1,1.37-1.91,2.35c-.57.69-1.31,1.58-1.57,1.93C161.49,87.63,156.46,93.56,150.92,99.52Z"/></g></g></svg>