<svg xmlns="http://www.w3.org/2000/svg" viewBox="0 0 150 110.53"><defs><style>.cls-1{fill:#4da1a8;}</style></defs><g id="Layer_2" data-name="Layer 2"><g id="LOGO"><g id="AquaViva_LOGO" data-name="AquaViva LOGO"><path class="cls-1" d="M51.23,4.52c-2.65,3.29-5.39,6.22-8.68,6.17a2.89,2.89,0,0,1-2.08-.76c-1.42-.12-3,1.69-4,2.58-1.57,1.46-7.16,7-9.37,6.4,6.25,1.11,8-.21,12-1.67,4.39-1.62,6.27,2.61,12.74-4.83s10-5.36,20.86-.23L58.19,1C57.07.05,55.7-.5,54.51.65a46.68,46.68,0,0,0-3.28,3.87"/><path class="cls-1" d="M37.57,44.05c0,.79,0,1.55.06,2.29v-4.6q-.06,1.13-.06,2.31"/><path class="cls-1" d="M52.58,69.66l.27-.74a.14.14,0,1,0-.27,0Z"/><path class="cls-1" d="M65.62,52.18l.38.08.17,0,.48.12h0l.12,0,.5.15h0l.09,0,.51.16h0l.08,0,.55.2h0l0,0a14.89,14.89,0,0,1,1.72.79l.09,0h0l.44.24.11.06,0,0,.4.24h0l.11.08.42.27h0l.07.05c.17.11.34.24.5.36l0,0h0l.05,0a.21.21,0,0,0,.32-.08A29.85,29.85,0,0,0,74.81,44c0-14.24-6.26-21.28-18.64-21.28-11.9,0-18.08,6.51-18.54,19.65,0,.53,0,1.08,0,1.63s0,1.09,0,1.62c.46,13,6.64,19.59,18.54,19.59a25.54,25.54,0,0,0,5.5-.56.21.21,0,0,0,.11-.34,18.37,18.37,0,0,1-2.7-4.09l0,0h0q-.11-.21-.21-.45l-.07-.15v0l-.15-.35c0-.11-.09-.22-.13-.32l0,0-.08-.18-.2-.54v0c-.24-.64-.45-1.32-.64-2a.2.2,0,0,0-.22-.15,8.07,8.07,0,0,1-1.22.08c-5.26,0-8-4-8.05-12s2.71-12.22,8.13-12.22c5.26,0,7.89,3.94,7.89,11.91a21.17,21.17,0,0,1-1.43,8.11l.26,0,.39,0,.29,0,.41,0,.26,0,.42.07.23,0,.44.09.29.06"/><path class="cls-1" d="M83.35,61.62a22.07,22.07,0,0,0,4.53,2.27A20.55,20.55,0,0,0,95,65.11h.3a24.36,24.36,0,0,0,7.4-1.21,23.38,23.38,0,0,0,4.37-2,10.23,10.23,0,0,0,4.13-5.32A24.73,24.73,0,0,0,112.45,48V23.6a.21.21,0,0,0-.2-.21h-5.06c-3.41,0-5,1.71-5,5.11V50.09c0,3.43-1.31,5.54-3.92,6.39a11.28,11.28,0,0,1-6.1,0c-2.61-.85-3.92-3-3.92-6.39V28.5c.08-3.4-1.54-5.11-5-5.11H78.22a.21.21,0,0,0-.2.21V48a23.34,23.34,0,0,0,1.36,8.61,10.08,10.08,0,0,0,4,5"/><path class="cls-1" d="M17.25,65.1a17.18,17.18,0,0,0,7-1.95l.29-.15v1.23a.2.2,0,0,0,.21.2H30.1c3-.17,4.41-1.8,4.41-4.94V46.4q-.06-1.14-.06-2.34c0-.82,0-1.61.06-2.38V34.07c-.17-5.63-3.37-9.13-9.64-10.56a34.88,34.88,0,0,0-7.62-.74c-9.33,0-14.66,3.64-16,11.06a.2.2,0,0,0,.2.24h9.89a.21.21,0,0,0,.2-.15c.6-1.83,2.6-2.71,6.15-2.71,3.79,0,5.92.92,6.5,2.76a3.19,3.19,0,0,1,.15.71v0a2.71,2.71,0,0,1-.15.91,3.31,3.31,0,0,1-1.52,1.76,12.81,12.81,0,0,1-5,1.41C7.35,39.79.23,42.43,0,52.26c0,8.39,6.38,12.93,15.14,12.93.69,0,1.4,0,2.11-.09M10.13,52v0a4.87,4.87,0,0,1,1.56-3.7,9.26,9.26,0,0,1,4.63-2,44.89,44.89,0,0,0,7.9-2.35h0a.2.2,0,0,1,.28.19v4.15a11.55,11.55,0,0,1-.29,2.11c-1,4.1-4.16,6.42-8.9,6.42-3.25,0-5-1.54-5.19-4.78"/><path class="cls-1" d="M140.37,23.51a34.88,34.88,0,0,0-7.62-.74c-9.35,0-14.66,3.64-16,11.05a.22.22,0,0,0,.21.25h9.89a.19.19,0,0,0,.19-.15c.61-1.83,2.61-2.71,6.15-2.71,3.78,0,5.91.91,6.5,2.74a3.42,3.42,0,0,1,.16.72v0a2.9,2.9,0,0,1-.16.94,3.34,3.34,0,0,1-1.52,1.73,12.76,12.76,0,0,1-5,1.41c-10.37,1-17.48,3.64-17.72,13.47,0,8.39,6.39,12.93,15.15,12.93.69,0,1.39,0,2.11-.09a17.13,17.13,0,0,0,7-1.95L140,63v1.23a.21.21,0,0,0,.21.2h5.38c3-.17,4.42-1.8,4.42-4.94V34.07c-.17-5.63-3.37-9.13-9.63-10.56M140,48.21a11.57,11.57,0,0,1-.28,2.1c-1,4.1-4.15,6.43-8.9,6.43-3.24,0-4.94-1.54-5.18-4.78v0a4.8,4.8,0,0,1,1.56-3.7,9.22,9.22,0,0,1,4.63-2,44.52,44.52,0,0,0,7.89-2.35l.28-.12Z"/><path class="cls-1" d="M36.65,72.24l0,.14L36.14,74,29.48,97.45l-.05-.19-6.7-23.21-.52-1.81a4.84,4.84,0,0,0-5-3.5H10.12a.21.21,0,0,0-.19.28l14.24,40.52a.21.21,0,0,0,.2.13H35a.21.21,0,0,0,.2-.13L49.46,69.16a.17.17,0,0,0,0-.07V69a.2.2,0,0,0-.2-.21H41.63a4.84,4.84,0,0,0-5,3.5"/><path class="cls-1" d="M104.77,69a.21.21,0,0,0-.21-.21H96.92a4.84,4.84,0,0,0-5,3.5,1.21,1.21,0,0,1,0,.14l-.47,1.67-6.64,23.4-.06-.19L78,74l-.51-1.76-.67-2.32a.18.18,0,0,0-.22-.14h-.17a14.83,14.83,0,0,1-1.87.11,18.36,18.36,0,0,1-3.7-.38h0l-.31-.07h-.08l-.26-.07-.11,0h0l-.21-.06-.18,0-.16,0-.22-.07-.12,0L68.9,69l-.05,0h0l-.32-.12-.29-.11H65.41a.21.21,0,0,0-.19.28l14.24,40.52a.21.21,0,0,0,.2.13H90.28a.21.21,0,0,0,.19-.13l14.28-40.38a.25.25,0,0,0,0-.07Z"/><path class="cls-1" d="M57.92,68.74H53.06a.22.22,0,0,0-.2.14l-.26.74a.25.25,0,0,0,0,.07v39.78a.21.21,0,0,0,.21.2h9.88a.2.2,0,0,0,.2-.2V73.7c0-3.33-1.62-5-4.95-5"/><path class="cls-1" d="M128.26,68.86a34.88,34.88,0,0,0-7.62-.74c-9.34,0-14.67,3.64-16,11.06a.21.21,0,0,0,.21.24h9.89a.21.21,0,0,0,.2-.15c.6-1.83,2.6-2.72,6.15-2.72,3.76,0,5.89.92,6.49,2.74a3.43,3.43,0,0,1,.16.75h0a2.67,2.67,0,0,1-.16.95c-.57,1.67-2.75,2.69-6.49,3.16-10.37,1-17.5,3.63-17.73,13.45,0,8.4,6.38,12.93,15.14,12.93.69,0,1.4,0,2.12-.08a17.33,17.33,0,0,0,7-2c.1,0,.2-.1.3-.15v1.22a.21.21,0,0,0,.2.21h5.4c2.95-.18,4.39-1.81,4.39-4.94V79.42c-.17-5.63-3.37-9.13-9.63-10.56m-.36,24.7a11.63,11.63,0,0,1-.3,2.13c-1,4.08-4.17,6.41-8.9,6.41-3.24,0-5-1.55-5.18-4.8v0a4.82,4.82,0,0,1,1.55-3.69,9.3,9.3,0,0,1,4.64-2,44.52,44.52,0,0,0,7.89-2.35h0a.21.21,0,0,1,.29.19Z"/><path class="cls-1" d="M76.14,66.86h-.08a13.69,13.69,0,0,1-1.49.08,15.49,15.49,0,0,1-3.11-.32h0l-.28-.06h-.06l-.22-.06-.1,0-.18,0-.15,0-.13,0-.19-.06-.09,0-.23-.08,0,0-.27-.09a13.28,13.28,0,0,1-4.23-2.47l-.15-.14a14.86,14.86,0,0,1-3.39-4.59h0a2.81,2.81,0,0,1-.17-.35c0-.08-.07-.16-.11-.23L61.33,58l-.12-.28-.08-.2L61,57v0a22.06,22.06,0,0,1-.66-2.12.21.21,0,0,1,.21-.25h.21l1,0,.72.05h.23l.35,0,.25,0,.35,0,.23,0,.36,0,.14,0,.44.08.17,0,.4.09.2,0c.11,0,.3.07.41.11H66l.41.12.11,0,.43.14.07,0,.48.18h0a14.21,14.21,0,0,1,1.43.65l.08,0,.36.2.1.06.33.2.1.07.35.23.06,0,.4.29.05,0a14.52,14.52,0,0,1,5.35,9.23"/></g></g></g></svg>