<?xml version="1.0" encoding="utf-8"?>
<!-- Generator: Adobe Illustrator 26.0.3, SVG Export Plug-In . SVG Version: 6.00 Build 0)  -->
<svg version="1.1" id="Layer_1" xmlns="http://www.w3.org/2000/svg" xmlns:xlink="http://www.w3.org/1999/xlink" x="0px" y="0px"
	 viewBox="0 0 150 110.5" style="enable-background:new 0 0 150 110.5;" xml:space="preserve">
<style type="text/css">
	.st0{fill:#161615;}
</style>
<g id="Layer_2_00000119823700646582361260000015200762397153556612_">
	<g id="LOGO">
		<g id="AquaViva_LOGO">
			<path class="st0" d="M57.2,17.4c-2,2.5-4,4.6-6.5,4.6c-0.6,0-1.1-0.1-1.6-0.6c-1-0.1-2.2,1.3-3,1.9c-1.2,1.1-5.4,5.2-7,4.8
				c4.6,0.8,6-0.1,9-1.3c3.3-1.2,4.7,1.9,9.5-3.6s7.5-4,15.6-0.1l-10.8-8.4c-0.8-0.7-1.9-1.1-2.8-0.3C58.8,15.4,58.1,16.4,57.2,17.4
				"/>
			<path class="st0" d="M47.1,46.9c0,0.6,0,1.1,0.1,1.7v-3.4C47.1,45.7,47.1,46.3,47.1,46.9"/>
			<path class="st0" d="M58.3,66l0.2-0.5c0-0.1,0-0.1-0.1-0.1c-0.1,0-0.1,0-0.1,0.1c0,0,0,0,0,0.1V66z"/>
			<path class="st0" d="M68,53l0.3,0.1h0.1l0.4,0.1l0,0h0.1l0.4,0.1l0,0h0.1l0.4,0.1l0,0h0.1l0.4,0.1l0,0l0,0
				c0.4,0.1,0.9,0.4,1.3,0.6h0.1l0,0l0.3,0.1l0.1,0.1l0,0l0.3,0.1l0,0l0.1,0.1l0.3,0.2l0,0h0.1c0.1,0.1,0.2,0.1,0.4,0.3l0,0l0,0h0.1
				c0.1,0.1,0.1,0.1,0.2,0l0,0c1-2.6,1.6-5.4,1.6-8.1c0-10.6-4.7-15.9-13.9-15.9c-8.9,0-13.5,4.9-13.8,14.6c0,0.4,0,0.8,0,1.2
				s0,0.8,0,1.2c0.4,9.7,4.9,14.6,13.8,14.6c1.3,0,2.8-0.1,4.1-0.4c0.1,0,0.1-0.1,0.1-0.2V62c-0.8-0.9-1.5-1.9-2-3.1l0,0l0,0
				c-0.1-0.1-0.1-0.2-0.1-0.4l-0.1-0.1l0,0l-0.1-0.2c0-0.1-0.1-0.1-0.1-0.2l0,0l-0.1-0.1l-0.1-0.4l0,0c-0.1-0.4-0.4-1-0.4-1.5
				c0-0.1-0.1-0.1-0.1-0.1c-0.3,0.1-0.6,0.1-0.9,0.1c-4,0-6-3-6-9s2-9.1,6-9.1c4,0,5.9,2.9,5.9,8.9c0.1,2.1-0.3,4.1-1,6l0,0h0.3h0.2
				h0.2H67l0.3,0.1h0.2l0.3,0.1L68,53"/>
			<path class="st0" d="M81.2,60c1,0.7,2.2,1.3,3.4,1.7c1.7,0.6,3.5,0.9,5.3,0.9h0.2c1.9,0,3.7-0.3,5.5-0.9c1.1-0.4,2.2-0.9,3.3-1.5
				c1.4-1,2.5-2.3,3.1-4c0.7-2.1,1-4.3,0.9-6.4V31.6c0-0.1-0.1-0.1-0.1-0.1h-3.8c-2.5,0-3.7,1.3-3.7,3.8v16.1c0,2.5-1,4.1-2.9,4.8
				c-1.5,0.4-3.1,0.4-4.6,0c-1.9-0.6-2.9-2.2-2.9-4.8V35.3c0.1-2.5-1.1-3.8-3.7-3.8h-3.7c-0.1,0-0.1,0.1-0.1,0.1v18.2
				c-0.1,2.2,0.3,4.4,1,6.4C78.8,57.8,79.9,59.1,81.2,60"/>
			<path class="st0" d="M31.8,62.6c1.8-0.1,3.6-0.6,5.2-1.5l0.2-0.1v0.9c0,0.1,0.1,0.1,0.1,0.1l0,0h4c2.2-0.1,3.3-1.3,3.3-3.7v-9.7
				c0-0.6-0.1-1.1-0.1-1.7s0-1.2,0.1-1.8v-5.7c-0.1-4.2-2.5-6.8-7.2-7.9c-1.9-0.4-3.8-0.6-5.7-0.5c-6.9,0-11,2.7-11.9,8.3
				c0,0.1,0,0.1,0.1,0.1l0,0h7.4c0.1,0,0.1-0.1,0.1-0.1c0.4-1.3,1.9-2,4.6-2c2.8,0,4.4,0.7,4.9,2.1c0.1,0.1,0.1,0.4,0.1,0.5l0,0
				c0,0.2,0,0.4-0.1,0.7c-0.2,0.6-0.6,1-1.1,1.3c-1.2,0.6-2.5,1-3.7,1C24.4,43.7,19.1,45.7,19,53c0,6.3,4.8,9.6,11.3,9.6
				C30.8,62.7,31.3,62.7,31.8,62.6 M26.5,52.8L26.5,52.8c0-1,0.4-2,1.2-2.8c1-0.8,2.2-1.3,3.4-1.5c2-0.4,4-1,5.9-1.7l0,0
				c0.1,0,0.1,0,0.2,0.1V47v3.1c0,0.5-0.1,1-0.2,1.6c-0.7,3.1-3.1,4.8-6.6,4.8C28,56.4,26.7,55.3,26.5,52.8"/>
			<path class="st0" d="M123.8,31.5c-1.9-0.4-3.8-0.6-5.7-0.5c-6.9,0-11,2.7-11.9,8.2c0,0.1,0.1,0.1,0.1,0.1l0,0h7.4
				c0.1,0,0.1-0.1,0.1-0.1c0.4-1.3,1.9-2,4.6-2c2.8,0,4.4,0.7,4.9,2c0.1,0.1,0.1,0.4,0.1,0.5l0,0c0,0.2-0.1,0.4-0.1,0.7
				c-0.2,0.5-0.6,1-1.1,1.3c-1.2,0.6-2.5,1-3.7,1c-7.8,0.7-13.1,2.7-13.2,10.1c0,6.3,4.8,9.6,11.3,9.6c0.5,0,1,0,1.6-0.1
				c1.8-0.1,3.6-0.6,5.2-1.5l0.1,0.1v0.9c0,0.1,0.1,0.1,0.1,0.1h4c2.2-0.1,3.3-1.3,3.3-3.7v-19C130.9,35.2,128.5,32.6,123.8,31.5
				 M123.5,50c0,0.5-0.1,1-0.2,1.6c-0.7,3.1-3.1,4.8-6.6,4.8c-2.4,0-3.7-1.1-3.9-3.6l0,0c0-1,0.4-2.1,1.2-2.8c1-0.8,2.2-1.3,3.4-1.5
				c2-0.4,4-1,5.9-1.7l0.2-0.1V50z"/>
			<path class="st0" d="M46.4,67.9L46.4,67.9L46,69.3l-5,17.5v-0.1l-5-17.3l-0.4-1.3c-0.4-1.6-2-2.8-3.7-2.6h-5.3
				c-0.1,0-0.1,0.1-0.1,0.1c0,0,0,0,0,0.1L37,95.8c0,0.1,0.1,0.1,0.1,0.1h8c0.1,0,0.1,0,0.1-0.1L56,65.6c0,0,0,0,0-0.1l0,0
				c0-0.1-0.1-0.1-0.1-0.1l0,0h-5.7C48.3,65.2,46.8,66.3,46.4,67.9"/>
			<path class="st0" d="M97.3,65.5c0-0.1-0.1-0.1-0.1-0.1h-5.7c-1.7-0.1-3.3,1-3.7,2.6v0.1l-0.4,1.3l-4.9,17.5l-0.1-0.1l-5.1-17.4
				l-0.4-1.3l-0.5-1.7c0-0.1-0.1-0.1-0.1-0.1l0,0H76c-0.4,0.1-0.9,0.1-1.4,0.1c-0.9,0-1.9-0.1-2.8-0.3l0,0l-0.2-0.1h-0.1l-0.2-0.1
				h-0.1l0,0l-0.1-0.1H71h-0.1l-0.1-0.1h-0.1l-0.1-0.1h-0.1l0,0l-0.2-0.1l-0.2-0.1h-2.1c-0.1,0-0.1,0.1-0.1,0.1c0,0,0,0,0,0.1
				l10.6,30.2c0,0.1,0.1,0.1,0.1,0.1h7.9c0.1,0,0.1-0.1,0.1-0.1l10.7-30.2C97.2,65.7,97.2,65.7,97.3,65.5L97.3,65.5z"/>
			<path class="st0" d="M62.2,65.3h-3.7c-0.1,0-0.1,0.1-0.1,0.1l-0.2,0.5c0,0,0,0,0,0.1v29.7c0,0.1,0.1,0.1,0.1,0.1h7.4
				c0.1,0,0.1-0.1,0.1-0.1V69C66,66.6,64.8,65.3,62.2,65.3"/>
			<path class="st0" d="M114.8,65.4c-1.9-0.4-3.8-0.6-5.7-0.5c-6.9,0-11,2.7-11.9,8.3c0,0.1,0.1,0.1,0.1,0.1l0,0h7.4
				c0.1,0,0.1-0.1,0.1-0.1c0.4-1.3,1.9-2,4.6-2c2.8,0,4.4,0.7,4.9,2c0.1,0.1,0.1,0.4,0.1,0.6l0,0c0,0.2,0,0.4-0.1,0.7
				c-0.4,1.3-2.1,2-4.9,2.4c-7.8,0.7-13.1,2.7-13.2,10c0,6.3,4.8,9.6,11.3,9.6c0.5,0,1,0,1.6-0.1c1.8-0.1,3.6-0.6,5.2-1.5
				c0.1,0,0.1-0.1,0.2-0.1v0.9c0,0.1,0.1,0.1,0.1,0.1h4c2.2-0.1,3.3-1.3,3.3-3.7V73.3C121.8,69.1,119.4,66.5,114.8,65.4 M114.5,83.9
				c0,0.5-0.1,1-0.2,1.6c-0.7,3.1-3.1,4.8-6.6,4.8c-2.4,0-3.7-1.2-3.9-3.6l0,0c0-1,0.4-2,1.2-2.8c1-0.8,2.2-1.3,3.4-1.5
				c2-0.4,4-1,5.9-1.7l0,0c0.1,0,0.1,0,0.2,0.1c0,0,0,0,0,0.1V83.9z"/>
			<path class="st0" d="M75.8,63.9L75.8,63.9C75.4,64,75,64,74.6,64c-0.7,0-1.6-0.1-2.3-0.2l0,0l-0.2-0.1H72l-0.1-0.1h-0.1h-0.1
				h-0.1h-0.1l-0.1-0.1h-0.1L71,63.5l0,0l-0.2-0.1c-1.2-0.4-2.2-1-3.1-1.9l-0.1-0.1c-1-1-1.9-2.2-2.5-3.4l0,0
				c-0.1-0.1-0.1-0.1-0.1-0.2c0-0.1-0.1-0.1-0.1-0.1l0-0.4l-0.1-0.2l-0.1-0.1l-0.1-0.4l0,0c-0.2-0.5-0.4-1-0.5-1.6
				c0-0.1,0.1-0.1,0.1-0.1l0,0h0.1h0.7h0.5h0.1H66h0.1h0.2h0.1h0.3h0.1l0.3,0.1h0.4l0.3,0.1H68c0.1,0,0.2,0.1,0.3,0.1l0,0l0.3,0.1
				h0.1l0.3,0.1H69l0.4,0.1l0,0c0.4,0.1,0.7,0.3,1,0.5h0.1l0.3,0.1l0.1,0.1l0.2,0.1l0.1,0.1l0.2,0.1h0.1l0.3,0.2h0.1
				c2.2,1.7,3.6,4.2,4,6.9"/>
		</g>
	</g>
</g>
</svg>
