<?xml version="1.0" encoding="utf-8"?>
<!-- Generator: Adobe Illustrator 26.0.3, SVG Export Plug-In . SVG Version: 6.00 Build 0)  -->
<svg version="1.1" id="Layer_1" xmlns="http://www.w3.org/2000/svg" xmlns:xlink="http://www.w3.org/1999/xlink" x="0px" y="0px"
	 viewBox="0 0 303.1 59.1" style="enable-background:new 0 0 303.1 59.1;" xml:space="preserve">
<style type="text/css">
	.st0{fill:#161615;}
</style>
<g id="Layer_2_00000096027744146481354900000000754178017944097409_">
	<g id="Layer_1-2">
		<path class="st0" d="M36.4,27c-0.9-2.5-2.3-4.7-4.1-6.7c-2.1-2.2-4.7-3.8-7.6-4.7c-3.6-1.2-7.4-1.7-11.2-1.6H0v43.4h12.8
			c8.2,0,14.5-2.1,18.7-6.2s6.3-9.5,6.3-16.1C37.8,32.4,37.3,29.6,36.4,27 M25.1,45.4c-2.5,2.5-6.4,3.7-11.8,3.7H8.6V22.2h4.8
			c10.4,0,15.4,4.2,15.4,12.9C28.8,39.5,27.6,42.9,25.1,45.4"/>
		<polygon class="st0" points="296.1,3 287,2.9 283,11.2 290.9,11.2 		"/>
		<polygon class="st0" points="278.9,48.9 278.9,39.4 301,39.4 301,31.3 278.9,31.3 278.9,22.4 302.6,22.4 302.6,14.1 270.1,14.1 
			270.1,57.2 303.1,57.2 303.1,48.9 		"/>
		<polygon class="st0" points="125.2,41.1 103.5,14.2 103.4,14.1 96.6,14.1 96.6,57.2 105.2,57.2 105.2,30.3 127,57.2 133.7,57.2 
			133.7,14.1 125.2,14.1 		"/>
		<path class="st0" d="M173.5,44.3c-2.8,3.3-7,5.1-11.3,4.9c-3.7,0.2-7.2-1.2-9.9-3.7c-2.6-2.6-3.9-6.2-3.8-9.9
			c0-4.1,1.2-7.5,3.6-9.9c2.6-2.5,6.1-3.9,9.7-3.7c4-0.1,7.8,1.4,10.5,4.3l0.8,0.8l5.8-5.5l-0.6-0.8c-1.7-2.3-4-4.1-6.7-5.2
			c-3.2-1.4-6.6-2.1-10.1-2.1c-6.5,0-11.9,2.1-15.9,6.3c-4.1,4.2-6.3,9.9-6.1,15.7c0,6.6,2,12,6,16s9.4,6,16.1,6
			c3.5,0,7-0.7,10.2-2.1c2.8-1.2,5.3-3.2,7.2-5.7l0.5-0.7l-5.2-5.7L173.5,44.3z"/>
		<path class="st0" d="M200.6,14.1l-18.9,43.1h9.1l4-9.2h18l4,9.2h9.2l-19-43.1H200.6z M209.4,40.3H198l5.6-13.1L209.4,40.3z"/>
		<polygon class="st0" points="231,57.2 239.7,57.2 239.7,40.9 261.6,40.9 261.6,32.6 239.7,32.6 239.7,22.4 263.1,22.4 263.1,14.1 
			231,14.1 		"/>
		<path class="st0" d="M90.9,30.1c-0.7-2.9-1.9-5.7-3.6-8.2c-3.8-5.5-9.7-9.2-16.3-10.2l-1.6-0.2c-0.9-1.6-1.2-3.6-0.6-5.3
			c0.4-1,0.9-2,1.5-2.9l0.3-0.4c0.4-0.6,0.3-1.3-0.1-1.8l-0.9-1l-0.5,0.2l-0.7,0.2c-2.3,0.8-4.3,2.1-6,3.8c-1.4,1.5-2.3,3.5-2.5,5.6
			c-0.1,2.1,0.5,4.2,1.8,5.8l0.6,0.9c1,1.5,1.9,3.1,2.5,4.8c0.2,0.6,0.3,1.2,0.4,1.8c-0.2,2-1.1,3.8-2.5,5.1
			c-0.4,0.4-0.5,1.1-0.2,1.6l0.7,0.9l1.2-0.2c2.1-0.4,4-1.3,5.7-2.5c0.3-0.2,0.6-0.5,0.8-0.8c0.3-0.3,0.5-0.6,0.7-0.9
			c0.2-0.3,0.4-0.7,0.6-1c0.2-0.4,0.3-0.7,0.4-1.1c0.1-0.4,0.2-0.8,0.3-1.2c0.1-0.4,0.1-0.9,0.1-1.3c0-0.5,0-0.9,0-1.4
			c0-0.1,0-0.2,0-0.4s-0.1-0.2-0.1-0.4c0.3,0.1,0.6,0.1,0.8,0.2s0.4,0.1,0.7,0.2c0.4,0.1,0.9,0.3,1.3,0.5s0.8,0.4,1.2,0.6
			s0.7,0.4,1.1,0.6s0.7,0.5,1,0.7c0.3,0.2,0.6,0.5,0.9,0.8c0.3,0.3,0.5,0.5,0.7,0.8c0.2,0.3,0.4,0.6,0.6,0.9
			c0.2,0.3,0.3,0.6,0.5,0.9c0.1,0.3,0.3,0.6,0.3,0.9c0.1,0.3,0.2,0.7,0.2,1c0,0.3,0.1,0.6,0.1,0.9c0,2.6-1.6,5.1-4.5,7
			c-3.3,2-7.1,3-11,2.8c-0.4,0-0.9,0-1.3-0.1c-1.8-0.2-3.6-0.5-5.4-1.1c-1.3-0.4-2.6-1.1-3.7-1.8c-2.8-1.9-4.3-4.3-4.3-6.9
			c0-2.8,2.1-4.9,4.3-6.9c3.1-2.7,1.8-6.3,1.1-7.7L57,13.4l-0.7,0.3C48,17.7,42.6,26,42.5,35.2c0,4.5,1.3,8.8,3.7,12.6
			c4.4,7.1,12.1,11.4,20.5,11.3h0.7h0.7h0.4l1-0.1L70,59l0.7-0.1c0.3,0,0.6-0.1,0.8-0.1c0.6-0.1,1.2-0.2,1.6-0.3l0.2-0.1l0.6-0.1
			c0.5-0.2,1-0.3,1.5-0.5l0.3-0.1c0.2-0.1,0.4-0.1,0.7-0.2c0.3-0.1,0.5-0.2,0.8-0.3l0.4-0.2c0.4-0.2,0.8-0.4,1.2-0.5l0.2-0.1
			c2.7-1.4,5.2-3.4,7.2-5.7c3.6-4.3,5.6-9.7,5.6-15.3C91.5,33.5,91.3,31.8,90.9,30.1 M81.8,41.5c-2.4,6.2-8.4,10.3-15.1,10.2
			c-0.4,0-0.8,0-1.2-0.1c-6.3-0.4-11.7-4.6-13.8-10.5c-0.1-0.3-0.3-1.1-0.3-1.1l0.8,0.7c4.1,3.6,9.3,5.6,14.7,5.5c1,0,2-0.1,3-0.2
			c4.3-0.4,8.3-2.1,11.6-4.9l0.7-0.7L81.8,41.5"/>
	</g>
</g>
</svg>
