<?xml version="1.0" encoding="utf-8"?>
<!-- Generator: Adobe Illustrator 26.0.3, SVG Export Plug-In . SVG Version: 6.00 Build 0)  -->
<svg version="1.1" id="Layer_1" xmlns="http://www.w3.org/2000/svg" xmlns:xlink="http://www.w3.org/1999/xlink" x="0px" y="0px"
	 viewBox="0 0 313.5 77.4" style="enable-background:new 0 0 313.5 77.4;" xml:space="preserve">
<style type="text/css">
	.st0{fill-rule:evenodd;clip-rule:evenodd;fill:#161615;}
</style>
<g id="Layer_2_00000068650850156100516140000017074137077452461705_">
	<g id="Layer_1-2">
		<path class="st0" d="M32.5,34.6H2.6L25.7,0.2l0,0l0,0C24.9,0.1,24,0,23.1,0c-2.3,0-4.6,0.3-6.8,1l0,0L0,25.4l0,0
			c0.2,3.2,1.1,6.3,2.6,9.2l0,0C4,37.4,6,39.9,8.4,41.9h28.9L32.5,34.6L32.5,34.6z"/>
		<path class="st0" d="M46.3,22.9L46.3,22.9L32.4,2L15,27.9l0,0h8.8l8.6-12.8l12,17.9l0,0l0,0c1.3-3,1.9-6.2,1.9-9.4
			C46.3,23.4,46.3,23.2,46.3,22.9z"/>
		<polygon class="st0" points="75.3,17.9 89.9,17.9 89.9,23 75.3,23 75.3,31.8 91.1,31.8 91.1,36.9 69.3,36.9 69.3,5.1 91.1,5.1 
			91.1,10.1 75.3,10.1 		"/>
		<path class="st0" d="M122.1,24.5c0,7.2-5.8,13-13,13c-7.2,0-13-5.8-13-13V5.1h6v20.3c0.1,3.9,3.4,7,7.4,6.8
			c3.7-0.1,6.7-3.1,6.8-6.8V5.1h5.9L122.1,24.5z"/>
		<path class="st0" d="M146.4,23.2l7.8,13.6h-6.8L140,24h-6.2v12.9h-5.9V5.1h14.6c5.8,0,10.4,4.9,10.4,9.4S150.2,21.8,146.4,23.2
			L146.4,23.2z M142.6,10.1h-8.8v8.8h8.8c2.4,0.1,4.5-1.8,4.6-4.2s-1.8-4.5-4.2-4.6C142.9,10.1,142.7,10.1,142.6,10.1z"/>
		<path class="st0" d="M172.1,37.5c9-0.1,16.3-7.5,16.2-16.5c0.2-9-6.9-16.4-15.8-16.6c-9-0.2-16.4,6.9-16.6,15.8c0,0.3,0,0.5,0,0.8
			C155.8,30,163,37.4,172.1,37.5C172.1,37.5,172.1,37.5,172.1,37.5L172.1,37.5z M172.1,9.8c5.8,0,10.5,4.3,10.5,11.2
			s-4.7,11.2-10.5,11.2s-10.5-4.4-10.5-11.2C161.6,14.8,165.7,9.8,172.1,9.8z"/>
		<path class="st0" d="M198.4,17.5h7.7c2.1,0.1,3.9-1.5,4-3.6c0,0,0-0.1,0-0.1c-0.1-2.2-2-3.8-4.1-3.7h-7.6L198.4,17.5L198.4,17.5z
			 M210.6,19.4c4.1,1.2,6.1,3.6,6.1,7.9c-0.2,5.2-4.4,9.4-9.7,9.5h-14.6V5.1H207c4.3,0,8.4,2.9,8.4,7.5
			C215.4,15.6,213.5,18.4,210.6,19.4L210.6,19.4z M206.3,31.8c2.6,0,5.1-1.9,5.1-4.6c-0.2-2.7-2.4-4.7-5.1-4.6h-7.8v9.2H206.3z"/>
		<polygon class="st0" points="286.2,5.1 292.2,5.1 292.2,18.6 305,5.1 312.1,5.1 300.2,17.6 313.5,36.9 306.7,36.9 296.3,21.8 
			292.2,26.1 292.2,36.9 286.2,36.9 		"/>
		<path class="st0" d="M229.6,23.3h8.6L234,12.1L229.6,23.3L229.6,23.3z M240.2,28.4h-12.6l-3.3,8.5h-5.9l12.8-31.8h5.4l12.8,31.8
			h-5.9L240.2,28.4z"/>
		<polygon class="st0" points="258.7,5.1 273.3,27.8 273.3,5.1 279.2,5.1 279.2,36.9 273.2,36.9 258.7,14.3 258.7,36.9 252.8,36.9 
			252.8,5.1 		"/>
		<path class="st0" d="M213.4,60.1h-0.1c-0.8-0.9-1.8-1.7-3-2.1c-1.2-0.5-2.4-0.7-3.7-0.7c-1.4,0-2.7,0.3-4,0.8
			c-1.2,0.5-2.3,1.2-3.1,2.2c-0.9,0.9-1.6,2-2.1,3.2c-0.5,1.3-0.8,2.6-0.8,4c0,1.4,0.2,2.7,0.6,4c0.4,1.2,1,2.2,1.9,3.1
			c0.8,0.9,1.9,1.6,3,2c1.3,0.5,2.8,0.8,4.2,0.7c1.4,0,2.7-0.3,4-0.8c1.1-0.5,2.1-1.3,2.9-2.3l0,0c0,0,0,0,0.1,0v2.7h3.5v-19h-3.5
			v2.3H213.4z M189.3,76.9h3.8V65.2c0.1-2.1-0.5-4.2-1.8-5.8c-1.4-1.4-3.3-2.1-5.2-2c-1.2,0-2.4,0.3-3.4,0.8c-1.2,0.5-2.3,1.4-3,2.5
			h-0.2v-2.9h-3.6v19.2h3.8v-9.2c0-1.1,0.1-2.3,0.4-3.4c0.3-0.8,0.7-1.6,1.2-2.3c0.5-0.6,1-1,1.7-1.3c0.7-0.3,1.4-0.4,2.1-0.4
			c1.2-0.1,2.3,0.5,3.1,1.4c0.8,1.1,1.2,2.5,1.1,3.9L189.3,76.9L189.3,76.9z M166,57.8v-7.2h-2.4c-0.1,0.8-0.1,1.5-0.3,2.4
			c-0.1,0.8-0.4,1.6-0.7,2.4c-0.3,0.7-0.8,1.4-1.3,2c-0.6,0.6-1.4,1-2.3,1.1v2.4h3.2V71c0,0.9,0.1,1.8,0.3,2.6c0.2,0.7,0.5,1.4,1,2
			c0.5,0.6,1.1,1,1.8,1.2c0.9,0.3,1.8,0.5,2.7,0.4c0.8,0,1.5-0.1,2.3-0.3c0.9-0.2,1.9-0.6,2.7-1.1l-1-2.9c-0.6,0.3-1.3,0.6-2,0.7
			c-0.5,0.1-1,0.1-1.5,0.2c-0.8,0.1-1.5-0.2-2-0.9c-0.4-0.9-0.6-2-0.5-3v-9.3h5.6v-2.9H166z M141.1,76.9h3.8V68l8,8.9h4.9l-9.1-9.8
			l8.7-9.4h-4.5l-8.1,8.8V48.4H141L141.1,76.9L141.1,76.9z M128,57.3c-2.5,0-5,1-6.8,2.8c-0.9,0.9-1.5,2-2,3.2
			c-0.5,1.3-0.8,2.6-0.8,4c0,1.4,0.2,2.8,0.7,4.1c0.4,1.2,1.1,2.3,2,3.2c0.9,0.9,1.9,1.6,3.1,2c1.3,0.5,2.6,0.7,3.9,0.7
			c1.4,0,2.8-0.2,4.2-0.7c1.4-0.4,2.7-1.2,3.7-2.3l-1.9-2.4c-0.8,0.7-1.7,1.2-2.7,1.6c-1,0.4-2.1,0.6-3.1,0.6
			c-0.7,0-1.5-0.1-2.1-0.4c-0.7-0.2-1.3-0.6-1.9-1.1c-0.6-0.5-1.1-1.1-1.4-1.8c-0.4-0.8-0.6-1.6-0.7-2.5h14.9v-1.2
			c0-1.3-0.2-2.7-0.6-3.9c-0.4-1.2-1-2.2-1.8-3.2c-0.8-0.9-1.8-1.6-2.9-2.1C130.6,57.5,129.3,57.3,128,57.3z M109.9,60.8l-0.1-0.1
			v-3h-3.6v19.1h3.8v-9.1c-0.1-1.8,0.4-3.7,1.5-5.2c0.9-1.3,2.4-2,3.9-2c0.4,0,0.7,0,1.1,0.1c0.4,0.1,0.8,0.2,1.2,0.3v-3.5
			c-0.3-0.1-0.6-0.2-0.9-0.2c-0.3,0-0.6,0-0.9,0C113.3,57.2,111,58.6,109.9,60.8L109.9,60.8z M96.9,76.9h3.8V57.7h-3.8V76.9z
			 M69.4,76.9h10c2,0,4-0.3,5.8-1.1c1.6-0.7,3.1-1.7,4.3-3c1.1-1.3,2-2.9,2.5-4.5c0.6-1.8,0.9-3.8,0.9-5.7c0-2-0.3-3.9-1-5.7
			c-0.6-1.7-1.6-3.2-2.8-4.5c-1.3-1.3-2.8-2.3-4.4-2.9c-1.9-0.7-4-1-6-1h-9.4L69.4,76.9L69.4,76.9z M98.8,49.4c1.3,0,2.3,1,2.3,2.3
			s-1,2.3-2.3,2.3c-1.3,0-2.3-1-2.3-2.3C96.5,50.4,97.5,49.4,98.8,49.4C98.7,49.4,98.8,49.4,98.8,49.4z M89,62.6
			c0,1.5-0.2,3-0.6,4.5c-0.4,1.3-1,2.4-1.8,3.4c-0.8,1-1.9,1.7-3.1,2.2c-1.4,0.6-2.9,0.8-4.4,0.8h-5.8V51.7h5.5
			c1.5,0,3.1,0.3,4.5,0.8c1.2,0.5,2.3,1.3,3.2,2.3c0.8,1,1.5,2.2,1.8,3.5C88.8,59.7,89,61.2,89,62.6z M128.1,60.3
			c1.4,0,2.7,0.5,3.7,1.5c1,1,1.6,2.3,1.7,3.8h-11.2c0.1-0.8,0.3-1.5,0.7-2.2c0.3-0.6,0.8-1.2,1.3-1.6c0.5-0.4,1.1-0.8,1.8-1
			C126.7,60.4,127.4,60.3,128.1,60.3L128.1,60.3z M206.9,60.4c0.9,0,1.8,0.2,2.6,0.5c0.8,0.3,1.4,0.9,2,1.5c0.6,0.6,1,1.4,1.2,2.2
			c0.3,0.9,0.4,1.8,0.4,2.7c0,0.9-0.1,1.8-0.4,2.7c-0.2,0.8-0.7,1.6-1.2,2.2c-0.6,0.6-1.2,1.1-2,1.5c-0.8,0.4-1.8,0.6-2.7,0.6
			c-0.9,0-1.9-0.1-2.7-0.5c-0.8-0.3-1.4-0.8-2-1.5c-0.6-0.6-1-1.4-1.3-2.2c-0.3-0.9-0.4-1.8-0.4-2.8c0-0.9,0.1-1.8,0.4-2.7
			c0.3-0.8,0.7-1.5,1.3-2.2c0.6-0.6,1.2-1.1,2-1.5C205.1,60.6,206,60.4,206.9,60.4L206.9,60.4z"/>
	</g>
</g>
</svg>
