<svg xmlns="http://www.w3.org/2000/svg" viewBox="0 0 313.47 77.36"><defs><style>.cls-1{fill:#4ea1a7;fill-rule:evenodd;}</style></defs><g id="Layer_2" data-name="Layer 2"><g id="Layer_1-2" data-name="Layer 1"><path class="cls-1" d="M32.45,34.64H2.62L25.71.18v0h0A24.7,24.7,0,0,0,23.13,0a23.14,23.14,0,0,0-6.77,1h0L0,25.43H0a23.73,23.73,0,0,0,2.59,9.19l0,0a23.42,23.42,0,0,0,5.81,7.26H37.34l-4.88-7.29Z"/><path class="cls-1" d="M46.31,22.86h0L32.38,2.05,15,27.92l0,0h8.79l8.59-12.77,12,17.9,0,0,0,0a24,24,0,0,0,1.92-9.43C46.33,23.41,46.32,23.16,46.31,22.86Z"/><polygon class="cls-1" points="75.27 17.93 89.92 17.93 89.92 22.99 75.27 22.99 75.27 31.81 91.11 31.81 91.11 36.87 69.33 36.87 69.33 5.07 91.11 5.07 91.11 10.13 75.27 10.13 75.27 17.93"/><path class="cls-1" d="M122.13,24.45a13,13,0,0,1-26.09,0V5.07H102V25.33a7.11,7.11,0,0,0,14.21,0V5.07h5.94Z"/><path class="cls-1" d="M146.42,23.25l7.84,13.62h-6.8L140,24h-6.25V36.87h-5.93V5.07h14.59c5.75,0,10.42,4.87,10.42,9.44s-2.66,7.32-6.44,8.74Zm-3.84-13.12h-8.8V18.9h8.8a4.39,4.39,0,1,0,0-8.77Z"/><path class="cls-1" d="M172.09,37.49A16.37,16.37,0,0,0,188.31,21a16.23,16.23,0,1,0-32.45,0,16.37,16.37,0,0,0,16.23,16.52Zm0-27.73c5.78,0,10.48,4.34,10.48,11.21s-4.7,11.21-10.48,11.21S161.61,27.83,161.61,21C161.61,14.78,165.67,9.76,172.09,9.76Z"/><path class="cls-1" d="M198.44,17.52h7.69a3.81,3.81,0,0,0,4-3.7A3.92,3.92,0,0,0,206,10.13h-7.57v7.39Zm12.2,1.91c4.09,1.23,6.11,3.57,6.11,7.94a9.94,9.94,0,0,1-9.66,9.5H192.5V5.07H207c4.28,0,8.42,2.94,8.42,7.49a7.34,7.34,0,0,1-4.82,6.87Zm-4.38,12.38c2.6,0,5.12-1.87,5.12-4.62a4.89,4.89,0,0,0-5.12-4.61h-7.82v9.23Z"/><polygon class="cls-1" points="286.25 5.07 292.19 5.07 292.19 18.57 305.02 5.07 312.14 5.07 300.23 17.61 313.47 36.87 306.68 36.87 296.29 21.75 292.19 26.06 292.19 36.87 286.25 36.87 286.25 5.07"/><path class="cls-1" d="M229.63,23.34h8.65L234,12.11l-4.32,11.23Zm10.6,5.06H227.68l-3.26,8.47h-5.95l12.77-31.8h5.42l12.77,31.8h-5.94Z"/><polygon class="cls-1" points="258.68 5.07 273.29 27.81 273.29 5.07 279.23 5.07 279.23 36.87 273.17 36.87 258.68 14.32 258.68 36.87 252.75 36.87 252.75 5.07 258.68 5.07"/><path class="cls-1" d="M213.37,60.1l-.13,0a7.86,7.86,0,0,0-3-2.12,9.45,9.45,0,0,0-3.69-.73,10,10,0,0,0-4,.8,9.6,9.6,0,0,0-3.15,2.16,9.91,9.91,0,0,0-2.07,3.21,10.32,10.32,0,0,0-.76,4,12.08,12.08,0,0,0,.65,4,8.73,8.73,0,0,0,1.88,3.13,8.35,8.35,0,0,0,3,2,10.88,10.88,0,0,0,4.19.74,9.06,9.06,0,0,0,4-.84,8.37,8.37,0,0,0,2.86-2.31s0,0,0,0,0,0,.08,0v2.68h3.54V57.78h-3.54V60.1ZM189.26,76.93h3.8V65.15a8.44,8.44,0,0,0-1.81-5.82,6.63,6.63,0,0,0-5.22-2,9.06,9.06,0,0,0-3.45.76,6.77,6.77,0,0,0-3,2.52h-.17V57.73h-3.58v19.2h3.79V67.78a11.11,11.11,0,0,1,.45-3.38,6.91,6.91,0,0,1,1.22-2.31A4.36,4.36,0,0,1,183,60.78a5.41,5.41,0,0,1,2.12-.41,3.62,3.62,0,0,1,3.05,1.4,6.11,6.11,0,0,1,1.08,3.86v11.3ZM166,57.75V50.5h-2.37c-.06.75-.15,1.54-.28,2.38a9.51,9.51,0,0,1-.69,2.37,6.5,6.5,0,0,1-1.34,2,4.13,4.13,0,0,1-2.26,1.1v2.37h3.19V71a11.59,11.59,0,0,0,.28,2.63,4.58,4.58,0,0,0,1,2,4.32,4.32,0,0,0,1.79,1.25,7.76,7.76,0,0,0,2.74.43,10.28,10.28,0,0,0,2.26-.34,9.78,9.78,0,0,0,2.7-1.08l-1-2.89a6.8,6.8,0,0,1-2,.71,9.11,9.11,0,0,1-1.49.15,2.14,2.14,0,0,1-2-.86,6.08,6.08,0,0,1-.54-3V60.68h5.61V57.75ZM141.07,76.93h3.78V68l8,8.93h4.87l-9.06-9.84,8.71-9.36h-4.48l-8.07,8.76V48.42h-3.78V76.93ZM128,57.3a9.4,9.4,0,0,0-6.77,2.85,9.76,9.76,0,0,0-2,3.17,10.24,10.24,0,0,0-.76,4,11.51,11.51,0,0,0,.71,4.13,9.36,9.36,0,0,0,2,3.18,8.67,8.67,0,0,0,3.07,2,10.63,10.63,0,0,0,3.94.71,13.85,13.85,0,0,0,4.2-.65,9,9,0,0,0,3.7-2.29L134.23,72a10.46,10.46,0,0,1-2.66,1.6,8.38,8.38,0,0,1-3.12.56,6.35,6.35,0,0,1-2.14-.38,6.15,6.15,0,0,1-1.92-1.07,6.44,6.44,0,0,1-1.45-1.79,6.69,6.69,0,0,1-.71-2.5h14.88V67.18a11.55,11.55,0,0,0-.64-3.92,9.86,9.86,0,0,0-1.83-3.16A8.27,8.27,0,0,0,131.75,58,9.47,9.47,0,0,0,128,57.3Zm-18.06,3.52-.12-.09v-3h-3.63V76.87h3.75V67.8a8.57,8.57,0,0,1,1.47-5.19,4.65,4.65,0,0,1,3.93-2,6.16,6.16,0,0,1,1.07.09,4.94,4.94,0,0,1,1.16.3V57.5a2.59,2.59,0,0,0-.9-.21,7.31,7.31,0,0,0-.86,0,6.19,6.19,0,0,0-5.87,3.58Zm-13,16.09h3.8V57.72h-3.8V76.91Zm-27.58,0h10a14.74,14.74,0,0,0,5.82-1.08,12,12,0,0,0,4.29-3A12.89,12.89,0,0,0,92,68.3a17.56,17.56,0,0,0,.9-5.73,16.1,16.1,0,0,0-1-5.73,12.85,12.85,0,0,0-2.78-4.48,12.56,12.56,0,0,0-4.44-2.91,16.14,16.14,0,0,0-6-1H69.28V76.93ZM98.76,49.41a2.3,2.3,0,1,1-2.3,2.3,2.29,2.29,0,0,1,2.3-2.3ZM89,62.61a15.17,15.17,0,0,1-.61,4.46,9.43,9.43,0,0,1-1.83,3.45,8.21,8.21,0,0,1-3.08,2.24,11,11,0,0,1-4.36.81H73.33V51.74h5.53a11.19,11.19,0,0,1,4.5.84,8.44,8.44,0,0,1,3.15,2.31,9.6,9.6,0,0,1,1.83,3.45A14.31,14.31,0,0,1,89,62.61Zm39.15-2.33a5,5,0,0,1,3.67,1.46,6,6,0,0,1,1.68,3.76H122.32a6.34,6.34,0,0,1,.69-2.18,5.43,5.43,0,0,1,1.3-1.64,5.63,5.63,0,0,1,1.76-1,5.69,5.69,0,0,1,2-.37Zm78.8.17a6.15,6.15,0,0,1,2.63.54,5.89,5.89,0,0,1,2,1.49,6.7,6.7,0,0,1,1.25,2.2,8.35,8.35,0,0,1,.43,2.67,8.87,8.87,0,0,1-.41,2.7,6,6,0,0,1-1.23,2.2,6.2,6.2,0,0,1-2,1.48,6,6,0,0,1-2.68.56,6.9,6.9,0,0,1-2.74-.5,5.88,5.88,0,0,1-2-1.48,6.34,6.34,0,0,1-1.27-2.2,8.32,8.32,0,0,1-.43-2.76,7.6,7.6,0,0,1,.45-2.67,6.43,6.43,0,0,1,1.29-2.18,6.19,6.19,0,0,1,2-1.49A6.29,6.29,0,0,1,206.9,60.45Z"/></g></g></svg>