<?xml version="1.0" encoding="utf-8"?>
<!-- Generator: Adobe Illustrator 26.0.3, SVG Export Plug-In . SVG Version: 6.00 Build 0)  -->
<svg version="1.1" id="Layer_1" xmlns="http://www.w3.org/2000/svg" xmlns:xlink="http://www.w3.org/1999/xlink" x="0px" y="0px"
	 viewBox="0 0 280.5 144.7" style="enable-background:new 0 0 280.5 144.7;" xml:space="preserve">
<style type="text/css">
	.st0{fill:#DC001F;}
	.st1{fill:#161615;}
	.st2{fill:none;}
	.st3{fill:#FFFFFF;}
	.st4{fill:#C7C9CB;}
</style>
<g>
	<g id="Layer_2_00000180352486966430163800000009229878380523526584_">
		<g id="Layer_1-2">
			<path class="st0" d="M39.5,100.7c6.3-2.2,12.9-3.7,19.6-4.6l-9.3-8.7C46.1,91.6,42.6,96,39.5,100.7z"/>
			<path class="st0" d="M230.6,87.4l-9.2,8.7c6.7,0.8,13.3,2.3,19.6,4.6C237.9,96,234.4,91.6,230.6,87.4z"/>
			<path class="st1" d="M140.4,0h-0.1C86.2,0,32.3,24.4,0,73c11.9,8.4,36.9,27.5,36.9,27.5c24-36.1,63.1-55.5,102.9-55l0,0
				c41.7-0.4,80.7,20.3,103.8,55L280.5,73C248.2,24.4,194.4,0,140.4,0z"/>
			<path class="st1" d="M39.5,100.7c6.3-2.2,12.9-3.7,19.6-4.6l-9.3-8.7C46.1,91.6,42.6,96,39.5,100.7z"/>
			<path class="st1" d="M56.7,98.7c-6,0.9-11.8,2.3-17.5,4.3l-0.8,0.3l-0.8,0.3l-0.6,0.2l0,0L16.1,87.8C10.4,96.7,4.5,109.4,1.9,119
				c7.8-3.8,16.1-6.7,24.6-8.7c0.8,11.7,3.1,23.2,6.8,34.3c3.1-12,8.2-23.5,14.9-33.9c2.8-4.3,5.9-8.4,9.4-12.3l0,0L56.7,98.7z"/>
			<path class="st1" d="M230.6,87.4l-9.2,8.7c6.7,0.8,13.3,2.3,19.6,4.6C237.9,96,234.4,91.6,230.6,87.4z"/>
			<path class="st1" d="M243.4,103.7L243.4,103.7l-0.6-0.2l-0.8-0.3l-0.8-0.3c-5.7-2-11.6-3.4-17.5-4.2l-0.9-0.2l0,0
				c3.4,3.9,6.6,8,9.4,12.3c6.8,10.4,11.8,21.9,14.9,33.9c3.7-11.1,6-22.6,6.8-34.3c8.5,1.9,16.7,4.8,24.6,8.6
				c-3.3-10.9-8.1-21.4-14.1-31.1L243.4,103.7z"/>
			<path class="st2" d="M58.2,25.9l-3.7,2.2L53,29l9.5,15.2l3.2,5.2l0.1,0.2v0c0.2,0.3,0.5,0.7,0.7,1.1c0.4,0.6,0.6,1.3,0.7,2
				c0.1,1.1-0.3,2.2-1.2,2.9L66,55.7l-1.5,0.9L63,57.4l3.5,5.3l1.4-0.7l1.8-1.1c3.8-1.9,5.4-6.5,3.5-10.3c-0.2-0.3-0.4-0.7-0.6-1
				L58.2,25.9z"/>
			<polygon class="st2" points="82.2,39.3 86.1,37.6 85.5,36.9 85.5,36.8 83.7,34.1 80.7,29.8 79.3,27.7 			"/>
			<path class="st2" d="M235.5,44.6c-0.4-0.7-0.8-1.3-1.2-1.9c-1.9-2.4-4.7-3.8-7.7-4.1c-0.4,0-0.8-0.1-1.1-0.1
				c-5.9,0-10.8,4.4-11.3,10.2c-0.3,3,0.6,6,2.5,8.3c0.8,0.9,1.7,1.8,2.7,2.4l0.3,0.2c1.5,0.9,3.1,1.4,4.8,1.6
				c0.4,0,0.8,0.1,1.1,0.1c6.3,0.1,11.4-5,11.4-11.2c0-1.6-0.3-3.2-1-4.7C235.7,45.1,235.6,44.8,235.5,44.6z"/>
			<path class="st2" d="M239.8,38.2c-1.3-1.6-3-3-4.8-4.1c-2.4-1.4-5.1-2.3-7.8-2.6c-0.7-0.1-1.3-0.1-1.9-0.1c-0.6,0-1.1,0-1.7,0.1
				c-8.1,0.7-14.8,6.6-16.5,14.5c-0.1,0.7-0.2,1.3-0.3,2c-0.3,3.4,0.3,6.9,1.8,10c0.6,1.2,1.4,2.4,2.2,3.5c3.1,3.8,7.7,6.2,12.6,6.7
				c0.6,0.1,1.3,0.1,1.9,0.1c9.5,0.1,17.6-7.2,18.5-16.6C244.4,46.8,242.9,42,239.8,38.2z M237.7,51.1c-0.5,5.2-4.2,9.4-9.2,10.7
				c-1,0.3-2.1,0.4-3.1,0.4c-0.4,0-0.8,0-1.2-0.1c-0.8-0.1-1.6-0.2-2.4-0.5c-2.4-0.7-4.4-2.1-6-4c-2.1-2.5-3.1-5.8-2.7-9
				c0.6-6.3,6-11.1,12.3-11.1c0.4,0,0.8,0,1.2,0.1c3.3,0.3,6.3,1.9,8.4,4.5C237.1,44.6,238.1,47.9,237.7,51.1L237.7,51.1z"/>
			<polygon class="st2" points="111.3,38.1 115.2,6.8 95.2,11.2 93.5,11.6 94.9,16.8 96.6,16.4 108.2,13.9 108.1,14.9 107.9,16 
				107.9,16.1 104.2,45.1 104.3,45.1 106.6,44.6 123.3,41.4 122.2,35.9 			"/>
			<polygon class="st2" points="156.5,16.1 153,27.8 152.5,24.9 149.6,5.1 143.1,4.9 140.6,4.8 140.4,4.8 139.6,14.9 137.6,41.3 
				139.3,41.3 143.1,41.3 145.3,16.5 146.9,26.2 147.3,27.9 148.3,34.2 149.6,41.4 151.5,41.5 154.2,41.7 161.6,17 161,28.4 
				160.5,36.6 160.4,37.5 160.2,42.2 162.1,42.5 165.9,43.1 167.8,7 161.8,6.2 159.6,5.9 			"/>
			<path class="st2" d="M71.2,19.2l-0.8,0.3l9.3,35.3l1-0.4l4-1.7l-1.5-6.6l7-3l0.4,0.5l3.8,4.9l1.2-0.5l4-1.7L78.8,16L71.2,19.2z
				 M86.4,36.4l1.2,1.7l-6,2.5l-4.6-18.1l6,8.8L86.4,36.4z"/>
			<polygon class="st2" points="184.2,48.2 184.5,48.3 186.1,49 199.7,54.4 201.8,49.5 191.2,45.5 191.4,44.9 202.3,16.5 
				202.3,16.5 202.3,16.4 196.4,14.2 193.5,22 			"/>
			<polygon class="st2" points="182.9,10.1 181,9.6 180.6,9.5 178.6,17.5 174.9,32.5 172,44.6 173.5,45 177.4,46 186.7,11.1 			"/>
			<polygon class="st2" points="11.6,66.3 9.2,69.4 8.2,70.8 35.7,92.4 36.8,91 39.1,88.1 25.5,77.3 			"/>
			<polygon class="st2" points="37.8,39.6 36.5,40.7 41.6,47 50.2,57.5 30.9,45.1 28.5,47.4 27.3,48.5 50.8,74.9 52.2,73.6 
				54.3,71.8 43.6,59 54.4,65.1 59.3,67.9 60.8,66.8 62.8,65.2 40.8,37.2 			"/>
			<polygon class="st2" points="30.1,72 22.5,53.9 19.3,57.3 18.1,58.5 23.4,70.1 26.3,76.8 35.5,79.8 44,82.6 45,81.4 47.6,78.5 
				30.2,72.2 			"/>
			<polygon class="st2" points="265.2,59.3 265,57.9 263.1,55.7 262.6,55.2 262.8,58 265.9,61.7 268.8,62.4 266.5,59.7 			"/>
			<path class="st3" d="M254.4,56.8c-2.2,0-4.4,0.8-6,2.3c-4.2,3.8-3.6,7.7-1.4,14.2c1.8,5.5,1.6,7.2-0.1,8.7c-0.7,0.6-1.6,1-2.5,1
				c-1.6-0.1-3.1-0.9-4.1-2.2c-2.3-2.6-3.2-5.6-3.4-9.3l-5,1.1c0.1,4.3,1.7,8.4,4.6,11.7c2,2.5,5,4.1,8.3,4.2c2.3,0,4.5-0.9,6.2-2.4
				c3.9-3.4,3.8-7.3,1.6-13.9c-1.9-5.6-1.9-7.3,0-8.9c0.7-0.6,1.5-0.9,2.4-0.9c1.5,0.1,2.9,0.8,3.8,2c1.6,1.8,2.2,4.2,1.6,6.5l5,1.2
				c1.1-3.9,0.1-8.1-2.8-11.1C260.5,58.4,257.6,56.9,254.4,56.8z"/>
			<polygon class="st3" points="11.6,66.3 9.2,69.4 8.2,70.8 35.7,92.4 36.8,91 39.1,88.1 25.5,77.3 			"/>
			<polygon class="st3" points="30.1,72 22.5,53.9 19.3,57.3 18.1,58.5 23.4,70.1 26.3,76.8 35.5,79.8 44,82.6 45,81.4 47.6,78.5 
				30.2,72.2 			"/>
			<polygon class="st3" points="159.6,5.9 156.5,16.1 153,27.8 152.5,24.9 149.6,5.1 143.1,4.9 140.6,4.8 140.4,4.8 139.6,14.9 
				137.6,41.3 139.3,41.3 143.1,41.3 145.3,16.5 146.9,26.2 147.3,27.9 148.3,34.2 149.6,41.4 151.5,41.5 154.2,41.7 161.6,17 
				161,28.4 160.5,36.6 160.4,37.5 160.2,42.2 162.1,42.5 165.9,43.1 167.8,7 161.8,6.2 			"/>
			<polygon class="st3" points="37.8,39.6 36.5,40.7 41.6,47 50.2,57.5 30.9,45.1 28.5,47.4 27.3,48.5 50.8,74.9 52.2,73.6 
				54.3,71.8 43.6,59 54.4,65.1 59.3,67.9 60.8,66.8 62.8,65.2 40.8,37.2 			"/>
			<polygon class="st3" points="182.9,10.1 181,9.6 180.6,9.5 178.6,17.5 174.9,32.5 172,44.6 173.5,45 177.4,46 186.7,11.1 			"/>
			<polygon class="st3" points="193.5,22 184.2,48.2 184.5,48.3 186.1,49 199.7,54.4 201.8,49.5 191.2,45.5 191.4,44.9 202.3,16.5 
				202.3,16.5 202.3,16.4 196.4,14.2 			"/>
			<path class="st3" d="M243.9,51.7c0.7-7.1-2.8-13.9-8.9-17.6c-2.4-1.4-5.1-2.3-7.8-2.6c-0.7-0.1-1.3-0.1-1.9-0.1
				c-0.6,0-1.1,0-1.7,0.1c-8.1,0.7-14.8,6.6-16.5,14.5c-0.1,0.7-0.2,1.3-0.3,2c-0.3,3.4,0.3,6.9,1.8,10c0.6,1.2,1.4,2.4,2.2,3.5
				c3.1,3.8,7.7,6.2,12.6,6.7c0.6,0.1,1.3,0.1,1.9,0.1C234.9,68.3,242.9,61.2,243.9,51.7z M215.7,57.6c-2.1-2.5-3.1-5.8-2.7-9
				c0.6-6.3,6-11.1,12.3-11.1c0.4,0,0.8,0,1.2,0.1c3.3,0.3,6.3,1.9,8.4,4.5c2.8,3.5,3.6,8.2,1.9,12.3c-1.5,3.7-4.6,6.4-8.4,7.4
				c-1,0.3-2.1,0.4-3.1,0.4c-0.4,0-0.8,0-1.2-0.1c-0.8-0.1-1.6-0.2-2.4-0.5C219.4,61,217.3,59.6,215.7,57.6L215.7,57.6z"/>
			<polygon class="st3" points="111.3,38.1 115.2,6.8 95.2,11.2 93.5,11.6 94.9,16.8 96.6,16.4 108.2,13.9 108.1,14.9 107.9,16 
				107.9,16.1 104.2,45.1 104.3,45.1 106.6,44.6 123.3,41.4 122.2,35.9 			"/>
			<polygon class="st3" points="263.2,58.5 265.9,61.7 268.8,62.4 266.5,59.7 265.2,59.3 265,57.9 263.1,55.7 262.6,55.2 262.8,58 
							"/>
			<path class="st3" d="M58.2,25.9l-3.7,2.2L53,29l9.5,15.2l3.2,5.2l0.1,0.2v0c0.2,0.3,0.5,0.7,0.7,1.1c0.4,0.6,0.6,1.3,0.7,2
				c0.1,1.1-0.3,2.2-1.2,2.9L66,55.7l-1.5,0.9L63,57.4l3.5,5.3l1.4-0.7l1.8-1.1c3.8-1.9,5.4-6.5,3.5-10.3c-0.2-0.3-0.4-0.7-0.6-1
				L58.2,25.9z"/>
			<path class="st3" d="M71.2,19.2l-0.8,0.3l9.3,35.3l1-0.4l4-1.7l-1.5-6.6l7-3l0.4,0.5l3.8,4.9l1.2-0.5l4-1.7L78.8,16L71.2,19.2z
				 M81.6,40.6l-4.6-18.1l6,8.8l3.4,5.1l1.2,1.7L81.6,40.6z"/>
			<g>
				<path class="st4" d="M241.9,79.3c0.3,0.4,0.6,0.8,1,1.1c-1.9-2.7-2.1-7.1-1.5-9.2l-2.1,0.2C239.2,74.3,240.1,77,241.9,79.3z"/>
			</g>
			<polygon class="st4" points="85.8,47.6 87,52.8 88.7,52.1 87.5,46.9 			"/>
			<polygon class="st4" points="80.9,13.8 101.6,44.9 101.9,41.5 83.2,13.1 			"/>
			<polygon class="st4" points="82.8,38 81.3,32.1 84.4,37.4 			"/>
			<polygon class="st4" points="35.8,82.3 41.8,87 42.8,85.7 40.4,83.8 			"/>
			<polygon class="st4" points="47.4,74.4 33.1,69.3 25,49.8 23.9,51 32,70.5 50.1,76.9 			"/>
			<polygon class="st4" points="13.8,62.3 12.6,63.9 20.7,70.2 19,66.4 			"/>
			<polygon class="st4" points="147.2,42.3 146,32.4 145.2,42.3 			"/>
			<polygon class="st4" points="152.7,4.9 153.9,15.2 155.5,9.9 155,5 			"/>
			<polygon class="st4" points="168.2,44.7 169.6,44.9 170.8,40.5 173.4,7.6 170.9,7.2 			"/>
			<polygon class="st4" points="157.9,43.1 158.5,34.6 156.1,42.9 			"/>
			<polygon class="st4" points="60.8,55.2 44,33.6 42.2,35 59,56.5 			"/>
			<polygon class="st4" points="53.1,66.9 56.5,71 58,69.8 57.6,69.3 			"/>
			<polygon class="st4" points="35.4,43.2 33.6,42 32.2,43.2 39,47.5 			"/>
			<polygon class="st4" points="179.2,47.5 181.5,48.2 192,12.3 189.7,11.7 			"/>
			<path class="st4" d="M204.4,49.5l-3.1,7.3l2,0.8l1.4-3.5C204.5,52.6,204.4,51,204.4,49.5z"/>
			<polygon class="st4" points="194.4,44.4 196.4,45.2 206.9,18 204.7,17.3 			"/>
			<path class="st4" d="M218.8,57.2c-1.6-1.9-2.3-4.3-2-6.8c0.5-5.1,4.8-8.9,9.9-8.9c0.3,0,0.7,0,1,0c2,0.1,3.9,0.8,5.5,2.1
				c-1.7-2.1-4.1-3.4-6.8-3.7c-0.3,0-0.7,0-1,0c-5.1,0-9.4,3.8-9.9,8.9c-0.3,2.6,0.5,5.2,2.2,7.3C218,56.4,218.3,56.8,218.8,57.2z"
				/>
			<polygon class="st4" points="114.8,34.5 117,34 120.5,6 120.3,4.5 117.9,5.1 118.2,6.5 			"/>
			<polygon class="st4" points="126.8,33.4 124.5,33.9 124.5,34.3 126.2,42.2 128.5,41.7 			"/>
			<path class="st4" d="M72.8,41.4L61.7,23l-1.9,0.9l14.7,23.9c0.1,0.2,0.3,0.4,0.4,0.6L72.8,41.4z"/>
			<path class="st4" d="M268,66.1l5.1,1.3l-1.7-2l-4.2-1.1C267.6,64.9,267.8,65.5,268,66.1z"/>
			<g>
				<path class="st4" d="M267.5,67.6c0.4,2.3,0.2,4.7-0.6,6.9l-5.4-1.3c0,0.5-0.1,1-0.2,1.5l6.9,1.6C269,72.7,268.7,69.9,267.5,67.6
					z"/>
			</g>
			<path class="st4" d="M81.6,40.6l6-2.5l-1.2-1.7L83,31.3l-6-8.8L81.6,40.6z M83.7,34.1l1.8,2.7l0.1,0.1l0.5,0.8l-3.8,1.6l-3-11.6
				l1.5,2.2L83.7,34.1z"/>
			<path class="st4" d="M22.9,52.2l-4,4.2l-1.2,1.2L17,58.3l4.7,10.6l1.5,3.3l1.4,3.1l-13-10.2l-0.2-0.2l-4,5.3L6.8,71l29.1,22.8
				l0.6-0.7l1.1-1.4l2.9-3.7l-11.6-9.3L33,80l4.6,1.5l6.7,2.2l0.6-0.6l1.2-1.3l3.3-3.7L31,71.5L22.9,52.2z M39.1,88.2L36.8,91
				l-1.1,1.4L8.2,70.8l1.1-1.4l2.4-3.1l13.9,10.9L39.1,88.2z M45,81.4l-1,1.1l-8.5-2.8l-9.2-3l-3-6.7l-5.2-11.7l1.1-1.2l3.3-3.4
				L30.1,72l0.1,0.3l17.4,6.3L45,81.4z"/>
			<path class="st4" d="M41,35.8L41,35.8l-0.5,0.3l-3.3,2.7L35.8,40l-0.7,0.6l3.9,4.8l3.5,4.3l3,3.6l-14.3-9.2L31,44l-0.2-0.1
				l-2.7,2.6l-1.7,1.7L26,48.5l23.7,26.5l1,1.2l0.6-0.6l0,0l4.3-3.7l-0.2-0.2l-7.6-9.2l3.7,2.1l4.7,2.7l3.2,1.8l0.7-0.6l4.1-3.1
				L63.9,65L41,35.8z M60.8,66.8l-1.5,1.2l-4.9-2.8L43.6,59l10.6,12.8l-2,1.8l-1.5,1.3L27.3,48.5l1.2-1.1l2.5-2.3l19.2,12.4L41.6,47
				l-5.1-6.3l1.4-1.1l3-2.4l22,28L60.8,66.8z"/>
			<path class="st4" d="M183.1,9.1l-1.9-0.5l-1.4-0.4l-2.2,9l-6.8,28l0.6,0.2l1.8,0.5l4.8,1.2l9.8-36.8L183.1,9.1z M177.4,46l-3.9-1
				l-1.5-0.4l2.9-12.1l3.6-14.9l2-8l0.5,0.1l1.9,0.5l3.8,1L177.4,46z"/>
			<path class="st4" d="M192.6,21.7L183,48.8l1.2,0.5l1.6,0.7l14.4,5.7l2.8-6.7l-10.6-4.1l10.7-28.1v0l0.4-0.9l-7.8-2.8L192.6,21.7z
				 M202.3,16.4L202.3,16.4L202.3,16.4l-10.9,28.5l-0.2,0.6l10.6,4.1l-2.1,4.9L186.1,49l-1.6-0.7l-0.2-0.1l9.3-26.2l2.8-7.8
				L202.3,16.4z"/>
			<path class="st4" d="M244.9,51.8c0.5-5.1-1-10.2-4.3-14.2c-0.2-0.2-0.4-0.5-0.6-0.7c-3.3-3.6-7.8-5.9-12.7-6.4
				c-0.6-0.1-1.3-0.1-1.9-0.1c-10.1-0.1-18.5,7.6-19.5,17.6c-0.1,0.7-0.1,1.3-0.1,2s0,1.3,0.1,1.9c0.3,3.2,1.4,6.2,3.2,8.9
				c0.3,0.5,0.7,1,1.1,1.4s0.6,0.7,0.9,1c3.2,3.4,7.6,5.6,12.3,6c0.6,0.1,1.3,0.1,1.9,0.1C235.4,69.4,243.8,61.8,244.9,51.8z
				 M225.4,68.3c-0.6,0-1.2,0-1.9-0.1c-4.9-0.5-9.5-2.9-12.6-6.7c-0.9-1.1-1.6-2.2-2.2-3.5c-1.5-3.1-2.2-6.6-1.8-10
				c0.1-0.7,0.2-1.3,0.3-2c1.7-8,8.4-13.9,16.5-14.6c0.6,0,1.1-0.1,1.7-0.1s1.2,0,1.9,0.1c2.8,0.3,5.4,1.2,7.8,2.6
				c6.1,3.7,9.5,10.5,8.9,17.6C242.9,61.2,234.9,68.4,225.4,68.3z"/>
			<path class="st4" d="M235,42.1c-2.1-2.6-5.1-4.2-8.4-4.5c-0.4,0-0.8-0.1-1.2-0.1c-6.4,0-11.7,4.8-12.4,11.1
				c-0.3,3.2,0.6,6.5,2.7,9c1.6,1.9,3.6,3.3,6,4c0.8,0.2,1.6,0.4,2.4,0.5c0.4,0,0.8,0.1,1.2,0.1c1.1,0,2.1-0.1,3.1-0.4
				c5-1.3,8.7-5.6,9.2-10.7C238,47.8,237,44.6,235,42.1L235,42.1z M236.7,51c-0.6,5.8-5.5,10.3-11.4,10.2c-0.4,0-0.8,0-1.1-0.1
				c-1.7-0.2-3.3-0.7-4.8-1.6l-0.3-0.2c-1-0.7-1.9-1.5-2.7-2.4c-1.9-2.3-2.8-5.3-2.5-8.3c0.6-5.8,5.5-10.2,11.4-10.2
				c0.4,0,0.8,0,1.1,0.1c3,0.3,5.8,1.8,7.7,4.1c0.5,0.6,0.9,1.2,1.2,1.9c0.1,0.2,0.2,0.5,0.3,0.7C236.6,47.1,236.9,49,236.7,51z"/>
			<path class="st4" d="M112.4,36.9l3.8-30.4l-0.2-0.9l-1.6,0.4l-3.7,0.8l-18.4,4.1l1.9,7.1l0.3-0.1l2.3-0.5l10.1-2.2l-0.1,1.1l0,0
				l-3.7,28.6l-0.1,0.7l-0.1,0.8l1.1-0.2l2.3-0.5l18-3.5l-1.5-7.3L112.4,36.9z M106.6,44.6l-2.3,0.5h-0.1l3.7-29.1l0,0l0.2-1.2
				l0.1-0.9l-11.6,2.5l-1.7,0.4l-1.4-5.2l1.7-0.4l20-4.5l-3.9,31.4l10.9-2.2l1.1,5.4L106.6,44.6z"/>
			<path class="st4" d="M267.3,59.1l-0.2-0.3l-0.2-0.1l-0.7-0.2l-0.1-0.7v-0.3l-3.9-4.5l-0.6-0.7v6.1c-2-1.7-4.5-2.6-7.1-2.7
				c-2.5,0-4.8,0.9-6.7,2.6c-4.9,4.4-3.8,9.1-1.7,15.3c1.8,5.4,1.4,6.5,0.2,7.6c-0.5,0.5-1.2,0.7-1.8,0.8c-1.3-0.1-2.5-0.8-3.3-1.9
				c-2-2.2-2.9-4.8-3.1-8.7l0-1.2l-1.2,0.3l-5,1.1l-0.9,0.2v0.9c0.1,4.6,1.8,9,4.8,12.4c2.2,2.7,5.5,4.4,9.1,4.5c2.5,0,5-1,6.8-2.7
				c4.4-3.9,4-8.5,1.9-15c-1.9-5.7-1.6-6.7-0.4-7.8c0.5-0.4,1.1-0.7,1.7-0.7c1.2,0.1,2.3,0.7,3,1.6c1.4,1.5,1.9,3.6,1.4,5.5
				l-0.4,1.1l1.1,0.3l5,1.2l0.9,0.2l0.3-0.9c1-3.1,0.6-6.5-1-9.3l6.1,1.2h0.2l-3.9-4.6L267.3,59.1z M265.3,71.8l-5-1.2
				c0.7-2.3,0.1-4.8-1.6-6.5c-0.9-1.2-2.3-1.9-3.8-2c-0.9,0-1.7,0.3-2.4,0.9c-1.9,1.6-1.9,3.3,0,8.9c2.2,6.7,2.3,10.5-1.6,13.9
				c-1.7,1.6-3.9,2.4-6.1,2.5c-3.2-0.1-6.2-1.7-8.3-4.2c-2.9-3.2-4.5-7.3-4.6-11.6l5-1.1c0.2,3.7,1.1,6.7,3.4,9.3
				c1,1.3,2.5,2.1,4.1,2.2c1,0,1.9-0.4,2.6-1c1.7-1.5,1.9-3.2,0.1-8.7c-2.2-6.5-2.8-10.4,1.4-14.2c1.6-1.5,3.8-2.3,6-2.3
				c3.1,0.1,6,1.6,8,4C265.3,63.7,266.4,67.9,265.3,71.8L265.3,71.8z M265.9,61.7l-3.2-3.7l-0.1-2.8l0.5,0.6l1.9,2.1l0.2,1.3
				l1.2,0.4l2.3,2.7L265.9,61.7z"/>
			<path class="st4" d="M58.6,24.6L58.6,24.6l-6.2,3.7l-0.7,0.4l13.2,21.2l0.1,0.2v0.1c0.7,0.8,1.2,1.9,1.3,3c0,0.1,0,0.1,0,0.2
				c-0.1,0.6-0.4,1.2-0.8,1.6L64,55.7l-1.5,0.9l-0.8,0.5l0,0l4.2,6.4l0.4,0.6l4-2.4c1.4-0.8,2.6-1.9,3.5-3.2
				c0.2-0.3,0.4-0.7,0.6-1.1c0.2-0.5,0.4-1,0.5-1.5c0.5-2.4,0-4.8-1.3-6.8L58.6,24.6z M73.8,55.7c-0.6,2.2-2.1,4.1-4.1,5.2L67.9,62
				l-1.4,0.8L63,57.5l1.5-0.9l1.5-0.9l0.1-0.1c0.8-0.7,1.3-1.8,1.2-2.9c-0.1-0.7-0.3-1.4-0.7-2c-0.3-0.5-0.6-0.8-0.7-1.1v0l-0.1-0.2
				l-3.2-5.2L53,29l1.5-0.9l3.7-2.2l14.4,23.7C73.8,51.4,74.3,53.6,73.8,55.7z"/>
			<path class="st4" d="M100.9,46.5L79.3,14.9l-0.1-0.1v-0.1l-10,4.2L79,56.2l6.7-2.9v-0.1l0-0.2l-1.4-6.2l0.8-0.4l1.6-0.7l3.1-1.3
				l4.2,5.4l7.1-2.9l-0.1-0.1L100.9,46.5z M95.6,48.1l-1.2,0.5l-3.8-4.9l-0.4-0.5l-7,3l1.5,6.6l-4,1.7l-1,0.4l-9.2-35.2l0.8-0.3
				l7.6-3.2l20.8,30.4L95.6,48.1z"/>
			<g>
				<path class="st4" d="M256,81.8c-0.4,2.5-1.7,4.9-3.6,6.6c-3.6,2.8-8.4,3.3-12.4,1.4c0.7,0.7,6.7,5.3,12.9,0.2
					C255.3,88,256.4,84.9,256,81.8z"/>
			</g>
			<g>
				<path class="st4" d="M254.4,64.6c-0.2,0.1-0.4,0.3-0.6,0.4c-0.2,0.2-1.3,1.4-0.2,3.8c-0.1-1.2,0.5-2.3,1.4-2.9
					c0.6-0.4,1.3-0.6,2-0.5C256.6,64.5,255.4,64.1,254.4,64.6z"/>
			</g>
			<path class="st4" d="M244.3,62.2c0.2-0.5,0.4-1,0.7-1.4c0.1-0.2,0.3-0.4,0.4-0.6c3.6-7.7,1.9-16.8-4.3-22.6
				c7.1,8.2,6.2,20.6-2,27.8c-3.6,3.1-8.2,4.8-13,4.8c-0.7,0-1.3,0-2-0.1c-4.6-0.4-9.3-1.9-12.4-4.8c3.2,3.7,8.4,5.7,13.7,6.2
				c0.6,0.1,1.3,0.1,2,0.1c1.3,0,2.6-0.1,3.9-0.4c1.5-0.4,2.9-0.8,2.9-0.8C238.4,68.8,241.9,65.9,244.3,62.2z"/>
			<path class="st3" d="M276.8,88L276.8,88c0-0.3-0.1-0.6-0.3-0.8c-0.3-0.3-0.7-0.4-1.1-0.4H274v3.7h0.8v-1.2h0.4l0.8,1.2h0.9
				l-0.9-1.3C276.5,89,276.8,88.5,276.8,88z M276,88c0,0.3-0.2,0.5-0.6,0.5h-0.6v-1h0.6C275.8,87.5,276,87.7,276,88L276,88z"/>
			<path class="st3" d="M275.3,85.1c-2,0-3.5,1.6-3.6,3.5c0,2,1.6,3.5,3.5,3.6c2,0,3.5-1.6,3.6-3.5c0,0,0,0,0,0
				C278.8,86.7,277.3,85.1,275.3,85.1z M275.3,91.3c-1.5,0-2.7-1.2-2.7-2.7c0-1.5,1.2-2.7,2.7-2.7c1.5,0,2.7,1.2,2.7,2.7
				c0,0,0,0,0,0C278,90.1,276.8,91.3,275.3,91.3z"/>
			<path class="st4" d="M158.9,4.9l-2.6,8.8l-1.6,5.2l-1.4,4.5l-2.8-18.6l-0.1-0.4V4.2l-11-0.4l-2.9,38.6l7.3-0.1h0.2v-0.1l1.6-18
				l0.9,5.6l1.4,8l0.8,4.6l2.6,0.2l3.2,0.2h0.4l5.3-17.5l-0.4,6.8l-0.5,8.1l-0.2,2.8l0.9,0.1l5.2,0.8l1.6,0.2l2-37.6V6.2l0,0
				L159.8,5L158.9,4.9z M167.9,7.1L166,43.1l-3.8-0.6l-2-0.3l0.3-4.7l0.1-1l0.5-8.2l0.7-11.3l-7.5,24.7l-2.7-0.2l-1.9-0.1l-1.2-7.2
				l-1.1-6.2l-0.3-1.8l-1.7-9.6l-2.2,24.7l-3.8,0h-1.7l2-26.4l0.8-10.2h0.2l2.5,0.1l6.4,0.2l3,19.9l0.4,2.9l3.5-11.7L159.6,6
				l2.2,0.3L167.9,7.1z"/>
		</g>
	</g>
</g>
</svg>
