<svg xmlns="http://www.w3.org/2000/svg" viewBox="0 0 280.46 144.7"><defs><style>.cls-1{isolation:isolate;}.cls-2{fill:#dc001f;}.cls-3{fill:#4ea1a7;}.cls-4{fill:none;}.cls-5{fill:#fff;}.cls-6,.cls-8{mix-blend-mode:multiply;}.cls-7,.cls-8{fill:#c7c9cb;}</style></defs><g class="cls-1"><g id="Layer_2" data-name="Layer 2"><g id="Layer_1-2" data-name="Layer 1"><path class="cls-2" d="M39.5,100.65a94.84,94.84,0,0,1,19.59-4.56l-9.26-8.68A119.45,119.45,0,0,0,39.5,100.65Z"/><path class="cls-2" d="M230.62,87.41l-9.25,8.68A94.9,94.9,0,0,1,241,100.65,119.45,119.45,0,0,0,230.62,87.41Z"/><path class="cls-3" d="M140.38,0h-.14C86.19,0,32.27,24.44,0,73c11.87,8.36,36.87,27.53,36.87,27.53,24-36.07,63.13-55.52,102.87-55h0a123.38,123.38,0,0,1,103.82,55L280.46,73C248.18,24.44,194.42,0,140.38,0Z"/><path class="cls-3" d="M39.5,100.65a94.84,94.84,0,0,1,19.59-4.56l-9.26-8.68A119.45,119.45,0,0,0,39.5,100.65Z"/><path class="cls-3" d="M56.73,98.74A93.6,93.6,0,0,0,39.19,103l-.8.28-.79.28-.57.2h0S16.15,87.81,16.15,87.81C10.41,96.67,4.48,109.44,1.94,119a114.94,114.94,0,0,1,24.61-8.66,136.76,136.76,0,0,0,6.84,34.34,116.07,116.07,0,0,1,14.93-33.88,104.72,104.72,0,0,1,9.37-12.27h0Z"/><path class="cls-3" d="M230.62,87.41l-9.25,8.68A94.9,94.9,0,0,1,241,100.65,119.45,119.45,0,0,0,230.62,87.41Z"/><path class="cls-3" d="M243.42,103.72h0l-.57-.2-.79-.28-.8-.28a93.69,93.69,0,0,0-17.53-4.21l-.94-.19h0a103.64,103.64,0,0,1,9.37,12.27,116.08,116.08,0,0,1,14.94,33.88,137.2,137.2,0,0,0,6.83-34.34A114.75,114.75,0,0,1,278.51,119a130.77,130.77,0,0,0-14.12-31.1Z"/><path class="cls-4" d="M58.23,25.87l-3.71,2.21L53,29l9.5,15.2,3.22,5.15.1.15,0,.05c.19.27.47.66.74,1.12a5.38,5.38,0,0,1,.72,2,3.41,3.41,0,0,1-1.19,2.92l-.09.06-1.48.86-1.49.87,3.52,5.34L67.93,62l1.79-1.08a7.69,7.69,0,0,0,2.91-11.3Z"/><polygon class="cls-4" points="82.22 39.26 86.06 37.63 85.54 36.87 85.47 36.77 83.66 34.11 80.74 29.83 79.27 27.67 82.22 39.26"/><path class="cls-4" d="M235.48,44.62a11.67,11.67,0,0,0-1.25-1.89,11.4,11.4,0,0,0-7.74-4.13,11,11,0,0,0-1.14-.06A11.36,11.36,0,0,0,214,48.76a11.22,11.22,0,0,0,2.5,8.27,11.67,11.67,0,0,0,2.71,2.41l.27.16a11.41,11.41,0,0,0,4.77,1.57,10.84,10.84,0,0,0,1.13.06,11.33,11.33,0,0,0,10.45-15.92C235.71,45.07,235.6,44.84,235.48,44.62Z"/><path class="cls-4" d="M239.79,38.24A18.25,18.25,0,0,0,235,34.1a18.62,18.62,0,0,0-7.82-2.59q-1-.09-1.86-.09c-.56,0-1.11,0-1.66.08A18.47,18.47,0,0,0,207.17,46a19.08,19.08,0,0,0-.32,2,18.28,18.28,0,0,0,1.83,10,18.89,18.89,0,0,0,2.25,3.47,18.57,18.57,0,0,0,12.6,6.72c.63.06,1.26.09,1.85.09a18.48,18.48,0,0,0,18.5-16.64A18.28,18.28,0,0,0,239.79,38.24ZM237.71,51.1a12.3,12.3,0,0,1-9.22,10.72,12.82,12.82,0,0,1-3.12.39q-.6,0-1.23-.06a12.64,12.64,0,0,1-2.39-.47,12.38,12.38,0,0,1-6-4,12.19,12.19,0,0,1-2.72-9,12.34,12.34,0,0,1,12.34-11.11c.41,0,.82,0,1.24.06a12.38,12.38,0,0,1,8.4,4.49,12.28,12.28,0,0,1,2.72,9Z"/><polygon class="cls-4" points="111.31 38.13 115.25 6.76 95.25 11.23 93.53 11.62 94.92 16.8 96.64 16.43 108.19 13.93 108.07 14.85 107.92 16.02 107.92 16.06 104.21 45.12 104.31 45.1 106.63 44.64 123.31 41.36 122.19 35.93 111.31 38.13"/><polygon class="cls-4" points="156.5 16.07 152.96 27.81 152.52 24.94 149.55 5.08 143.11 4.87 140.62 4.79 140.39 4.78 139.61 14.94 137.59 41.34 139.28 41.32 143.12 41.27 145.3 16.54 146.95 26.16 147.26 27.93 148.34 34.24 149.57 41.41 151.48 41.55 154.17 41.73 161.65 17.03 160.99 28.36 160.51 36.57 160.45 37.53 160.18 42.21 162.14 42.51 165.93 43.09 167.83 7.02 161.79 6.22 159.56 5.92 156.5 16.07"/><path class="cls-4" d="M71.18,19.24l-.82.34L79.7,54.85l1-.41,4-1.7-1.46-6.59,7-3,.4.52,3.8,4.94,1.2-.49,4-1.65L78.82,16ZM86.39,36.38l1.16,1.69-6,2.54-4.61-18.1,6,8.81Z"/><polygon class="cls-4" points="184.21 48.24 184.46 48.34 186.11 49 199.69 54.41 201.76 49.54 191.2 45.48 191.42 44.88 202.26 16.5 202.28 16.45 202.29 16.42 196.35 14.25 193.53 22 184.21 48.24"/><polygon class="cls-4" points="182.87 10.08 181.02 9.62 180.55 9.5 178.56 17.55 174.93 32.48 171.99 44.59 173.51 44.98 177.38 45.96 186.69 11.05 182.87 10.08"/><polygon class="cls-4" points="11.57 66.32 9.21 69.42 8.16 70.8 35.72 92.4 36.79 91.03 39.07 88.13 25.51 77.26 11.57 66.32"/><polygon class="cls-4" points="37.83 39.61 36.46 40.72 41.6 47 50.15 57.45 30.92 45.08 28.47 47.42 27.29 48.55 50.79 74.87 52.24 73.6 54.26 71.85 43.6 59.04 54.37 65.12 59.31 67.91 60.82 66.75 62.78 65.23 40.84 37.2 37.83 39.61"/><polygon class="cls-4" points="30.1 71.97 22.53 53.91 19.26 57.32 18.15 58.47 23.36 70.14 26.32 76.8 35.48 79.78 43.99 82.55 44.99 81.43 47.62 78.51 30.21 72.25 30.1 71.97"/><polygon class="cls-4" points="265.21 59.26 264.98 57.91 263.11 55.72 262.63 55.15 262.75 57.95 265.89 61.66 268.75 62.39 266.46 59.68 265.21 59.26"/><path class="cls-5" d="M254.43,56.8a8.91,8.91,0,0,0-6,2.34c-4.22,3.75-3.63,7.65-1.43,14.16,1.84,5.53,1.64,7.21-.07,8.73a3.76,3.76,0,0,1-2.53,1,5.66,5.66,0,0,1-4.06-2.21c-2.3-2.59-3.19-5.57-3.38-9.31l-5,1.08a18.12,18.12,0,0,0,4.62,11.66,11.27,11.27,0,0,0,8.27,4.2A9.21,9.21,0,0,0,251,86c3.86-3.42,3.78-7.26,1.55-13.95-1.9-5.6-1.91-7.29,0-8.93a3.55,3.55,0,0,1,2.38-.93,5.2,5.2,0,0,1,3.77,2,6.86,6.86,0,0,1,1.57,6.54l5,1.15a11.43,11.43,0,0,0-2.76-11.08A10.86,10.86,0,0,0,254.43,56.8Z"/><polygon class="cls-5" points="11.57 66.32 9.21 69.42 8.16 70.8 35.72 92.4 36.79 91.03 39.07 88.13 25.51 77.26 11.57 66.32"/><polygon class="cls-5" points="30.1 71.97 22.53 53.91 19.26 57.32 18.15 58.47 23.36 70.14 26.32 76.8 35.48 79.78 43.99 82.55 44.99 81.43 47.62 78.51 30.21 72.25 30.1 71.97"/><polygon class="cls-5" points="159.56 5.92 156.5 16.07 152.96 27.81 152.52 24.94 149.55 5.08 143.11 4.87 140.62 4.79 140.39 4.78 139.61 14.94 137.59 41.34 139.28 41.32 143.12 41.27 145.3 16.54 146.95 26.16 147.26 27.93 148.34 34.24 149.57 41.41 151.48 41.55 154.17 41.73 161.65 17.03 160.99 28.36 160.51 36.57 160.45 37.53 160.18 42.21 162.14 42.51 165.93 43.09 167.83 7.02 161.79 6.22 159.56 5.92"/><polygon class="cls-5" points="37.83 39.61 36.46 40.72 41.6 47 50.15 57.45 30.92 45.08 28.47 47.42 27.29 48.55 50.79 74.87 52.24 73.6 54.26 71.85 43.6 59.04 54.37 65.12 59.31 67.91 60.82 66.75 62.78 65.23 40.84 37.2 37.83 39.61"/><polygon class="cls-5" points="182.87 10.08 181.02 9.62 180.55 9.5 178.56 17.55 174.93 32.48 171.99 44.59 173.51 44.98 177.38 45.96 186.69 11.05 182.87 10.08"/><polygon class="cls-5" points="193.53 22 184.21 48.24 184.46 48.34 186.11 49 199.69 54.41 201.76 49.54 191.2 45.48 191.42 44.88 202.26 16.5 202.28 16.45 202.29 16.42 196.35 14.25 193.53 22"/><path class="cls-5" d="M243.88,51.71A18.52,18.52,0,0,0,235,34.1a18.62,18.62,0,0,0-7.82-2.59q-1-.09-1.86-.09c-.56,0-1.11,0-1.66.08A18.47,18.47,0,0,0,207.17,46a19.08,19.08,0,0,0-.32,2,18.28,18.28,0,0,0,1.83,10,18.89,18.89,0,0,0,2.25,3.47,18.57,18.57,0,0,0,12.6,6.72c.63.06,1.26.09,1.85.09A18.48,18.48,0,0,0,243.88,51.71Zm-28.15,5.94a12.19,12.19,0,0,1-2.72-9,12.34,12.34,0,0,1,12.34-11.11c.41,0,.82,0,1.24.06a12.38,12.38,0,0,1,8.4,4.49,12.3,12.3,0,0,1,1.91,12.33,12.32,12.32,0,0,1-8.41,7.38,12.82,12.82,0,0,1-3.12.39q-.6,0-1.23-.06a12.64,12.64,0,0,1-2.39-.47A12.38,12.38,0,0,1,215.73,57.65Z"/><polygon class="cls-5" points="111.31 38.13 115.25 6.76 95.25 11.23 93.53 11.62 94.92 16.8 96.64 16.43 108.19 13.93 108.07 14.85 107.92 16.02 107.92 16.06 104.21 45.12 104.31 45.1 106.63 44.64 123.31 41.36 122.19 35.93 111.31 38.13"/><polygon class="cls-5" points="263.24 58.52 265.89 61.66 268.75 62.39 266.46 59.68 265.21 59.26 264.98 57.91 263.11 55.72 262.63 55.15 262.75 57.95 263.24 58.52"/><path class="cls-5" d="M58.23,25.87l-3.71,2.21L53,29l9.5,15.2,3.22,5.15.1.15,0,.05c.19.27.47.66.74,1.12a5.38,5.38,0,0,1,.72,2,3.41,3.41,0,0,1-1.19,2.92l-.09.06-1.48.86-1.49.87,3.52,5.34L67.93,62l1.79-1.08a7.69,7.69,0,0,0,2.91-11.3Z"/><path class="cls-5" d="M71.18,19.24l-.82.34L79.7,54.85l1-.41,4-1.7-1.46-6.59,7-3,.4.52,3.8,4.94,1.2-.49,4-1.65L78.82,16ZM81.55,40.61l-4.61-18.1,6,8.81,3.44,5.06,1.16,1.69Z"/><g class="cls-6"><path class="cls-7" d="M241.85,79.33a9,9,0,0,0,1,1.1c-1.88-2.65-2.06-7.07-1.54-9.16l-2.13.17A13.47,13.47,0,0,0,241.85,79.33Z"/></g><polygon class="cls-8" points="85.84 47.62 87.03 52.77 88.67 52.07 87.48 46.91 85.84 47.62"/><polygon class="cls-8" points="80.94 13.81 101.55 44.94 101.95 41.46 83.17 13.15 80.94 13.81"/><polygon class="cls-8" points="82.83 38.02 81.3 32.11 84.36 37.36 82.83 38.02"/><polygon class="cls-8" points="35.8 82.28 41.77 87.04 42.83 85.69 40.39 83.78 35.8 82.28"/><polygon class="cls-8" points="47.39 74.4 33.14 69.27 25 49.85 23.87 51.02 32.02 70.46 50.14 76.95 47.39 74.4"/><polygon class="cls-8" points="13.82 62.27 12.56 63.86 20.68 70.25 19.04 66.38 13.82 62.27"/><polygon class="cls-8" points="147.16 42.29 146.02 32.4 145.24 42.29 147.16 42.29"/><polygon class="cls-8" points="152.71 4.9 153.89 15.19 155.47 9.95 155 5 152.71 4.9"/><polygon class="cls-8" points="168.25 44.67 169.63 44.88 170.81 40.49 173.41 7.56 170.91 7.21 168.25 44.67"/><polygon class="cls-8" points="157.93 43.09 158.51 34.61 156.11 42.89 157.93 43.09"/><polygon class="cls-8" points="60.78 55.18 43.95 33.64 42.18 34.97 59.03 56.51 60.78 55.18"/><polygon class="cls-8" points="53.12 66.94 56.55 71.04 57.99 69.78 57.62 69.35 53.12 66.94"/><polygon class="cls-8" points="35.42 43.15 33.63 42 32.23 43.21 38.95 47.46 35.42 43.15"/><polygon class="cls-8" points="179.19 47.52 181.49 48.22 191.98 12.32 189.71 11.68 179.19 47.52"/><path class="cls-8" d="M204.41,49.47l-3.09,7.26,2,.83,1.37-3.47A45.9,45.9,0,0,1,204.41,49.47Z"/><polygon class="cls-8" points="194.45 44.38 196.44 45.19 206.9 18.05 204.66 17.27 194.45 44.38"/><path class="cls-8" d="M218.75,57.16a8.78,8.78,0,0,1-2-6.75,9.88,9.88,0,0,1,9.89-8.9c.33,0,.66,0,1,0a9.39,9.39,0,0,1,5.52,2.06,9.93,9.93,0,0,0-6.81-3.69c-.33,0-.66-.05-1-.05a9.89,9.89,0,0,0-9.89,8.91A9.75,9.75,0,0,0,217.64,56,10.05,10.05,0,0,0,218.75,57.16Z"/><polygon class="cls-8" points="114.75 34.46 117.04 34 120.5 6 120.27 4.53 117.95 5.07 118.17 6.5 114.75 34.46"/><polygon class="cls-8" points="126.79 33.41 124.47 33.88 124.54 34.27 126.18 42.2 128.51 41.74 126.79 33.41"/><path class="cls-8" d="M72.85,41.41,61.71,23l-1.93.93L74.51,47.86c.13.19.26.4.39.62Z"/><path class="cls-8" d="M268,66.13l5.13,1.3-1.69-2-4.22-1.07A6.71,6.71,0,0,1,268,66.13Z"/><g class="cls-6"><path class="cls-7" d="M267.49,67.56a13,13,0,0,1-.6,6.88l-5.43-1.27a11.58,11.58,0,0,1-.24,1.49l6.85,1.64C269,72.67,268.7,69.93,267.49,67.56Z"/></g><path class="cls-7" d="M81.55,40.61l6-2.54-1.16-1.69L83,31.32l-6-8.81Zm2.11-6.5,1.81,2.66.07.1.52.76-3.84,1.63-3-11.59,1.47,2.16Z"/><path class="cls-7" d="M22.86,52.15l-4,4.2L17.62,57.6l-.63.66L21.7,68.85l1.49,3.35,1.37,3.06L11.61,65.1l-.22-.17-4,5.32L6.79,71l29.09,22.8.56-.71,1.12-1.42L40.44,88,28.82,78.65,33,80l4.6,1.49,6.65,2.17.57-.63L46,81.77l3.31-3.69L31,71.47Zm16.21,36L36.79,91,35.71,92.4,8.16,70.8l1.05-1.39,2.36-3.09L25.51,77.26ZM45,81.43l-1,1.12-8.51-2.77-9.16-3-3-6.65-5.2-11.68,1.11-1.15,3.27-3.41L30.1,72l.11.27,17.41,6.26Z"/><path class="cls-7" d="M41,35.83v0l-.45.35-3.34,2.69L35.77,40l-.7.56L39,45.36l3.52,4.31,3,3.6L31.19,44.09,31,44l-.17-.11-2.74,2.62-1.74,1.67-.4.37L49.65,75.06l1.05,1.18.64-.55h0L55.63,72l-.21-.25-7.64-9.18,3.65,2.06,4.71,2.65,3.25,1.84.73-.55,4.05-3.13-.31-.4ZM60.82,66.75l-1.51,1.16-4.94-2.79L43.61,59,54.26,71.85l-2,1.75-1.45,1.27L27.29,48.55l1.18-1.13,2.45-2.34L50.15,57.45,41.6,47l-5.14-6.28,1.37-1.11,3-2.41,22,28Z"/><path class="cls-7" d="M183.11,9.13l-1.85-.47-1.42-.36-2.23,9-6.8,28,.6.15,1.84.47,4.83,1.23,9.81-36.81ZM177.38,46l-3.87-1L172,44.59l2.94-12.11,3.63-14.93,2-8,.47.12,1.85.46,3.82,1Z"/><path class="cls-7" d="M192.61,21.67,183,48.81l1.16.46,1.65.66,14.44,5.74L203.06,49l-10.6-4.08,10.72-28.07,0-.05.36-.95L195.76,13Zm9.68-5.25v0l0,.05L191.42,44.88l-.22.6,10.56,4.06-2.07,4.87L186.11,49l-1.65-.66-.25-.1L193.54,22l2.81-7.75Z"/><path class="cls-7" d="M244.85,51.81a19.24,19.24,0,0,0-4.3-14.2c-.19-.24-.39-.47-.6-.7a19.67,19.67,0,0,0-12.66-6.37,18.73,18.73,0,0,0-1.95-.1A19.46,19.46,0,0,0,205.87,48c-.06.66-.09,1.31-.09,2s0,1.27.09,1.9a19.22,19.22,0,0,0,3.24,8.89c.33.49.68,1,1.06,1.43s.61.7.92,1a19.48,19.48,0,0,0,12.34,6,18.87,18.87,0,0,0,1.95.1A19.46,19.46,0,0,0,244.85,51.81ZM225.38,68.35c-.59,0-1.22,0-1.85-.09a18.57,18.57,0,0,1-12.6-6.72,18.89,18.89,0,0,1-2.25-3.47,18.28,18.28,0,0,1-1.83-10,19.08,19.08,0,0,1,.32-2A18.47,18.47,0,0,1,223.68,31.5c.55-.05,1.1-.08,1.66-.08s1.22,0,1.86.09A18.62,18.62,0,0,1,235,34.1a18.52,18.52,0,0,1,8.86,17.61A18.48,18.48,0,0,1,225.38,68.35Z"/><path class="cls-7" d="M235,42.11a12.38,12.38,0,0,0-8.4-4.49c-.42,0-.83-.06-1.24-.06A12.34,12.34,0,0,0,213,48.67a12.19,12.19,0,0,0,2.72,9,12.38,12.38,0,0,0,6,4,12.64,12.64,0,0,0,2.39.47q.63.06,1.23.06a12.82,12.82,0,0,0,3.12-.39,12.3,12.3,0,0,0,9.22-10.72,12.28,12.28,0,0,0-2.72-9ZM236.74,51a11.37,11.37,0,0,1-11.37,10.23,10.84,10.84,0,0,1-1.13-.06,11.41,11.41,0,0,1-4.77-1.57l-.27-.16A11.67,11.67,0,0,1,216.49,57a11.22,11.22,0,0,1-2.5-8.27,11.36,11.36,0,0,1,11.36-10.22,11,11,0,0,1,1.14.06,11.4,11.4,0,0,1,7.74,4.13,11.67,11.67,0,0,1,1.25,1.89c.12.22.23.45.34.69A11.27,11.27,0,0,1,236.74,51Z"/><path class="cls-7" d="M112.45,36.9l3.82-30.41-.16-.92-1.63.36-3.72.83L92.32,10.88,94.21,18l.35-.07,2.33-.5L107,15.18l-.14,1.08v0l-3.65,28.62-.09.67-.1.76,1.11-.22,2.32-.46,18-3.54L123,34.78Zm-5.82,7.74-2.32.46-.1,0,3.71-29.06v0l.15-1.17.12-.92-11.55,2.5-1.72.37-1.39-5.18,1.72-.39,20-4.46-3.94,31.36,10.88-2.2,1.12,5.43Z"/><path class="cls-7" d="M267.26,59.09l-.22-.26-.25-.08-.71-.24-.12-.74,0-.29L262.1,53l-.58-.69v6.09a11.26,11.26,0,0,0-7.09-2.67,10,10,0,0,0-6.67,2.6c-4.91,4.36-3.81,9.08-1.72,15.27,1.81,5.44,1.44,6.54.22,7.62a2.77,2.77,0,0,1-1.84.76,4.71,4.71,0,0,1-3.29-1.86c-2-2.24-2.92-4.83-3.11-8.67L238,70.26l-1.19.26-5,1.08-.85.18,0,.86A19.05,19.05,0,0,0,235.79,85a12.27,12.27,0,0,0,9.05,4.54,10.2,10.2,0,0,0,6.83-2.73c4.43-3.93,4-8.49,1.86-15-1.95-5.72-1.64-6.69-.35-7.84a2.47,2.47,0,0,1,1.69-.66,4.19,4.19,0,0,1,3,1.63,5.83,5.83,0,0,1,1.37,5.51l-.38,1.09,1.13.26,5,1.15.94.21.28-.93a11.89,11.89,0,0,0-1-9.31l6.07,1.22.21,0-3.86-4.58Zm-2,12.76-5-1.15a6.86,6.86,0,0,0-1.57-6.54,5.2,5.2,0,0,0-3.77-2,3.55,3.55,0,0,0-2.38.93c-1.86,1.64-1.85,3.33,0,8.93,2.23,6.69,2.31,10.53-1.55,13.95a9.21,9.21,0,0,1-6.15,2.48,11.27,11.27,0,0,1-8.27-4.2A18.12,18.12,0,0,1,232,72.61l5-1.08c.19,3.74,1.08,6.72,3.38,9.31a5.66,5.66,0,0,0,4.06,2.21A3.76,3.76,0,0,0,247,82c1.71-1.52,1.91-3.2.07-8.73-2.2-6.51-2.79-10.41,1.43-14.16a8.91,8.91,0,0,1,6-2.34,10.86,10.86,0,0,1,8,4A11.43,11.43,0,0,1,265.22,71.85Zm.67-10.19L262.75,58l-.12-2.8.48.57L265,57.91l.23,1.35,1.25.42,2.28,2.71Z"/><path class="cls-7" d="M58.59,24.56l0,0-6.23,3.71-.73.44L64.87,49.9l.13.19,0,.06a5.19,5.19,0,0,1,1.27,3,.88.88,0,0,1,0,.16,2.47,2.47,0,0,1-.82,1.59L64,55.74l-1.55.9-.78.45,0,0,4.2,6.36.42.64,4-2.38a10.33,10.33,0,0,0,3.48-3.25,8.09,8.09,0,0,0,.57-1.09,8.31,8.31,0,0,0,.5-1.48,9.13,9.13,0,0,0-1.32-6.85ZM73.82,55.7a8.12,8.12,0,0,1-4.1,5.18L67.93,62l-1.36.82-3.52-5.34,1.49-.87L66,55.71l.09-.06a3.41,3.41,0,0,0,1.19-2.92,5.38,5.38,0,0,0-.72-2c-.27-.46-.55-.85-.74-1.12l0-.05-.1-.15-3.22-5.15L53,29l1.55-.93,3.71-2.21,14.4,23.71A8.17,8.17,0,0,1,73.82,55.7Z"/><path class="cls-7" d="M100.86,46.52,79.28,14.92l-.06-.1,0-.05L69.2,19,79,56.2l6.73-2.87,0-.11L85.69,53l-1.38-6.24.82-.36,1.63-.71,3.08-1.34L94,49.75l7.07-2.88-.07-.1Zm-5.31,1.55-1.2.49-3.8-4.94-.4-.52-7,3,1.46,6.59-4,1.7-1,.41L70.36,19.58l.82-.34L78.82,16,99.6,46.42Z"/><g class="cls-6"><path class="cls-7" d="M256,81.85a10.88,10.88,0,0,1-3.6,6.57,12,12,0,0,1-12.44,1.37c.67.74,6.72,5.32,12.92.24A9,9,0,0,0,256,81.85Z"/></g><g class="cls-6"><path class="cls-7" d="M254.43,64.58a4.21,4.21,0,0,0-.56.41c-.23.21-1.27,1.37-.2,3.85a3.31,3.31,0,0,1,1.43-2.93,2.66,2.66,0,0,1,2-.47A2,2,0,0,0,254.43,64.58Z"/></g><path class="cls-8" d="M244.27,62.17a7.45,7.45,0,0,1,.68-1.39c.12-.2.26-.4.4-.6a19.64,19.64,0,0,0-4.26-22.63,19.68,19.68,0,0,1-15,32.56,18.75,18.75,0,0,1-2-.1c-4.6-.45-9.27-1.9-12.37-4.85,3.22,3.71,8.41,5.73,13.7,6.25.65.06,1.32.09,2,.09a20.07,20.07,0,0,0,3.9-.38c1.54-.37,2.92-.81,2.92-.81A19.68,19.68,0,0,0,244.27,62.17Z"/><path class="cls-5" d="M276.8,88h0a1.15,1.15,0,0,0-.31-.83,1.46,1.46,0,0,0-1.07-.37H274v3.65h.8V89.24h.4l.78,1.17h.93L276,89.1A1.13,1.13,0,0,0,276.8,88ZM276,88c0,.31-.22.52-.61.52h-.58v-1h.57c.39,0,.62.18.62.52Z"/><path class="cls-5" d="M275.32,85.13a3.54,3.54,0,1,0,3.52,3.53A3.53,3.53,0,0,0,275.32,85.13Zm0,6.21A2.68,2.68,0,1,1,278,88.66,2.68,2.68,0,0,1,275.32,91.34Z"/><path class="cls-7" d="M158.86,4.87l-2.65,8.79-1.58,5.24-1.35,4.49L150.5,4.81l-.06-.39,0-.27L139.48,3.8l-2.95,38.56,7.27-.09H144V42.2l1.6-18,.95,5.57,1.38,8,.79,4.6,2.59.18,3.16.22.4,0,5.3-17.51-.4,6.8-.48,8.14-.16,2.84.86.14,5.23.79,1.62.25,2-37.6,0-.4v0L159.76,5Zm9,2.18-1.9,36.06-3.79-.57-2-.3.27-4.68.06-1,.48-8.21.67-11.33-7.48,24.7-2.7-.18-1.9-.14-1.24-7.16L147.26,28l-.3-1.77-1.66-9.62L143.12,41.3l-3.84.05-1.69,0,2-26.4.78-10.16h.24l2.48.08,6.44.21,3,19.86.44,2.87,3.54-11.73L159.56,6l2.24.29Z"/></g></g></g></svg>