<?xml version="1.0" encoding="utf-8"?>
<!-- Generator: Adobe Illustrator 26.0.3, SVG Export Plug-In . SVG Version: 6.00 Build 0)  -->
<svg version="1.1" id="Layer_1" xmlns="http://www.w3.org/2000/svg" xmlns:xlink="http://www.w3.org/1999/xlink" x="0px" y="0px"
	 viewBox="0 0 289.7 76" style="enable-background:new 0 0 289.7 76;" xml:space="preserve">
<style type="text/css">
	.st0{fill:#161615;}
</style>
<g id="Layer_2_00000076579769425322622190000015159683325007195061_">
	<g id="LOGO">
		<path class="st0" d="M255.6,22.4c0-1.3-1.1-2.4-2.4-2.4h-3.6c-1.4,0-2.5,1.1-2.5,2.5v38c0,1.4,1.1,2.5,2.4,2.5c0,0,0,0,0.1,0h3.6
			c1.4,0,2.5-1.1,2.5-2.4c0,0,0,0,0,0V22.4z M260.3,23.4v1.8c0,0.7,0.6,1.4,1.4,1.4h25.1c1.1,0,2.1-0.9,2.1-2.1c0,0,0,0,0,0v-3.1
			c0-1.1-0.8-2-1.9-2.1c-0.1,0-0.1,0-0.2,0l-25,2.5C260.9,22,260.3,22.6,260.3,23.4 M239.9,63c-5.4,0.2-10-4.1-10.2-9.5
			c0-0.2,0-0.3,0-0.5V37.7H228c-0.9,0-1.7-0.7-1.7-1.7c0,0,0,0,0-0.1v-2.5c0-1,0.8-1.7,1.7-1.7c0,0,0,0,0,0h1.8v-9.4
			c0-1.3,1.1-2.4,2.4-2.4c0,0,0,0,0,0h3.6c1.3,0,2.4,1.1,2.4,2.4c0,0,0,0,0,0v9.4h5.5c1,0,1.7,0.8,1.7,1.7V36c0,0.9-0.8,1.7-1.7,1.7
			c0,0,0,0,0,0h-5.5v14.1c-0.2,2.4,1.6,4.5,3.9,4.7c0.2,0,0.5,0,0.7,0h0.5c1,0,1.9,0.8,1.9,1.9v2.8c0,1-0.8,1.9-1.8,1.9
			c0,0,0,0-0.1,0H239.9 M181.5,37.2c3.7-0.1,6.8,2.6,7.3,6.2h-14.5C174.7,39.8,177.8,37.1,181.5,37.2v-6.6
			c-10.1,0-15.8,7.9-15.8,16.2c0,8.9,6.1,16.7,15.8,16.7c6.7,0,13.3-3.5,14.5-9.3c0.2-0.8-0.4-1.6-1.2-1.8c-0.1,0-0.2,0-0.3,0h-4.8
			c-0.8,0-1.5,0.4-2,1c-1.4,2.1-3.8,3.3-6.3,3.1c-3.9,0-7.1-3.1-7.3-7h20.3c1.3,0.2,2.5-0.8,2.7-2.1c0-0.2,0-0.4,0-0.7
			c0-8.1-4.8-16.2-15.7-16.2v6.5 M274,37.1c3.7-0.1,6.8,2.6,7.3,6.2h-14.5c0.5-3.6,3.6-6.3,7.3-6.1v-6.5c-10.1,0-15.8,7.9-15.8,16.2
			c0,8.9,6.1,16.7,15.8,16.7c6.7,0,13.2-3.5,14.5-9.3c0.2-0.8-0.3-1.6-1.1-1.8c-0.1,0-0.2,0-0.3,0h-4.8c-0.8,0-1.5,0.4-2,1
			c-1.4,2.1-3.8,3.3-6.3,3.1c-3.9,0-7.1-3.1-7.3-7H287c1.3,0.2,2.5-0.8,2.7-2.1c0-0.2,0-0.4,0-0.7c0-8.1-4.8-16.2-15.7-16.2
			L274,37.1"/>
		<path class="st0" d="M222.9,20.4h-65.7c-1.5,0-2.7,1.2-2.7,2.7c0,0,0,0,0,0l0.2,25.8c0,0-14.2-25.6-14.9-26.9
			c-0.9-1.5-2.5-2.4-4.2-2.4h-5.4c-1.5,0-2.7,1.2-2.7,2.7v37.9c0,1.5,1.2,2.7,2.7,2.8c0,0,0,0,0.1,0h3.5c1.5,0,2.7-1.2,2.7-2.7
			c0,0,0,0,0,0l-0.2-26.5c0,0,14.3,25.8,14.9,26.8c0.9,1.5,2.5,2.5,4.3,2.4h5c1.5,0,2.7-1.2,2.7-2.7c0,0,0,0,0,0V26.8h60
			c1,0,1.8-0.8,1.8-1.8v-2.8C224.8,21.2,223.9,20.4,222.9,20.4"/>
		<path class="st0" d="M212.3,36.8c2.9,0,5,1,5.8,2.8c0.4,0.9,1.1,1,2.1,1h3.9c0.8,0,1.4-0.6,1.4-1.4c0-4.6-5.4-8.6-13.2-8.6
			c-8,0-13.2,3.8-13.2,9.9c0,4.6,3.7,7.4,8.2,8.6c2.1,0.5,5.6,1.4,7.3,1.8s3.5,1.1,3.5,2.6c0,2.5-2.6,3.3-5.5,3.3
			c-2.7,0-5.4-1.2-6.2-3.1c-0.4-1.1-1.2-1.3-2.4-1.3h-4c-0.8,0-1.5,0.7-1.5,1.5v0.5c0,4.4,5.9,9.1,14.1,9.1
			c5.8,0,13.9-2.4,13.9-10.2c0-4.5-3-7.6-7.9-8.9l-7.5-1.9c-1.8-0.5-3.4-1-3.4-2.6C207.5,37.6,209.6,36.8,212.3,36.8 M66.8,11.7
			c0.7,0,1.3-0.6,1.3-1.3l0,0c0-0.7-0.6-1.3-1.3-1.3c0,0,0,0,0,0l0,0c-0.7,0.1-1.3,0.7-1.2,1.4C65.6,11.1,66.1,11.6,66.8,11.7
			 M49.1,9.3c0.6,0,1.1-0.5,1.1-1.1l0,0c0-0.6-0.5-1.1-1.1-1.1c-0.6,0-1.1,0.5-1.1,1.1S48.4,9.3,49.1,9.3
			C49.1,9.3,49.1,9.3,49.1,9.3L49.1,9.3 M35.8,36.4l-0.5-0.6c1.5-1.4,3.1-3.6,3.4-4.9s2-1,1.7,0.3C39.9,32.9,37.8,35,35.8,36.4
			 M24.6,9.8c-2.8,1.2-3.2,4.1-1.2,5.8c2.3,2.1,6.2,0.3,5.8-2.9c2.6,0,4.7-2.1,4.7-4.7c0-0.2,0-0.5,0-0.7c1.4-1.2,1.5-3.8-0.1-4.8
			S30.2,1.9,29.1,4C26.3,3.8,23.5,6,24.6,9.8l-1.3-0.6c-1.2-2.2-0.3-5,1.9-6.2c1-0.5,2.1-0.7,3.2-0.4c1-2.3,3.7-3.3,6-2.2
			c0.2,0.1,0.4,0.2,0.6,0.3c2,1.2,2.7,3.8,1.5,5.9c-0.3,0.5-0.7,0.9-1.1,1.2c1.2,3.5-1.2,6.4-4.9,6.1c-0.4,4.5-4.7,5.1-7.5,3
			c-1.3-1.1-2.2-2.5-2.5-4.2c-0.3-1.4-0.3-2.6-1.6-4c-0.8-0.7-1.8-1-2.8-1c0.1-2.8-2.1-5.1-4.9-5.2c-0.7,0-1.4,0.1-2,0.4
			C7.7,1.7,6,1.6,4.8,3.1C3.9,4.2,4.1,5.9,5.3,6.8C5.4,6.9,5.6,7,5.9,7.1c-0.1,3,2.2,4.9,5.5,4.7c0.4,1.7,1.7,3,3.5,3.3v0.8
			c-1.7-0.2-2.6,0.4-3.7,1.8c-3.9-0.2-6.7,1.6-6.6,4.4C3,22.3,1.8,23.7,2,25.3c0.1,0.7,0.4,1.3,0.9,1.8c1.1,1.1,2.8,1.2,4,0.1
			c0.3-0.3,0.5-0.6,0.7-1c2.4,0.5,4.8-1,5.3-3.4c0-0.1,0.1-0.3,0.1-0.4c2.6,0,3.8-1,4.2-3.4l1,0.1c0.3,2.6-0.9,5-4,4.8
			c0,2.3-2,4.1-4.3,4.1c-0.5,0-1.1-0.1-1.6-0.4c-1,2.1-3.4,3-5.5,2c-0.5-0.2-1-0.6-1.4-1c-1.7-1.6-1.9-4.3-0.3-6
			c0.5-0.5,1.1-1,1.8-1.2c0.1-3,2.3-5.9,6.6-4.8c0.3-0.8,1.1-1.3,1.9-1.4c-0.9-0.2-1.5-0.9-1.8-1.8c-2.4,0.5-4.8-1-5.3-3.4
			C4.4,9.3,4.4,8.6,4.5,8c-3-1.6-3-4.5-1.5-6.2S7-0.5,9.3,1.5c2.4-1.6,5.6-0.9,7.2,1.6c0.6,1,0.9,2.1,0.8,3.3c2.7-0.2,4.3,2.2,4,4.6
			c0.3-0.9,1-1.6,2-1.8L24.6,9.8z"/>
		<path class="st0" d="M31.2,4.5L31.9,5c-1.3,2.7-3.2,5.1-5.4,7l-0.7-0.6C27.3,8.9,29.1,6.6,31.2,4.5 M12.3,19.2l0.4,0.6
			c-1.8,1.8-3.9,3.3-6.1,4.6L6,23.7C7.8,21.9,10,20.3,12.3,19.2 M16.1,11.2l-0.8,0.9c-2.6-1.8-5-4-7.1-6.4l0.6-0.7
			C11.6,6.8,14,8.9,16.1,11.2 M12.3,46.2c0.2,1.2,0,2.5,1.1,3.8c1.2,1.6,2.6,3.2,4,4.6c-2,0.8-6.2,2.5-9.2,2.9
			C7.6,57.7,7,58,6.4,58.4c-0.5,0.9-0.8,2-0.9,3c-0.1,1-0.1,2-0.1,3c0.1,2,0.6,3.9,1.5,5.7c0.6,1.5,1.8,2.7,3.2,3.4
			c0.5-0.2,1.1-0.2,1.6-0.2c1.9,0,3.6,0.8,4.8,2.2c0.3,0.4,0.9,0.5,1.7,0.5c2-0.1,3.9-0.5,5.7-1.3c0.4-0.3,1.5-1.1,2.7-2
			s7.4-6.2,10.1-7.5c1.9,1.1,4.1,1.7,6.3,1.8c0.4,0,0.7,0,1.1-0.1c0.8-0.2,1.8-0.5,3-0.8c1.8-0.4,3.7-0.7,5.6-0.8c2,0,8,0.2,9.5,0.2
			s3.6-0.1,4.4-0.2c2.3-0.7,4.5-1.5,6.7-2.4c3.3-1.7,6.3-3.7,9.2-6c0.4-0.4,0.8-0.8,1.1-1.2c0.1-0.2,0.2-0.2,0.2-0.3s0-4,0-4
			s1.3-1.5,1.9-2c0,0,0-0.1,0-0.2c-0.4-1.8-0.5-3.7-0.3-5.6l-1.4-0.6c-0.1,2.5-0.8,5-2.2,7.1c-2,0.3-5.9,1.5-7.3,3.1l0.8,0.2
			c1.3-0.8,2.8-1.2,4.3-1.2c1.4,0,2,0.4,2,0.8c-0.1,0.4-0.2,0.8-0.4,1.2c-0.1,0.3-0.3,0.6-0.4,0.8c-1.9,2.1-4.2,3.9-6.7,5.3
			c-1.9,1.1-3.9,1.9-6,2.4c-0.8,0.2-1.9,0.5-2.6,0.8c-1,0-6.1-0.2-9.2-0.2c-3.7,0-7.5,0.3-11.2,0.9c-0.9,0.2-1.1,0.6-2.2,0.6
			c-2.1-0.2-4.2-0.8-6.1-1.7c-0.5,0.2-0.9,0.4-1.4,0.6c-1.1,0.5-3.6,4-5,2.9c-0.7,1.5-3.9,2.9-5,4.5c0.1-0.8,1.4-6.1,1.5-7.2
			c0-0.2,0-0.4-0.1-0.5c-1.2-1.9-4.4-3.2-6.2-3.5c-0.5-0.1-0.8-0.2-1.2-0.2l-2.9-0.9L14,59.7l3.1,0.6l-3.9,2.6
			c0.7-0.2,4.9-1.4,5.2-1.5c0.4-0.1,0.9-0.1,1.3,0c0.6,0.2,2.2,0.6,3.2,0.9c0.7,0.4,1.3,1,1.8,1.7c0.1,0.6,0.2,1.2,0.2,1.8
			c0,0.8-0.1,1.6-0.3,2.4c-0.3,1.4-0.9,2.7-1.6,4c-0.3,0.6-0.8,1-1.4,1.2c-0.9,0.4-2,0.7-3,0.7c-0.8,0-1.3,0-1.7-0.5
			c-1.6-1.9-4-2.7-6.4-2.3c-1.6-1-3.3-4.2-3.3-6.8c0.2-1.8,0.6-3.5,1.2-5.2c2.7-0.4,8.1-2.4,10.7-3.6c1.1-0.3,2.3-0.5,3.5-0.6
			c3.5,0,7,3.1,9.1,5.2c0.6-1,1.7-1.6,2.8-1.4c2.5,0,3.9,2.3,4.6,4.6l1.3-0.9c-0.3-1.5-1-2.8-2-3.8c-1-1-2.4-1.5-3.8-1.6
			c-0.8,0-1.6,0.2-2.1,0.2c-1.8,0-2.5-0.8-3.8-1.7s-4.1-2.4-5.9-2.4c-1.2,0-1.8,0.5-2.8,0.5c-1.1,0-2.2-0.5-2.7-1.5
			c-0.3-0.4-1.8-1.7-2.2-2.2c-0.4-0.7-0.6-1.4-0.8-2.2L12.3,46.2z"/>
		<path class="st0" d="M14.3,47.7c0.4,0.5,0.9,1,1.4,1.4c0.6,0.4,1.2,0.8,1.8,1.1c0.9,0.5,1.8,1,2.8,1.4c1,0.3,2,0.4,3,0.4
			c1.5,0,3.2-0.3,4.7,0.4c1,0.5,1,1.5,1.8,1.8c1.2,0.5,4.5,0.6,6.4,0.6c3.3,0,6.7-0.3,10-1l-1.1-1.2c-2.8,0.4-5.7,0.7-8.5,0.8
			c-3.1,0-6-0.5-6-1.8c0.2-1.3,1.4-2.3,2.7-2.2c1.9,0.2,3.7,0.6,5.4,1.3c0.3,0.2,0.7,0.2,1.1,0l1.1-0.6c-1.5-0.7-6.7-2.5-8.5-2.5
			c-0.7-0.1-1.5,0.2-1.9,0.8c-0.7,0.9-2.6,1.7-5.5,1.7c-1.5,0-3-0.2-4.5-0.5c-1.3-0.6-2.6-1.4-3.8-2.2c-1.4-1-2.6-2.2-3.5-3.6
			c-0.2-0.4-0.4-0.8-0.4-1.3c0-0.3,0.1-0.6,0.1-0.9c0.3,0.4,0.6,0.7,0.9,1c1.8,1.6,3.9,2.7,6.3,3.1c0.6,0.1,1.3,0.2,2,0.2
			c1,0,1.9-0.4,2.6-1.1l-0.9-1.1c-0.4,0.1-0.9,0.1-1.3,0.1c-3.5,0-7.9-2.3-8.9-4.9c-0.1-0.3-0.2-0.4-0.1-0.6
			c0.1-0.4,0.2-0.8,0.3-1.2c0.3,0.4,0.7,0.7,1.1,0.9c1.3,0.8,3.7,2,4.2,2.3c1-0.3,2-0.7,2.9-1.2c0.9-0.5,1.9-0.7,2.8-0.7
			c2.5,0,5.5,1.4,8.2,2.8l1.9-0.7c-2.4-1.7-7.7-4.1-10.6-4.1c-1.7,0-3.4,1.3-4.5,1.3c-1.4,0-5.5-2-5.5-3.6c0-1.3,2.6-2,6.9-2.5
			c-0.7,1.1-1.4,2.2-2.1,3.4l1.1,0.6c6.6-9.6,13.5-15.9,19.4-19.6c1.5-0.8,2.7-2.1,3.3-3.7C44.3,8.3,46,5.5,49,5.5
			c1.3,0.1,2.5,0.7,3.3,1.7l2.1,0.6l-2.2,1.4l2.2,0.9c-3.8,1.2-6.9,4-8.4,7.7c-3.1,0.2-4.6,2.6-5.6,4.7c-0.7,1.4-1.8,2-3.3,3
			l-12.6,8.8l1.7,0.2l11.6-7.8c2.3-1.5,3.4-2.7,3.9-3.8c1.1-2.1,2.2-3.8,4.5-3.8c1.2,0,2.4,0.5,3.3,1.4l2,0.7l-2.2,1.4l1.9,1.1
			c-5.3,1.7-8.6,5.5-10.5,12.8l1.4,0.3c0.6-2.3,1.5-4.5,2.7-6.6c3.1,0,6.2-0.1,9.3-0.1c8.2,0,15,0.4,18.6,1.4l-1.3-2.3
			c-5.7-0.8-11.5-1.1-17.3-1c-2.6,0-5.2,0.1-7.8,0.1c2.2-2.1,4.9-3.7,7.8-4.4l-2.7-1.5l2.9-1.6l-4-1.5c-0.8-0.7-1.7-1.2-2.7-1.5
			c1.3-3.9,5.7-6.2,9.9-7.8l-3-1.2l3-1.6L53,6c-1-1.3-2.5-2-4.1-2c-4.2,0-6,3.7-7.7,6.9c-0.6,1.4-1.7,2.6-3,3.4
			c-4.1,2.8-7.9,6-11.4,9.6c-2.1-1.5-6.3-5.9-7.4-8.2c-0.4,0.6-0.7,1.2-0.9,1.8c0.4,0.5,5.4,5.5,7.2,7.6l-0.4,0.5
			c-2.9,0.5-5.9,0.7-8.8,0.6l-1,1.7c1.3-0.1,6.4-0.7,8.5-0.9c-0.6,0.8-1.3,1.6-1.9,2.4c-6.6,0.7-10.9,2.1-10.9,4.5
			c0,0.4,0.2,0.8,0.2,1.3c0,0.7-0.3,1.4-1,1.8c-0.5,0.3-0.5,0.5-0.3,0.8c0.5,0.6,0.9,1.3,1.2,2.1c0,0.5-0.5,1-0.9,1.4
			s-0.3,0.5-0.1,1l1.9,4L14.3,47.7z M95.3,25.2c-0.4,0.4-0.8,0.9-1.1,1.4l-1.1-1.5c3.5-4.7,12.8-6.9,18.3-7.3v-2.5
			c-0.7,0.2-1.4,0.4-2.1,0.6c-0.9,0.3-1.7,0.4-2.6,0.4c-0.6,0-1.3-0.2-1.7-0.7c-0.7-1-0.1-2.6,2.3-4.1l-1.9-1.6
			c-1.3,1.9-2.7,3.6-4.4,5.2c-1.3,1.1-2.7,1.7-3.8,0.9c-0.6-0.5-0.8-0.7-0.9-1.8c0.3-2.1,1-4.2,2.1-6.1l-2.2-0.3
			c-0.9,4.9-3.7,9.2-7.8,11.9l-1.2-1.2c1.9-1.1,3.6-2.6,4.8-4.4c1.6-2.3,2.6-5.1,2.8-7.9l6.5,0.6c-1.3,1.7-2.3,3.7-3,5.7
			c-0.3,1-0.3,1.8,0.1,2c0.7,0.5,1.9-0.3,3.1-1.6c1.4-1.7,2.8-3.5,4-5.4l4.6,3.9c-2.1,1.1-4.1,2.4-3.7,3.1s1.7,0.5,3.2,0
			c1.2-0.4,2.4-0.9,3.5-1.5v6.3c-3.3,0-6.6,0.5-9.8,1.5c0.9,1.2,3.4,1.7,5,1.9l-0.8,5.1C103.6,26.2,99.5,25.3,95.3,25.2l1.7-1.4
			c3.2,0.1,6.3,0.8,9.2,2.2l0.3-2c-1.9-0.3-3.7-1.1-5.1-2.5c-1.5,0.6-3,1.3-4.4,2.3L95.3,25.2z"/>
		<path class="st0" d="M76.1,41.5l1.5-3.2c-1.8-2.1-3.4-4.3-4.8-6.6l-1.3-2.2c-3-5.7-1.9-8.4-3.5-10.9c-1.3-2.1-7.7-0.8-8.8-0.6
			l1.9-3.1l-3.7,0.3l3.1-3.7c0.4-0.7,0.7-1.4,0.9-2.2C62.1,6,65,3.8,68.4,4c5.4,0,7.1,4.4,9.5,6.3c2.7,2.2,6.2,5.2,9.3,8.2l1.2,1.2
			c1.7,1.7,3.3,3.5,4.8,5.4l1.1,1.5c6.5,9.5,14.6,27.8,18.2,36.1c0.3,0.8,0.6,1.6,0.8,2.3c-2.4-1.3-5.1-3-7.9-4.9l-1.6-1
			c-1-0.7-2-1.5-3-2.2l-1.7-1.3c-1-0.8-2-1.6-3-2.5l3.3,19c0.2,1.1,1.2,0.9,2,0s1.1-1.3,0.8-2.6l-3.1-14l1.7,1.3l2.9,11.9
			c0.3,1.1,0.7,1.4,2,1.5s1.5-0.4,1.2-1.3l-3.2-9.8l1.6,1.1l3,8.9c0.8,2.3,0,2.5-1.4,2.5s-2.6-0.3-3.3,0.2c-1,0.9-1.9,1.9-2.8,2.9
			c-1,1-2.4,0.7-2.7-1.2l-3.6-21.9c-2.3-2.1-4.5-4.3-6.6-6.6c-0.9-0.4-1.9-0.8-2.8-1.2l-1.4-0.6c-0.3-0.2-0.7-0.3-1-0.4
			c-0.9,1.2-2,2.4-3.1,3.5C79.3,46.7,78.7,47,78,47c-0.3,0-0.6,0-0.9-0.2c-0.4-0.3-0.7-0.7-1-1.1c-0.3-0.4-0.7-0.9-1-1.5
			c-0.7-1.2-1.5-2.7-2.2-3.9s-1.4-2.4-1.5-2.6c-0.1-0.2-0.3-0.4-0.5-0.6c-0.4,0.8-0.6,1.6-0.7,2.5l-1.4-0.5c0.2-0.9,0.4-1.8,0.7-2.6
			c-0.1-0.6-0.5-1-1-1.1c-0.6,0-1.3,0.7-1.6,2L65.6,38c0.2-2.1,0.9-4.4,3-4.4c1.7,0,2.7,1.3,3.5,2.5S75.5,40.8,76.1,41.5l1.1,1.3
			c0.1,0.6,0.4,1.1,0.7,1.5c0.4,0.6,0.8,0.5,1.3,0c0.2-0.2,1-0.9,1.8-1.7c0.6-0.6,1.1-1.3,1.6-2c0.8,0.3,2.2,1,3.3,1.5
			c-5-6-9.6-13.2-11.7-18.2c-0.8-2.1,0.8-2.8,1.6-0.7c2.2,5.5,8.5,15.3,13.1,20.4c5.4,5.9,15.2,14.5,21.6,17.9
			c-0.9-1.8-2.2-4.4-3.6-7.4c-7.8-4.4-15.6-12.5-19.3-19.4l1.6,0.2c3.4,6,11.6,14.1,16.4,16.4C101.2,42,95.4,30.1,91,25
			c-4.5-4.9-9.4-9.5-14.5-13.7c-2.8-2.5-4-5.7-8.1-5.7c-3.4,0-5.2,2.4-5.8,4.9c-0.1,0.5-0.3,0.9-0.5,1.3l-1.6,1.9l3.5-0.4l-2,2.8
			c0,0,5.4-1.2,7.3,1.4c2.1,2.8,0.7,5.9,4.1,11.9c1.8,3.1,3.9,5.9,6.2,8.5l-2.3,4.9L76.1,41.5z M22.8,42.4L22,41.8
			c0.7-0.5,1.5-1,2.3-1.4c0.4-0.2,0.9-0.3,1.4-0.3c0.9,0.1,1.7,0.3,2.5,0.8c1.1,0.7,2.3,1.2,3.6,1.4c0.4,0,0.8-0.1,1.2-0.1
			c1,0,2,0.5,2.6,0.5c0.3,0,0.6-0.3,0.8-0.6c0.6-0.8,1.4-1.5,2.4-1.9c1.2-0.5,2.5-0.7,3.8-0.6c0.9,0,1.8,0.1,2.7,0.3
			c0,0-0.8,1-1.1,1.3c-1.6-0.1-3.1,0.1-4.7,0.5c-0.7,0.2-1.2,0.8-1.2,1.5c0,1,1.1,1.4,2.4,1.8c0.7,0.2,1.5,0.3,2.3,0.3
			c1.4-0.1,2.8-0.3,4.2-0.7c1.5-0.3,2.9-0.7,4.4-1.2l0.7,1.3c-2.1,0.8-4.3,1.4-6.6,1.9c-1.1,0.2-2.2,0.4-3.3,0.4
			c-1.7-0.1-3.5-0.6-5-1.4c-1-0.6-2.2-1-3.4-1.2c-1.2,0-2.3,0.4-3.3,1c-1.1,0.7-2.3,1.4-3.5,1.9c-0.9,0.4-2,0.6-3,0.7
			c-0.7,0.1-1.4-0.1-2-0.5l1.7-1c0.2,0.2,0.5,0.3,0.8,0.3c0.4,0,0.8-0.1,1.2-0.3c0.4-0.2,0.8-0.4,1.2-0.7c0.4-0.3,0.8-0.6,1.1-0.9
			c0.4-0.2,0.6-0.8,0.3-1.2c-0.1-0.1-0.2-0.3-0.3-0.3c-0.3-0.3-0.6-0.6-1-0.8c-0.6-0.4-1.3-0.7-2-0.7C24.6,41.8,23.7,42,22.8,42.4"
			/>
		<path class="st0" d="M46.1,43c0,0-1-0.3-1.3-0.3c0.6-0.8,1.4-1.5,2.3-2.1c1.5-1,3.2-1.5,4.9-1.5c0.6,0,1.8-0.2,2.4-0.1
			c0.9,0,1.7,0.1,2.5,0.2c0.7,0.1,1.3,0.3,1.8,0.4c0.6,0,1.2,0,1.8,0c1.5-0.2,2.9-0.7,4.3-1.3l0.4,1.5c-2,1-4.4,2.1-6.5,2.1
			c-1.1,0-2.2-0.1-3.3-0.2c-1.9-0.2-3.5-0.4-4.1-0.4C49.4,41.2,47.6,41.8,46.1,43 M44.6,51.1l-1.9-0.9c2.7-1.3,5.5-2.3,8.4-3
			c1.6-0.2,3.2-0.5,4.7-0.8c0.5,1.3,1.5,2.7,2.9,2.7c0.8-0.1,1.6-0.4,2.3-0.7c1-0.4,2-0.9,2.5-1.1l3.8-1.7c0.6-0.3,2.2-1,2.2-1.1
			l1,0.5c-0.3,1.4-0.8,2.8-1.4,4.1c-0.2,0.4-0.4,0.8-0.7,1.1c-0.6,0.7-1.3,1.3-2.1,1.8c-1.1,0.8-2.3,1.5-3.5,2.2
			c-1,0.6-2,1.2-3.1,1.7l-0.5-1c1.6-0.9,3.2-2,4.7-3.1c0.7-0.5,1.3-1,1.8-1.4c0.3-0.2,0.5-0.5,0.7-0.8c0.5-0.8,1-1.6,1.3-2.4
			c-0.6,0.3-2.9,1.4-3.9,1.9s-3,1.5-4,2c-0.6,0.3-1.3,0.5-2.1,0.6c-0.9,0-1.6-0.5-2-1.3c-0.7-1.3-1.5-1.4-3.6-1.5
			C49.5,48.9,46.9,49.7,44.6,51.1 M55.8,45.1c0,0-0.3-1.1-0.4-1.6c0.3-0.1,0.5-0.1,0.8-0.1c0.7,0,2.5,0.2,3.2,0.2
			c2.8,0,3.8-0.9,4.6-1.6c0.9-0.8,2.1-1.3,3.3-1.1c1.4,0.1,2.8,0.4,4.1,0.9l-0.1,1.5c-0.9-0.5-1.9-0.7-2.9-0.8
			c-0.6,0-1.2,0.1-1.7,0.3c-0.5,0.3-0.9,0.6-1.2,1c-0.6,0.5-1.3,0.9-2,1.1c-1.2,0.4-2.4,0.6-3.6,0.5C58.5,45.5,57.2,45.4,55.8,45.1"
			/>
		<path class="st0" d="M38.2,56.6l1.3-0.6c1.3,0.5,2.6,0.9,4,1c0.6,0,1.2-0.2,1.8-0.5c0.4-0.2,4.6-2.2,6.8-3
			c0.5-0.2,1.1-0.3,1.7-0.4c0.5,0,0.5,0.2,0.7,0.5c0.4,0.6,3.5,5.1,3.9,5.5c2.7-0.8,5.4-2,7-3.5c1.6-1.5,3-3.4,4.3-4.8
			c0.4-0.5,0.9-0.9,1.5-1.2c1.4-0.7,5.6-0.8,7.4-0.7l-1.1,1.5c-3.1,0-4.9,0.3-5.7,0.9c-0.5,0.4-0.9,0.9-1.3,1.4
			c-1.1,1.4-2.2,3.3-2.7,3.7c1,0.8,2.3,1.2,3.5,1.2c2.1-0.1,4.1-1.1,5.6-2.6l0.9,0.5c-0.7,0.9-1.5,1.7-2.4,2.4
			c-1,0.6-2.1,1.1-3.2,1.4c-1.5-0.3-4.9-1-5.7-1.1c-2.9,1.2-7.7,3.1-9.3,3.6c-0.4,0.1-0.7,0.1-1.1,0.2c-1.3,0.1-3,0.1-4.7,0
			c-0.9,0-1.8,0-2.8-0.1l-1.4-1.5c1,0.2,1.9,0.3,2.9,0.3c1.7,0,3.5-0.2,5.2-0.6c0.5-0.1,0.6-0.4,0.4-0.9c-0.3-0.8-0.7-1.5-1.3-2.1
			c-0.4-0.5-0.9-0.9-1.4-1.3c-0.4-0.3-0.8-0.3-1.8,0s-4,2-5.3,2.6c-0.7,0.4-1.5,0.4-2.3,0.2C41.7,58.1,39.9,57.4,38.2,56.6
			 M46.6,23.2c0.6,0,1.1-0.5,1.1-1.1S47.2,21,46.6,21c-0.6,0-1.1,0.5-1.1,1.1c0,0,0,0,0,0C45.5,22.7,46,23.1,46.6,23.2"/>
	</g>
</g>
</svg>
