<svg xmlns="http://www.w3.org/2000/svg" viewBox="0 0 289.68 76.03"><defs><style>.cls-1{fill:#4da1a8;}</style></defs><g id="Layer_2" data-name="Layer 2"><g id="LOGO"><path class="cls-1" d="M255.62,22.44A2.46,2.46,0,0,0,253.17,20h-3.64a2.47,2.47,0,0,0-2.46,2.47V60.49A2.46,2.46,0,0,0,249.53,63h3.64a2.45,2.45,0,0,0,2.45-2.46Zm4.64,1v1.8a1.36,1.36,0,0,0,1.36,1.35h25.11a2.07,2.07,0,0,0,2.07-2.07V21.47a2,2,0,0,0-2.08-2.07l-25.05,2.47a1.57,1.57,0,0,0-1.41,1.58M239.93,63a9.86,9.86,0,0,1-10.17-10V37.73H228A1.71,1.71,0,0,1,226.25,36V33.46A1.73,1.73,0,0,1,228,31.74h1.78V22.38a2.39,2.39,0,0,1,2.39-2.4h3.55a2.4,2.4,0,0,1,2.4,2.41v9.35h5.53a1.73,1.73,0,0,1,1.73,1.72V36a1.71,1.71,0,0,1-1.72,1.72h-5.53V51.81a4.31,4.31,0,0,0,4.67,4.65h.5a1.87,1.87,0,0,1,1.87,1.87V61.1A1.86,1.86,0,0,1,243.28,63h-3.35m-58.47-25.8a7.11,7.11,0,0,1,7.27,6.23H174.26a7,7,0,0,1,7.2-6.23V30.65c-10.09,0-15.75,7.89-15.75,16.22,0,8.87,6.06,16.69,15.82,16.69,6.68,0,13.27-3.53,14.51-9.31a1.5,1.5,0,0,0-1.46-1.8h-4.77a2.36,2.36,0,0,0-2,1,7,7,0,0,1-6.32,3.07,7.28,7.28,0,0,1-7.29-7h20.29a2.42,2.42,0,0,0,2.71-2.74c0-8.12-4.8-16.22-15.72-16.22l0,6.5m92.49,0a7.13,7.13,0,0,1,7.27,6.23H266.74A7,7,0,0,1,274,37.16V30.65c-10.1,0-15.76,7.89-15.76,16.22,0,8.87,6.07,16.69,15.83,16.69,6.67,0,13.25-3.53,14.5-9.31a1.49,1.49,0,0,0-1.46-1.8H282.3a2.39,2.39,0,0,0-2,1A7,7,0,0,1,274,56.57a7.31,7.31,0,0,1-7.3-7H287a2.42,2.42,0,0,0,2.71-2.74c0-8.12-4.8-16.22-15.72-16.22v6.5"/><path class="cls-1" d="M222.93,20.4H157.2a2.7,2.7,0,0,0-2.7,2.71l.22,25.82S140.56,23.34,139.81,22a4.85,4.85,0,0,0-4.24-2.36h-5.41a2.71,2.71,0,0,0-2.71,2.71V60.24A2.71,2.71,0,0,0,130.16,63h3.46a2.71,2.71,0,0,0,2.71-2.71l-.22-26.55S150.42,59.54,151,60.56A4.77,4.77,0,0,0,155.27,63h5a2.71,2.71,0,0,0,2.71-2.71V26.81h60A1.85,1.85,0,0,0,224.79,25V22.23a1.86,1.86,0,0,0-1.86-1.83"/><path class="cls-1" d="M212.29,36.84c2.86,0,5,1,5.77,2.83.37.86,1.08,1,2.07,1h3.93a1.43,1.43,0,0,0,1.4-1.4c0-4.57-5.45-8.65-13.17-8.65-8,0-13.22,3.8-13.22,9.86,0,4.64,3.66,7.39,8.16,8.57,2.05.53,5.56,1.4,7.26,1.85S218,52,218,53.53c0,2.49-2.62,3.34-5.49,3.34-2.71,0-5.42-1.21-6.19-3.14-.45-1.12-1.23-1.28-2.43-1.28h-4a1.55,1.55,0,0,0-1.5,1.51v.51c0,4.42,5.94,9.06,14.12,9.06,5.8,0,13.89-2.4,13.89-10.2,0-4.51-3-7.62-7.92-8.87l-7.54-1.92c-1.79-.46-3.45-1-3.45-2.57,0-2.33,2.14-3.13,4.81-3.13M66.76,11.66a1.32,1.32,0,0,0,1.31-1.32h0A1.31,1.31,0,0,0,66.76,9h0a1.32,1.32,0,0,0,0,2.63M49.07,9.32a1.11,1.11,0,0,0,1.11-1.1h0a1.11,1.11,0,1,0-1.11,1.1h0M35.8,36.43l-.53-.59c1.5-1.39,3.09-3.62,3.36-4.93s2-1,1.65.31c-.43,1.69-2.5,3.73-4.48,5.21M24.58,9.78c-2.76,1.2-3.17,4.05-1.23,5.75,2.34,2.06,6.21.27,5.84-2.87A4.68,4.68,0,0,0,33.85,7.3c1.4-1.2,1.54-3.76-.14-4.76S30.22,1.88,29.14,4c-2.88-.22-5.64,2-4.56,5.83L23.25,9.2a4.56,4.56,0,0,1,5.09-6.57A4.52,4.52,0,0,1,34.94.75a4.28,4.28,0,0,1,.36,7.09c1.21,3.54-1.2,6.42-4.89,6.1-.43,4.54-4.72,5.12-7.49,3a7.16,7.16,0,0,1-2.5-4.18c-.31-1.35-.31-2.56-1.65-4a4.26,4.26,0,0,0-2.79-1A5.06,5.06,0,0,0,9.05,2.91C7.69,1.74,6,1.62,4.8,3.08A2.63,2.63,0,0,0,5.87,7.13c-.11,3,2.19,4.93,5.54,4.67a4.21,4.21,0,0,0,3.47,3.3v.8c-1.67-.16-2.58.43-3.69,1.82-3.95-.19-6.71,1.57-6.6,4.39a2.91,2.91,0,0,0-1.72,5,2.81,2.81,0,0,0,4.66-.91,4.45,4.45,0,0,0,5.39-3.78c2.6,0,3.75-1,4.18-3.43l1,.08c.29,2.58-.9,5-4,4.75a4.19,4.19,0,0,1-5.87,3.75,4.11,4.11,0,0,1-6.81,1A4.26,4.26,0,0,1,3,21.37c.07-3,2.32-5.91,6.65-4.79a2.41,2.41,0,0,1,1.92-1.43A2.56,2.56,0,0,1,9.8,13.34,4.48,4.48,0,0,1,4.49,8c-3-1.58-3-4.51-1.55-6.24S7-.46,9.29,1.49a5.21,5.21,0,0,1,8,4.88c2.69-.18,4.33,2.17,4,4.64a2.53,2.53,0,0,1,2-1.81Z"/><path class="cls-1" d="M31.2,4.51l.65.46A22.46,22.46,0,0,1,26.43,12l-.73-.55a46.81,46.81,0,0,1,5.5-7M12.34,19.17l.44.65A28.13,28.13,0,0,1,6.65,24.4L6,23.74a22.47,22.47,0,0,1,6.3-4.57m3.81-7.93-.77.95A41.18,41.18,0,0,1,8.23,5.8l.65-.67a35.55,35.55,0,0,1,7.27,6.11m-3.87,35c.24,1.2,0,2.52,1.12,3.81a53.33,53.33,0,0,0,4,4.64c-2,.82-6.18,2.49-9.16,2.87a5.26,5.26,0,0,0-1.82.81,8.49,8.49,0,0,0-.92,3.05,23.68,23.68,0,0,0-.11,3,15.85,15.85,0,0,0,1.51,5.74,6.79,6.79,0,0,0,3.23,3.36,4.63,4.63,0,0,1,1.59-.2,5.89,5.89,0,0,1,4.77,2.25c.29.41.89.49,1.67.49a16.73,16.73,0,0,0,5.69-1.31c.4-.34,1.54-1.09,2.66-2s7.35-6.16,10.11-7.5a13.85,13.85,0,0,0,6.3,1.81A5.28,5.28,0,0,0,44,67c.77-.17,1.76-.52,3-.75a45.29,45.29,0,0,1,5.6-.81c2,0,8,.19,9.45.19s3.62-.13,4.43-.21A56.3,56.3,0,0,0,73.21,63a56.29,56.29,0,0,0,9.21-6,8.52,8.52,0,0,0,1.14-1.23c.12-.15.15-.21.15-.32s0-4,0-4,1.35-1.5,1.86-2a.17.17,0,0,0,0-.16,21.17,21.17,0,0,1-.33-5.56l-1.36-.64a13.84,13.84,0,0,1-2.17,7.14c-2,.31-5.89,1.51-7.28,3.11l.77.22a8.77,8.77,0,0,1,4.3-1.22c1.41,0,2,.37,2,.76a4,4,0,0,1-.37,1.17,3.21,3.21,0,0,1-.44.8,26.29,26.29,0,0,1-6.7,5.3A25.82,25.82,0,0,1,68,62.78c-.78.22-1.86.53-2.56.78-1,0-6.14-.18-9.15-.18a71.72,71.72,0,0,0-11.19.94c-.89.24-1.11.58-2.16.58a16,16,0,0,1-6.06-1.74,10.05,10.05,0,0,0-1.36.61c-1.1.54-3.58,4-5,2.94-.73,1.5-3.91,2.93-5,4.49.13-.82,1.4-6.12,1.52-7.18a.67.67,0,0,0-.08-.53c-1.16-1.93-4.38-3.17-6.21-3.53-.53-.1-.8-.17-1.16-.25l-2.87-.88L14,59.71l3.09.59L13.2,62.88c.67-.25,4.88-1.43,5.2-1.52a2,2,0,0,1,1.3,0c.57.2,2.2.57,3.16.91A4.53,4.53,0,0,1,24.61,64a7.6,7.6,0,0,1,.19,1.79,10,10,0,0,1-.3,2.37,15.51,15.51,0,0,1-1.58,4,2.57,2.57,0,0,1-1.43,1.22,7.21,7.21,0,0,1-3,.66c-.79,0-1.32,0-1.66-.49a6.84,6.84,0,0,0-6.4-2.31c-1.65-1-3.29-4.22-3.29-6.79a19.72,19.72,0,0,1,1.2-5.19c2.69-.36,8.06-2.4,10.68-3.59a24.58,24.58,0,0,1,3.48-.56c3.52,0,7,3.08,9.13,5.15a2.89,2.89,0,0,1,2.79-1.44c2.49,0,3.92,2.27,4.63,4.59l1.3-.94a7.26,7.26,0,0,0-2-3.83,6,6,0,0,0-3.78-1.57c-.77,0-1.57.17-2.08.17-1.78,0-2.5-.79-3.82-1.7s-4.06-2.39-5.94-2.39c-1.21,0-1.76.47-2.76.47a3,3,0,0,1-2.72-1.49c-.3-.38-1.8-1.69-2.19-2.23a8.88,8.88,0,0,1-.78-2.17Z"/><path class="cls-1" d="M14.3,47.68a10.52,10.52,0,0,0,1.38,1.37,16.06,16.06,0,0,0,1.77,1.09,17.06,17.06,0,0,0,2.82,1.36,11.19,11.19,0,0,0,3,.36c1.47,0,3.22-.31,4.66.37,1,.45,1,1.48,1.8,1.77,1.2.46,4.53.57,6.38.57a47.92,47.92,0,0,0,9.95-1l-1.14-1.25a76.54,76.54,0,0,1-8.54.78c-3.07,0-6-.49-6-1.76a2.52,2.52,0,0,1,2.74-2.15,20.28,20.28,0,0,1,5.4,1.33,1.29,1.29,0,0,0,1.09,0l1.13-.58c-1.5-.7-6.72-2.5-8.54-2.5a2,2,0,0,0-1.88.85c-.7.89-2.57,1.72-5.53,1.72a19.74,19.74,0,0,1-4.48-.5,24,24,0,0,1-3.78-2.2A13.58,13.58,0,0,1,13,43.68a2.4,2.4,0,0,1-.38-1.3,7.36,7.36,0,0,1,.13-.94,6.62,6.62,0,0,0,.9,1,12.61,12.61,0,0,0,6.28,3.14,10,10,0,0,0,1.95.23,4,4,0,0,0,2.56-1.08l-.94-1.09a6.19,6.19,0,0,1-1.34.09c-3.46,0-7.86-2.27-8.87-4.88-.1-.26-.22-.4-.12-.64a6.62,6.62,0,0,0,.31-1.22,5.9,5.9,0,0,0,1.15.93c1.29.82,3.74,2,4.22,2.27A15.78,15.78,0,0,0,21.75,39a6.25,6.25,0,0,1,2.84-.7c2.54,0,5.45,1.44,8.17,2.79l1.87-.74c-2.43-1.71-7.7-4.09-10.63-4.09-1.73,0-3.36,1.27-4.51,1.27-1.42,0-5.49-2-5.49-3.64,0-1.27,2.63-2,6.87-2.51-.73,1.09-1.43,2.21-2.08,3.35l1.08.6c6.64-9.62,13.54-15.85,19.35-19.65A7.56,7.56,0,0,0,42.55,12c1.8-3.68,3.5-6.5,6.45-6.5a4.3,4.3,0,0,1,3.28,1.73l2.14.64L52.26,9.3l2.21.88a13.67,13.67,0,0,0-8.42,7.73c-3.07.17-4.56,2.65-5.56,4.74-.67,1.4-1.76,2-3.32,3L24.59,34.45l1.74.24,11.61-7.78c2.29-1.54,3.39-2.68,3.93-3.78C43,21,44.11,19.38,46.39,19.38a4.93,4.93,0,0,1,3.28,1.38l2,.67-2.22,1.36,1.86,1.15C46,25.6,42.71,29.43,40.79,36.72L42.2,37a25.46,25.46,0,0,1,2.65-6.59c3.08,0,6.21-.15,9.28-.15,8.19,0,15,.35,18.65,1.43l-1.3-2.26a111.53,111.53,0,0,0-17.35-1c-2.59,0-5.22.09-7.82.13a17.55,17.55,0,0,1,7.83-4.45l-2.65-1.45,2.94-1.63-4-1.51a6.29,6.29,0,0,0-2.68-1.49c1.28-3.94,5.66-6.24,9.85-7.83L54.62,9l3-1.62L53,6a4.93,4.93,0,0,0-4.1-2c-4.23,0-6,3.68-7.68,6.93a7.37,7.37,0,0,1-3,3.42,66.94,66.94,0,0,0-11.36,9.55c-2.07-1.49-6.29-5.85-7.44-8.23a7.89,7.89,0,0,0-.89,1.78c.43.45,5.4,5.48,7.25,7.61l-.42.47a43.54,43.54,0,0,1-8.83.65l-1,1.74c1.3-.13,6.39-.73,8.5-.85-.65.78-1.28,1.59-1.88,2.4-6.55.74-10.92,2.08-10.92,4.5,0,.39.16.85.16,1.28A1.88,1.88,0,0,1,10.4,37c-.47.29-.5.5-.31.78a10.45,10.45,0,0,1,1.21,2.06c0,.49-.49,1-.87,1.41s-.32.48-.06,1l1.9,4Zm81-22.45a8,8,0,0,0-1.09,1.4l-1.06-1.47c3.53-4.7,12.83-6.9,18.27-7.28V15.37c-.69.21-1.44.45-2.13.61a10.24,10.24,0,0,1-2.64.43,2,2,0,0,1-1.66-.73c-.73-1-.06-2.63,2.34-4.1L105.48,10a36.87,36.87,0,0,1-4.36,5.22c-1.32,1.13-2.72,1.69-3.83.86-.61-.46-.84-.67-.9-1.84a17,17,0,0,1,2.06-6.08l-2.23-.26A18,18,0,0,1,88.44,19.8l-1.25-1.22A14.84,14.84,0,0,0,92,14.18a15.55,15.55,0,0,0,2.77-7.9l6.47.62a21.67,21.67,0,0,0-3,5.69c-.3,1-.28,1.76.08,2,.68.51,1.88-.3,3.06-1.56a56.06,56.06,0,0,0,4-5.38L110,11.56c-2.09,1.11-4.1,2.36-3.7,3.07s1.7.46,3.16,0a16.78,16.78,0,0,0,3.48-1.51v6.33a35,35,0,0,0-9.76,1.5c.87,1.23,3.38,1.68,5,1.91l-.8,5.14a29.33,29.33,0,0,0-12-2.77L97,23.84A23.14,23.14,0,0,1,106.2,26l.29-1.95a9.07,9.07,0,0,1-5.13-2.47A19.19,19.19,0,0,0,97,23.84Z"/><path class="cls-1" d="M76.05,41.54l1.5-3.23a57.07,57.07,0,0,1-4.82-6.61l-1.31-2.25c-3-5.7-1.9-8.41-3.51-10.92-1.32-2.07-7.74-.78-8.8-.56L61,14.89l-3.66.29,3.1-3.69a6.32,6.32,0,0,0,.86-2.19A6.87,6.87,0,0,1,68.38,4c5.43,0,7.1,4.4,9.47,6.3,2.69,2.17,6.21,5.2,9.34,8.24l1.25,1.22a51.43,51.43,0,0,1,4.75,5.36l1.06,1.47c6.54,9.54,14.64,27.76,18.23,36.11.35.82.6,1.63.82,2.26-2.44-1.35-5.13-3-7.89-4.92L103.8,59c-1-.73-2-1.48-3-2.23l-1.65-1.3c-1-.81-2-1.62-3-2.45l3.27,19c.25,1.11,1.2.93,2,0s1.07-1.26.78-2.56l-3.07-14,1.65,1.3,2.94,11.87c.28,1.07.73,1.41,2,1.47s1.52-.43,1.25-1.26L103.8,59l1.61,1.13,3,8.85c.77,2.27,0,2.53-1.37,2.53s-2.58-.31-3.32.17a27.53,27.53,0,0,0-2.8,2.93c-1,1-2.43.74-2.71-1.15L94.62,51.57A82.14,82.14,0,0,1,88,45c-.89-.37-1.87-.82-2.75-1.23l-1.36-.64a10.17,10.17,0,0,0-1-.42,30,30,0,0,1-3.07,3.5A2.52,2.52,0,0,1,78,47a1.89,1.89,0,0,1-.92-.17,3.48,3.48,0,0,1-1-1.09c-.26-.41-.66-.93-1-1.5-.7-1.2-1.48-2.7-2.17-3.92s-1.44-2.39-1.54-2.56a2.46,2.46,0,0,0-.52-.58,5.8,5.8,0,0,0-.66,2.47l-1.36-.45a19.16,19.16,0,0,1,.74-2.62,1.25,1.25,0,0,0-1-1.11c-.62,0-1.26.67-1.59,2L65.63,38c.16-2.09.89-4.4,3-4.4,1.67,0,2.71,1.28,3.51,2.48s3.39,4.74,4,5.44l1,1.32a4.29,4.29,0,0,0,.69,1.55c.36.56.76.53,1.31,0,.24-.22,1-.87,1.8-1.68a13.82,13.82,0,0,0,1.57-2c.77.34,2.17,1,3.32,1.52C80.88,36.27,76.19,29,74.14,24c-.83-2.06.81-2.76,1.61-.72,2.16,5.51,8.46,15.26,13.1,20.37,5.37,5.91,15.18,14.47,21.58,17.9-.93-1.81-2.16-4.41-3.56-7.42C99.1,49.71,91.24,41.64,87.58,34.71l1.61.18c3.41,6,11.55,14.07,16.36,16.41C101.16,42,95.44,30.14,91,25.05A143.69,143.69,0,0,0,76.48,11.32c-2.85-2.5-4-5.65-8.12-5.65-3.38,0-5.16,2.44-5.83,4.89A3.74,3.74,0,0,1,62,11.84l-1.61,1.92,3.46-.42-2,2.81s5.42-1.23,7.31,1.36c2.05,2.78.72,5.89,4.07,11.94A51.55,51.55,0,0,0,79.44,38L77.1,42.87Zm-53.22.84L22,41.82a10.15,10.15,0,0,1,2.26-1.36,3.67,3.67,0,0,1,1.37-.29,5.26,5.26,0,0,1,2.48.79,9.41,9.41,0,0,0,3.64,1.42c.4,0,.79-.09,1.23-.09,1,0,2,.46,2.61.46.34,0,.58-.31.81-.64a5.27,5.27,0,0,1,2.37-1.86,10.07,10.07,0,0,1,3.82-.64,15,15,0,0,1,2.74.28s-.85,1-1.07,1.26a13.92,13.92,0,0,0-4.66.52,1.54,1.54,0,0,0-1.15,1.55c0,1,1.14,1.42,2.4,1.8a8,8,0,0,0,2.29.28,25.62,25.62,0,0,0,4.19-.69,42.12,42.12,0,0,0,4.37-1.16l.72,1.29a50.54,50.54,0,0,1-6.58,1.88,16.37,16.37,0,0,1-3.32.4,12.43,12.43,0,0,1-5-1.43,9,9,0,0,0-3.4-1.21,6.64,6.64,0,0,0-3.27,1,25.62,25.62,0,0,1-3.46,1.91,7.66,7.66,0,0,1-3,.65,3.1,3.1,0,0,1-2-.52l1.67-1a1.25,1.25,0,0,0,.84.26,2.86,2.86,0,0,0,1.18-.3,9.27,9.27,0,0,0,1.24-.7,8.21,8.21,0,0,0,1.14-.89.86.86,0,0,0,0-1.5,7.37,7.37,0,0,0-1-.79,3.22,3.22,0,0,0-2-.68,5.68,5.68,0,0,0-2.56.59"/><path class="cls-1" d="M46.07,43s-1-.26-1.33-.3A9.42,9.42,0,0,1,47,40.6a9.06,9.06,0,0,1,4.92-1.55c.58,0,1.78-.15,2.43-.11a18.18,18.18,0,0,1,2.54.24c.67.13,1.28.3,1.78.39a10.55,10.55,0,0,0,1.77,0,15.13,15.13,0,0,0,4.3-1.35l.41,1.46c-2.05,1-4.37,2.06-6.49,2.06-1.08,0-2.23-.09-3.3-.19-1.88-.17-3.52-.43-4.08-.43A8.89,8.89,0,0,0,46.07,43m-1.51,8.12-1.93-.88a38.81,38.81,0,0,1,8.44-3,37.65,37.65,0,0,0,4.7-.84c.51,1.28,1.5,2.65,2.94,2.65A7.3,7.3,0,0,0,61,48.33c1-.43,2-.89,2.45-1.12l3.83-1.7c.58-.26,2.16-1,2.24-1.06l1,.55a20.94,20.94,0,0,1-1.37,4.14,5,5,0,0,1-.68,1.1,13,13,0,0,1-2.09,1.81,41.11,41.11,0,0,1-3.55,2.21c-1,.59-2.05,1.19-3.09,1.67l-.53-1a47.86,47.86,0,0,0,4.66-3.12c.68-.5,1.34-1,1.81-1.44a4.77,4.77,0,0,0,.74-.84,15.17,15.17,0,0,0,1.34-2.43c-.6.3-2.86,1.36-3.88,1.9s-3,1.55-4,2a5.23,5.23,0,0,1-2.07.6,2.25,2.25,0,0,1-2-1.34c-.73-1.3-1.52-1.43-3.58-1.45a14.74,14.74,0,0,0-7.64,2.3m11.26-6s-.28-1.14-.42-1.56a2.8,2.8,0,0,1,.78-.11c.72,0,2.49.2,3.23.2,2.78,0,3.8-.87,4.62-1.6a4.13,4.13,0,0,1,3.29-1.14,11.27,11.27,0,0,1,4.11.94l-.11,1.51a6.42,6.42,0,0,0-2.92-.75,4.06,4.06,0,0,0-1.74.27,7.36,7.36,0,0,0-1.25,1,7.05,7.05,0,0,1-2,1.11,9.92,9.92,0,0,1-3.59.55,21.07,21.07,0,0,1-4-.44"/><path class="cls-1" d="M38.25,56.58,39.53,56a12.94,12.94,0,0,0,4,1,4.39,4.39,0,0,0,1.78-.47c.37-.16,4.64-2.25,6.76-3a6.07,6.07,0,0,1,1.68-.38c.52,0,.54.23.68.45.39.64,3.55,5.13,3.86,5.48,2.67-.83,5.41-2,7-3.54s3-3.42,4.32-4.84a6.76,6.76,0,0,1,1.46-1.2c1.36-.73,5.6-.8,7.39-.71l-1.06,1.5c-3.14,0-4.89.32-5.68.91a8.22,8.22,0,0,0-1.33,1.39c-1.07,1.39-2.24,3.31-2.71,3.68a5.71,5.71,0,0,0,3.53,1.2,8.46,8.46,0,0,0,5.61-2.6l.9.53a10.67,10.67,0,0,1-2.39,2.4,11.8,11.8,0,0,1-3.22,1.42c-1.54-.29-4.94-1-5.74-1.14-2.94,1.19-7.74,3.14-9.35,3.63a8.23,8.23,0,0,1-1.08.17c-1.28.07-3.05.06-4.65,0a22.28,22.28,0,0,1-2.77-.1l-1.42-1.49a11.9,11.9,0,0,0,2.91.32A19.86,19.86,0,0,0,55.17,60c.48-.13.57-.42.43-.86A6.18,6.18,0,0,0,54.33,57a9.81,9.81,0,0,0-1.4-1.26c-.38-.26-.75-.33-1.8,0s-4,1.95-5.28,2.64a2.82,2.82,0,0,1-2.29.18,24.54,24.54,0,0,1-5.31-2.05m8.33-33.36a1.1,1.1,0,1,0-1.09-1.1,1.1,1.1,0,0,0,1.09,1.1"/></g></g></svg>