<?xml version="1.0" encoding="utf-8"?>
<!-- Generator: Adobe Illustrator 26.0.3, SVG Export Plug-In . SVG Version: 6.00 Build 0)  -->
<svg version="1.1" id="Layer_1" xmlns="http://www.w3.org/2000/svg" xmlns:xlink="http://www.w3.org/1999/xlink" x="0px" y="0px"
	 viewBox="0 0 206 165.5" style="enable-background:new 0 0 206 165.5;" xml:space="preserve">
<style type="text/css">
	.st0{fill:#161615;}
	.st1{clip-path:url(#SVGID_00000114056107092222414540000015474003299557925277_);}
</style>
<g id="Layer_2_00000054242072252716117630000005936904080367582654_">
	<g id="LOGO">
		<path class="st0" d="M105.9,72.8c-0.1,7.7,6.8,11.9,12,14.5c5.2,2.5,7.2,4.3,7.1,6.6c0,3.6-4.3,5.2-8.2,5.2
			c-4.9,0.1-9.8-1.1-14.1-3.4l-2.5,11.7c3.2,1.5,9.1,2.8,15.3,2.8c14.4,0,23.9-7.1,24-18.2c0.1-14-19.4-14.8-19.3-21.1
			c0.1-1.9,1.9-3.9,5.8-4.5c4.7-0.4,9.3,0.4,13.6,2.4l2.4-11.3c-4.1-1.6-8.5-2.4-12.9-2.4C115.6,55.2,106,62.5,105.9,72.8
			 M165.3,56.2c-2.6,0-4.9,1.5-5.9,3.9l-20.6,49.3h14.4l2.9-7.9h17.6l1.7,7.9h12.7l-11.1-53.2H165.3 M167.3,70.6l4.2,20h-11.4
			L167.3,70.6 M88.4,56.2L77,109.4h13.8l11.3-53.2H88.4 M68.1,56.2L53.7,92.4l-5.8-30.8c-0.5-3.1-3.2-5.4-6.3-5.4H18.2l-0.3,1.5
			c4.8,1,10.3,2.7,13.6,4.5c2,1.1,2.6,2.1,3.3,4.7l11,42.4h14.5l22.3-53.1H68.1"/>
		<g>
			<defs>
				<path id="SVGID_1_" d="M105.9,72.8c-0.1,7.7,6.8,11.9,12,14.5c5.2,2.5,7.2,4.3,7.1,6.6c0,3.6-4.3,5.2-8.2,5.2
					c-4.9,0.1-9.8-1.1-14.1-3.4l-2.5,11.7c3.2,1.5,9.1,2.8,15.3,2.8c14.4,0,23.9-7.1,24-18.2c0.1-14-19.4-14.8-19.3-21.1
					c0.1-1.9,1.9-3.9,5.8-4.5c4.7-0.4,9.3,0.4,13.6,2.4l2.4-11.3c-4.1-1.6-8.5-2.4-12.9-2.4C115.6,55.2,106,62.5,105.9,72.8
					 M165.3,56.2c-2.6,0-4.9,1.5-5.9,3.9l-20.6,49.3h14.4l2.9-7.9h17.6l1.7,7.9h12.7l-11.1-53.2H165.3 M167.3,70.6l4.2,20h-11.4
					L167.3,70.6 M88.4,56.2L77,109.4h13.8l11.3-53.2H88.4 M68.1,56.2L53.7,92.4l-5.8-30.8c-0.5-3.1-3.2-5.4-6.3-5.4H18.2l-0.3,1.5
					c4.8,1,10.3,2.7,13.6,4.5c2,1.1,2.6,2.1,3.3,4.7l11,42.4h14.5l22.3-53.1H68.1"/>
			</defs>
			<use xlink:href="#SVGID_1_"  style="overflow:visible;fill:#161615;"/>
			<clipPath id="SVGID_00000163053501237652882350000017572780105923171744_">
				<use xlink:href="#SVGID_1_"  style="overflow:visible;"/>
			</clipPath>
			<g style="clip-path:url(#SVGID_00000163053501237652882350000017572780105923171744_);">
				<path class="st0" d="M0,61.8L167.8,0L206,103.7L38.2,165.5"/>
			</g>
		</g>
	</g>
</g>
</svg>
