<svg xmlns="http://www.w3.org/2000/svg" xmlns:xlink="http://www.w3.org/1999/xlink" viewBox="0 0 205.99 165.47"><defs><style>.cls-1{fill:#4da1a8;}.cls-2{clip-path:url(#clip-path);}</style><clipPath id="clip-path" transform="translate(17.84 55.23)"><path class="cls-1" d="M88.08,17.58c-.09,7.66,6.83,11.94,12,14.48s7.16,4.28,7.14,6.61c0,3.57-4.28,5.15-8.24,5.21A28.72,28.72,0,0,1,84.9,40.52L82.41,52.18c3.2,1.47,9.14,2.76,15.3,2.82,14.45,0,23.91-7.13,24-18.2.06-14-19.42-14.81-19.29-21.09.05-1.9,1.87-3.93,5.85-4.45a25.88,25.88,0,0,1,13.56,2.38l2.42-11.28A37,37,0,0,0,111.33,0C97.73,0,88.16,7.23,88.08,17.58M147.46,1a6.28,6.28,0,0,0-5.86,3.9L121,54.17H135.4l2.87-7.94h17.65l1.67,7.94h12.73L159.21,1H147.46m2,14.37,4.17,20H142.23l7.25-20M70.57,1,59.19,54.17H73L84.33,1H70.57M50.21,1,35.89,37.18,30.09,6.39A6.41,6.41,0,0,0,23.75,1H.33L0,2.52C4.81,3.56,10.27,5.24,13.58,7c2,1.1,2.6,2.06,3.27,4.68l11,42.45H42.37L64.67,1H50.21"/></clipPath></defs><g id="Layer_2" data-name="Layer 2"><g id="LOGO"><path class="cls-1" d="M88.08,17.58c-.09,7.66,6.83,11.94,12,14.48s7.16,4.28,7.14,6.61c0,3.57-4.28,5.15-8.24,5.21A28.72,28.72,0,0,1,84.9,40.52L82.41,52.18c3.2,1.47,9.14,2.76,15.3,2.82,14.45,0,23.91-7.13,24-18.2.06-14-19.42-14.81-19.29-21.09.05-1.9,1.87-3.93,5.85-4.45a25.88,25.88,0,0,1,13.56,2.38l2.42-11.28A37,37,0,0,0,111.33,0C97.73,0,88.16,7.23,88.08,17.58M147.46,1a6.28,6.28,0,0,0-5.86,3.9L121,54.17H135.4l2.87-7.94h17.65l1.67,7.94h12.73L159.21,1H147.46m2,14.37,4.17,20H142.23l7.25-20M70.57,1,59.19,54.17H73L84.33,1H70.57M50.21,1,35.89,37.18,30.09,6.39A6.41,6.41,0,0,0,23.75,1H.33L0,2.52C4.81,3.56,10.27,5.24,13.58,7c2,1.1,2.6,2.06,3.27,4.68l11,42.45H42.37L64.67,1H50.21" transform="translate(17.84 55.23)"/><g class="cls-2"><path class="cls-1" d="M-17.84,6.57,150-55.23,188.16,48.43,20.34,110.24" transform="translate(17.84 55.23)"/></g></g></g></svg>